<?xml version="1.0" encoding="utf-8"?>
<!-- Generator: Adobe Illustrator 24.0.2, SVG Export Plug-In . SVG Version: 6.00 Build 0)  -->
<svg version="1.1" xmlns="http://www.w3.org/2000/svg" xmlns:xlink="http://www.w3.org/1999/xlink" x="0px" y="0px"
	 viewBox="0 0 104.3 178.4" style="enable-background:new 0 0 104.3 178.4;" xml:space="preserve">
<style type="text/css">
	.st0{fill:#FF0A4F;}
	.st1{fill:#00AA69;}
	.st2{fill:#D10A4F;}
</style>
<g id="darn_that_annoying_fine_white_line">
	<rect x="46.2" y="32" class="st0" width="12.3" height="146.4"/>
	<rect x="49.2" y="1" class="st1" width="5.9" height="37.3"/>
</g>
<g id="body_base">
	<g>
		<path class="st0" d="M52.1,37.1c-4.8-2.1-13-4.7-23-3.8c-5.3,0.4-13.4,1.2-19.9,7.1c-3.4,3.1-5.2,6.7-5.9,7.9
			c-2.3,4.4-3,8.4-3.3,11c0,5.8,0,11.6,0,17.4c0.7,5.9,1.8,14,3.6,23.7c3.1,16.5,5.6,29.8,12,44.7c3.7,8.6,10,20.5,20.7,33.3
			c5.3,0,10.6,0,15.8,0C52.1,131.3,52.1,84.2,52.1,37.1z"/>
		<path class="st0" d="M52.1,37.1c4.8-2.1,13-4.7,23-3.8c5.3,0.4,13.4,1.2,19.9,7.1c3.4,3.1,5.2,6.7,5.9,7.9c2.3,4.4,3,8.4,3.3,11
			c0,5.8,0,11.6,0,17.4c-0.7,5.9-1.8,14-3.6,23.7c-3.1,16.5-5.6,29.8-12,44.7c-3.7,8.6-10,20.5-20.7,33.3c-5.3,0-10.6,0-15.8,0
			C52.1,131.3,52.1,84.2,52.1,37.1z"/>
	</g>
</g>
<g id="body_texture">
	<circle class="st2" cx="15.3" cy="61.1" r="6.9"/>
	<circle class="st2" cx="56.4" cy="54.2" r="6.9"/>
	<circle class="st2" cx="91.4" cy="64.1" r="6.9"/>
	<circle class="st2" cx="38.4" cy="75.9" r="6.9"/>
	<circle class="st2" cx="17" cy="94.9" r="6.9"/>
	<circle class="st2" cx="29.1" cy="121.2" r="6.9"/>
	<circle class="st2" cx="33" cy="150.6" r="6.9"/>
	<circle class="st2" cx="54.8" cy="164.6" r="6.9"/>
	<circle class="st2" cx="56.4" cy="135" r="6.9"/>
	<circle class="st2" cx="75.2" cy="146.2" r="6.9"/>
	<circle class="st2" cx="49.5" cy="102" r="6.9"/>
	<circle class="st2" cx="75.2" cy="116.9" r="6.9"/>
	<circle class="st2" cx="91.4" cy="98.2" r="6.9"/>
	<circle class="st2" cx="70.1" cy="82.8" r="6.9"/>
</g>
<g id="top_base">
	<path class="st1" d="M52.1,1c-1.1-0.5-4.8-2-7.4,0c-3.9,3.1-2.4,11.8-2,14.4c0.8,5.7,3,10.1,4.9,12.9C44,22,40.8,16.6,38.1,12.1
		c-3.5-5.7-4.9-7.9-7.7-9c-5-2.1-9.9,1.1-11,1.8c-1.3,0.8-6.9,4.5-6.6,9.3c0.2,3.8,4,6.2,6.9,8.1c2.9,1.9,5.6,2.7,7.4,3
		c-1.9-0.9-6.1-2.6-11.5-1.5c-3,0.6-5.7,0.9-7.7,3.6c-1.9,2.6-2.4,6.5-1.5,9.6c1.2,4.2,4.7,6,7.1,7.2c6.4,3.2,12.5,2,19.4,0.6
		c4.8-1,8.8-2.4,11.2-3.3c3.3-1.2,6-2.4,7.9-3.3C52.1,25.8,52.1,13.4,52.1,1z"/>
	<path class="st1" d="M52.1,1c1.1-0.5,4.8-2,7.4,0c3.9,3.1,2.4,11.8,2,14.4c-0.8,5.7-3,10.1-4.9,12.9c3.5-6.3,6.7-11.8,9.4-16.2
		c3.5-5.7,4.9-7.9,7.7-9c5-2.1,9.9,1.1,11,1.8c1.3,0.8,6.9,4.5,6.6,9.3c-0.2,3.8-4,6.2-6.9,8.1c-2.9,1.9-5.6,2.7-7.4,3
		c1.9-0.9,6.1-2.6,11.5-1.5c3,0.6,5.7,0.9,7.7,3.6c1.9,2.6,2.4,6.5,1.5,9.6c-1.2,4.2-4.7,6-7.1,7.2c-6.4,3.2-12.5,2-19.4,0.6
		c-4.8-1-8.8-2.4-11.2-3.3c-3.3-1.2-6-2.4-7.9-3.3C52.1,25.8,52.1,13.4,52.1,1z"/>
</g>
</svg>
