<?xml version="1.0" encoding="utf-8"?>
<!-- Generator: Adobe Illustrator 24.0.2, SVG Export Plug-In . SVG Version: 6.00 Build 0)  -->
<svg version="1.1" xmlns="http://www.w3.org/2000/svg" xmlns:xlink="http://www.w3.org/1999/xlink" x="0px" y="0px"
	 viewBox="0 0 288 560" style="enable-background:new 0 0 288 560;" xml:space="preserve">
<style type="text/css">
	.st0{fill:#96D9FB;}
	.st1{fill:none;}
	.st2{fill:none;stroke:#638EA3;stroke-width:2;stroke-miterlimit:10;}
</style>
<g id="blue_blob_1_">
	<path class="st0" d="M268.9,375.3c-28.3,12.8-35.7-11.9-46.6,6c-9.7,15.8-27.6-12.1-51.1-0.5c-14.7,7.3-45.5,12.2-57.2,0
		c-13.3-13.8-32-3.9-42.8,2.5c-3.3,2-22.9,3.2-25.3-3.5c-6-16.9-34.1-3.9-24.4-14.4c7.2-7.8,15.8-96.4,45.5-148.3
		c21.9-38.3,62-45,87-45c22.5,0,70.8,18.5,84.6,57.6C262.5,297.4,279.3,370.6,268.9,375.3z"/>
	<path class="st0" d="M56.2,388.2"/>
</g>
<g id="shadows_and_stuff">
	<path class="st1" d="M44.9,369.3c2.5-3.5,5.1-7.1,6.3-11.2c0.8-2.9,1-5.9,1.1-8.9c1.7-34.8,7.2-69.4,16.4-103"/>
	<path class="st2" d="M226.6,371.3c2.9-5.8,2.5-27.3,1.5-46.3c-1-20.4-7.8-51.1-8.2-55.1c-1-10.7-1.5-29.3-12.8-43.5"/>
	<path class="st2" d="M42.9,370.4c5-8,10.1-16.2,12.1-25.4c1-4.8,1.2-9.7,1.6-14.6c2-22.3,9.7-43.7,13-65.8
		c1.9-12.8,2.6-26.6,10.9-36.6"/>
	<path class="st2" d="M106.2,370.8c14-31.3-2.2-92.7,10.6-122.7"/>
	<path class="st2" d="M180.7,375.5c2.8-15,2.3-27.6,1.1-42.7c-1.4-18.5-4.3-39.4-8.6-57.4c-1-4.1-1.9-8.2-2.9-12.2
		c-1.6-6.6-2.3-11-0.7-17"/>
</g>
</svg>
