<?xml version="1.0" encoding="utf-8"?>
<!-- Generator: Adobe Illustrator 24.0.2, SVG Export Plug-In . SVG Version: 6.00 Build 0)  -->
<svg version="1.1" xmlns="http://www.w3.org/2000/svg" xmlns:xlink="http://www.w3.org/1999/xlink" x="0px" y="0px"
	 viewBox="0 0 322.1 178.4" style="enable-background:new 0 0 322.1 178.4;" xml:space="preserve">
<style type="text/css">
	.st0{fill:none;stroke:#00B04C;stroke-width:10;stroke-miterlimit:10;}
	.st1{fill:#6A5028;}
	.st2{fill:#C07F3B;}
	.st3{fill:#DF9348;}
	.st4{fill:#992F78;}
	.st5{fill:#C04097;}
	.st6{fill:#FFFE54;}
</style>
<g id="stem__x2B__pot">
	<g id="Layer_79">
		<path class="st0" d="M152.8,119.7c0-8.3,8.2-13.1,8.5-20.7c0.1-4.7,2.2-19.6,0-31.4c-3.8-20.9-29.4-25.5-20.6-46.8
			c3.2-7.8,20.4-12.4,34.4,1"/>
	</g>
	<g id="Layer_78">
		<path class="st0" d="M161.1,100.6c0.2-9.6,74.2,14.1,99.4-11.4"/>
	</g>
	<g id="Layer_77">
		<path class="st0" d="M157.4,55.4c-13.5-1.6-31.3-0.4-43.9,14.3c-21.4,24.8-13.8,50.2-53.7,44.1"/>
	</g>
	<g id="Layer_82">
		<path class="st1" d="M199.5,131.3c0.4-1.5,0.4-2.6,0.1-3.6c-0.3-0.9-0.9-1-1.7-1.9c-1.1-1.3-1.6-2-2.3-2.3c-1.4-0.6-1.5-0.1-1.9,0
			c-0.5,0.1-2.8-0.2-3.4-0.7c-1.3-1.1-2.8-1.5-2.9-1.6c0,0,0,0,0,0c0,0,0,0-0.1-0.1c-0.8-0.2-2.1-0.3-3.1,0
			c-1.1,0.3-1.1,0.5-2.6,0.9c0,0,0,0,0,0c0,0-1.3-0.2-2.8-0.4c-0.2,0-0.4,0-0.4-0.1c-1.8-0.5-3.6,0.4-3.6,0.4c-1.3,0-1.8-0.1-2-0.2
			c-1.1-0.4-0.9,0-3.5-0.3c-3.1-0.3-1.6-2.4-6.8-2.3c-1.8,0-1.8,1-3.7,0.2c-3.4-1.4-6.4,0.8-9.6-0.8c-3-1.5-6.2,0.7-9.6,1.7
			c-2.6,0.8-4.3,0.4-5.6,1.2c-1.3,0.7-0.9,0.6-2.7,0.8c-2.2,0.2-3.9,0.7-5.7,0.6c-2.2-0.2-1-0.6-3.2-0.4c-1.6,0.1-2.4,1.7-5.9,1
			c-2.3-0.4-2.4-1.2-3.5-0.7c-1.6,0.8-4.6,0.8-4.4,2.4c0.1,1.3-2.5,1.1-2.6,2.6c-0.1,0.7,0.1,1.5,0.5,2.4c0,0,0.9,2,2.8,3.3
			C115.3,137.6,189.4,132,199.5,131.3z"/>
	</g>
	<g id="Layer_81">
		<path class="st2" d="M192.5,178.4h-79.5c-2,0-3.8-3.5-4.3-8.4l-2.5-24.8c-0.7-7.1,1.4-14,4.3-14H195c2.9,0,5,6.9,4.3,14l-2.5,24.8
			C196.3,174.9,194.5,178.4,192.5,178.4z"/>
	</g>
	<g id="Layer_80">
		<path class="st3" d="M201.5,143.5H104c-1.9,0-3.4-1.5-3.4-3.4v-8.3c0-1.9,1.5-3.4,3.4-3.4h97.5c1.9,0,3.4,1.5,3.4,3.4v8.3
			C204.9,142,203.4,143.5,201.5,143.5z"/>
	</g>
</g>
<g id="petals">
	
		<ellipse id="petals_24_" transform="matrix(0.8388 -0.5445 0.5445 0.8388 16.3862 98.5777)" class="st4" cx="174.7" cy="21.6" rx="3.5" ry="18"/>
	
		<ellipse id="petals_23_" transform="matrix(0.8388 -0.5445 0.5445 0.8388 -3.726654e-02 117.7941)" class="st4" cx="198.9" cy="59" rx="3.5" ry="18"/>
	
		<ellipse id="petals_22_" transform="matrix(0.4563 -0.8898 0.8898 0.4563 63.9626 164.9507)" class="st4" cx="167" cy="30.1" rx="3.5" ry="18"/>
	
		<ellipse id="petals_21_" transform="matrix(0.4563 -0.8898 0.8898 0.4563 67.4209 211.2429)" class="st4" cx="206.6" cy="50.4" rx="3.5" ry="18"/>
	
		<ellipse id="petals_20_" transform="matrix(0.9998 -1.749077e-02 1.749077e-02 0.9998 -0.6863 2.8838)" class="st4" cx="164.5" cy="40.7" rx="18" ry="3.5"/>
	
		<ellipse id="petals_19_" transform="matrix(0.9998 -1.749077e-02 1.749077e-02 0.9998 -0.6659 3.6622)" class="st4" cx="209" cy="39.9" rx="18" ry="3.5"/>
	
		<ellipse id="petals_18_" transform="matrix(0.8584 -0.513 0.513 0.8584 -2.7829 93.3343)" class="st4" cx="167.7" cy="51.7" rx="18" ry="3.5"/>
	
		<ellipse id="petals_17_" transform="matrix(0.8584 -0.513 0.513 0.8584 14.3439 109.704)" class="st4" cx="205.9" cy="28.9" rx="18" ry="3.5"/>
	
		<ellipse id="petals_16_" transform="matrix(0.478 -0.8784 0.8784 0.478 39.3838 185.9509)" class="st4" cx="176.1" cy="59.8" rx="18" ry="3.5"/>
	
		<ellipse id="petals_15_" transform="matrix(0.478 -0.8784 0.8784 0.478 84.8394 184.2291)" class="st4" cx="197.4" cy="20.7" rx="18" ry="3.5"/>
	
		<ellipse id="petals_14_" transform="matrix(0.9997 -2.281180e-02 2.281180e-02 0.9997 -1.378 4.2886)" class="st4" cx="187.3" cy="62.5" rx="3.5" ry="18"/>
	
		<ellipse id="petals_4_" transform="matrix(0.9997 -2.281180e-02 2.281180e-02 0.9997 -0.363 4.2538)" class="st4" cx="186.3" cy="18" rx="3.5" ry="18"/>
	
		<ellipse id="petals_13_" transform="matrix(0.6691 -0.7432 0.7432 0.6691 37.459 134.9188)" class="st5" cx="170.2" cy="25.4" rx="3.5" ry="18"/>
	
		<ellipse id="petals_12_" transform="matrix(0.6691 -0.7432 0.7432 0.6691 26.2704 169.3644)" class="st5" cx="203.3" cy="55.2" rx="3.5" ry="18"/>
	
		<ellipse id="petals_11_" transform="matrix(0.2102 -0.9777 0.9777 0.2102 95.5101 189.4502)" class="st5" cx="165" cy="35.6" rx="3.5" ry="18"/>
	
		<ellipse id="petals_10_" transform="matrix(0.2102 -0.9777 0.9777 0.2102 120.7342 239.3928)" class="st5" cx="208.5" cy="45" rx="3.5" ry="18"/>
	
		<ellipse id="petals_9_" transform="matrix(0.9612 -0.2759 0.2759 0.9612 -6.3913 47.4389)" class="st5" cx="165.4" cy="46.4" rx="18" ry="3.5"/>
	
		<ellipse id="petals_8_" transform="matrix(0.9612 -0.2759 0.2759 0.9612 -1.34 58.7697)" class="st5" cx="208.2" cy="34.1" rx="18" ry="3.5"/>
	
		<ellipse id="petals_7_" transform="matrix(0.6962 -0.7179 0.7179 0.6962 11.6458 140.0533)" class="st5" cx="171.3" cy="56.3" rx="18" ry="3.5"/>
	
		<ellipse id="petals_6_" transform="matrix(0.6962 -0.7179 0.7179 0.6962 44.0046 152.5922)" class="st5" cx="202.3" cy="24.3" rx="18" ry="3.5"/>
	
		<ellipse id="petals_5_" transform="matrix(0.2341 -0.9722 0.9722 0.2341 78.8548 223.9543)" class="st5" cx="181.6" cy="61.9" rx="18" ry="3.5"/>
	
		<ellipse id="petals_3_" transform="matrix(0.2341 -0.9722 0.9722 0.2341 128.9157 200.9356)" class="st5" cx="192" cy="18.6" rx="18" ry="3.5"/>
	
		<ellipse id="petals_2_" transform="matrix(0.9597 -0.2811 0.2811 0.9597 -9.5466 56.7382)" class="st5" cx="193" cy="61.7" rx="3.5" ry="18"/>
	
		<ellipse id="petals_1_" transform="matrix(0.9597 -0.2811 0.2811 0.9597 1.957 51.4993)" class="st5" cx="180.5" cy="18.9" rx="3.5" ry="18"/>
	
		<ellipse id="petals_48_" transform="matrix(0.8388 -0.5445 0.5445 0.8388 12.368 156.0792)" class="st4" cx="269.7" cy="57.2" rx="3.5" ry="18"/>
	
		<ellipse id="petals_47_" transform="matrix(0.8388 -0.5445 0.5445 0.8388 -4.0554 175.2956)" class="st4" cx="294" cy="94.5" rx="3.5" ry="18"/>
	
		<ellipse id="petals_46_" transform="matrix(0.4563 -0.8898 0.8898 0.4563 84.0391 268.8822)" class="st4" cx="262.1" cy="65.7" rx="3.5" ry="18"/>
	
		<ellipse id="petals_45_" transform="matrix(0.4563 -0.8898 0.8898 0.4563 87.4973 315.1743)" class="st4" cx="301.7" cy="86" rx="3.5" ry="18"/>
	
		<ellipse id="petals_44_" transform="matrix(0.9998 -1.749077e-02 1.749077e-02 0.9998 -1.2933 4.5525)" class="st4" cx="259.6" cy="76.2" rx="18" ry="3.5"/>
	
		<ellipse id="petals_43_" transform="matrix(0.9998 -1.749077e-02 1.749077e-02 0.9998 -1.2729 5.3309)" class="st4" cx="304.1" cy="75.4" rx="18" ry="3.5"/>
	
		<ellipse id="petals_42_" transform="matrix(0.8584 -0.513 0.513 0.8584 -7.5471 147.147)" class="st4" cx="262.8" cy="87.2" rx="18" ry="3.5"/>
	
		<ellipse id="petals_41_" transform="matrix(0.8584 -0.513 0.513 0.8584 9.5796 163.5168)" class="st4" cx="301" cy="64.4" rx="18" ry="3.5"/>
	
		<ellipse id="petals_40_" transform="matrix(0.478 -0.8784 0.8784 0.478 57.8093 288.0266)" class="st4" cx="271.2" cy="95.4" rx="18" ry="3.5"/>
	
		<ellipse id="petals_39_" transform="matrix(0.478 -0.8784 0.8784 0.478 103.2649 286.3047)" class="st4" cx="292.5" cy="56.3" rx="18" ry="3.5"/>
	
		<ellipse id="petals_38_" transform="matrix(0.9997 -2.281180e-02 2.281180e-02 0.9997 -2.1639 6.467)" class="st4" cx="282.4" cy="98.1" rx="3.5" ry="18"/>
	
		<ellipse id="petals_37_" transform="matrix(0.9997 -2.281180e-02 2.281180e-02 0.9997 -1.1488 6.4323)" class="st4" cx="281.4" cy="53.6" rx="3.5" ry="18"/>
	
		<ellipse id="petals_36_" transform="matrix(0.6691 -0.7432 0.7432 0.6691 42.5162 217.3487)" class="st5" cx="265.3" cy="60.9" rx="3.5" ry="18"/>
	
		<ellipse id="petals_35_" transform="matrix(0.6691 -0.7432 0.7432 0.6691 31.3276 251.7943)" class="st5" cx="298.4" cy="90.7" rx="3.5" ry="18"/>
	
		<ellipse id="petals_34_" transform="matrix(0.2102 -0.9777 0.9777 0.2102 135.8688 310.4819)" class="st5" cx="260.1" cy="71.1" rx="3.5" ry="18"/>
	
		<ellipse id="petals_33_" transform="matrix(0.2102 -0.9777 0.9777 0.2102 161.0928 360.4244)" class="st5" cx="303.6" cy="80.5" rx="3.5" ry="18"/>
	
		<ellipse id="petals_32_" transform="matrix(0.9612 -0.2759 0.2759 0.9612 -12.5053 75.0587)" class="st5" cx="260.5" cy="82" rx="18" ry="3.5"/>
	
		<ellipse id="petals_31_" transform="matrix(0.9612 -0.2759 0.2759 0.9612 -7.454 86.3894)" class="st5" cx="303.3" cy="69.7" rx="18" ry="3.5"/>
	
		<ellipse id="petals_30_" transform="matrix(0.6962 -0.7179 0.7179 0.6962 15.0267 219.1137)" class="st5" cx="266.4" cy="91.8" rx="18" ry="3.5"/>
	
		<ellipse id="petals_29_" transform="matrix(0.6962 -0.7179 0.7179 0.6962 47.3855 231.6526)" class="st5" cx="297.4" cy="59.8" rx="18" ry="3.5"/>
	
		<ellipse id="petals_28_" transform="matrix(0.2341 -0.9722 0.9722 0.2341 117.1381 343.6212)" class="st5" cx="276.7" cy="97.5" rx="18" ry="3.5"/>
	
		<ellipse id="petals_27_" transform="matrix(0.2341 -0.9722 0.9722 0.2341 167.1989 320.6026)" class="st5" cx="287.1" cy="54.2" rx="18" ry="3.5"/>
	
		<ellipse id="petals_26_" transform="matrix(0.9597 -0.2811 0.2811 0.9597 -15.7012 84.8966)" class="st5" cx="288.1" cy="97.2" rx="3.5" ry="18"/>
	
		<ellipse id="petals_25_" transform="matrix(0.9597 -0.2811 0.2811 0.9597 -4.1976 79.6578)" class="st5" cx="275.6" cy="54.5" rx="3.5" ry="18"/>
</g>
<g id="centers">
	<circle class="st6" cx="281.9" cy="76.2" r="13.6"/>
	<circle class="st6" cx="186.8" cy="40.3" r="13.6"/>
	
		<ellipse id="petals_96_" transform="matrix(0.8388 -0.5445 0.5445 0.8388 -41.7594 28.8442)" class="st4" cx="27.8" cy="84.9" rx="3.5" ry="18"/>
	
		<ellipse id="petals_95_" transform="matrix(0.8388 -0.5445 0.5445 0.8388 -58.1828 48.0607)" class="st4" cx="52.1" cy="122.3" rx="3.5" ry="18"/>
	
		<ellipse id="petals_94_" transform="matrix(0.4563 -0.8898 0.8898 0.4563 -72.2042 68.727)" class="st4" cx="20.1" cy="93.5" rx="3.5" ry="18"/>
	
		<ellipse id="petals_93_" transform="matrix(0.4563 -0.8898 0.8898 0.4563 -68.7459 115.0192)" class="st4" cx="59.8" cy="113.8" rx="3.5" ry="18"/>
	
		<ellipse id="petals_92_" transform="matrix(0.9998 -1.749077e-02 1.749077e-02 0.9998 -1.8163 0.3253)" class="st4" cx="17.7" cy="104" rx="18" ry="3.5"/>
	
		<ellipse id="petals_91_" transform="matrix(0.9998 -1.749077e-02 1.749077e-02 0.9998 -1.7959 1.1038)" class="st4" cx="62.2" cy="103.2" rx="18" ry="3.5"/>
	
		<ellipse id="petals_90_" transform="matrix(0.8584 -0.513 0.513 0.8584 -56.0575 26.9794)" class="st4" cx="20.8" cy="115" rx="18" ry="3.5"/>
	
		<ellipse id="petals_89_" transform="matrix(0.8584 -0.513 0.513 0.8584 -38.9308 43.3491)" class="st4" cx="59.1" cy="92.2" rx="18" ry="3.5"/>
	
		<ellipse id="petals_88_" transform="matrix(0.478 -0.8784 0.8784 0.478 -92.8826 90.0359)" class="st4" cx="29.3" cy="123.2" rx="18" ry="3.5"/>
	
		<ellipse id="petals_87_" transform="matrix(0.478 -0.8784 0.8784 0.478 -47.427 88.314)" class="st4" cx="50.6" cy="84.1" rx="18" ry="3.5"/>
	
		<ellipse id="petals_86_" transform="matrix(0.9997 -2.281180e-02 2.281180e-02 0.9997 -2.8607 0.9556)" class="st4" cx="40.5" cy="125.9" rx="3.5" ry="18"/>
	
		<ellipse id="petals_85_" transform="matrix(0.9997 -2.281180e-02 2.281180e-02 0.9997 -1.8456 0.9209)" class="st4" cx="39.4" cy="81.4" rx="3.5" ry="18"/>
	
		<ellipse id="petals_84_" transform="matrix(0.6691 -0.7432 0.7432 0.6691 -58.1882 46.7518)" class="st5" cx="23.4" cy="88.7" rx="3.5" ry="18"/>
	
		<ellipse id="petals_83_" transform="matrix(0.6691 -0.7432 0.7432 0.6691 -69.3767 81.1973)" class="st5" cx="56.5" cy="118.5" rx="3.5" ry="18"/>
	
		<ellipse id="petals_82_" transform="matrix(0.2102 -0.9777 0.9777 0.2102 -82.3574 95.9121)" class="st5" cx="18.2" cy="98.9" rx="3.5" ry="18"/>
	
		<ellipse id="petals_81_" transform="matrix(0.2102 -0.9777 0.9777 0.2102 -57.1334 145.8547)" class="st5" cx="61.7" cy="108.3" rx="3.5" ry="18"/>
	
		<ellipse id="petals_80_" transform="matrix(0.9612 -0.2759 0.2759 0.9612 -29.5654 9.3808)" class="st5" cx="18.6" cy="109.8" rx="18" ry="3.5"/>
	
		<ellipse id="petals_79_" transform="matrix(0.9612 -0.2759 0.2759 0.9612 -24.5141 20.7115)" class="st5" cx="61.3" cy="97.5" rx="18" ry="3.5"/>
	
		<ellipse id="petals_78_" transform="matrix(0.6962 -0.7179 0.7179 0.6962 -78.4214 53.8875)" class="st5" cx="24.5" cy="119.6" rx="18" ry="3.5"/>
	
		<ellipse id="petals_77_" transform="matrix(0.6962 -0.7179 0.7179 0.6962 -46.0626 66.4263)" class="st5" cx="55.4" cy="87.6" rx="18" ry="3.5"/>
	
		<ellipse id="petals_76_" transform="matrix(0.2341 -0.9722 0.9722 0.2341 -95.1656 129.7038)" class="st5" cx="34.7" cy="125.3" rx="18" ry="3.5"/>
	
		<ellipse id="petals_75_" transform="matrix(0.2341 -0.9722 0.9722 0.2341 -45.1048 106.6851)" class="st5" cx="45.2" cy="82" rx="18" ry="3.5"/>
	
		<ellipse id="petals_74_" transform="matrix(0.9597 -0.2811 0.2811 0.9597 -33.2619 18.0233)" class="st5" cx="46.2" cy="125" rx="3.5" ry="18"/>
	
		<ellipse id="petals_73_" transform="matrix(0.9597 -0.2811 0.2811 0.9597 -21.7584 12.7845)" class="st5" cx="33.7" cy="82.2" rx="3.5" ry="18"/>
	<circle class="st6" cx="39.9" cy="103.6" r="13.6"/>
</g>
</svg>
