<?xml version="1.0" encoding="utf-8"?>
<!-- Generator: Adobe Illustrator 24.0.2, SVG Export Plug-In . SVG Version: 6.00 Build 0)  -->
<svg version="1.1" xmlns="http://www.w3.org/2000/svg" xmlns:xlink="http://www.w3.org/1999/xlink" x="0px" y="0px"
	 viewBox="0 0 104.3 178.4" style="enable-background:new 0 0 104.3 178.4;" xml:space="preserve">
<style type="text/css">
	.st0{fill:none;stroke:#00B04C;stroke-width:10;stroke-miterlimit:10;}
	.st1{fill:#008639;}
	.st2{fill:#6A5028;}
	.st3{fill:#A93223;}
	.st4{fill:#D33B2A;}
</style>
<g id="stem">
	<path class="st0" d="M51.9,120c0-11.2,14.9-16,5.2-29.9C46.6,75.1,31,73.5,20.2,53.7C8.6,32.4,15.5,15,29.7,9.1
		C45.7,2.4,51.9,6,54.6,12"/>
	<path class="st0" d="M60.2,100.9C60.4,91.3,99,95.2,99,67.5c0-11.8-18.4-18-19.4-13.8"/>
	<path class="st0" d="M28.9,65.5C15.1,59.1,5.2,72.4,5.3,81c0.1,12.5,15.1,23.9,21.5,22.2"/>
	<path class="st1" d="M53.5,9.1c-4.1,2.1-6,6.7-6.1,10.3c-0.1,10.4,15.2,20.2,21.4,16.8c5.7-3.2,6.2-19.1-2-25.3
		C63.7,8.6,58.2,6.6,53.5,9.1z"/>
	<path class="st1" d="M82,50.9c-3.1-3.3-8.1-4-11.6-3.1C60.4,50.5,55.1,68,60,73c4.6,4.6,20,0.8,23.8-8.8
		C85.3,60.6,85.7,54.8,82,50.9z"/>
	<path class="st1" d="M14.8,97.9c-1.7,4.2-0.3,9,2,11.8c6.6,8,24.7,5.6,27.1-1c2.3-6.1-7.6-18.6-17.9-18
		C22.3,90.9,16.9,92.9,14.8,97.9z"/>
</g>
<g id="pot">
	<g id="dirt">
		<path class="st2" d="M98.9,131.3c0.4-1.5,0.4-2.6,0.1-3.6c-0.3-0.9-0.9-1-1.7-1.9c-1.1-1.3-1.6-2-2.3-2.3c-1.4-0.6-1.5-0.1-1.9,0
			c-0.5,0.1-2.8-0.2-3.4-0.7c-1.3-1.1-2.8-1.5-2.9-1.6c0,0,0,0,0,0c0,0,0,0-0.1-0.1c-0.8-0.2-2.1-0.3-3.1,0
			c-1.1,0.3-1.1,0.5-2.6,0.9c0,0,0,0,0,0c0,0-1.3-0.2-2.8-0.4c-0.2,0-0.4,0-0.4-0.1c-1.8-0.5-3.6,0.4-3.6,0.4c-1.3,0-1.8-0.1-2-0.2
			c-1.1-0.4-0.9,0-3.5-0.3c-3.1-0.3-1.6-2.4-6.8-2.3c-1.8,0-1.8,1-3.7,0.2c-3.4-1.4-6.4,0.8-9.6-0.8c-3-1.5-6.2,0.7-9.6,1.7
			c-2.6,0.8-4.3,0.4-5.6,1.2c-1.3,0.7-0.9,0.6-2.7,0.8c-2.2,0.2-3.9,0.7-5.7,0.6c-2.2-0.2-1-0.6-3.2-0.4c-1.6,0.1-2.4,1.7-5.9,1
			c-2.3-0.4-2.4-1.2-3.5-0.7c-1.6,0.8-4.6,0.8-4.4,2.4c0.1,1.3-2.5,1.1-2.6,2.6c-0.1,0.7,0.1,1.5,0.5,2.4c0,0,0.9,2,2.8,3.3
			C14.6,137.6,88.7,132,98.9,131.3z"/>
	</g>
	<polygon class="st3" points="84.6,178.4 19.7,178.4 8.9,139.2 95.4,139.2 	"/>
	<path class="st4" d="M100.9,143.5H3.4c-1.9,0-3.4-1.5-3.4-3.4v-8.3c0-1.9,1.5-3.4,3.4-3.4h97.5c1.9,0,3.4,1.5,3.4,3.4v8.3
		C104.3,142,102.8,143.5,100.9,143.5z"/>
</g>
</svg>
