<?xml version="1.0" encoding="utf-8"?>
<!-- Generator: Adobe Illustrator 24.0.2, SVG Export Plug-In . SVG Version: 6.00 Build 0)  -->
<svg version="1.1" id="new" xmlns="http://www.w3.org/2000/svg" xmlns:xlink="http://www.w3.org/1999/xlink" x="0px" y="0px"
	 viewBox="0 0 322.1 178.4" style="enable-background:new 0 0 322.1 178.4;" xml:space="preserve">
<style type="text/css">
	.st0{fill:none;stroke:#00B04C;stroke-width:10;stroke-miterlimit:10;}
	.st1{fill:#6A5028;}
	.st2{fill:#A93223;}
	.st3{fill:#D33B2A;}
	.st4{fill:#D79E02;}
	.st5{fill:#FFC62A;}
	.st6{fill:#FFFE54;}
</style>
<path class="st0" d="M152.9,119.6c0-8.3,8.2-13.1,8.5-20.7c0.1-4.7,2.2-19.6,0-31.4C157.6,46.6,132,42,140.8,20.8
	c3.2-7.8,20.4-12.4,34.4,1"/>
<path class="st1" d="M199.6,131.2c0.4-1.5,0.4-2.6,0.1-3.6c-0.3-0.9-0.9-1-1.7-1.9c-1.1-1.3-1.6-2-2.3-2.3c-1.4-0.6-1.5-0.1-1.9,0
	c-0.5,0.1-2.8-0.2-3.4-0.7c-1.3-1.1-2.8-1.5-2.9-1.6c0,0,0,0,0,0c0,0,0,0-0.1-0.1c-0.8-0.2-2.1-0.3-3.1,0c-1.1,0.3-1.1,0.5-2.6,0.9
	c0,0,0,0,0,0c0,0-1.3-0.2-2.8-0.4c-0.2,0-0.4,0-0.4-0.1c-1.8-0.5-3.6,0.4-3.6,0.4c-1.3,0-1.8-0.1-2-0.2c-1.1-0.4-0.9,0-3.5-0.3
	c-3.1-0.3-1.6-2.4-6.8-2.3c-1.8,0-1.8,1-3.7,0.2c-3.4-1.4-6.4,0.8-9.6-0.8c-3-1.5-6.2,0.7-9.6,1.7c-2.6,0.8-4.3,0.4-5.6,1.2
	c-1.3,0.7-0.9,0.6-2.7,0.8c-2.2,0.2-3.9,0.7-5.7,0.6c-2.2-0.2-1-0.6-3.2-0.4c-1.6,0.1-2.4,1.7-5.9,1c-2.3-0.4-2.4-1.2-3.5-0.7
	c-1.6,0.8-4.6,0.8-4.4,2.4c0.1,1.3-2.5,1.1-2.6,2.6c-0.1,0.7,0.1,1.5,0.5,2.4c0,0,0.9,2,2.8,3.3C115.4,137.6,189.5,132,199.6,131.2z
	"/>
<polygon class="st2" points="185.3,178.4 120.5,178.4 109.7,139.2 196.1,139.2 "/>
<path class="st3" d="M201.7,143.5h-97.5c-1.9,0-3.4-1.5-3.4-3.4v-8.3c0-1.9,1.5-3.4,3.4-3.4h97.5c1.9,0,3.4,1.5,3.4,3.4v8.3
	C205.1,141.9,203.5,143.5,201.7,143.5z"/>
<path class="st0" d="M161.2,100.6c0.2-9.6,74.2,14.1,99.4-11.4"/>
<path class="st0" d="M157.6,55.4c-13.5-1.6-31.3-0.4-43.9,14.3c-21.4,24.8-13.8,50.2-53.7,44.1"/>
<ellipse id="petals_144_" transform="matrix(0.8388 -0.5445 0.5445 0.8388 16.4284 98.6469)" class="st4" cx="174.8" cy="21.6" rx="3.5" ry="18"/>
<ellipse id="petals_143_" transform="matrix(0.8388 -0.5445 0.5445 0.8388 5.007156e-03 117.8633)" class="st4" cx="199" cy="58.9" rx="3.5" ry="18"/>
<ellipse id="petals_142_" transform="matrix(0.4563 -0.8898 0.8898 0.4563 64.0704 165.0535)" class="st4" cx="167.1" cy="30.1" rx="3.5" ry="18"/>
<ellipse id="petals_141_" transform="matrix(0.4563 -0.8898 0.8898 0.4563 67.5286 211.3457)" class="st4" cx="206.7" cy="50.4" rx="3.5" ry="18"/>
<ellipse id="petals_140_" transform="matrix(0.9998 -1.749077e-02 1.749077e-02 0.9998 -0.6857 2.8862)" class="st4" cx="164.7" cy="40.6" rx="18" ry="3.5"/>
<ellipse id="petals_139_" transform="matrix(0.9998 -1.749077e-02 1.749077e-02 0.9998 -0.6652 3.6646)" class="st4" cx="209.2" cy="39.9" rx="18" ry="3.5"/>
<ellipse id="petals_138_" transform="matrix(0.8584 -0.513 0.513 0.8584 -2.7445 93.3999)" class="st4" cx="167.8" cy="51.7" rx="18" ry="3.5"/>
<ellipse id="petals_137_" transform="matrix(0.8584 -0.513 0.513 0.8584 14.3823 109.7696)" class="st4" cx="206" cy="28.8" rx="18" ry="3.5"/>
<ellipse id="petals_136_" transform="matrix(0.478 -0.8784 0.8784 0.478 39.4882 186.053)" class="st4" cx="176.3" cy="59.8" rx="18" ry="3.5"/>
<ellipse id="petals_135_" transform="matrix(0.478 -0.8784 0.8784 0.478 84.9438 184.3311)" class="st4" cx="197.6" cy="20.7" rx="18" ry="3.5"/>
<ellipse id="petals_134_" transform="matrix(0.9997 -2.281180e-02 2.281180e-02 0.9997 -1.3771 4.2917)" class="st4" cx="187.4" cy="62.5" rx="3.5" ry="18"/>
<ellipse id="petals_133_" transform="matrix(0.9997 -2.281180e-02 2.281180e-02 0.9997 -0.3621 4.2569)" class="st4" cx="186.4" cy="18" rx="3.5" ry="18"/>
<ellipse id="petals_132_" transform="matrix(0.6691 -0.7432 0.7432 0.6691 37.532 135.0092)" class="st5" cx="170.4" cy="25.4" rx="3.5" ry="18"/>
<ellipse id="petals_131_" transform="matrix(0.6691 -0.7432 0.7432 0.6691 26.3434 169.4548)" class="st5" cx="203.5" cy="55.1" rx="3.5" ry="18"/>
<ellipse id="petals_130_" transform="matrix(0.2102 -0.9777 0.9777 0.2102 95.6551 189.5561)" class="st5" cx="165.2" cy="35.6" rx="3.5" ry="18"/>
<ellipse id="petals_129_" transform="matrix(0.2102 -0.9777 0.9777 0.2102 120.8791 239.4986)" class="st5" cx="208.7" cy="44.9" rx="3.5" ry="18"/>
<ellipse id="petals_128_" transform="matrix(0.9612 -0.2759 0.2759 0.9612 -6.3758 47.4756)" class="st5" cx="165.5" cy="46.4" rx="18" ry="3.5"/>
<ellipse id="petals_127_" transform="matrix(0.9612 -0.2759 0.2759 0.9612 -1.3245 58.8064)" class="st5" cx="208.3" cy="34.1" rx="18" ry="3.5"/>
<ellipse id="petals_126_" transform="matrix(0.6962 -0.7179 0.7179 0.6962 11.7141 140.1412)" class="st5" cx="171.4" cy="56.2" rx="18" ry="3.5"/>
<ellipse id="petals_125_" transform="matrix(0.6962 -0.7179 0.7179 0.6962 44.0729 152.6801)" class="st5" cx="202.4" cy="24.3" rx="18" ry="3.5"/>
<ellipse id="petals_124_" transform="matrix(0.2341 -0.9722 0.9722 0.2341 78.9963 224.0603)" class="st5" cx="181.7" cy="61.9" rx="18" ry="3.5"/>
<ellipse id="petals_123_" transform="matrix(0.2341 -0.9722 0.9722 0.2341 129.0571 201.0416)" class="st5" cx="192.1" cy="18.6" rx="18" ry="3.5"/>
<ellipse id="petals_122_" transform="matrix(0.9597 -0.2811 0.2811 0.9597 -9.5307 56.7755)" class="st5" cx="193.2" cy="61.6" rx="3.5" ry="18"/>
<ellipse id="petals_121_" transform="matrix(0.9597 -0.2811 0.2811 0.9597 1.9729 51.5366)" class="st5" cx="180.7" cy="18.9" rx="3.5" ry="18"/>
<ellipse id="petals_120_" transform="matrix(0.8388 -0.5445 0.5445 0.8388 12.4103 156.1484)" class="st4" cx="269.9" cy="57.1" rx="3.5" ry="18"/>
<ellipse id="petals_119_" transform="matrix(0.8388 -0.5445 0.5445 0.8388 -4.0131 175.3648)" class="st4" cx="294.1" cy="94.5" rx="3.5" ry="18"/>
<ellipse id="petals_118_" transform="matrix(0.4563 -0.8898 0.8898 0.4563 84.1468 268.985)" class="st4" cx="262.2" cy="65.6" rx="3.5" ry="18"/>
<ellipse id="petals_117_" transform="matrix(0.4563 -0.8898 0.8898 0.4563 87.605 315.2772)" class="st4" cx="301.8" cy="85.9" rx="3.5" ry="18"/>
<ellipse id="petals_116_" transform="matrix(0.9998 -1.749077e-02 1.749077e-02 0.9998 -1.2927 4.5549)" class="st4" cx="259.7" cy="76.2" rx="18" ry="3.5"/>
<ellipse id="petals_115_" transform="matrix(0.9998 -1.749077e-02 1.749077e-02 0.9998 -1.2722 5.3333)" class="st4" cx="304.3" cy="75.4" rx="18" ry="3.5"/>
<ellipse id="petals_114_" transform="matrix(0.8584 -0.513 0.513 0.8584 -7.5087 147.2126)" class="st4" cx="262.9" cy="87.2" rx="18" ry="3.5"/>
<ellipse id="petals_113_" transform="matrix(0.8584 -0.513 0.513 0.8584 9.618 163.5824)" class="st4" cx="301.1" cy="64.4" rx="18" ry="3.5"/>
<ellipse id="petals_112_" transform="matrix(0.478 -0.8784 0.8784 0.478 57.9137 288.1286)" class="st4" cx="271.4" cy="95.3" rx="18" ry="3.5"/>
<ellipse id="petals_111_" transform="matrix(0.478 -0.8784 0.8784 0.478 103.3692 286.4067)" class="st4" cx="292.6" cy="56.2" rx="18" ry="3.5"/>
<ellipse id="petals_110_" transform="matrix(0.9997 -2.281180e-02 2.281180e-02 0.9997 -2.163 6.4701)" class="st4" cx="282.5" cy="98" rx="3.5" ry="18"/>
<ellipse id="petals_109_" transform="matrix(0.9997 -2.281180e-02 2.281180e-02 0.9997 -1.148 6.4354)" class="st4" cx="281.5" cy="53.5" rx="3.5" ry="18"/>
<ellipse id="petals_108_" transform="matrix(0.6691 -0.7432 0.7432 0.6691 42.5892 217.4391)" class="st5" cx="265.5" cy="60.9" rx="3.5" ry="18"/>
<ellipse id="petals_107_" transform="matrix(0.6691 -0.7432 0.7432 0.6691 31.4006 251.8846)" class="st5" cx="298.5" cy="90.7" rx="3.5" ry="18"/>
<ellipse id="petals_106_" transform="matrix(0.2102 -0.9777 0.9777 0.2102 136.0137 310.5877)" class="st5" cx="260.2" cy="71.1" rx="3.5" ry="18"/>
<ellipse id="petals_105_" transform="matrix(0.2102 -0.9777 0.9777 0.2102 161.2378 360.5303)" class="st5" cx="303.8" cy="80.5" rx="3.5" ry="18"/>
<ellipse id="petals_104_" transform="matrix(0.9612 -0.2759 0.2759 0.9612 -12.4898 75.0953)" class="st5" cx="260.6" cy="81.9" rx="18" ry="3.5"/>
<ellipse id="petals_103_" transform="matrix(0.9612 -0.2759 0.2759 0.9612 -7.4385 86.4261)" class="st5" cx="303.4" cy="69.6" rx="18" ry="3.5"/>
<ellipse id="petals_102_" transform="matrix(0.6962 -0.7179 0.7179 0.6962 15.095 219.2016)" class="st5" cx="266.5" cy="91.8" rx="18" ry="3.5"/>
<ellipse id="petals_101_" transform="matrix(0.6962 -0.7179 0.7179 0.6962 47.4538 231.7405)" class="st5" cx="297.5" cy="59.8" rx="18" ry="3.5"/>
<ellipse id="petals_100_" transform="matrix(0.2341 -0.9722 0.9722 0.2341 117.2795 343.7272)" class="st5" cx="276.8" cy="97.4" rx="18" ry="3.5"/>
<ellipse id="petals_99_" transform="matrix(0.2341 -0.9722 0.9722 0.2341 167.3404 320.7086)" class="st5" cx="287.2" cy="54.1" rx="18" ry="3.5"/>
<ellipse id="petals_98_" transform="matrix(0.9597 -0.2811 0.2811 0.9597 -15.6853 84.9339)" class="st5" cx="288.3" cy="97.2" rx="3.5" ry="18"/>
<ellipse id="petals_97_" transform="matrix(0.9597 -0.2811 0.2811 0.9597 -4.1817 79.6951)" class="st5" cx="275.7" cy="54.4" rx="3.5" ry="18"/>
<circle class="st6" cx="282" cy="76.2" r="13.6"/>
<circle class="st6" cx="186.9" cy="40.3" r="13.6"/>
<ellipse id="petals_47_" transform="matrix(0.8388 -0.5445 0.5445 0.8388 -41.7171 28.9134)" class="st4" cx="28" cy="84.9" rx="3.5" ry="18"/>
<ellipse id="petals_46_" transform="matrix(0.8388 -0.5445 0.5445 0.8388 -58.1405 48.1299)" class="st4" cx="52.2" cy="122.2" rx="3.5" ry="18"/>
<ellipse id="petals_45_" transform="matrix(0.4563 -0.8898 0.8898 0.4563 -72.0964 68.8298)" class="st4" cx="20.3" cy="93.4" rx="3.5" ry="18"/>
<ellipse id="petals_44_" transform="matrix(0.4563 -0.8898 0.8898 0.4563 -68.6382 115.122)" class="st4" cx="59.9" cy="113.7" rx="3.5" ry="18"/>
<ellipse id="petals_43_" transform="matrix(0.9998 -1.749077e-02 1.749077e-02 0.9998 -1.8157 0.3278)" class="st4" cx="17.8" cy="104" rx="18" ry="3.5"/>
<ellipse id="petals_42_" transform="matrix(0.9998 -1.749077e-02 1.749077e-02 0.9998 -1.7952 1.1062)" class="st4" cx="62.3" cy="103.2" rx="18" ry="3.5"/>
<ellipse id="petals_41_" transform="matrix(0.8584 -0.513 0.513 0.8584 -56.0191 27.045)" class="st4" cx="21" cy="115" rx="18" ry="3.5"/>
<ellipse id="petals_40_" transform="matrix(0.8584 -0.513 0.513 0.8584 -38.8924 43.4147)" class="st4" cx="59.2" cy="92.2" rx="18" ry="3.5"/>
<ellipse id="petals_39_" transform="matrix(0.478 -0.8784 0.8784 0.478 -92.7782 90.1379)" class="st4" cx="29.4" cy="123.1" rx="18" ry="3.5"/>
<ellipse id="petals_38_" transform="matrix(0.478 -0.8784 0.8784 0.478 -47.3227 88.416)" class="st4" cx="50.7" cy="84" rx="18" ry="3.5"/>
<ellipse id="petals_37_" transform="matrix(0.9997 -2.281180e-02 2.281180e-02 0.9997 -2.8598 0.9587)" class="st4" cx="40.6" cy="125.8" rx="3.5" ry="18"/>
<ellipse id="petals_36_" transform="matrix(0.9997 -2.281180e-02 2.281180e-02 0.9997 -1.8448 0.924)" class="st4" cx="39.6" cy="81.3" rx="3.5" ry="18"/>
<ellipse id="petals_35_" transform="matrix(0.6691 -0.7432 0.7432 0.6691 -58.1152 46.8421)" class="st5" cx="23.5" cy="88.7" rx="3.5" ry="18"/>
<ellipse id="petals_34_" transform="matrix(0.6691 -0.7432 0.7432 0.6691 -69.3037 81.2877)" class="st5" cx="56.6" cy="118.5" rx="3.5" ry="18"/>
<ellipse id="petals_33_" transform="matrix(0.2102 -0.9777 0.9777 0.2102 -82.2125 96.018)" class="st5" cx="18.3" cy="98.9" rx="3.5" ry="18"/>
<ellipse id="petals_32_" transform="matrix(0.2102 -0.9777 0.9777 0.2102 -56.9884 145.9606)" class="st5" cx="61.8" cy="108.3" rx="3.5" ry="18"/>
<ellipse id="petals_31_" transform="matrix(0.9612 -0.2759 0.2759 0.9612 -29.5499 9.4174)" class="st5" cx="18.7" cy="109.7" rx="18" ry="3.5"/>
<ellipse id="petals_30_" transform="matrix(0.9612 -0.2759 0.2759 0.9612 -24.4986 20.7482)" class="st5" cx="61.5" cy="97.4" rx="18" ry="3.5"/>
<ellipse id="petals_29_" transform="matrix(0.6962 -0.7179 0.7179 0.6962 -78.3531 53.9753)" class="st5" cx="24.6" cy="119.6" rx="18" ry="3.5"/>
<ellipse id="petals_28_" transform="matrix(0.6962 -0.7179 0.7179 0.6962 -45.9943 66.5142)" class="st5" cx="55.6" cy="87.6" rx="18" ry="3.5"/>
<ellipse id="petals_27_" transform="matrix(0.2341 -0.9722 0.9722 0.2341 -95.0242 129.8098)" class="st5" cx="34.9" cy="125.2" rx="18" ry="3.5"/>
<ellipse id="petals_26_" transform="matrix(0.2341 -0.9722 0.9722 0.2341 -44.9633 106.7911)" class="st5" cx="45.3" cy="81.9" rx="18" ry="3.5"/>
<ellipse id="petals_25_" transform="matrix(0.9597 -0.2811 0.2811 0.9597 -33.246 18.0606)" class="st5" cx="46.3" cy="124.9" rx="3.5" ry="18"/>
<ellipse id="petals_4_" transform="matrix(0.9597 -0.2811 0.2811 0.9597 -21.7425 12.8218)" class="st5" cx="33.8" cy="82.2" rx="3.5" ry="18"/>
<circle class="st6" cx="40.1" cy="103.6" r="13.6"/>
</svg>
