<?xml version="1.0" encoding="utf-8"?>
<!-- Generator: Adobe Illustrator 24.0.2, SVG Export Plug-In . SVG Version: 6.00 Build 0)  -->
<svg version="1.1" xmlns="http://www.w3.org/2000/svg" xmlns:xlink="http://www.w3.org/1999/xlink" x="0px" y="0px"
	 viewBox="0 0 104.3 178.4" style="enable-background:new 0 0 104.3 178.4;" xml:space="preserve">
<style type="text/css">
	.st0{fill:none;stroke:#00B04C;stroke-width:10;stroke-miterlimit:10;}
	.st1{fill:#008639;}
	.st2{fill:#71491A;}
	.st3{fill:#C07F3B;}
	.st4{fill:#DF9348;}
</style>
<g id="stem">
	<path class="st0" d="M52.1,119.7c0-11.2,14.9-16,5.2-29.9c-10.5-15-26.1-16.6-36.9-36.4C8.8,32.1,15.8,14.8,29.9,8.9
		c15.9-6.7,30.6-5.3,25.3,12.9"/>
	<path class="st0" d="M60.4,100.7c0.2-9.6,38.8-5.7,38.8-33.3c0-11.8,0.3-16.5-6.7-23.1c-13.7-12.7-30.6-4.9-36.4,2.3
		c-4.2,5.3-4,19.9,2.5,27.2c7.1,8,22.3,4.9,19.7-6.8"/>
	<path class="st0" d="M21.4,55.1c-13.8-6.5-15.9,7.4-15.9,16C5.6,83.6,5.1,93,8.8,102.3c3.4,8.6,16.6,12.6,23.1,10.9
		c4.1-1.1,8.5-3.4,10-7.3c1.9-4.7-0.8-10.3-6.8-13.7"/>
</g>
<g id="buds">
	<path class="st1" d="M59.3,18.8c-2.9-3.6-7.7-4.6-11.3-4c-10.2,1.9-16.9,18.9-12.3,24.2c4.2,4.9,19.9,2.3,24.4-6.9
		C61.8,28.7,62.7,23,59.3,18.8z"/>
	<path class="st1" d="M78,76.6c4.6-0.5,8-4.1,9.4-7.5c3.9-9.7-7-24.3-13.9-23.3c-6.4,0.9-12.6,15.6-7.2,24.4
		C68.3,73.4,72.7,77.2,78,76.6z"/>
	<path class="st1" d="M38.2,102.6c3.4-3.1,4.2-8,3.3-11.5C39.1,81,21.7,75.3,16.7,80.1c-4.7,4.5-1.2,20,8.3,24
		C28.4,105.6,34.2,106.2,38.2,102.6z"/>
</g>
<g id="pot">
	<g id="dirt">
		<path class="st2" d="M98.9,131.3c0.4-1.5,0.4-2.6,0.1-3.6c-0.3-0.9-0.9-1-1.7-1.9c-1.1-1.3-1.6-2-2.3-2.3c-1.4-0.6-1.5-0.1-1.9,0
			c-0.5,0.1-2.8-0.2-3.4-0.7c-1.3-1.1-2.8-1.5-2.9-1.6c0,0,0,0,0,0c0,0,0,0-0.1-0.1c-0.8-0.2-2.1-0.3-3.1,0
			c-1.1,0.3-1.1,0.5-2.6,0.9c0,0,0,0,0,0c0,0-1.3-0.2-2.8-0.4c-0.2,0-0.4,0-0.4-0.1c-1.8-0.5-3.6,0.4-3.6,0.4c-1.3,0-1.8-0.1-2-0.2
			c-1.1-0.4-0.9,0-3.5-0.3c-3.1-0.3-1.6-2.4-6.8-2.3c-1.8,0-1.8,1-3.7,0.2c-3.4-1.4-6.4,0.8-9.6-0.8c-3-1.5-6.2,0.7-9.6,1.7
			c-2.6,0.8-4.3,0.4-5.6,1.2c-1.3,0.7-0.9,0.6-2.7,0.8c-2.2,0.2-3.9,0.7-5.7,0.6c-2.2-0.2-1-0.6-3.2-0.4c-1.6,0.1-2.4,1.7-5.9,1
			c-2.3-0.4-2.4-1.2-3.5-0.7c-1.6,0.8-4.6,0.8-4.4,2.4c0.1,1.3-2.5,1.1-2.6,2.6c-0.1,0.7,0.1,1.5,0.5,2.4c0,0,0.9,2,2.8,3.3
			C14.6,137.6,88.7,132,98.9,131.3z"/>
	</g>
	<path class="st3" d="M91.9,178.4H12.4c-2,0-3.8-3.5-4.3-8.4l-2.5-24.8c-0.7-7.1,1.4-14,4.3-14h84.5c2.9,0,5,6.9,4.3,14L96.2,170
		C95.7,174.9,93.9,178.4,91.9,178.4z"/>
	<path class="st4" d="M100.9,143.5H3.4c-1.9,0-3.4-1.5-3.4-3.4v-8.3c0-1.9,1.5-3.4,3.4-3.4h97.5c1.9,0,3.4,1.5,3.4,3.4v8.3
		C104.3,142,102.8,143.5,100.9,143.5z"/>
</g>
</svg>
