<?xml version="1.0" encoding="utf-8"?>
<!-- Generator: Adobe Illustrator 24.0.2, SVG Export Plug-In . SVG Version: 6.00 Build 0)  -->
<svg version="1.1" xmlns="http://www.w3.org/2000/svg" xmlns:xlink="http://www.w3.org/1999/xlink" x="0px" y="0px"
	 viewBox="0 0 322.1 178.4" style="enable-background:new 0 0 322.1 178.4;" xml:space="preserve">
<style type="text/css">
	.st0{fill:#00B04C;}
	.st1{fill:#008639;}
	.st2{fill:#D33B2A;}
	.st3{fill:#FFFE54;}
	.st4{fill:#C07F3B;}
	.st5{fill:#A93223;}
	.st6{fill:#231F20;}
	.st7{fill:#FFFFFF;}
	.st8{fill:#FFA20A;}
</style>
<g id="torso">
	<g id="back_wing_1_">
		<g id="light_inner_1_">
			
				<ellipse transform="matrix(9.923093e-02 -0.9951 0.9951 9.923093e-02 27.129 203.1038)" class="st0" cx="125.7" cy="86.6" rx="19.2" ry="2.8"/>
			
				<ellipse transform="matrix(9.923093e-02 -0.9951 0.9951 9.923093e-02 15.4105 203.9937)" class="st0" cx="120.4" cy="93.5" rx="19.2" ry="2.8"/>
			
				<ellipse transform="matrix(9.923093e-02 -0.9951 0.9951 9.923093e-02 7.9732 200.4407)" class="st0" cx="114.7" cy="95.8" rx="19.2" ry="2.8"/>
			
				<ellipse transform="matrix(9.923093e-02 -0.9951 0.9951 9.923093e-02 3.0612 196.2543)" class="st0" cx="109.9" cy="96.4" rx="19.2" ry="2.8"/>
			
				<ellipse transform="matrix(0.3125 -0.9499 0.9499 0.3125 -23.3639 141.0435)" class="st0" cx="85.8" cy="86.7" rx="18" ry="3.9"/>
			<ellipse transform="matrix(0.2448 -0.9696 0.9696 0.2448 -14.5198 175.4232)" class="st0" cx="105.3" cy="97" rx="18.5" ry="3"/>
			
				<ellipse transform="matrix(0.2808 -0.9598 0.9598 0.2808 -19.9691 165.5032)" class="st0" cx="100.4" cy="96.1" rx="18.3" ry="3"/>
			<ellipse transform="matrix(0.2808 -0.9598 0.9598 0.2808 -20.322 158.8153)" class="st0" cx="95.8" cy="93" rx="18.3" ry="3"/>
			<ellipse transform="matrix(0.2808 -0.9598 0.9598 0.2808 -21.1672 152.2499)" class="st0" cx="91" cy="90.2" rx="18.3" ry="3"/>
			
				<ellipse transform="matrix(0.3554 -0.9347 0.9347 0.3554 -24.2837 127.8336)" class="st0" cx="80.5" cy="81.5" rx="17.8" ry="3.6"/>
			
				<ellipse transform="matrix(0.5334 -0.8458 0.8458 0.5334 -31.8138 99.8936)" class="st0" cx="74.6" cy="78.8" rx="16.7" ry="3.3"/>
			
				<ellipse transform="matrix(0.5605 -0.8281 0.8281 0.5605 -28.6978 90.2601)" class="st0" cx="70.7" cy="72.2" rx="18.6" ry="4.4"/>
			
				<ellipse transform="matrix(0.9285 -0.3713 0.3713 0.9285 -15.5796 14.4007)" class="st0" cx="29.6" cy="47.7" rx="31.3" ry="5.8"/>
			<ellipse transform="matrix(0.8575 -0.5144 0.5144 0.8575 -22.5387 27.4392)" class="st0" cx="38.3" cy="54.4" rx="32" ry="5.6"/>
			
				<ellipse transform="matrix(0.7209 -0.6931 0.6931 0.7209 -27.1028 49.3726)" class="st0" cx="47.7" cy="58.3" rx="30.3" ry="5.4"/>
			
				<ellipse transform="matrix(0.6559 -0.7549 0.7549 0.6559 -26.2524 63.7087)" class="st0" cx="56.7" cy="60.6" rx="25.6" ry="3.9"/>
			
				<ellipse transform="matrix(0.5706 -0.8212 0.8212 0.5706 -24.1735 78.9854)" class="st0" cx="63.4" cy="62.6" rx="26.4" ry="3.8"/>
			
				<ellipse transform="matrix(0.5706 -0.8212 0.8212 0.5706 -23.1491 84.1564)" class="st0" cx="68.9" cy="64.2" rx="26.4" ry="3.8"/>
		</g>
		<g id="dark_inner_1_">
			
				<ellipse transform="matrix(0.9999 -1.009108e-02 1.009108e-02 0.9999 -0.7502 1.2939)" class="st1" cx="127.8" cy="75" rx="1.9" ry="11.1"/>
			
				<ellipse transform="matrix(4.421392e-02 -0.999 0.999 4.421392e-02 43.529 195.8573)" class="st1" cx="124.1" cy="75.2" rx="13.4" ry="2.2"/>
			
				<ellipse transform="matrix(9.786345e-02 -0.9952 0.9952 9.786345e-02 31.5387 189.6626)" class="st1" cx="120.4" cy="77.4" rx="13.3" ry="2.2"/>
			
				<ellipse transform="matrix(0.1562 -0.9877 0.9877 0.1562 21.2023 180.0901)" class="st1" cx="116" cy="77.6" rx="13.1" ry="2.3"/>
			<ellipse transform="matrix(0.2278 -0.9737 0.9737 0.2278 11.728 168.3055)" class="st1" cx="112" cy="76.8" rx="12.9" ry="2.3"/>
			
				<ellipse transform="matrix(0.2785 -0.9604 0.9604 0.2785 6.8658 157.8995)" class="st1" cx="108.5" cy="74.4" rx="12.7" ry="2.3"/>
			<ellipse transform="matrix(0.2785 -0.9604 0.9604 0.2785 3.7901 154.75)" class="st1" cx="104.9" cy="74.9" rx="12.7" ry="2.3"/>
			
				<ellipse transform="matrix(0.2784 -0.9605 0.9605 0.2784 3.5972 150.4022)" class="st1" cx="101.9" cy="72.8" rx="12.7" ry="2.3"/>
			
				<ellipse transform="matrix(0.2785 -0.9604 0.9604 0.2785 2.2484 146.8929)" class="st1" cx="98.9" cy="71.9" rx="12.7" ry="2.3"/>
			
				<ellipse transform="matrix(0.2785 -0.9604 0.9604 0.2785 2.0691 137.7185)" class="st1" cx="92.7" cy="67.5" rx="12.7" ry="2.3"/>
			
				<ellipse transform="matrix(0.2785 -0.9604 0.9604 0.2785 3.0476 141.8354)" class="st1" cx="95.9" cy="68.9" rx="12.7" ry="2.3"/>
			
				<ellipse transform="matrix(0.2785 -0.9604 0.9604 0.2785 2.5206 132.0709)" class="st1" cx="89.2" cy="64.4" rx="12.7" ry="2.3"/>
			<ellipse transform="matrix(0.3562 -0.9344 0.9344 0.3562 -2.229 119.541)" class="st1" cx="85.6" cy="61.4" rx="12.3" ry="2.4"/>
			<ellipse transform="matrix(0.4319 -0.9019 0.9019 0.4319 -4.7618 107.5342)" class="st1" cx="83" cy="57.5" rx="12" ry="2.5"/>
			<ellipse transform="matrix(0.5119 -0.859 0.859 0.5119 -6.7965 94.7029)" class="st1" cx="79.9" cy="53.3" rx="11.6" ry="2.5"/>
			<ellipse transform="matrix(0.6472 -0.7624 0.7624 0.6472 -8.4583 77.1758)" class="st1" cx="79.1" cy="47.7" rx="11" ry="2.7"/>
			
				<ellipse transform="matrix(0.6713 -0.7412 0.7412 0.6713 -12.1356 68.9648)" class="st1" cx="71.7" cy="48.2" rx="12.1" ry="2.5"/>
			
				<ellipse transform="matrix(0.7881 -0.6155 0.6155 0.7881 -12.1217 51.5373)" class="st1" cx="68.8" cy="43.4" rx="12.7" ry="2.3"/>
			<ellipse transform="matrix(0.9265 -0.3763 0.3763 0.9265 -11.2537 26.5373)" class="st1" cx="62.3" cy="42.1" rx="10" ry="2.8"/>
			
				<ellipse transform="matrix(0.5549 -0.8319 0.8319 0.5549 -1.1865 106.8813)" class="st1" cx="99.3" cy="54.5" rx="12.8" ry="34.5"/>
		</g>
		
			<ellipse id="outer_part_3_" transform="matrix(0.6 -0.8 0.8 0.6 1.4901 101.9915)" class="st2" cx="102.7" cy="49.5" rx="10.8" ry="32"/>
		
			<ellipse id="outer_part_2_" transform="matrix(0.9761 -0.2172 0.2172 0.9761 -6.621 13.3449)" class="st2" cx="57.4" cy="36.8" rx="28" ry="5.7"/>
	</g>
</g>
<g id="wings">
</g>
<g id="beak">
	<path class="st3" d="M144.1,40l3.2-9.6c0.3-0.9-0.4-1.8-1.3-1.8h-6.4c-1,0-1.6,0.9-1.3,1.8l3.2,9.6C141.8,41.3,143.6,41.3,144.1,40
		z"/>
	<path class="st3" d="M141.7,25.2l-3.2,3.8c-0.8,0.9-0.1,2.3,1.1,2.3l6.4,0c1.2,0,1.8-1.4,1.1-2.3l-3.2-3.8
		C143.2,24.6,142.2,24.6,141.7,25.2z"/>
	<path class="st4" d="M134.7,177.7l7.4-22.6c0.1-0.4-0.1-0.8-0.5-1l-2.4-0.9c-0.5-0.2-1,0.1-1.1,0.6l-5,23.5
		C133,178.3,134.4,178.7,134.7,177.7z"/>
	<path class="st4" d="M127.8,178.4l9-7.6c0.2-0.1,0.2-0.4,0.1-0.6l-1.2-1.5c-0.2-0.2-0.5-0.2-0.6,0l-7.7,9.1
		C126.9,178.2,127.4,178.7,127.8,178.4z"/>
	<path class="st4" d="M146,177.6l-8.4-9.1c-0.2-0.2-0.5-0.2-0.6,0.1l-1.5,2.4c-0.1,0.2-0.1,0.4,0.1,0.5l9.9,6.7
		C145.9,178.5,146.3,178,146,177.6z"/>
	<path class="st4" d="M164.5,177.9l1-20.9c0-0.3-0.2-0.6-0.5-0.6l-3-0.2c-0.4,0-0.6,0.3-0.6,0.6l2,21.2
		C163.5,178.7,164.5,178.6,164.5,177.9z"/>
	<path class="st4" d="M155.8,178l9.5-6c0.2-0.1,0.2-0.4,0.1-0.5l-1.2-2.1c-0.1-0.2-0.4-0.3-0.6-0.1l-8.4,8
		C155,177.7,155.4,178.2,155.8,178z"/>
	<path class="st4" d="M176.6,177.6l-12.1-8c-0.2-0.1-0.5,0-0.6,0.2l-0.9,2.9c-0.1,0.2,0,0.4,0.2,0.5l13,5.1
		C176.7,178.5,177,177.9,176.6,177.6z"/>
	<path class="st2" d="M141.9,155.1l10.5-11.7c1.2-1.3,0.6-3.4-1-4l-13.4-4.5c-1.8-0.6-3.5,0.9-3.2,2.8l3,16.3
		C138,155.9,140.6,156.6,141.9,155.1z"/>
	<path class="st2" d="M166.2,156.8l6.6-16.3c0.6-1.6-0.5-3.3-2.2-3.4l-14.3-0.4c-1.8-0.1-3.1,1.8-2.3,3.5l7.7,16.7
		C162.6,158.9,165.4,158.8,166.2,156.8z"/>
	
		<ellipse id="body_2_" transform="matrix(0.9906 -0.1369 0.1369 0.9906 -11.426 21.7806)" class="st5" cx="152.7" cy="94" rx="38.1" ry="51.8"/>
	<path class="st2" d="M173.2,27c0,14.5-10.7,25.3-30.2,25.3S113,40.5,113,26s10.4-26.2,30-26.2S173.2,12.5,173.2,27z"/>
	<circle id="left_eye_1_" class="st6" cx="128.3" cy="24" r="10.1"/>
	<circle id="right_eye_1_" class="st6" cx="158.1" cy="24.6" r="10.6"/>
	<circle class="st7" cx="128.3" cy="24" r="3"/>
	<circle class="st7" cx="158.3" cy="24.6" r="3"/>
	<path class="st8" d="M144.3,39.9l3.2-9.6c0.3-0.9-0.4-1.8-1.3-1.8h-6.4c-1,0-1.6,0.9-1.3,1.8l3.2,9.6
		C142.1,41.2,143.9,41.2,144.3,39.9z"/>
	<path class="st8" d="M141.9,25.1l-3.2,3.8c-0.8,0.9-0.1,2.3,1.1,2.3l6.4,0c1.2,0,1.8-1.4,1.1-2.3l-3.2-3.8
		C143.5,24.5,142.5,24.5,141.9,25.1z"/>
</g>
<g id="front_wing">
	<g id="light_inner">
		<ellipse transform="matrix(0.9801 -0.1985 0.1985 0.9801 -14.1637 35.1088)" class="st0" cx="168" cy="88.2" rx="3.5" ry="19.6"/>
		
			<ellipse transform="matrix(0.9801 -0.1985 0.1985 0.9801 -15.3985 36.6808)" class="st0" cx="175.3" cy="95.1" rx="3.5" ry="19.6"/>
		
			<ellipse transform="matrix(0.9801 -0.1985 0.1985 0.9801 -15.7173 38.1705)" class="st0" cx="182.5" cy="97.5" rx="3.5" ry="19.6"/>
		
			<ellipse transform="matrix(0.9801 -0.1985 0.1985 0.9801 -15.7203 39.3744)" class="st0" cx="188.5" cy="98.1" rx="3.5" ry="19.6"/>
		
			<ellipse transform="matrix(0.8951 -0.4459 0.4459 0.8951 -16.4765 106.4626)" class="st0" cx="218" cy="88.2" rx="4.6" ry="19.2"/>
		<ellipse transform="matrix(0.93 -0.3676 0.3676 0.93 -22.6751 78.3423)" class="st0" cx="194.3" cy="98.7" rx="3.6" ry="19.3"/>
		
			<ellipse transform="matrix(0.9133 -0.4074 0.4074 0.9133 -22.432 90.0955)" class="st0" cx="200.4" cy="97.7" rx="3.6" ry="19.2"/>
		
			<ellipse transform="matrix(0.9133 -0.4074 0.4074 0.9133 -20.6744 92.0899)" class="st0" cx="205.9" cy="94.6" rx="3.6" ry="19.2"/>
		
			<ellipse transform="matrix(0.9133 -0.4074 0.4074 0.9133 -19.0558 94.2137)" class="st0" cx="211.7" cy="91.9" rx="3.6" ry="19.2"/>
		
			<ellipse transform="matrix(0.8722 -0.4891 0.4891 0.8722 -11.9946 120.2297)" class="st0" cx="224.1" cy="83.1" rx="4.2" ry="19.1"/>
		
			<ellipse transform="matrix(0.7525 -0.6586 0.6586 0.7525 4.3582 172.2213)" class="st0" cx="231.3" cy="80.3" rx="3.7" ry="18.7"/>
		<ellipse transform="matrix(0.7282 -0.6853 0.6853 0.7282 13.5852 181.5751)" class="st0" cx="235.7" cy="73.7" rx="4.9" ry="21"/>
		<ellipse transform="matrix(0.2967 -0.955 0.955 0.2967 153.8339 306.8241)" class="st0" cx="285.2" cy="49" rx="5.8" ry="39"/>
		
			<ellipse transform="matrix(0.4183 -0.9083 0.9083 0.4183 109.256 282.1411)" class="st0" cx="274.9" cy="55.8" rx="5.8" ry="39.2"/>
		
			<ellipse transform="matrix(0.5852 -0.8109 0.8109 0.5852 60.8094 238.327)" class="st0" cx="263.4" cy="59.7" rx="5.7" ry="35.8"/>
		
			<ellipse transform="matrix(0.6507 -0.7593 0.7593 0.6507 41.0021 213.2529)" class="st0" cx="252.3" cy="62.1" rx="4.2" ry="29.6"/>
		<ellipse transform="matrix(0.7258 -0.6879 0.6879 0.7258 22.8735 185.4633)" class="st0" cx="244.1" cy="64" rx="4.2" ry="29.9"/>
		
			<ellipse transform="matrix(0.7258 -0.6879 0.6879 0.7258 19.9218 181.3012)" class="st0" cx="237.4" cy="65.7" rx="4.2" ry="29.9"/>
	</g>
	<g id="dark_inner">
		
			<ellipse transform="matrix(0.9979 -6.528242e-02 6.528242e-02 0.9979 -4.6476 10.9061)" class="st1" cx="164.6" cy="76.6" rx="2.4" ry="11.2"/>
		
			<ellipse transform="matrix(0.9912 -0.1324 0.1324 0.9912 -8.6707 23.0734)" class="st1" cx="169.2" cy="76.8" rx="2.7" ry="13.6"/>
		<ellipse transform="matrix(0.9802 -0.1979 0.1979 0.9802 -12.1956 36.0109)" class="st1" cx="174.1" cy="79" rx="2.7" ry="13.5"/>
		
			<ellipse transform="matrix(0.9636 -0.2675 0.2675 0.9636 -14.6453 50.9064)" class="st1" cx="179.5" cy="79.2" rx="2.8" ry="13.5"/>
		
			<ellipse transform="matrix(0.9367 -0.3501 0.3501 0.9367 -15.7456 69.5614)" class="st1" cx="184.5" cy="78.3" rx="2.8" ry="13.4"/>
		
			<ellipse transform="matrix(0.9136 -0.4065 0.4065 0.9136 -14.5771 83.2433)" class="st1" cx="188.6" cy="75.9" rx="2.8" ry="13.3"/>
		
			<ellipse transform="matrix(0.9136 -0.4065 0.4065 0.9136 -14.373 85.1438)" class="st1" cx="193.2" cy="76.4" rx="2.8" ry="13.3"/>
		
			<ellipse transform="matrix(0.9137 -0.4064 0.4064 0.9137 -13.2266 86.4016)" class="st1" cx="196.8" cy="74.3" rx="2.8" ry="13.3"/>
		<ellipse transform="matrix(0.9136 -0.4065 0.4065 0.9136 -12.5552 87.85)" class="st1" cx="200.5" cy="73.5" rx="2.8" ry="13.3"/>
		<ellipse transform="matrix(0.9136 -0.4065 0.4065 0.9136 -10.0868 90.4719)" class="st1" cx="207.9" cy="69" rx="2.8" ry="13.3"/>
		<ellipse transform="matrix(0.9136 -0.4065 0.4065 0.9136 -11.0028 88.9973)" class="st1" cx="204" cy="70.4" rx="2.8" ry="13.3"/>
		
			<ellipse transform="matrix(0.9136 -0.4065 0.4065 0.9136 -8.4474 91.8995)" class="st1" cx="212.1" cy="65.8" rx="2.8" ry="13.3"/>
		
			<ellipse transform="matrix(0.8721 -0.4893 0.4893 0.8721 -3.0907 113.8611)" class="st1" cx="216.3" cy="62.8" rx="2.8" ry="13.2"/>
		<ellipse transform="matrix(0.8247 -0.5655 0.5655 0.8247 5.0839 134.3607)" class="st1" cx="219.3" cy="59" rx="2.8" ry="13.1"/>
		<ellipse transform="matrix(0.7674 -0.6412 0.6412 0.7674 16.7234 155.5743)" class="st1" cx="222.8" cy="54.7" rx="2.9" ry="13"/>
		<ellipse transform="matrix(0.653 -0.7573 0.7573 0.653 40.3127 186.1928)" class="st1" cx="223.4" cy="49.1" rx="2.9" ry="12.8"/>
		
			<ellipse transform="matrix(0.6331 -0.7741 0.7741 0.6331 47.0348 198.2996)" class="st1" cx="232.7" cy="49.5" rx="2.7" ry="14.1"/>
		
			<ellipse transform="matrix(0.5099 -0.8603 0.8603 0.5099 77.1783 224.8921)" class="st1" cx="235.9" cy="44.7" rx="2.4" ry="15.2"/>
		
			<ellipse transform="matrix(0.2978 -0.9546 0.9546 0.2978 129.8856 263.3756)" class="st1" cx="244" cy="43.4" rx="2.8" ry="12.4"/>
		<ellipse transform="matrix(0.8881 -0.4596 0.4596 0.8881 -3.5044 97.5794)" class="st1" cx="198.7" cy="56" rx="39.6" ry="14"/>
	</g>
	
		<ellipse id="outer_part_7_" transform="matrix(0.8596 -0.5109 0.5109 0.8596 1.213 106.2634)" class="st2" cx="194" cy="50.9" rx="36.3" ry="12"/>
	
		<ellipse id="outer_part_6_" transform="matrix(0.1722 -0.9851 0.9851 0.1722 169.1625 277.4847)" class="st2" cx="249.7" cy="38.1" rx="5.7" ry="35.1"/>
</g>
</svg>
