<svg xmlns="http://www.w3.org/2000/svg" viewBox="0 0 261.34 190.09"><defs><style>.cls-1{fill:#71491a;}.cls-2{fill:#d33b2a;}.cls-3,.cls-4{stroke:#000;stroke-miterlimit:10;stroke-width:3px;}.cls-4{fill:none;}.cls-5{fill:#00b04c;}.cls-6{fill:#008639;}.cls-7{fill:#fffe54;}.cls-8{fill:#a93223;}.cls-9{fill:#231f20;}.cls-10{fill:#fff;}.cls-11{fill:#ffc536;}</style></defs><g id="new_feet" data-name="new feet"><path class="cls-1" d="M110.39,177.87l7.36-22.56a.8.8,0,0,0-.47-1l-2.35-.91a.8.8,0,0,0-1.07.57l-5,23.48A.79.79,0,0,0,110.39,177.87Z"/><path class="cls-1" d="M103.47,178.56l9-7.61a.4.4,0,0,0,0-.55l-1.23-1.54a.41.41,0,0,0-.62,0L102.91,178A.4.4,0,0,0,103.47,178.56Z"/><path class="cls-1" d="M121.67,177.73l-8.38-9.11a.41.41,0,0,0-.64,0l-1.51,2.39a.39.39,0,0,0,.11.54l9.9,6.74A.4.4,0,0,0,121.67,177.73Z"/><path class="cls-1" d="M140.24,178.06l1-20.95a.58.58,0,0,0-.54-.6l-2.95-.21a.58.58,0,0,0-.62.63l2,21.15A.58.58,0,0,0,140.24,178.06Z"/><path class="cls-1" d="M131.53,178.11l9.54-6a.4.4,0,0,0,.14-.53l-1.18-2.1a.4.4,0,0,0-.63-.09l-8.36,8A.4.4,0,0,0,131.53,178.11Z"/><path class="cls-1" d="M152.27,177.72l-12.1-8a.4.4,0,0,0-.61.21l-.88,2.87a.4.4,0,0,0,.23.5l13,5.1A.4.4,0,0,0,152.27,177.72Z"/><path class="cls-2" d="M117.63,155.22l10.48-11.74a2.46,2.46,0,0,0-1.05-4L113.63,135a2.46,2.46,0,0,0-3.21,2.77l3,16.27A2.46,2.46,0,0,0,117.63,155.22Z"/><path class="cls-2" d="M141.86,157l6.64-16.31a2.47,2.47,0,0,0-2.21-3.39L132,136.85a2.46,2.46,0,0,0-2.31,3.49l7.7,16.73A2.47,2.47,0,0,0,141.86,157Z"/><rect class="cls-3" x="132.85" y="158.33" width="14.78" height="10.78" rx="2" transform="translate(-3.31 2.89) rotate(-1.17)"/><path class="cls-4" d="M174.63,190.09c0-2.58-4.28-13.34-10.52-19.73a28.73,28.73,0,0,0-15.21-7.77"/></g><g id="torso"><g id="back_wing" data-name="back wing"><ellipse class="cls-5" cx="91.99" cy="92.19" rx="19.18" ry="2.85" transform="translate(-26.55 146.14) rotate(-69.54)"/><ellipse class="cls-5" cx="86.85" cy="92.06" rx="19.18" ry="2.85" transform="translate(-29.77 141.24) rotate(-69.54)"/><ellipse class="cls-5" cx="82.94" cy="89.58" rx="19.18" ry="2.85" transform="translate(-29.99 135.97) rotate(-69.54)"/><ellipse class="cls-5" cx="79.4" cy="88.3" rx="19.18" ry="2.85" transform="translate(-35.21 119.35) rotate(-63.2)"/><ellipse class="cls-5" cx="60.11" cy="73.27" rx="18.05" ry="3.9" transform="translate(-34.24 64.34) rotate(-45.23)"/><ellipse class="cls-5" cx="76.05" cy="86.29" rx="18.46" ry="2.96" transform="translate(-37.07 107.15) rotate(-59.06)"/><ellipse class="cls-5" cx="72.32" cy="83.21" rx="18.25" ry="2.99" transform="translate(-37.45 93.5) rotate(-54.36)"/><ellipse class="cls-5" cx="69.11" cy="80.91" rx="18.25" ry="2.99" transform="translate(-37.3 81.18) rotate(-49.64)"/><ellipse class="cls-5" cx="64.78" cy="77.9" rx="18.25" ry="2.99" transform="translate(-36.15 69.03) rotate(-45.23)"/><ellipse class="cls-5" cx="55.24" cy="68.98" rx="17.79" ry="3.57" transform="translate(-32.63 59.61) rotate(-45.23)"/><ellipse class="cls-5" cx="50.08" cy="64.75" rx="16.66" ry="3.28" transform="translate(-30.7 51.54) rotate(-42.99)"/><ellipse class="cls-5" cx="48.09" cy="57.09" rx="18.6" ry="4.39" transform="translate(-25.05 42.17) rotate(-38.36)"/><ellipse class="cls-5" cx="26.97" cy="25.25" rx="27.17" ry="5.76" transform="translate(-2.89 3.49) rotate(-7.02)"/><ellipse class="cls-5" cx="31.67" cy="32.41" rx="26.86" ry="5.63" transform="translate(-9.06 12.55) rotate(-19.67)"/><ellipse class="cls-5" cx="36.85" cy="39.32" rx="25.57" ry="3.91" transform="translate(-14.78 23.9) rotate(-30.23)"/><ellipse class="cls-5" cx="44.77" cy="41.75" rx="26.43" ry="3.78" transform="translate(-15.84 33.13) rotate(-34.9)"/><ellipse class="cls-5" cx="49.3" cy="45.52" rx="26.43" ry="3.78" transform="translate(-17.75 42.85) rotate(-40.44)"/><ellipse class="cls-5" cx="62.5" cy="54.09" rx="16.6" ry="43.13" transform="translate(-19.92 60.37) rotate(-45.23)"/><ellipse class="cls-6" cx="100.12" cy="78.57" rx="11.08" ry="1.94" transform="translate(-0.6 156.37) rotate(-75.81)"/><ellipse class="cls-6" cx="96.47" cy="77.8" rx="13.43" ry="2.21" transform="translate(-6.51 146.77) rotate(-72.7)"/><ellipse class="cls-6" cx="92.28" cy="79.03" rx="13.29" ry="2.23" transform="matrix(0.35, -0.94, 0.94, 0.35, -13.95, 138)"/><ellipse class="cls-5" cx="96.47" cy="92.19" rx="19.18" ry="2.85" transform="translate(-23.63 150.34) rotate(-69.54)"/><ellipse class="cls-6" cx="87.99" cy="78.11" rx="13.11" ry="2.26" transform="translate(-18.94 127.18) rotate(-66.25)"/><ellipse class="cls-6" cx="84.33" cy="76.23" rx="12.85" ry="2.31" transform="translate(-22.53 115.02) rotate(-62.06)"/><ellipse class="cls-6" cx="81.6" cy="73.06" rx="12.65" ry="2.34" transform="translate(-23.02 105.48) rotate(-59.06)"/><ellipse class="cls-6" cx="77.96" cy="72.59" rx="12.65" ry="2.34" transform="translate(-24.38 102.13) rotate(-59.06)"/><ellipse class="cls-6" cx="75.58" cy="69.84" rx="12.65" ry="2.34" transform="translate(-23.18 98.77) rotate(-59.07)"/><ellipse class="cls-6" cx="72.9" cy="68.25" rx="12.65" ry="2.34" transform="translate(-23.12 95.69) rotate(-59.06)"/><ellipse class="cls-6" cx="68.05" cy="62.35" rx="12.65" ry="2.34" transform="translate(-20.42 88.66) rotate(-59.06)"/><ellipse class="cls-6" cx="70.81" cy="64.53" rx="12.65" ry="2.34" transform="translate(-20.95 92.09) rotate(-59.06)"/><ellipse class="cls-6" cx="65.43" cy="58.43" rx="12.65" ry="2.34" transform="translate(-18.33 84.5) rotate(-59.06)"/><ellipse class="cls-6" cx="62.77" cy="54.66" rx="12.32" ry="2.4" transform="translate(-18.22 73.83) rotate(-54.36)"/><ellipse class="cls-6" cx="61.18" cy="50.26" rx="11.99" ry="2.47" transform="translate(-16.74 64.34) rotate(-49.64)"/><ellipse class="cls-6" cx="59.32" cy="45.42" rx="11.63" ry="2.55" transform="translate(-14.83 54.52) rotate(-44.44)"/><ellipse class="cls-6" cx="59.98" cy="39.79" rx="11.04" ry="2.68" transform="translate(-11.98 41.48) rotate(-34.9)"/><ellipse class="cls-6" cx="52.66" cy="38.31" rx="12.08" ry="2.49" transform="translate(-12.38 34.93) rotate(-33.06)"/><ellipse class="cls-6" cx="51.09" cy="32.95" rx="12.66" ry="2.26" transform="translate(-8.85 22.81) rotate(-23.22)"/><ellipse class="cls-6" cx="45.13" cy="30.03" rx="9.97" ry="2.81" transform="translate(-3.47 6.01) rotate(-7.33)"/><ellipse class="cls-6" cx="77.72" cy="51.52" rx="12.82" ry="34.5" transform="translate(-14.62 64.48) rotate(-41.53)"/><ellipse id="outer_part" data-name="outer part" class="cls-2" cx="82.34" cy="47.53" rx="10.79" ry="32" transform="translate(-11.72 61.36) rotate(-38.36)"/><ellipse id="outer_part-2" data-name="outer part" class="cls-2" cx="41.75" cy="23.68" rx="5.66" ry="28" transform="translate(16.46 64.48) rotate(-87.77)"/></g></g><g id="beak"><path class="cls-7" d="M119.76,40.14,123,30.56a1.39,1.39,0,0,0-1.32-1.84h-6.42a1.4,1.4,0,0,0-1.32,1.84l3.21,9.58A1.39,1.39,0,0,0,119.76,40.14Z"/><path class="cls-7" d="M117.37,25.37l-3.2,3.83a1.4,1.4,0,0,0,1.07,2.29h6.4a1.4,1.4,0,0,0,1.07-2.29l-3.2-3.83A1.4,1.4,0,0,0,117.37,25.37Z"/><path class="cls-2" d="M117.64,155.21l10.48-11.73a2.46,2.46,0,0,0-1.05-4L113.64,135a2.46,2.46,0,0,0-3.21,2.77L113.38,154A2.46,2.46,0,0,0,117.64,155.21Z"/><ellipse id="body" class="cls-8" cx="128.36" cy="94.09" rx="38.05" ry="51.77" transform="translate(-11.67 18.46) rotate(-7.87)"/><path class="cls-2" d="M148.91,27.08c0,14.45-10.65,25.26-30.23,25.26s-30-11.72-30-26.17S99.1,0,118.68,0,148.91,12.63,148.91,27.08Z"/><circle id="left_eye" data-name="left eye" class="cls-9" cx="104" cy="24.08" r="10.09"/><circle id="right_eye" data-name="right eye" class="cls-9" cx="133.85" cy="24.75" r="10.58"/><circle class="cls-10" cx="104" cy="24.08" r="3"/><circle class="cls-10" cx="134.05" cy="24.75" r="3"/><path class="cls-11" d="M120,40l3.21-9.59a1.39,1.39,0,0,0-1.32-1.83h-6.42a1.39,1.39,0,0,0-1.32,1.83L117.36,40A1.39,1.39,0,0,0,120,40Z"/><path class="cls-11" d="M117.61,25.25l-3.2,3.82a1.4,1.4,0,0,0,1.07,2.29h6.4A1.4,1.4,0,0,0,123,29.07l-3.2-3.82A1.39,1.39,0,0,0,117.61,25.25Z"/></g><g id="front_wing" data-name="front wing"><ellipse class="cls-5" cx="159.68" cy="88.64" rx="2.73" ry="18.92" transform="translate(-18.53 48.68) rotate(-16.4)"/><ellipse class="cls-5" cx="165.36" cy="88.57" rx="3.4" ry="18.92" transform="translate(-19.56 57.07) rotate(-18.51)"/><ellipse class="cls-5" cx="170.48" cy="88.64" rx="3.4" ry="18.92" transform="translate(-21.63 85.07) rotate(-26.41)"/><ellipse class="cls-5" cx="175.58" cy="87.62" rx="3.45" ry="18.61" transform="translate(-16.02 130.02) rotate(-39)"/><ellipse class="cls-5" cx="180.69" cy="83.73" rx="3.45" ry="18.61" transform="translate(-12.43 132.37) rotate(-39)"/><ellipse class="cls-5" cx="186.66" cy="80.83" rx="3.45" ry="18.61" transform="translate(-9.27 135.48) rotate(-39)"/><ellipse class="cls-5" cx="192.65" cy="76.69" rx="4.05" ry="18.45" transform="translate(1.12 156.15) rotate(-44.24)"/><ellipse class="cls-5" cx="197.06" cy="72.5" rx="3.56" ry="18.07" transform="translate(27.09 195.79) rotate(-56.15)"/><ellipse class="cls-5" cx="153.73" cy="87.68" rx="3.18" ry="19.5" transform="translate(-18.5 46.96) rotate(-16.4)"/><ellipse class="cls-5" cx="202.85" cy="66.77" rx="4.72" ry="20.33" transform="translate(39.26 204.04) rotate(-58.22)"/><ellipse class="cls-5" cx="234.64" cy="23.59" rx="5.62" ry="26.72" transform="translate(201.65 257.09) rotate(-87.7)"/><ellipse class="cls-5" cx="224.93" cy="31.62" rx="5.59" ry="32.12" transform="translate(155.59 247.92) rotate(-80.23)"/><ellipse class="cls-5" cx="217.47" cy="37.89" rx="5.52" ry="29.64" transform="translate(104.62 227.61) rotate(-69.14)"/><ellipse class="cls-5" cx="209.44" cy="44.2" rx="4.67" ry="28.67" transform="translate(78.97 213.9) rotate(-64.36)"/><ellipse class="cls-5" cx="205.9" cy="50.47" rx="4.06" ry="28.94" transform="translate(55.09 199.46) rotate(-58.42)"/><ellipse class="cls-5" cx="201.05" cy="56.41" rx="4.06" ry="28.94" transform="translate(47.71 198.15) rotate(-58.42)"/><ellipse class="cls-6" cx="148.64" cy="79.7" rx="2.65" ry="13.16" transform="translate(-16.45 45.2) rotate(-16.4)"/><ellipse class="cls-6" cx="153.73" cy="80.61" rx="2.66" ry="13.11" transform="translate(-19.81 76.68) rotate(-26.37)"/><ellipse class="cls-6" cx="158.91" cy="79.42" rx="2.67" ry="13.05" transform="translate(-18.33 91.55) rotate(-30.47)"/><ellipse class="cls-6" cx="163.32" cy="77.35" rx="2.69" ry="12.96" transform="translate(-14.58 109.08) rotate(-35.45)"/><ellipse class="cls-6" cx="166.59" cy="74.08" rx="2.7" ry="12.89" transform="translate(-9.54 121.18) rotate(-38.94)"/><ellipse class="cls-6" cx="170.98" cy="73.38" rx="2.7" ry="12.89" transform="translate(-8.12 123.78) rotate(-38.94)"/><ellipse class="cls-6" cx="173.83" cy="70.55" rx="2.7" ry="12.89" transform="translate(-5.72 124.92) rotate(-38.94)"/><ellipse class="cls-6" cx="177.06" cy="68.82" rx="2.7" ry="12.89" transform="translate(-3.91 126.59) rotate(-38.94)"/><ellipse class="cls-6" cx="182.86" cy="62.77" rx="2.7" ry="12.89" transform="translate(1.19 128.89) rotate(-38.94)"/><ellipse class="cls-6" cx="179.54" cy="65.08" rx="2.7" ry="12.89" transform="translate(-1 127.32) rotate(-38.94)"/><ellipse class="cls-6" cx="185.98" cy="58.78" rx="2.7" ry="12.89" transform="translate(4.38 129.97) rotate(-38.94)"/><ellipse class="cls-6" cx="189.15" cy="54.94" rx="2.73" ry="12.78" transform="translate(15.33 147.58) rotate(-44.25)"/><ellipse class="cls-6" cx="191.01" cy="50.58" rx="2.75" ry="12.67" transform="translate(28.3 162.69) rotate(-49.4)"/><ellipse class="cls-6" cx="193.2" cy="45.74" rx="2.78" ry="12.55" transform="translate(44.55 177.35) rotate(-54.84)"/><ellipse class="cls-6" cx="192.34" cy="40.33" rx="2.82" ry="12.36" transform="translate(72.29 195.92) rotate(-64.19)"/><ellipse class="cls-6" cx="201.18" cy="38.4" rx="2.59" ry="13.61" transform="translate(83.33 205.91) rotate(-65.68)"/><ellipse class="cls-6" cx="203.01" cy="33.09" rx="2.29" ry="14.73" transform="translate(116.24 219.58) rotate(-74.3)"/><ellipse class="cls-6" cx="210.18" cy="29.85" rx="2.74" ry="12" transform="translate(171.68 238.62) rotate(-87.63)"/><ellipse class="cls-6" cx="171.95" cy="52.07" rx="37.04" ry="13.57" transform="translate(9.75 129.33) rotate(-42.32)"/><ellipse id="outer_part-3" data-name="outer part" class="cls-2" cx="165.36" cy="49.36" rx="35.09" ry="11.57" transform="translate(14.52 133.19) rotate(-45.68)"/><ellipse id="outer_part-4" data-name="outer part" class="cls-2" cx="214.2" cy="23.46" rx="33.98" ry="5.48" transform="translate(-1.23 18.91) rotate(-5.04)"/></g></svg>