<?xml version="1.0" encoding="utf-8"?>
<!-- Generator: Adobe Illustrator 24.0.2, SVG Export Plug-In . SVG Version: 6.00 Build 0)  -->
<svg version="1.1" xmlns="http://www.w3.org/2000/svg" xmlns:xlink="http://www.w3.org/1999/xlink" x="0px" y="0px"
	 viewBox="0 0 243.5 39.5" style="enable-background:new 0 0 243.5 39.5;" xml:space="preserve">
<style type="text/css">
	.st0{fill:#96D9FB;}
	.st1{fill:none;}
	.st2{fill:none;stroke:#638EA3;stroke-width:2;stroke-miterlimit:10;}
</style>
<g id="blue_blob_1_">
	<path class="st0" d="M240.9,37.2c-27.3,2.3-34.4-2.2-45,1.1c-9.4,2.9-26.6-2.2-49.3-0.1c-14.2,1.3-43.9,2.2-55.2,0
		c-12.8-2.5-30.9-0.7-41.3,0.5C46.8,39,27.8,39.2,25.5,38C19.7,34.9-7.4,37.3,2,35.3c7-1.4-2-19.7,26.7-29.2
		C49.8-0.8,105.8,0,129.9,0c21.7,0,69.7,0.6,81,7.8C230.8,20.5,250.9,36.3,240.9,37.2z"/>
	<path class="st0" d="M37.7,38.4"/>
</g>
<g id="shadows_and_stuff">
	<path class="st1" d="M40.3-61.9c2.5-5.7,4.9-11.6,6.1-18.5c0.8-4.7,0.9-9.7,1.1-14.6c1.6-57.1,6.9-114,15.8-169.2"/>
	<path class="st2" d="M148.9,27C141.1,5,92.3,35.7,89.2,11.7"/>
	<path class="st2" d="M14.1,28.6c34,6.1,34.2-14.9,55.7-16.9"/>
	<path class="st2" d="M161.9,15.5c17.5-9,52.9,17.2,64.6,14.7"/>
</g>
</svg>
