<?xml version="1.0" encoding="utf-8"?>
<!-- Generator: Adobe Illustrator 24.0.2, SVG Export Plug-In . SVG Version: 6.00 Build 0)  -->
<svg version="1.1" xmlns="http://www.w3.org/2000/svg" xmlns:xlink="http://www.w3.org/1999/xlink" x="0px" y="0px"
	 viewBox="0 0 243.5 355.2" style="enable-background:new 0 0 243.5 355.2;" xml:space="preserve">
<style type="text/css">
	.st0{fill:#96D9FB;}
	.st1{fill:none;}
	.st2{fill:none;stroke:#638EA3;stroke-width:2;stroke-miterlimit:10;}
</style>
<g id="blue_blob_1_">
	<path class="st0" d="M240.9,334.1c-27.3,21.1-34.4-19.6-45,9.8c-9.4,26-26.6-19.9-49.3-0.8c-14.2,11.9-43.9,20-55.2,0
		c-12.8-22.6-30.9-6.5-41.3,4.1c-3.2,3.2-22.2,5.2-24.5-5.8C19.7,313.7-7.4,335,2,317.7c7-12.8-2-176.6,26.7-261.9
		c21.2-63,77.2-55.5,101.3-55.5c21.7,0,69.7,5.8,81,70.3C230.8,184.3,250.9,326.4,240.9,334.1z"/>
	<path class="st0" d="M37.7,344.9"/>
</g>
<g id="shadows_and_stuff">
	<path class="st1" d="M26.8,313.9c2.5-5.7,4.9-11.6,6.1-18.5c0.8-4.7,0.9-9.7,1.1-14.6c1.6-57.1,6.9-114,15.8-169.2"/>
	<path class="st2" d="M202.3,317.1c2.8-9.5,2.4-44.9,1.5-76.1c-1-33.5-7.5-83.9-7.9-90.6c-1-17.5-1.5-48.1-12.3-71.4"/>
	<path class="st2" d="M24.8,315.7c4.8-13.1,9.8-26.6,11.7-41.8c1-7.9,1.2-16,1.6-24c1.9-36.6,9.4-71.8,12.6-108.1
		c1.8-21,2.5-43.8,10.5-60.1"/>
	<path class="st2" d="M86,316.5c13.5-51.3-2.2-152.3,10.2-201.5"/>
	<path class="st2" d="M157.9,324.1c2.7-24.6,2.2-45.3,1.1-70.2c-1.3-30.4-4.2-64.7-8.3-94.3c-0.9-6.7-1.9-13.4-2.8-20.1
		c-1.5-10.9-2.2-18-0.7-27.9"/>
</g>
</svg>
