<?xml version="1.0" encoding="utf-8"?>
<!-- Generator: Adobe Illustrator 24.0.2, SVG Export Plug-In . SVG Version: 6.00 Build 0)  -->
<svg version="1.1" xmlns="http://www.w3.org/2000/svg" xmlns:xlink="http://www.w3.org/1999/xlink" x="0px" y="0px"
	 viewBox="0 0 161 201" style="enable-background:new 0 0 161 201;" xml:space="preserve">
<style type="text/css">
	.st0{display:none;}
	.st1{fill:#71491A;}
	.st2{fill:#DF9348;}
	.st3{fill:#C07F3B;}
	.st4{fill:#231F20;}
	.st5{fill:#FFFFFF;}
	.st6{fill:#FFFE54;}
</style>
<g id="original_bird" class="st0">
	
		<image style="display:inline;overflow:visible;" width="322" height="402" xlink:href="FB68F37F.png"  transform="matrix(0.5 0 0 0.5 0 0)">
	</image>
</g>
<g id="claws">
	<path class="st1" d="M76.8,185.8l3.7-8.6c0.1-0.2,0-0.5-0.3-0.5L78,176c-0.2-0.1-0.5,0.1-0.5,0.3l-1.5,9.3
		C75.9,186,76.6,186.2,76.8,185.8z"/>
	<path class="st1" d="M71.1,180.9l8.1-1.6c0.2,0,0.4-0.3,0.3-0.5l-0.7-2.1c-0.1-0.2-0.3-0.3-0.6-0.2l-7.4,3.8
		C70.4,180.3,70.6,181,71.1,180.9z"/>
	<path class="st1" d="M85.2,182.2l-5.6-5.2c-0.2-0.2-0.5-0.1-0.6,0.1l-1,1.4c-0.1,0.2-0.1,0.5,0.1,0.6l6.6,3.8
		C85.1,183.1,85.5,182.5,85.2,182.2z"/>
	<path class="st1" d="M99.3,187.8l3.7-8.6c0.1-0.2,0-0.5-0.3-0.5l-2.2-0.6c-0.2-0.1-0.5,0.1-0.5,0.3l-1.5,9.3
		C98.5,188,99.1,188.2,99.3,187.8z"/>
	<path class="st1" d="M93.6,182.9l8.1-1.6c0.2,0,0.4-0.3,0.3-0.5l-0.7-2.1c-0.1-0.2-0.3-0.3-0.6-0.2l-7.4,3.8
		C93,182.3,93.2,183,93.6,182.9z"/>
	<path class="st1" d="M107.7,184.2l-5.6-5.2c-0.2-0.2-0.5-0.1-0.6,0.1l-1,1.4c-0.1,0.2-0.1,0.5,0.1,0.6l6.6,3.8
		C107.6,185.1,108,184.5,107.7,184.2z"/>
</g>
<g id="legs">
	<path class="st2" d="M82,175.5l13.5-37.2c0.5-1.4-0.3-2.9-1.8-3.2l-11.1-2.3c-1.5-0.3-2.9,0.8-3,2.3l-2.4,39.5
		C77,177.3,81,178.2,82,175.5z"/>
	<path class="st2" d="M104.5,177.1l13.2-59c0.3-1.4-0.7-2.8-2.1-3l-11.5-1.4c-1.4-0.2-2.7,0.9-2.8,2.4l-1.7,60.4
		C99.5,179.5,103.8,180.1,104.5,177.1z"/>
</g>
<g id="torso">
	
		<ellipse id="back_wing" transform="matrix(0.9589 -0.2838 0.2838 0.9589 -21.9892 18.9728)" class="st2" cx="54.5" cy="85.4" rx="21.6" ry="41.5"/>
	
		<ellipse id="body_1_" transform="matrix(0.9589 -0.2838 0.2838 0.9589 -20.925 26.3188)" class="st3" cx="80.4" cy="85.4" rx="41" ry="54"/>
	
		<ellipse id="front_wing" transform="matrix(0.9589 -0.2838 0.2838 0.9589 -19.726 34.5951)" class="st2" cx="109.5" cy="85.4" rx="21.6" ry="41.5"/>
</g>
<g id="wings">
</g>
<g id="head">
	<ellipse class="st2" cx="71.7" cy="26.5" rx="53.1" ry="19.5"/>
</g>
<g id="eyes">
	<ellipse id="left_eye" class="st4" cx="44.3" cy="24.7" rx="14.9" ry="10.1"/>
	<ellipse id="right_eye" class="st4" cx="85.7" cy="25.2" rx="16.7" ry="10.6"/>
	<g id="pupils">
		<circle class="st5" cx="43.9" cy="27.4" r="3"/>
		<circle class="st5" cx="83" cy="27.4" r="3"/>
	</g>
</g>
<g id="beak">
	<path class="st6" d="M56.6,68.7l9.6-28.3c0.3-0.8-0.2-1.7-1.1-1.8l-9.4-1.6c-0.8-0.1-1.6,0.5-1.6,1.4l-0.2,29.9
		C53.8,69.8,56.1,70.2,56.6,68.7z"/>
	<path class="st6" d="M60.2,33.5l-5.4,3.3c-1.1,0.7-0.8,2.4,0.5,2.6l9.4,1.6c1.3,0.2,2.1-1.3,1.3-2.3l-4-4.9
		C61.6,33.3,60.8,33.2,60.2,33.5z"/>
</g>
</svg>
