<?xml version="1.0" encoding="utf-8"?>
<!-- Generator: Adobe Illustrator 24.0.2, SVG Export Plug-In . SVG Version: 6.00 Build 0)  -->
<svg version="1.1" xmlns="http://www.w3.org/2000/svg" xmlns:xlink="http://www.w3.org/1999/xlink" x="0px" y="0px"
	 viewBox="0 0 322.1 178.4" style="enable-background:new 0 0 322.1 178.4;" xml:space="preserve">
<style type="text/css">
	.st0{fill:#71491A;}
	.st1{fill:#DF9348;}
	.st2{fill:#C04097;}
	.st3{fill:#992F78;}
	.st4{fill:#C07F3B;}
	.st5{fill:#231F20;}
	.st6{fill:#FFFFFF;}
	.st7{fill:#FFFE54;}
</style>
<g id="claws">
	<path class="st0" d="M134.8,175.9l5.3-14.4c0.1-0.2,0-0.4-0.2-0.5l-3.1-1.1c-0.2-0.1-0.5,0.1-0.5,0.3l-2.1,15.5
		C133.9,176.2,134.6,176.4,134.8,175.9z"/>
	<path class="st0" d="M126.5,167.7l12-2.8c0.2-0.1,0.4-0.3,0.3-0.5l-1.1-3.7c-0.1-0.3-0.4-0.4-0.6-0.2l-10.9,6.5
		C125.9,167.2,126.1,167.8,126.5,167.7z"/>
	<path class="st0" d="M147.1,170.6l-8.4-9.1c-0.2-0.2-0.5-0.2-0.6,0.1l-1.5,2.4c-0.1,0.2-0.1,0.4,0.1,0.5l9.9,6.7
		C147,171.5,147.4,171,147.1,170.6z"/>
	<path class="st0" d="M156.5,178.1l5.3-14.4c0.1-0.2,0-0.4-0.2-0.5l-3.1-1.1c-0.2-0.1-0.5,0.1-0.5,0.3l-2.1,15.5
		C155.6,178.4,156.3,178.6,156.5,178.1z"/>
	<path class="st0" d="M148.3,169.9l12-2.8c0.2-0.1,0.4-0.3,0.3-0.5l-1.1-3.7c-0.1-0.3-0.4-0.4-0.6-0.2l-10.9,6.5
		C147.6,169.4,147.8,170,148.3,169.9z"/>
	<path class="st0" d="M168.8,172.8l-8.4-9.1c-0.2-0.2-0.5-0.2-0.6,0.1l-1.5,2.4c-0.1,0.2-0.1,0.4,0.1,0.5l9.9,6.7
		C168.7,173.7,169.2,173.2,168.8,172.8z"/>
</g>
<g id="legs">
	<path class="st1" d="M140.5,161.6l10.8-17.5c0.9-1.4,0.1-3.3-1.5-3.7l-14.7-3.6c-1.7-0.4-3.3,1.1-3,2.8l3.9,21
		C136.4,163,139.4,163.5,140.5,161.6z"/>
	<path class="st1" d="M162,163.1l9.1-20.5c0.7-1.5-0.3-3.2-1.9-3.4l-15.2-2.1c-1.7-0.2-3.2,1.4-2.7,3.1l6,22.5
		C158,165,161.1,165.2,162,163.1z"/>
</g>
<g id="torso">
	<g id="back_wing_1_">
		<g id="light_inner_1_">
			
				<ellipse transform="matrix(0.3265 -0.9452 0.9452 0.3265 -4.2889 169.1712)" class="st2" cx="116.6" cy="87.6" rx="17.6" ry="2.8"/>
			
				<ellipse transform="matrix(0.3265 -0.9452 0.9452 0.3265 -13.6517 166.3785)" class="st2" cx="109.9" cy="92.8" rx="17.6" ry="2.8"/>
			
				<ellipse transform="matrix(0.3265 -0.9452 0.9452 0.3265 -18.6695 161.3831)" class="st2" cx="103.9" cy="93.8" rx="17.6" ry="2.8"/>
			
				<ellipse transform="matrix(0.3265 -0.9452 0.9452 0.3265 -21.5705 156.6438)" class="st2" cx="99.1" cy="93.5" rx="17.6" ry="2.8"/>
			
				<ellipse transform="matrix(0.5369 -0.8436 0.8436 0.5369 -31.7818 102.583)" class="st2" cx="77.6" cy="80.2" rx="16.8" ry="3.8"/>
			
				<ellipse transform="matrix(0.4713 -0.882 0.882 0.4713 -32.1589 132.6268)" class="st2" cx="94.5" cy="93.1" rx="17.1" ry="2.9"/>
			<ellipse transform="matrix(0.5057 -0.8627 0.8627 0.5057 -34.3605 122.7744)" class="st2" cx="90" cy="91.4" rx="17" ry="2.9"/>
			
				<ellipse transform="matrix(0.5057 -0.8627 0.8627 0.5057 -33.1471 117.6193)" class="st2" cx="86.1" cy="87.7" rx="17" ry="2.9"/>
			
				<ellipse transform="matrix(0.5057 -0.8627 0.8627 0.5057 -32.3256 112.4144)" class="st2" cx="81.9" cy="84.4" rx="17" ry="2.9"/>
			
				<ellipse transform="matrix(0.5758 -0.8176 0.8176 0.5758 -29.8792 91.7837)" class="st2" cx="73.5" cy="74.7" rx="16.7" ry="3.5"/>
			<ellipse transform="matrix(0.7286 -0.685 0.685 0.7286 -30.1897 66.107)" class="st2" cx="68.3" cy="71.1" rx="15.9" ry="3.1"/>
			
				<ellipse transform="matrix(0.7513 -0.6599 0.6599 0.7513 -26.2057 59.4733)" class="st2" cx="65.8" cy="64.5" rx="17.8" ry="4.2"/>
			<ellipse transform="matrix(0.9873 -0.1587 0.1587 0.9873 -5.1641 5.3187)" class="st2" cx="30.7" cy="35" rx="31.1" ry="5.3"/>
			
				<ellipse transform="matrix(0.9534 -0.3018 0.3018 0.9534 -11.1056 13.3983)" class="st2" cx="37.8" cy="42.6" rx="31.6" ry="5.2"/>
			<ellipse transform="matrix(0.8685 -0.4957 0.4957 0.8685 -17.6597 29.2184)" class="st2" cx="46.2" cy="47.9" rx="29.5" ry="5"/>
			
				<ellipse transform="matrix(0.8221 -0.5694 0.5694 0.8221 -19.6923 40.2447)" class="st2" cx="54.6" cy="51.6" rx="24.7" ry="3.7"/>
			
				<ellipse transform="matrix(0.7571 -0.6533 0.6533 0.7571 -20.949 52.9164)" class="st2" cx="60.7" cy="54.6" rx="25.3" ry="3.6"/>
			
				<ellipse transform="matrix(0.7571 -0.6533 0.6533 0.7571 -21.3349 56.7747)" class="st2" cx="65.7" cy="57.1" rx="25.3" ry="3.6"/>
		</g>
		<g id="dark_inner_1_">
			
				<ellipse transform="matrix(0.2127 -0.9771 0.9771 0.2127 19.3603 179.3343)" class="st3" cx="121" cy="77.7" rx="10.1" ry="1.9"/>
			
				<ellipse transform="matrix(0.2699 -0.9629 0.9629 0.2699 11.3735 169.2639)" class="st3" cx="117.3" cy="77.1" rx="12.3" ry="2.2"/>
			
				<ellipse transform="matrix(0.3255 -0.9455 0.9455 0.3255 2.1735 159.945)" class="st3" cx="113.2" cy="78.4" rx="12.2" ry="2.2"/>
			
				<ellipse transform="matrix(0.3847 -0.9231 0.9231 0.3847 -4.8274 148.3847)" class="st3" cx="108.9" cy="77.8" rx="12.1" ry="2.2"/>
			
				<ellipse transform="matrix(0.4554 -0.8903 0.8903 0.4554 -10.6572 135.1409)" class="st3" cx="105.1" cy="76.3" rx="11.9" ry="2.3"/>
			
				<ellipse transform="matrix(0.5041 -0.8636 0.8636 0.5041 -12.7846 124.7697)" class="st3" cx="102.3" cy="73.5" rx="11.8" ry="2.3"/>
			
				<ellipse transform="matrix(0.5041 -0.8636 0.8636 0.5041 -14.37 121.4998)" class="st3" cx="98.6" cy="73.3" rx="11.8" ry="2.3"/>
			
				<ellipse transform="matrix(0.504 -0.8637 0.8637 0.504 -13.5517 118.1615)" class="st3" cx="96.1" cy="70.9" rx="11.8" ry="2.3"/>
			
				<ellipse transform="matrix(0.5041 -0.8636 0.8636 0.5041 -13.7786 115.1178)" class="st3" cx="93.4" cy="69.6" rx="11.8" ry="2.3"/>
			
				<ellipse transform="matrix(0.5041 -0.8636 0.8636 0.5041 -11.8862 108.1352)" class="st3" cx="88.2" cy="64.4" rx="11.8" ry="2.3"/>
			
				<ellipse transform="matrix(0.5041 -0.8636 0.8636 0.5041 -12.0695 111.5286)" class="st3" cx="91.1" cy="66.3" rx="11.8" ry="2.3"/>
			
				<ellipse transform="matrix(0.5041 -0.8636 0.8636 0.5041 -10.3047 103.9995)" class="st3" cx="85.4" cy="61" rx="11.8" ry="2.3"/>
			<ellipse transform="matrix(0.5763 -0.8172 0.8172 0.5763 -12.1433 91.91)" class="st3" cx="82.6" cy="57.7" rx="11.5" ry="2.3"/>
			
				<ellipse transform="matrix(0.6438 -0.7652 0.7652 0.6438 -12.3569 80.9468)" class="st3" cx="80.8" cy="53.7" rx="11.3" ry="2.4"/>
			
				<ellipse transform="matrix(0.7117 -0.7025 0.7025 0.7117 -12.0386 69.5088)" class="st3" cx="78.7" cy="49.4" rx="11.1" ry="2.4"/>
			<ellipse transform="matrix(0.8175 -0.5759 0.5759 0.8175 -11.0747 53.5858)" class="st3" cx="79" cy="44.3" rx="10.7" ry="2.5"/>
			
				<ellipse transform="matrix(0.8342 -0.5514 0.5514 0.8342 -11.9829 46.6902)" class="st3" cx="71.7" cy="43.3" rx="11.7" ry="2.3"/>
			
				<ellipse transform="matrix(0.9126 -0.4088 0.4088 0.9126 -9.6239 31.9035)" class="st3" cx="69.8" cy="38.5" rx="12.4" ry="2.1"/>
			<ellipse transform="matrix(0.9868 -0.1622 0.1622 0.9868 -5.0114 10.8198)" class="st3" cx="63.7" cy="36.1" rx="9.9" ry="2.6"/>
			
				<ellipse transform="matrix(0.6707 -0.7417 0.7417 0.6707 -8.0986 89.9666)" class="st3" cx="97.3" cy="54.1" rx="12.2" ry="32.9"/>
		</g>
		
			<ellipse id="outer_part_3_" transform="matrix(0.7127 -0.7015 0.7015 0.7127 -6.0344 85.7598)" class="st1" cx="101.7" cy="50.2" rx="10.3" ry="30.4"/>
		
			<ellipse id="outer_part_2_" transform="matrix(0.9999 -1.215480e-02 1.215480e-02 0.9999 -0.366 0.7321)" class="st1" cx="60" cy="30.5" rx="27.9" ry="5.2"/>
	</g>
	
		<ellipse id="body_1_" transform="matrix(0.9589 -0.2838 0.2838 0.9589 -20.6786 46.083)" class="st4" cx="148.7" cy="94.4" rx="38.2" ry="54"/>
	<g id="front_wing">
		<g id="light_inner">
			
				<ellipse transform="matrix(0.9448 -0.3275 0.3275 0.9448 -18.2478 60.4477)" class="st2" cx="170.4" cy="84.4" rx="3.5" ry="18"/>
			<ellipse transform="matrix(0.9448 -0.3275 0.3275 0.9448 -19.6516 63.3602)" class="st2" cx="178.3" cy="90" rx="3.5" ry="18"/>
			
				<ellipse transform="matrix(0.9448 -0.3275 0.3275 0.9448 -19.7087 65.9025)" class="st2" cx="185.8" cy="91.5" rx="3.5" ry="18"/>
			
				<ellipse transform="matrix(0.9448 -0.3275 0.3275 0.9448 -19.3737 67.8916)" class="st2" cx="191.9" cy="91.5" rx="3.5" ry="18"/>
			
				<ellipse transform="matrix(0.8161 -0.5779 0.5779 0.8161 -5.5836 142.0335)" class="st2" cx="220.4" cy="79.8" rx="4.5" ry="18"/>
			<ellipse transform="matrix(0.866 -0.5 0.5 0.866 -19.2438 111.1198)" class="st2" cx="197.7" cy="91.5" rx="3.5" ry="18"/>
			<ellipse transform="matrix(0.8424 -0.5389 0.5389 0.8424 -16.4103 123.9527)" class="st2" cx="203.7" cy="90" rx="3.5" ry="18"/>
			
				<ellipse transform="matrix(0.8424 -0.5389 0.5389 0.8424 -13.7747 126.251)" class="st2" cx="208.9" cy="86.7" rx="3.5" ry="18"/>
			<ellipse transform="matrix(0.8424 -0.5389 0.5389 0.8424 -11.2752 128.75)" class="st2" cx="214.5" cy="83.6" rx="3.5" ry="18"/>
			<ellipse transform="matrix(0.7865 -0.6176 0.6176 0.7865 2.2217 155.4859)" class="st2" cx="226" cy="74.5" rx="4.1" ry="18"/>
			
				<ellipse transform="matrix(0.6415 -0.7671 0.7671 0.6415 28.7458 204.2271)" class="st2" cx="232.9" cy="71.4" rx="3.5" ry="18"/>
			
				<ellipse transform="matrix(0.6127 -0.7903 0.7903 0.6127 40.349 212.1573)" class="st2" cx="236.6" cy="64.9" rx="4.6" ry="20.3"/>
			
				<ellipse transform="matrix(0.1789 -0.9839 0.9839 0.1789 195.5911 310.1974)" class="st2" cx="283.6" cy="37.9" rx="5.3" ry="39.1"/>
			<ellipse transform="matrix(0.2945 -0.9556 0.9556 0.2945 150.2539 293.6277)" class="st2" cx="274" cy="45" rx="5.3" ry="39.1"/>
			
				<ellipse transform="matrix(0.461 -0.8874 0.8874 0.461 97.5851 260.0603)" class="st2" cx="262.9" cy="49.7" rx="5.3" ry="35.2"/>
			<ellipse transform="matrix(0.5302 -0.8479 0.8479 0.5302 73.5776 238.5011)" class="st2" cx="252" cy="52.9" rx="4" ry="28.9"/>
			<ellipse transform="matrix(0.6127 -0.7903 0.7903 0.6127 50.7077 214.2978)" class="st2" cx="244" cy="55.4" rx="4" ry="28.9"/>
			<ellipse transform="matrix(0.6127 -0.7903 0.7903 0.6127 46.5208 209.942)" class="st2" cx="237.5" cy="57.5" rx="4" ry="28.9"/>
		</g>
		<g id="dark_inner">
			
				<ellipse transform="matrix(0.9826 -0.1856 0.1856 0.9826 -10.8902 32.0408)" class="st3" cx="165.7" cy="74.2" rx="2.4" ry="10.2"/>
			
				<ellipse transform="matrix(0.9662 -0.2579 0.2579 0.9662 -13.2991 46.4288)" class="st3" cx="170.4" cy="73.9" rx="2.7" ry="12.5"/>
			
				<ellipse transform="matrix(0.9448 -0.3275 0.3275 0.9448 -15.0566 61.6208)" class="st3" cx="175.4" cy="75.5" rx="2.7" ry="12.5"/>
			
				<ellipse transform="matrix(0.9166 -0.3998 0.3998 0.9166 -14.967 78.6217)" class="st3" cx="180.9" cy="75.2" rx="2.7" ry="12.5"/>
			
				<ellipse transform="matrix(0.8754 -0.4835 0.4835 0.8754 -12.5753 99.0536)" class="st3" cx="185.8" cy="73.9" rx="2.7" ry="12.5"/>
			
				<ellipse transform="matrix(0.8424 -0.5389 0.5389 0.8424 -8.5518 113.4805)" class="st3" cx="189.7" cy="71.4" rx="2.7" ry="12.5"/>
			
				<ellipse transform="matrix(0.8424 -0.5389 0.5389 0.8424 -7.8223 115.9747)" class="st3" cx="194.3" cy="71.4" rx="2.7" ry="12.5"/>
			
				<ellipse transform="matrix(0.8425 -0.5388 0.5388 0.8425 -6.1077 117.4269)" class="st3" cx="197.7" cy="69.2" rx="2.7" ry="12.5"/>
			
				<ellipse transform="matrix(0.8424 -0.5389 0.5389 0.8424 -4.9267 119.2143)" class="st3" cx="201.3" cy="68" rx="2.7" ry="12.5"/>
			
				<ellipse transform="matrix(0.8424 -0.5389 0.5389 0.8424 -1.2613 122.2086)" class="st3" cx="208.3" cy="63.3" rx="2.7" ry="12.5"/>
			
				<ellipse transform="matrix(0.8424 -0.5389 0.5389 0.8424 -2.7486 120.4281)" class="st3" cx="204.5" cy="64.9" rx="2.7" ry="12.5"/>
			<ellipse transform="matrix(0.8424 -0.5389 0.5389 0.8424 1.0936 123.7785)" class="st3" cx="212.1" cy="60" rx="2.7" ry="12.5"/>
			
				<ellipse transform="matrix(0.7865 -0.6176 0.6176 0.7865 10.9732 145.5779)" class="st3" cx="216" cy="56.9" rx="2.7" ry="12.5"/>
			
				<ellipse transform="matrix(0.7265 -0.6872 0.6872 0.7265 23.291 164.7864)" class="st3" cx="218.7" cy="53.1" rx="2.7" ry="12.5"/>
			
				<ellipse transform="matrix(0.6579 -0.7531 0.7531 0.6579 38.9703 183.7201)" class="st3" cx="221.7" cy="49" rx="2.7" ry="12.5"/>
			
				<ellipse transform="matrix(0.5302 -0.8479 0.8479 0.5302 67.0139 208.5501)" class="st3" cx="221.7" cy="43.8" rx="2.7" ry="12.5"/>
			<ellipse transform="matrix(0.5102 -0.86 0.86 0.5102 75.9275 219.9754)" class="st3" cx="231.1" cy="43.3" rx="2.5" ry="13.8"/>
			
				<ellipse transform="matrix(0.3844 -0.9232 0.9232 0.3844 108.2807 239.6865)" class="st3" cx="233.9" cy="38.7" rx="2.2" ry="15.1"/>
			
				<ellipse transform="matrix(0.1789 -0.9839 0.9839 0.1789 162.3925 268.0022)" class="st3" cx="241.8" cy="36.7" rx="2.6" ry="12.4"/>
			<ellipse transform="matrix(0.866 -0.5 0.5 0.866 0.3207 105.8776)" class="st3" cx="197.7" cy="52.3" rx="38.8" ry="13.1"/>
		</g>
		
			<ellipse id="outer_part_1_" transform="matrix(0.8358 -0.549 0.549 0.8358 5.1514 113.5971)" class="st1" cx="192.5" cy="48.2" rx="35.3" ry="11.3"/>
		
			<ellipse id="outer_part" transform="matrix(6.375238e-02 -0.998 0.998 6.375238e-02 199.8938 275.798)" class="st1" cx="246.9" cy="31.4" rx="5.2" ry="35.3"/>
	</g>
</g>
<g id="wings">
</g>
<g id="head">
	<ellipse class="st1" cx="142.7" cy="26.2" rx="35.5" ry="26.2"/>
</g>
<g id="eyes">
	<circle id="left_eye" class="st5" cx="128.1" cy="24.1" r="10.1"/>
	<circle id="right_eye" class="st5" cx="157.9" cy="24.7" r="10.6"/>
	<g id="pupils">
		<circle class="st6" cx="128.1" cy="24.1" r="3"/>
		<circle class="st6" cx="158.1" cy="24.7" r="3"/>
	</g>
</g>
<g id="beak">
	<path class="st7" d="M144.1,40l3.2-9.6c0.3-0.9-0.4-1.8-1.3-1.8h-6.4c-1,0-1.6,0.9-1.3,1.8l3.2,9.6C141.8,41.3,143.6,41.3,144.1,40
		z"/>
	<path class="st7" d="M141.7,25.2l-3.2,3.8c-0.8,0.9-0.1,2.3,1.1,2.3l6.4,0c1.2,0,1.8-1.4,1.1-2.3l-3.2-3.8
		C143.2,24.6,142.2,24.6,141.7,25.2z"/>
</g>
</svg>
