<?xml version="1.0" encoding="utf-8"?>
<!-- Generator: Adobe Illustrator 24.0.2, SVG Export Plug-In . SVG Version: 6.00 Build 0)  -->
<svg version="1.1" xmlns="http://www.w3.org/2000/svg" xmlns:xlink="http://www.w3.org/1999/xlink" x="0px" y="0px"
	 viewBox="0 0 104.3 199.5" style="enable-background:new 0 0 104.3 199.5;" xml:space="preserve">
<style type="text/css">
	.st0{fill:none;stroke:#00B04C;stroke-width:10;stroke-miterlimit:10;}
	.st1{fill:#008639;}
	.st2{fill:#71491A;}
	.st3{fill:#C07F3B;}
	.st4{fill:#DF9348;}
	.st5{fill:#992F78;}
	.st6{fill:#C04097;}
	.st7{fill:#FFFE54;}
</style>
<g id="stem">
	<path class="st0" d="M52.1,140.8c0-11.2,14.9-16,5.2-29.9C46.8,96,31.2,94.3,20.4,74.5c-11.6-21.3-4.7-38.7,9.5-44.6
		c15.9-6.7,23.1-3.2,30.7,1.7"/>
	<path class="st0" d="M60.4,121.7c0.2-9.6,38.8-5.7,38.8-33.3c0-11.8-18.4-18-19.4-13.8"/>
	<path class="st0" d="M29.2,86.4c-13.8-6.5-23.7,6.8-23.6,15.4C5.6,114.3,20.6,125.7,27,124"/>
</g>
<g id="buds">
	<path class="st1" d="M82.3,71.8c-3.1-3.3-8.1-4-11.6-3.1c-10.1,2.7-15.3,20.1-10.4,25.1c4.6,4.6,20,0.8,23.8-8.8
		C85.5,81.5,85.9,75.6,82.3,71.8z"/>
</g>
<g id="pot">
	<g id="dirt">
		<path class="st2" d="M98.9,152.3c0.4-1.5,0.4-2.6,0.1-3.6c-0.3-0.9-0.9-1-1.7-1.9c-1.1-1.3-1.6-2-2.3-2.3c-1.4-0.6-1.5-0.1-1.9,0
			c-0.5,0.1-2.8-0.2-3.4-0.7c-1.3-1.1-2.8-1.5-2.9-1.6c0,0,0,0,0,0c0,0,0,0-0.1-0.1c-0.8-0.2-2.1-0.3-3.1,0
			c-1.1,0.3-1.1,0.5-2.6,0.9c0,0,0,0,0,0c0,0-1.3-0.2-2.8-0.4c-0.2,0-0.4,0-0.4-0.1c-1.8-0.5-3.6,0.4-3.6,0.4c-1.3,0-1.8-0.1-2-0.2
			c-1.1-0.4-0.9,0-3.5-0.3c-3.1-0.3-1.6-2.4-6.8-2.3c-1.8,0-1.8,1-3.7,0.2c-3.4-1.4-6.4,0.8-9.6-0.8c-3-1.5-6.2,0.7-9.6,1.7
			c-2.6,0.8-4.3,0.4-5.6,1.2c-1.3,0.7-0.9,0.6-2.7,0.8c-2.2,0.2-3.9,0.7-5.7,0.6c-2.2-0.2-1-0.6-3.2-0.4c-1.6,0.1-2.4,1.7-5.9,1
			c-2.3-0.4-2.4-1.2-3.5-0.7c-1.6,0.8-4.6,0.8-4.4,2.4c0.1,1.3-2.5,1.1-2.6,2.6c-0.1,0.7,0.1,1.5,0.5,2.4c0,0,0.9,2,2.8,3.3
			C14.6,158.7,88.7,153.1,98.9,152.3z"/>
	</g>
	<path class="st3" d="M91.9,199.5H12.4c-2,0-3.8-3.5-4.3-8.4l-2.5-24.8c-0.7-7.1,1.4-14,4.3-14h84.5c2.9,0,5,6.9,4.3,14l-2.5,24.8
		C95.7,196,93.9,199.5,91.9,199.5z"/>
	<path class="st4" d="M100.9,164.6H3.4c-1.9,0-3.4-1.5-3.4-3.4v-8.3c0-1.9,1.5-3.4,3.4-3.4h97.5c1.9,0,3.4,1.5,3.4,3.4v8.3
		C104.3,163,102.8,164.6,100.9,164.6z"/>
</g>
<g id="flowers">
	
		<ellipse id="petals_120_" transform="matrix(0.8388 -0.5445 0.5445 0.8388 -3.4121 31.7253)" class="st5" cx="51.9" cy="21.6" rx="3.5" ry="18"/>
	
		<ellipse id="petals_119_" transform="matrix(0.8388 -0.5445 0.5445 0.8388 -19.8356 50.9418)" class="st5" cx="76.1" cy="59" rx="3.5" ry="18"/>
	
		<ellipse id="petals_118_" transform="matrix(0.4563 -0.8898 0.8898 0.4563 -2.7979 55.6956)" class="st5" cx="44.2" cy="30.1" rx="3.5" ry="18"/>
	
		<ellipse id="petals_117_" transform="matrix(0.4563 -0.8898 0.8898 0.4563 0.6603 101.9878)" class="st5" cx="83.8" cy="50.5" rx="3.5" ry="18"/>
	
		<ellipse id="petals_116_" transform="matrix(0.9998 -1.749077e-02 1.749077e-02 0.9998 -0.7052 0.7361)" class="st5" cx="41.7" cy="40.7" rx="18" ry="3.5"/>
	
		<ellipse id="petals_115_" transform="matrix(0.9998 -1.749077e-02 1.749077e-02 0.9998 -0.6848 1.5145)" class="st5" cx="86.2" cy="39.9" rx="18" ry="3.5"/>
	
		<ellipse id="petals_114_" transform="matrix(0.8584 -0.513 0.513 0.8584 -20.1737 30.3454)" class="st5" cx="44.9" cy="51.7" rx="18" ry="3.5"/>
	
		<ellipse id="petals_113_" transform="matrix(0.8584 -0.513 0.513 0.8584 -3.047 46.7151)" class="st5" cx="83.1" cy="28.9" rx="18" ry="3.5"/>
	
		<ellipse id="petals_112_" transform="matrix(0.478 -0.8784 0.8784 0.478 -24.7202 78.0994)" class="st5" cx="53.3" cy="59.8" rx="18" ry="3.5"/>
	
		<ellipse id="petals_111_" transform="matrix(0.478 -0.8784 0.8784 0.478 20.7354 76.3775)" class="st5" cx="74.6" cy="20.7" rx="18" ry="3.5"/>
	
		<ellipse id="petals_110_" transform="matrix(0.9997 -2.281180e-02 2.281180e-02 0.9997 -1.4101 1.4875)" class="st5" cx="64.5" cy="62.5" rx="3.5" ry="18"/>
	
		<ellipse id="petals_109_" transform="matrix(0.9997 -2.281180e-02 2.281180e-02 0.9997 -0.3951 1.4528)" class="st5" cx="63.5" cy="18" rx="3.5" ry="18"/>
	
		<ellipse id="petals_108_" transform="matrix(0.6691 -0.7432 0.7432 0.6691 -3.1788 43.6652)" class="st6" cx="47.4" cy="25.4" rx="3.5" ry="18"/>
	
		<ellipse id="petals_107_" transform="matrix(0.6691 -0.7432 0.7432 0.6691 -14.3673 78.1108)" class="st6" cx="80.5" cy="55.2" rx="3.5" ry="18"/>
	
		<ellipse id="petals_106_" transform="matrix(0.2102 -0.9777 0.9777 0.2102 -1.4724 69.4094)" class="st6" cx="42.2" cy="35.6" rx="3.5" ry="18"/>
	
		<ellipse id="petals_105_" transform="matrix(0.2102 -0.9777 0.9777 0.2102 23.7517 119.3519)" class="st6" cx="85.7" cy="45" rx="3.5" ry="18"/>
	
		<ellipse id="petals_104_" transform="matrix(0.9612 -0.2759 0.2759 0.9612 -11.1606 13.5559)" class="st6" cx="42.6" cy="46.4" rx="18" ry="3.5"/>
	
		<ellipse id="petals_103_" transform="matrix(0.9612 -0.2759 0.2759 0.9612 -6.1093 24.8866)" class="st6" cx="85.4" cy="34.2" rx="18" ry="3.5"/>
	
		<ellipse id="petals_102_" transform="matrix(0.6962 -0.7179 0.7179 0.6962 -25.6657 51.9075)" class="st6" cx="48.5" cy="56.3" rx="18" ry="3.5"/>
	
		<ellipse id="petals_101_" transform="matrix(0.6962 -0.7179 0.7179 0.6962 6.6931 64.4464)" class="st6" cx="79.5" cy="24.3" rx="18" ry="3.5"/>
	
		<ellipse id="petals_100_" transform="matrix(0.2341 -0.9722 0.9722 0.2341 -15.1982 104.5808)" class="st6" cx="58.8" cy="61.9" rx="18" ry="3.5"/>
	
		<ellipse id="petals_99_" transform="matrix(0.2341 -0.9722 0.9722 0.2341 34.8626 81.5621)" class="st6" cx="69.2" cy="18.7" rx="18" ry="3.5"/>
	
		<ellipse id="petals_98_" transform="matrix(0.9597 -0.2811 0.2811 0.9597 -14.4979 22.2275)" class="st6" cx="70.2" cy="61.7" rx="3.5" ry="18"/>
	
		<ellipse id="petals_97_" transform="matrix(0.9597 -0.2811 0.2811 0.9597 -2.9943 16.9886)" class="st6" cx="57.7" cy="18.9" rx="3.5" ry="18"/>
	<circle class="st7" cx="64" cy="40.7" r="13.6"/>
	
		<ellipse id="petals_24_" transform="matrix(0.8388 -0.5445 0.5445 0.8388 -58.9232 29.7773)" class="st5" cx="20.8" cy="114.4" rx="2.1" ry="11"/>
	<path id="petals_23_" class="st5" d="M41.6,146.4c-1,0.6-4.5-3-7.8-8s-5.2-9.7-4.2-10.4c1-0.6,4.5,3,7.8,8S42.6,145.7,41.6,146.4"
		/>
	
		<ellipse id="petals_22_" transform="matrix(0.4563 -0.8898 0.8898 0.4563 -97.6357 79.3658)" class="st5" cx="16.1" cy="119.6" rx="2.1" ry="11"/>
	
		<ellipse id="petals_21_" transform="matrix(0.4563 -0.8898 0.8898 0.4563 -95.5257 107.6108)" class="st5" cx="40.3" cy="132" rx="2.1" ry="11"/>
	<path id="petals_20_" class="st5" d="M3.7,126.2c0-1.2,4.9-2.2,10.9-2.3c6.1-0.1,11,0.8,11,1.9s-4.9,2.2-10.9,2.3
		C8.6,128.3,3.7,127.4,3.7,126.2"/>
	
		<ellipse id="petals_19_" transform="matrix(0.9998 -1.749077e-02 1.749077e-02 0.9998 -2.1895 0.7502)" class="st5" cx="41.8" cy="125.5" rx="11" ry="2.1"/>
	
		<ellipse id="petals_18_" transform="matrix(0.8584 -0.513 0.513 0.8584 -65.7538 27.292)" class="st5" cx="16.6" cy="132.7" rx="11" ry="2.1"/>
	
		<ellipse id="petals_17_" transform="matrix(0.8584 -0.513 0.513 0.8584 -55.3041 37.2799)" class="st5" cx="39.9" cy="118.8" rx="11" ry="2.1"/>
	<path id="petals_16_" class="st5" d="M16.5,147.3c-1-0.6,0.5-5.3,3.4-10.6c2.9-5.3,6.1-9.2,7.1-8.6c1,0.6-0.5,5.3-3.4,10.6
		C20.7,144,17.5,147.9,16.5,147.3"/>
	
		<ellipse id="petals_15_" transform="matrix(0.478 -0.8784 0.8784 0.478 -81.886 89.9193)" class="st5" cx="34.7" cy="113.9" rx="11" ry="2.1"/>
	<path id="petals_14_" class="st5" d="M28.8,150.3c-1.2,0-2.2-4.9-2.4-10.9c-0.1-6.1,0.7-11,1.9-11c1.2,0,2.2,4.9,2.4,10.9
		S30,150.3,28.8,150.3"/>
	<path id="petals_13_" class="st5" d="M27.7,101.2c1.2,0,2.2,4.9,2.4,10.9c0.1,6.1-0.7,11-1.9,11c-1.2,0-2.2-4.9-2.4-10.9
		C25.6,106.2,26.5,101.3,27.7,101.2"/>
	
		<ellipse id="petals_12_" transform="matrix(0.6691 -0.7432 0.7432 0.6691 -80.7285 52.0846)" class="st6" cx="18.1" cy="116.7" rx="2.1" ry="11"/>
	
		<ellipse id="petals_11_" transform="matrix(0.6691 -0.7432 0.7432 0.6691 -87.5552 73.1014)" class="st6" cx="38.3" cy="134.9" rx="2.1" ry="11"/>
	
		<ellipse id="petals_10_" transform="matrix(0.2102 -0.9777 0.9777 0.2102 -108.3813 111.6888)" class="st6" cx="14.9" cy="122.9" rx="2.1" ry="11"/>
	
		<ellipse id="petals_9_" transform="matrix(0.2102 -0.9777 0.9777 0.2102 -92.991 142.161)" class="st6" cx="41.5" cy="128.6" rx="2.1" ry="11"/>
	
		<ellipse id="petals_8_" transform="matrix(0.9612 -0.2759 0.2759 0.9612 -35.1543 9.2132)" class="st6" cx="15.2" cy="129.5" rx="11" ry="2.1"/>
	
		<ellipse id="petals_7_" transform="matrix(0.9612 -0.2759 0.2759 0.9612 -32.0723 16.1266)" class="st6" cx="41.3" cy="122" rx="11" ry="2.1"/>
	
		<ellipse id="petals_6_" transform="matrix(0.6962 -0.7179 0.7179 0.6962 -91.5943 54.6465)" class="st6" cx="18.8" cy="135.5" rx="11" ry="2.1"/>
	
		<ellipse id="petals_5_" transform="matrix(0.6962 -0.7179 0.7179 0.6962 -71.8507 62.297)" class="st6" cx="37.7" cy="116" rx="11" ry="2.1"/>
	<path id="petals_4_" class="st6" d="M22.5,149.6c-1.1-0.3-0.9-5.3,0.5-11.2c1.4-5.9,3.5-10.4,4.6-10.2c1.1,0.3,0.9,5.3-0.5,11.2
		C25.7,145.4,23.6,149.9,22.5,149.6"/>
	<path id="petals_3_" class="st6" d="M34,101.9c1.1,0.3,0.9,5.3-0.5,11.2c-1.4,5.9-3.5,10.4-4.6,10.2c-1.1-0.3-0.9-5.3,0.5-11.2
		C30.7,106.2,32.8,101.6,34,101.9"/>
	<path id="petals_2_" class="st6" d="M35.1,149.3c-1.1,0.3-3.4-4.1-5.1-9.9s-2.2-10.8-1-11.1c1.1-0.3,3.4,4.1,5.1,9.9
		C35.8,144,36.2,149,35.1,149.3"/>
	<path id="petals_1_" class="st6" d="M21.3,102.2c1.1-0.3,3.4,4.1,5.1,9.9c1.7,5.8,2.2,10.8,1,11.1c-1.1,0.3-3.4-4.1-5.1-9.9
		S20.2,102.6,21.3,102.2"/>
	<circle class="st7" cx="28.2" cy="126" r="8.3"/>
</g>
</svg>
