<?xml version="1.0" encoding="utf-8"?>
<!-- Generator: Adobe Illustrator 25.0.1, SVG Export Plug-In . SVG Version: 6.00 Build 0)  -->
<svg version="1.1" xmlns="http://www.w3.org/2000/svg" xmlns:xlink="http://www.w3.org/1999/xlink" x="0px" y="0px"
	 viewBox="0 0 2271 2021.1" style="enable-background:new 0 0 2271 2021.1;" xml:space="preserve">
<style type="text/css">
	.st0{fill:none;stroke:#000000;stroke-width:5;stroke-miterlimit:10;}
	.st1{font-family:'MyriadPro-Regular';}
	.st2{font-size:91.5495px;}
	.st3{fill:none;stroke:#EE6363;stroke-width:10;stroke-miterlimit:10;}
	.st4{fill:none;stroke:#7AD1FF;stroke-width:10;stroke-miterlimit:10;}
	.st5{fill:none;stroke:#FFEC8B;stroke-width:10;stroke-miterlimit:10;}
	.st6{fill:none;stroke:#BCEE68;stroke-width:10;stroke-miterlimit:10;}
	.st7{fill:#EE6363;}
	.st8{fill:#7AD1FF;}
	.st9{fill:#FFEC8B;}
	.st10{fill:#BCEE68;}
	.st11{font-size:65.723px;}
	.st12{fill:#FFFFFF;stroke:#000000;stroke-width:2.5;stroke-miterlimit:10;}
	.st13{fill:#FFFFFF;}
	.st14{font-size:36px;}
</style>
<g id="black_boxes">
	<rect x="421.5" y="211.6" class="st0" width="1435" height="490"/>
	<rect x="2.5" y="777.6" class="st0" width="1642" height="501"/>
	<rect x="440.5" y="1354.6" class="st0" width="1405" height="519"/>
	<rect x="1716.5" y="777.6" class="st0" width="552" height="501"/>
</g>
<g id="box_label_letters">
	<text transform="matrix(1 0 0 1 446.1484 299.2458)" class="st1 st2">A</text>
	<text transform="matrix(1 0 0 1 23.2411 861.3653)" class="st1 st2">B</text>
	<text transform="matrix(1 0 0 1 463.5734 1443.4291)" class="st1 st2">C</text>
	<text transform="matrix(1 0 0 1 1744.9989 861.1099)" class="st1 st2">Z</text>
</g>
<g id="screenshots">
	
		<image style="overflow:visible;" width="750" height="501" xlink:href="E3EEA707.png"  transform="matrix(0.6 0 0 0.6 593 914.1335)">
	</image>
	
		<image style="overflow:visible;" width="750" height="501" xlink:href="E3EEA705.png"  transform="matrix(0.6 0 0 0.6 937 342.1335)">
	</image>
	
		<image style="overflow:visible;" width="752" height="501" xlink:href="E3EEA70B.png"  transform="matrix(0.6 0 0 0.6 954 1511.1335)">
	</image>
</g>
<g id="condition_lines">
	<path class="st3" d="M574,94.1c0,14.3,0,76,0,76h149c0,0,0,405.6,0,567.1c-140.3,0-280.7,0-421,0c0,192.7,0,385.3,0,578
		c124.4,0,248.8,0,373.2,0c0,199.3,0.3,399.1,0.3,598.5c95.6,0,204.9,0.5,300.5,0.5c0,29,0,34.1,0,63"/>
	<path class="st4" d="M1002,94.1c0,17.4,0,92,0,92l545-1c0,0,0.5,270.9,0.5,270.9c0.3,51.1,0.6,133.1,0.5,269.1
		c-99.4,0-202.9,0-302.3,0c0,204,0,408,0,612.1c104.9,0,209.8,0,314.7,0c0,184-0.3,378-0.3,561.9c-162.1,0-306.9-1-469-1
		c0,51.7,0,27.3,0,79"/>
	<path class="st5" d="M1416,94.1c0,9-1,58-1,58l216-1c0,0-4,313.1-4,313.1c-0.4,56.4-0.8,146.7-1,293.1c-113.7,0-190.3,0-304,0
		c0,182.6,0,365.2,0,547.8c102.3,0,257.7,0,360,0c0,8,0-406,0-406h263l-4,437h-312c0,0,0,417.9,0,592c-143.3,0-286.7-2-430-2
		c0,19,0,32,0,51"/>
	<path class="st6" d="M1760,100.1c0,10.2,0,65,0,65l-54,1c0,0,0,408.4,0,573.1c96,0,192,0,288,0c0,407.6,0,808.2,0,1215.9
		c-203,0-453-1-689-1c0,5.2,0,18.3,0,23.5"/>
</g>
<g id="condition_label_bubbles">
	<path class="st7" d="M693.8,117.9H454.2c-28.3,0-51.2-22.9-51.2-51.2V51.4c0-28.3,22.9-51.2,51.2-51.2h239.5
		c28.3,0,51.2,22.9,51.2,51.2v15.3C745,95,722.1,117.9,693.8,117.9z"/>
	<path class="st8" d="M1147.8,117.8h-292c-28.3,0-51.2-22.9-51.2-51.2V51.2c0-28.3,22.9-51.2,51.2-51.2h292
		c28.3,0,51.2,22.9,51.2,51.2v15.3C1199,94.9,1176.1,117.8,1147.8,117.8z"/>
	<path class="st9" d="M1520.8,117.8h-210.5c-28.3,0-51.2-22.9-51.2-51.2V51.2c0-28.3,22.9-51.2,51.2-51.2h210.5
		c28.3,0,51.2,22.9,51.2,51.2v15.3C1572,94.9,1549.1,117.8,1520.8,117.8z"/>
	<path class="st10" d="M1833.8,118.1h-148.5c-28.3,0-51.2-22.9-51.2-51.2V51.5c0-28.3,22.9-51.2,51.2-51.2h148.5
		c28.3,0,51.2,22.9,51.2,51.2v15.3C1885,95.1,1862.1,118.1,1833.8,118.1z"/>
</g>
<g id="conditions_bulbs_and_condition_texts">
	<circle class="st9" cx="1199" cy="1998.1" r="22"/>
	<circle class="st8" cx="1091" cy="1999.1" r="22"/>
	<circle class="st7" cx="976" cy="1999.1" r="22"/>
	<circle class="st10" cx="1305" cy="1998.1" r="22"/>
	<text transform="matrix(1 0 0 1 430 76.7024)" class="st1 st11">accidental</text>
	<text transform="matrix(1 0 0 1 831.3452 77.3991)" class="st1 st11">pedagogical</text>
	<text transform="matrix(1 0 0 1 1291.3359 77.3991)" class="st1 st11">gen+ped</text>
	<text transform="matrix(1 0 0 1 1656.1484 76.3679)" class="st1 st11">generic</text>
</g>
<g id="speech_bubbles">
	<path class="st12" d="M586.1,418.6h283.7c8.1,0,14.6-6.6,14.6-14.6v-46.7c0-8.1-6.6-14.6-14.6-14.6H586.1
		c-8.1,0-14.6,6.6-14.6,14.6V404C571.5,412.1,578.1,418.6,586.1,418.6z"/>
	<g>
		<path class="st12" d="M837.5,417.1c0,12.8,0,25.6,0,38.5c-8.1-12.3-18.9-26.6-27-39"/>
		<path class="st13" d="M834.5,419.6c2-1.5,2.7-2.9,3-4c1.4-5.3-4.7-13-12-14c-6.9-0.9-15,4.2-15,10c0,3.4,2.8,6,4,7"/>
	</g>
	<path class="st12" d="M512.1,605.6h357.7c8.1,0,14.6-6.6,14.6-14.6v-46.7c0-8.1-6.6-14.6-14.6-14.6H512.1
		c-8.1,0-14.6,6.6-14.6,14.6V591C497.5,599.1,504.1,605.6,512.1,605.6z"/>
	<g>
		<path class="st12" d="M837.5,604.1c0,12.8,0,25.6,0,38.5c-8.1-12.3-18.9-26.6-27-39"/>
		<path class="st13" d="M834.5,606.6c2-1.5,2.7-2.9,3-4c1.4-5.3-4.7-13-12-14c-6.9-0.9-15,4.2-15,10c0,3.4,2.8,6,4,7"/>
	</g>
	<path class="st12" d="M1807.9,419.6h-353.7c-8.1,0-14.6-6.6-14.6-14.6v-46.7c0-8.1,6.6-14.6,14.6-14.6h353.7
		c8.1,0,14.6,6.6,14.6,14.6V405C1822.5,413.1,1815.9,419.6,1807.9,419.6z"/>
	<path class="st12" d="M1734.9,604.6h-280.7c-8.1,0-14.6-6.6-14.6-14.6v-46.7c0-8.1,6.6-14.6,14.6-14.6h280.7
		c8.1,0,14.6,6.6,14.6,14.6V590C1749.5,598.1,1742.9,604.6,1734.9,604.6z"/>
	<g>
		<path class="st12" d="M1486.5,603.1c0,12.8,0,25.6,0,38.5c8.1-12.3,18.9-26.6,27-39"/>
		<path class="st13" d="M1489.5,605.6c-2-1.5-2.7-2.9-3-4c-1.4-5.3,4.7-13,12-14c6.9-0.9,15,4.2,15,10c0,3.4-2.8,6-4,7"/>
	</g>
	<path class="st12" d="M586.1,419.6h283.7c8.1,0,14.6-6.6,14.6-14.6v-46.7c0-8.1-6.6-14.6-14.6-14.6H586.1
		c-8.1,0-14.6,6.6-14.6,14.6V405C571.5,413.1,578.1,419.6,586.1,419.6z"/>
	<g>
		<path class="st12" d="M837.5,418.1c0,12.8,0,25.6,0,38.5c-8.1-12.3-18.9-26.6-27-39"/>
		<path class="st13" d="M834.5,420.6c2-1.5,2.7-2.9,3-4c1.4-5.3-4.7-13-12-14c-6.9-0.9-15,4.2-15,10c0,3.4,2.8,6,4,7"/>
	</g>
	<path class="st12" d="M512.1,606.6h357.7c8.1,0,14.6-6.6,14.6-14.6v-46.7c0-8.1-6.6-14.6-14.6-14.6H512.1
		c-8.1,0-14.6,6.6-14.6,14.6V592C497.5,600.1,504.1,606.6,512.1,606.6z"/>
	<g>
		<path class="st12" d="M837.5,605.1c0,12.8,0,25.6,0,38.5c-8.1-12.3-18.9-26.6-27-39"/>
		<path class="st13" d="M834.5,607.6c2-1.5,2.7-2.9,3-4c1.4-5.3-4.7-13-12-14c-6.9-0.9-15,4.2-15,10c0,3.4,2.8,6,4,7"/>
	</g>
	<path class="st12" d="M1807.9,420.6h-353.7c-8.1,0-14.6-6.6-14.6-14.6v-46.7c0-8.1,6.6-14.6,14.6-14.6h353.7
		c8.1,0,14.6,6.6,14.6,14.6V406C1822.5,414.1,1815.9,420.6,1807.9,420.6z"/>
	<g>
		<path class="st12" d="M1486.5,416.1c0,12.8,0,25.6,0,38.5c8.1-12.3,18.9-26.6,27-39"/>
		<path class="st13" d="M1489.5,418.6c-2-1.5-2.7-2.9-3-4c-1.4-5.3,4.7-13,12-14c6.9-0.9,15,4.2,15,10c0,3.4-2.8,6-4,7"/>
	</g>
	<path class="st12" d="M1734.9,605.6h-280.7c-8.1,0-14.6-6.6-14.6-14.6v-46.7c0-8.1,6.6-14.6,14.6-14.6h280.7
		c8.1,0,14.6,6.6,14.6,14.6V591C1749.5,599.1,1742.9,605.6,1734.9,605.6z"/>
	<g>
		<path class="st12" d="M1486.5,604.1c0,12.8,0,25.6,0,38.5c8.1-12.3,18.9-26.6,27-39"/>
		<path class="st13" d="M1489.5,606.6c-2-1.5-2.7-2.9-3-4c-1.4-5.3,4.7-13,12-14c6.9-0.9,15,4.2,15,10c0,3.4-2.8,6-4,7"/>
	</g>
	<path class="st12" d="M2217.9,997.6h-451.7c-8.1,0-14.6-6.6-14.6-14.6v-46.7c0-8.1,6.6-14.6,14.6-14.6h451.7
		c8.1,0,14.6,6.6,14.6,14.6V983C2232.5,991.1,2225.9,997.6,2217.9,997.6z"/>
	<g>
		<path class="st12" d="M1798.5,995.1c0,12.8,0,25.6,0,38.5c8.1-12.3,18.9-26.6,27-39"/>
		<path class="st13" d="M1801.5,997.6c-2-1.5-2.7-2.9-3-4c-1.4-5.3,4.7-13,12-14c6.9-0.9,15,4.2,15,10c0,3.4-2.8,6-4,7"/>
	</g>
	<path class="st12" d="M2183.9,1176.6h-416.7c-8.1,0-14.6-6.6-14.6-14.6v-46.7c0-8.1,6.6-14.6,14.6-14.6h416.7
		c8.1,0,14.6,6.6,14.6,14.6v46.7C2198.5,1170.1,2191.9,1176.6,2183.9,1176.6z"/>
	<g>
		<path class="st12" d="M1799.5,1175.1c0,12.8,0,25.6,0,38.5c8.1-12.3,18.9-26.6,27-39"/>
		<path class="st13" d="M1802.5,1177.6c-2-1.5-2.7-2.9-3-4c-1.4-5.3,4.7-13,12-14c6.9-0.9,15,4.2,15,10c0,3.4-2.8,6-4,7"/>
	</g>
	<path class="st12" d="M1597.9,1000.6h-487.7c-8.1,0-14.6-6.6-14.6-14.6v-46.7c0-8.1,6.6-14.6,14.6-14.6h487.7
		c8.1,0,14.6,6.6,14.6,14.6V986C1612.5,994.1,1605.9,1000.6,1597.9,1000.6z"/>
	<g>
		<path class="st12" d="M1142.5,1000.1c0,12.8,0,25.6,0,38.5c8.1-12.3,18.9-26.6,27-39"/>
		<path class="st13" d="M1145.5,1002.6c-2-1.5-2.7-2.9-3-4c-1.4-5.3,4.7-13,12-14c6.9-0.9,15,4.2,15,10c0,3.4-2.8,6-4,7"/>
	</g>
	<path class="st12" d="M1381.9,1176.6h-271.7c-8.1,0-14.6-6.6-14.6-14.6v-46.7c0-8.1,6.6-14.6,14.6-14.6h271.7
		c8.1,0,14.6,6.6,14.6,14.6v46.7C1396.5,1170.1,1389.9,1176.6,1381.9,1176.6z"/>
	<g>
		<path class="st12" d="M1142.5,1175.1c0,12.8,0,25.6,0,38.5c8.1-12.3,18.9-26.6,27-39"/>
		<path class="st13" d="M1145.5,1177.6c-2-1.5-2.7-2.9-3-4c-1.4-5.3,4.7-13,12-14c6.9-0.9,15,4.2,15,10c0,3.4-2.8,6-4,7"/>
	</g>
	<path class="st12" d="M58.1,989.6h467.7c8.1,0,14.6-6.6,14.6-14.6v-46.7c0-8.1-6.6-14.6-14.6-14.6H58.1c-8.1,0-14.6,6.6-14.6,14.6
		V975C43.5,983.1,50.1,989.6,58.1,989.6z"/>
	<g>
		<path class="st12" d="M490.5,985.1c0,12.8,0,25.6,0,38.5c-8.1-12.3-18.9-26.6-27-39"/>
		<path class="st13" d="M487.5,987.6c2-1.5,2.7-2.9,3-4c1.4-5.3-4.7-13-12-14c-6.9-0.9-15,4.2-15,10c0,3.4,2.8,6,4,7"/>
	</g>
	<path class="st12" d="M1667.9,1584.6h-195.7c-8.1,0-14.6-6.6-14.6-14.6v-46.7c0-8.1,6.6-14.6,14.6-14.6h195.7
		c8.1,0,14.6,6.6,14.6,14.6v46.7C1682.5,1578.1,1675.9,1584.6,1667.9,1584.6z"/>
	<g>
		<path class="st12" d="M1527.5,1583.1c0,12.8,0,25.6,0,38.5c8.1-12.3,18.9-26.6,27-39"/>
		<path class="st13" d="M1530.5,1585.6c-2-1.5-2.7-2.9-3-4c-1.4-5.3,4.7-13,12-14c6.9-0.9,15,4.2,15,10c0,3.4-2.8,6-4,7"/>
	</g>
	<path class="st12" d="M1798.9,1773.6h-326.7c-8.1,0-14.6-6.6-14.6-14.6v-46.7c0-8.1,6.6-14.6,14.6-14.6h326.7
		c8.1,0,14.6,6.6,14.6,14.6v46.7C1813.5,1767.1,1806.9,1773.6,1798.9,1773.6z"/>
	<g>
		<path class="st12" d="M1527.5,1772.1c0,12.8,0,25.6,0,38.5c8.1-12.3,18.9-26.6,27-39"/>
		<path class="st13" d="M1530.5,1774.6c-2-1.5-2.7-2.9-3-4c-1.4-5.3,4.7-13,12-14c6.9-0.9,15,4.2,15,10c0,3.4-2.8,6-4,7"/>
	</g>
	<path class="st12" d="M127.1,1178.6h398.7c8.1,0,14.6-6.6,14.6-14.6v-46.7c0-8.1-6.6-14.6-14.6-14.6H127.1
		c-8.1,0-14.6,6.6-14.6,14.6v46.7C112.5,1172.1,119.1,1178.6,127.1,1178.6z"/>
	<g>
		<path class="st12" d="M490.5,1174.1c0,12.8,0,25.6,0,38.5c-8.1-12.3-18.9-26.6-27-39"/>
		<path class="st13" d="M487.5,1176.6c2-1.5,2.7-2.9,3-4c1.4-5.3-4.7-13-12-14c-6.9-0.9-15,4.2-15,10c0,3.4,2.8,6,4,7"/>
	</g>
	<path class="st12" d="M488.1,1679.6h398.7c8.1,0,14.6-6.6,14.6-14.6v-46.7c0-8.1-6.6-14.6-14.6-14.6H488.1
		c-8.1,0-14.6,6.6-14.6,14.6v46.7C473.5,1673.1,480.1,1679.6,488.1,1679.6z"/>
	<g>
		<path class="st12" d="M831.5,1678.1c0,12.8,0,25.6,0,38.5c-8.1-12.3-18.9-26.6-27-39"/>
		<path class="st13" d="M828.5,1680.6c2-1.5,2.7-2.9,3-4c1.4-5.3-4.7-13-12-14c-6.9-0.9-15,4.2-15,10c0,3.4,2.8,6,4,7"/>
	</g>
</g>
<g id="text">
	<text transform="matrix(1 0 0 1 595.1834 392.0242)" class="st1 st14">I just arrived here.</text>
	<text transform="matrix(1 0 0 1 521.4941 578.9125)" class="st1 st14">I don’t know anything...</text>
	<text transform="matrix(1 0 0 1 1468.3126 388.7849)" class="st1 st14">I’ve been here a while.</text>
	<text transform="matrix(1 0 0 1 1463.697 574.785)" class="st1 st14">I know all about...</text>
	<text transform="matrix(1 0 0 1 1780.3126 965.7849)" class="st1 st14">I have something to tell you...</text>
	<text transform="matrix(1 0 0 1 1776.697 1145.785)" class="st1 st14">Daxes have green feathers.</text>
	<text transform="matrix(1 0 0 1 1119.3126 969.7849)" class="st1 st14">I have something to show you...</text>
	<text transform="matrix(1 0 0 1 1121.697 1148.785)" class="st1 st14">These are daxes.</text>
	<text transform="matrix(1 0 0 1 69.3126 961.7849)" class="st1 st14">I wonder what we have here...</text>
	<text transform="matrix(1 0 0 1 1486.3127 1554.7849)" class="st1 st14">Watch this!</text>
	<text transform="matrix(1 0 0 1 1486.3127 1743.7849)" class="st1 st14">See? Green feathers!</text>
	<text transform="matrix(1 0 0 1 135.3126 1152.7849)" class="st1 st14">Oh, I see! These are daxes.</text>
	<text transform="matrix(1 0 0 1 502.3126 1649.7849)" class="st1 st14">Oh wow! Green feathers!</text>
</g>
</svg>
