<svg xmlns="http://www.w3.org/2000/svg" viewBox="0 0 104.21 178.69"><defs><style>.cls-1{fill:#fff;}.cls-2{fill:#ab519a;}.cls-3{fill:#c66aff;}</style></defs><g id="darn_that_annoying_fine_white_line" data-name="darn that annoying fine white line"><rect class="cls-1" x="46.15" y="37.36" width="12.26" height="141.34"/><rect class="cls-1" x="48.28" y="0.29" width="7.5" height="7.5"/></g><g id="body_base" data-name="body base"><path class="cls-1" d="M52.15,37.06a48.43,48.43,0,0,0-23-3.83c-5.29.45-13.38,1.21-19.91,7.15A28.13,28.13,0,0,0,3.38,48.3,31.52,31.52,0,0,0,0,59.28V76.64c.68,5.86,1.78,14,3.6,23.74,3.09,16.52,5.59,29.84,12,44.68A135.27,135.27,0,0,0,36.32,178.4H52.15Z" transform="translate(-0.04 0.29)"/><path class="cls-1" d="M52.15,37.06a48.36,48.36,0,0,1,23-3.83c5.29.45,13.38,1.21,19.92,7.15a28.24,28.24,0,0,1,5.87,7.92,31.31,31.31,0,0,1,3.34,11V76.64c-.68,5.86-1.78,14-3.6,23.74-3.09,16.52-5.58,29.84-12,44.68A135.27,135.27,0,0,1,68,178.4H52.15Z" transform="translate(-0.04 0.29)"/></g><g id="top_handle" data-name="top handle"><path class="cls-1" d="M52.32,0a28,28,0,0,0-8.09,0c-9.48,1.39-15.48,7.36-18,9.89-10,10-11.46,22.79-11.74,26.9l9.38-2.94A33.56,33.56,0,0,1,31.3,18.57a34.54,34.54,0,0,1,21-11.23Z" transform="translate(-0.04 0.29)"/><path class="cls-1" d="M52.32,0A28,28,0,0,1,60.4,0c9.49,1.39,15.49,7.36,18.05,9.89,10,10,11.45,22.79,11.74,26.9l-9.38-2.94a33.56,33.56,0,0,0-7.47-15.28,34.54,34.54,0,0,0-21-11.23Z" transform="translate(-0.04 0.29)"/></g><g id="body_pattern" data-name="body pattern"><path class="cls-2" d="M52.32,46.25c-11.92,5.62-21,11.9-23.92,36.52-4.67,40,14.06,86.79,19.92,95.63-4.2-4.69-32.63-56.67-26.55-99.72C25.59,51.57,40.13,48,52.32,46.25Z" transform="translate(-0.04 0.29)"/><path class="cls-3" d="M178.79,57.23" transform="translate(-0.04 0.29)"/><path class="cls-2" d="M52.15,40.38c.22,1-18.67.48-30.13,13-13.6,14.9-9,39.83-5.11,60.77A190.78,190.78,0,0,0,41.68,178.4c-17.32-25.48-21.28-33.23-25.07-48.73-5.8-23.75-14.63-62.37-2.16-78C26.24,36.79,51.89,39.2,52.15,40.38Z" transform="translate(-0.04 0.29)"/><path class="cls-2" d="M52.15,55.7c-.8-.25-9.8,6.21-13.28,27.58-5.57,34.25,4.76,75.5,13.28,93.7-6.07-16.22-12.3-57-9.7-87.48C44.74,62.59,53,56,52.15,55.7Z" transform="translate(-0.04 0.29)"/><path class="cls-2" d="M52,46.25C64,51.87,73.08,58.15,76,82.77c4.68,40-14.05,86.79-19.91,95.63,4.2-4.69,32.62-56.67,26.55-99.72C78.77,51.57,64.23,48,52,46.25Z" transform="translate(-0.04 0.29)"/><path class="cls-2" d="M52.21,40.38c-.22,1,18.67.48,30.13,13,13.6,14.9,9,39.83,5.1,60.77A190.71,190.71,0,0,1,62.68,178.4C80,152.92,84,145.17,87.74,129.67c5.8-23.75,14.64-62.37,2.17-78C78.12,36.79,52.46,39.2,52.21,40.38Z" transform="translate(-0.04 0.29)"/><path class="cls-2" d="M52.21,55.7c.8-.25,9.8,6.21,13.28,27.58,5.57,34.25-4.76,75.5-13.28,93.7,6.06-16.22,12.3-57,9.7-87.48C59.61,62.59,51.34,56,52.21,55.7Z" transform="translate(-0.04 0.29)"/><path class="cls-2" d="M52.32,4.38c-6,1.24-10.78,2.72-13.7,4.34-3.76,2.09-8.43,4.68-12.26,10a46.33,46.33,0,0,0-5.87,12.26c-.9,2.59-1.21,4.4-1.35,4.37s.14-5.72,2.5-11.78a28.24,28.24,0,0,1,5.74-9.83c2.14-2.28,4.11-5,9.92-8.17a41.05,41.05,0,0,1,5-2.27C44.64,2.37,48,2,52.32,1.45Z" transform="translate(-0.04 0.29)"/><path class="cls-2" d="M52.32,4.25C58.31,5.49,63.1,7,66,8.59c3.75,2.08,8.43,4.68,12.26,10A46.61,46.61,0,0,1,84.15,30.8c.9,2.6,1.21,4.41,1.34,4.38S85.36,29.46,83,23.4a28.4,28.4,0,0,0-5.74-9.83c-2.15-2.28-4.11-5-9.92-8.17a40.7,40.7,0,0,0-5-2.27c-2.36-.89-5.76-1.29-10-1.82Z" transform="translate(-0.04 0.29)"/></g><g id="body_hole" data-name="body hole"><ellipse class="cls-2" cx="52.28" cy="118.16" rx="2.55" ry="31.6"/></g></svg>