<?xml version="1.0" encoding="utf-8"?>
<!-- Generator: Adobe Illustrator 24.0.2, SVG Export Plug-In . SVG Version: 6.00 Build 0)  -->
<svg version="1.1" xmlns="http://www.w3.org/2000/svg" xmlns:xlink="http://www.w3.org/1999/xlink" x="0px" y="0px"
	 viewBox="0 0 104.3 178.4" style="enable-background:new 0 0 104.3 178.4;" xml:space="preserve">
<style type="text/css">
	.st0{fill:#FFC435;}
	.st1{fill:#AB519A;}
	.st2{fill:#C66AFF;}
</style>
<g id="darn_that_annoying_fine_white_line">
	<rect x="46.2" y="37.1" class="st0" width="12.3" height="141.3"/>
	<rect x="48.3" class="st0" width="7.5" height="7.5"/>
</g>
<g id="body_base">
	<g>
		<path class="st0" d="M52.1,37.1c-4.8-2.1-13-4.7-23-3.8c-5.3,0.4-13.4,1.2-19.9,7.1c-3.4,3.1-5.2,6.7-5.9,7.9
			c-2.3,4.4-3,8.4-3.3,11c0,5.8,0,11.6,0,17.4c0.7,5.9,1.8,14,3.6,23.7c3.1,16.5,5.6,29.8,12,44.7c3.7,8.6,10,20.5,20.7,33.3
			c5.3,0,10.6,0,15.8,0C52.1,131.3,52.1,84.2,52.1,37.1z"/>
		<path class="st0" d="M52.1,37.1c4.8-2.1,13-4.7,23-3.8c5.3,0.4,13.4,1.2,19.9,7.1c3.4,3.1,5.2,6.7,5.9,7.9c2.3,4.4,3,8.4,3.3,11
			c0,5.8,0,11.6,0,17.4c-0.7,5.9-1.8,14-3.6,23.7c-3.1,16.5-5.6,29.8-12,44.7c-3.7,8.6-10,20.5-20.7,33.3c-5.3,0-10.6,0-15.8,0
			C52.1,131.3,52.1,84.2,52.1,37.1z"/>
	</g>
</g>
<g id="top_handle">
	<path class="st0" d="M52.3,0c-2-0.3-4.8-0.5-8.1,0c-9.5,1.4-15.5,7.4-18,9.9c-10,10-11.5,22.8-11.7,26.9c3.1-1,6.3-2,9.4-2.9
		c0.7-3.2,2.4-9.4,7.5-15.3c7.8-9,18.1-10.8,21-11.2C52.3,4.9,52.3,2.4,52.3,0z"/>
	<path class="st0" d="M52.3,0c2-0.3,4.8-0.5,8.1,0c9.5,1.4,15.5,7.4,18,9.9c10,10,11.5,22.8,11.7,26.9c-3.1-1-6.3-2-9.4-2.9
		c-0.7-3.2-2.4-9.4-7.5-15.3c-7.8-9-18.1-10.8-21-11.2C52.3,4.9,52.3,2.4,52.3,0z"/>
</g>
<g id="body_pattern">
	<path class="st1" d="M52.3,46.3c-11.9,5.6-21,11.9-23.9,36.5c-4.7,40,14.1,86.8,19.9,95.6c-4.2-4.7-32.6-56.7-26.6-99.7
		C25.6,51.6,40.1,48,52.3,46.3z"/>
	<path class="st2" d="M178.8,57.2"/>
	<path class="st1" d="M52.1,40.4c0.2,1-18.7,0.5-30.1,13c-13.6,14.9-9,39.8-5.1,60.8c2.8,14.9,9,38.1,24.8,64.2
		c-17.3-25.5-21.3-33.2-25.1-48.7C10.8,105.9,2,67.3,14.4,51.6C26.2,36.8,51.9,39.2,52.1,40.4z"/>
	<path class="st1" d="M52.1,55.7c-0.8-0.2-9.8,6.2-13.3,27.6c-5.6,34.3,4.8,75.5,13.3,93.7c-6.1-16.2-12.3-57-9.7-87.5
		C44.7,62.6,53,56,52.1,55.7z"/>
	<path class="st1" d="M52,46.3C64,51.9,73.1,58.2,76,82.8c4.7,40-14.1,86.8-19.9,95.6c4.2-4.7,32.6-56.7,26.6-99.7
		C78.8,51.6,64.2,48,52,46.3z"/>
	<path class="st1" d="M52.2,40.4c-0.2,1,18.7,0.5,30.1,13c13.6,14.9,9,39.8,5.1,60.8c-2.8,14.9-9,38.1-24.8,64.2
		C80,152.9,84,145.2,87.7,129.7c5.8-23.8,14.6-62.4,2.2-78.1C78.1,36.8,52.5,39.2,52.2,40.4z"/>
	<path class="st1" d="M52.2,55.7c0.8-0.2,9.8,6.2,13.3,27.6c5.6,34.3-4.8,75.5-13.3,93.7c6.1-16.2,12.3-57,9.7-87.5
		C59.6,62.6,51.3,56,52.2,55.7z"/>
	<path class="st1" d="M52.3,4.4c-6,1.2-10.8,2.7-13.7,4.3c-3.8,2.1-8.4,4.7-12.3,10c-3.1,4.3-4.8,9.1-5.9,12.3
		c-0.9,2.6-1.2,4.4-1.3,4.4c-0.2-0.1,0.1-5.7,2.5-11.8c1.1-2.7,2.5-6.3,5.7-9.8c2.1-2.3,4.1-5,9.9-8.2c0.6-0.3,2.4-1.3,5-2.3
		c2.4-0.9,5.8-1.3,10-1.8V4.4z"/>
	<path class="st1" d="M52.3,4.2C58.3,5.5,63.1,7,66,8.6c3.8,2.1,8.4,4.7,12.3,10c3.1,4.3,4.8,9.1,5.9,12.3c0.9,2.6,1.2,4.4,1.3,4.4
		c0.2-0.1-0.1-5.7-2.5-11.8c-1.1-2.7-2.5-6.3-5.7-9.8c-2.1-2.3-4.1-5-9.9-8.2c-0.6-0.3-2.4-1.3-5-2.3c-2.4-0.9-5.8-1.3-10-1.8V4.2z"
		/>
</g>
<g id="body_hole">
	<ellipse class="st1" cx="52.3" cy="117.9" rx="2.6" ry="31.6"/>
</g>
</svg>
