<svg xmlns="http://www.w3.org/2000/svg" viewBox="0 0 105.79 224.06"><defs><style>.cls-1{fill:#fff;}.cls-2{fill:#9519ce;}.cls-3,.cls-4{stroke:#000;stroke-miterlimit:10;stroke-width:3px;}.cls-4{fill:none;}</style></defs><g id="darn_that_annoying_fine_white_line" data-name="darn that annoying fine white line"><rect class="cls-1" x="46.15" y="82.72" width="12.26" height="141.34"/><rect class="cls-1" x="48.28" y="45.66" width="7.5" height="7.5"/></g><g id="body_base" data-name="body base"><path class="cls-1" d="M52.11,42.62a48.18,48.18,0,0,0-23-3.83c-5.29.44-13.38,1.2-19.91,7.15a28.13,28.13,0,0,0-5.88,7.91A31.58,31.58,0,0,0,0,64.83V82.19c.68,5.87,1.78,14,3.6,23.75,3.09,16.51,5.59,29.84,12,44.68A135.43,135.43,0,0,0,36.28,184H52.11Z" transform="translate(0 40.11)"/><path class="cls-1" d="M52.11,42.62a48.11,48.11,0,0,1,23-3.83c5.29.44,13.38,1.2,19.92,7.15a28.24,28.24,0,0,1,5.87,7.91,31.37,31.37,0,0,1,3.34,11V82.19c-.68,5.87-1.78,14-3.6,23.75-3.09,16.51-5.58,29.84-12,44.68A135.43,135.43,0,0,1,67.93,184H52.11Z" transform="translate(0 40.11)"/></g><g id="top_handle" data-name="top handle"><path class="cls-1" d="M52.28,5.55a28.4,28.4,0,0,0-8.09,0c-9.48,1.4-15.49,7.36-18,9.9-10,10-11.46,22.78-11.74,26.89l9.38-2.94a33.54,33.54,0,0,1,7.47-15.27,34.52,34.52,0,0,1,21-11.24Z" transform="translate(0 40.11)"/><path class="cls-1" d="M52.28,5.55a28.34,28.34,0,0,1,8.08,0c9.49,1.4,15.49,7.36,18,9.9,10,10,11.45,22.78,11.74,26.89L80.77,39.4A33.54,33.54,0,0,0,73.3,24.13a34.52,34.52,0,0,0-21-11.24Z" transform="translate(0 40.11)"/></g><g id="big_stars" data-name="big stars"><polygon class="cls-2" points="40.01 83.81 45.22 94.38 56.89 96.07 48.45 104.3 50.44 115.91 40.01 110.43 29.58 115.91 31.57 104.3 23.13 96.07 34.79 94.38 40.01 83.81"/><polygon class="cls-2" points="24.68 132.08 29.9 142.65 41.56 144.34 33.12 152.57 35.11 164.19 24.68 158.7 14.25 164.19 16.24 152.57 7.81 144.34 19.47 142.65 24.68 132.08"/><polygon class="cls-2" points="47.5 185.5 52.71 196.06 64.38 197.76 55.94 205.98 57.93 217.6 47.5 212.11 37.07 217.6 39.06 205.98 30.62 197.76 42.28 196.06 47.5 185.5"/><polygon class="cls-2" points="78.16 107.4 83.37 117.97 95.04 119.66 86.6 127.89 88.59 139.5 78.16 134.02 67.73 139.5 69.72 127.89 61.28 119.66 72.94 117.97 78.16 107.4"/><polygon class="cls-2" points="78.98 153.39 84.2 163.96 95.86 165.65 87.42 173.88 89.41 185.5 78.98 180.01 68.55 185.5 70.54 173.88 62.1 165.65 73.77 163.96 78.98 153.39"/></g><g id="little_stars" data-name="little stars"><polygon class="cls-2" points="56.89 143.04 59.38 148.09 64.94 148.9 60.91 152.82 61.87 158.37 56.89 155.75 51.91 158.37 52.86 152.82 48.83 148.9 54.4 148.09 56.89 143.04"/><polygon class="cls-2" points="21.05 173.78 23.53 178.83 29.1 179.64 25.07 183.56 26.02 189.11 21.05 186.49 16.07 189.11 17.02 183.56 12.99 179.64 18.56 178.83 21.05 173.78"/><polygon class="cls-2" points="18 112.51 20.49 117.56 26.05 118.36 22.02 122.29 22.98 127.83 18 125.22 13.02 127.83 13.97 122.29 9.94 118.36 15.51 117.56 18 112.51"/><polygon class="cls-2" points="81.83 87.26 84.32 92.31 89.89 93.11 85.86 97.04 86.81 102.58 81.83 99.97 76.85 102.58 77.8 97.04 73.78 93.11 79.34 92.31 81.83 87.26"/></g><g id="tag"><rect class="cls-3" x="74.31" y="23.51" width="14.78" height="10.78" rx="2" transform="translate(-3.51 84.83) rotate(-30)"/><path class="cls-4" d="M104.21-40.11c0,5.26.81,28.24-2.74,45.37-2.55,12.34-9.56,18.6-12.26,20" transform="translate(0 40.11)"/></g></svg>