<svg xmlns="http://www.w3.org/2000/svg" viewBox="0 0 105.79 224.06"><defs><style>.cls-1{fill:#fff;}.cls-2{fill:#ff7212;}.cls-3,.cls-4{stroke:#000;stroke-miterlimit:10;stroke-width:3px;}.cls-4{fill:none;}</style></defs><g id="darn_that_annoying_fine_white_line" data-name="darn that annoying fine white line"><rect class="cls-1" x="46.15" y="82.72" width="12.26" height="141.34"/><rect class="cls-1" x="48.28" y="45.66" width="7.5" height="7.5"/></g><g id="body_base" data-name="body base"><path class="cls-1" d="M52.11,42.62a48.18,48.18,0,0,0-23-3.83c-5.29.44-13.38,1.2-19.91,7.15a28.13,28.13,0,0,0-5.88,7.91A31.58,31.58,0,0,0,0,64.83V82.19c.68,5.87,1.78,14,3.6,23.75,3.09,16.51,5.59,29.84,12,44.68A135.43,135.43,0,0,0,36.28,184H52.11Z" transform="translate(0 40.11)"/><path class="cls-1" d="M52.11,42.62a48.11,48.11,0,0,1,23-3.83c5.29.44,13.38,1.2,19.92,7.15a28.24,28.24,0,0,1,5.87,7.91,31.37,31.37,0,0,1,3.34,11V82.19c-.68,5.87-1.78,14-3.6,23.75-3.09,16.51-5.58,29.84-12,44.68A135.43,135.43,0,0,1,67.93,184H52.11Z" transform="translate(0 40.11)"/></g><g id="top_handle" data-name="top handle"><path class="cls-1" d="M52.28,5.55a28.4,28.4,0,0,0-8.09,0c-9.48,1.4-15.49,7.36-18,9.9-10,10-11.46,22.78-11.74,26.89l9.38-2.94a33.54,33.54,0,0,1,7.47-15.27,34.52,34.52,0,0,1,21-11.24Z" transform="translate(0 40.11)"/><path class="cls-1" d="M52.28,5.55a28.34,28.34,0,0,1,8.08,0c9.49,1.4,15.49,7.36,18,9.9,10,10,11.45,22.78,11.74,26.89L80.77,39.4A33.54,33.54,0,0,0,73.3,24.13a34.52,34.52,0,0,0-21-11.24Z" transform="translate(0 40.11)"/></g><g id="dots"><circle class="cls-2" cx="54.54" cy="100.22" r="11.68"/><circle class="cls-2" cx="75.89" cy="130.67" r="11.68"/><circle class="cls-2" cx="45.03" cy="157.46" r="11.68"/><circle class="cls-2" cx="37.46" cy="188.13" r="11.68"/><circle class="cls-2" cx="16.89" cy="123.48" r="11.68"/><circle class="cls-2" cx="74.49" cy="184.95" r="11.68"/></g><g id="leetle_dots" data-name="leetle dots"><circle class="cls-2" cx="23.78" cy="97.12" r="5.84"/><circle class="cls-2" cx="46.15" cy="128.84" r="5.84"/><circle class="cls-2" cx="86.7" cy="102.96" r="5.84"/><circle class="cls-2" cx="75.89" cy="157.81" r="5.84"/><circle class="cls-2" cx="21.34" cy="153.96" r="5.84"/><circle class="cls-2" cx="52.28" cy="208.01" r="5.84"/></g><g id="tag"><rect class="cls-3" x="74.31" y="23.51" width="14.78" height="10.78" rx="2" transform="translate(-3.51 84.83) rotate(-30)"/><path class="cls-4" d="M104.21-40.11c0,5.26.81,28.24-2.74,45.37-2.55,12.34-9.56,18.6-12.26,20" transform="translate(0 40.11)"/></g></svg>