<svg xmlns="http://www.w3.org/2000/svg" viewBox="0 0 105.79 224.06"><defs><style>.cls-1{fill:#fff;}.cls-2{fill:#ab519a;}.cls-3{fill:#c66aff;}.cls-4,.cls-5{stroke:#000;stroke-miterlimit:10;stroke-width:3px;}.cls-5{fill:none;}</style></defs><g id="darn_that_annoying_fine_white_line" data-name="darn that annoying fine white line"><rect class="cls-1" x="46.15" y="82.72" width="12.26" height="141.34"/><rect class="cls-1" x="48.28" y="45.66" width="7.5" height="7.5"/></g><g id="body_base" data-name="body base"><path class="cls-1" d="M52.11,42.62a48.18,48.18,0,0,0-23-3.83c-5.29.44-13.38,1.2-19.91,7.15a28.13,28.13,0,0,0-5.88,7.91A31.58,31.58,0,0,0,0,64.83V82.19c.68,5.87,1.78,14,3.6,23.75,3.09,16.51,5.59,29.84,12,44.68A135.43,135.43,0,0,0,36.28,184H52.11Z" transform="translate(0 40.11)"/><path class="cls-1" d="M52.11,42.62a48.11,48.11,0,0,1,23-3.83c5.29.44,13.38,1.2,19.92,7.15a28.24,28.24,0,0,1,5.87,7.91,31.37,31.37,0,0,1,3.34,11V82.19c-.68,5.87-1.78,14-3.6,23.75-3.09,16.51-5.58,29.84-12,44.68A135.43,135.43,0,0,1,67.93,184H52.11Z" transform="translate(0 40.11)"/></g><g id="top_handle" data-name="top handle"><path class="cls-1" d="M52.28,5.55a28.4,28.4,0,0,0-8.09,0c-9.48,1.4-15.49,7.36-18,9.9-10,10-11.46,22.78-11.74,26.89l9.38-2.94a33.54,33.54,0,0,1,7.47-15.27,34.52,34.52,0,0,1,21-11.24Z" transform="translate(0 40.11)"/><path class="cls-1" d="M52.28,5.55a28.34,28.34,0,0,1,8.08,0c9.49,1.4,15.49,7.36,18,9.9,10,10,11.45,22.78,11.74,26.89L80.77,39.4A33.54,33.54,0,0,0,73.3,24.13a34.52,34.52,0,0,0-21-11.24Z" transform="translate(0 40.11)"/></g><g id="body_pattern" data-name="body pattern"><path class="cls-2" d="M52.28,51.81c-11.92,5.62-21,11.9-23.92,36.51-4.67,40,14.06,86.79,19.92,95.63-4.2-4.69-32.63-56.67-26.55-99.72C25.55,57.12,40.09,53.54,52.28,51.81Z" transform="translate(0 40.11)"/><path class="cls-3" d="M178.75,62.79" transform="translate(0 40.11)"/><path class="cls-2" d="M52.11,45.94c.22,1-18.67.48-30.13,13-13.6,14.89-9,39.82-5.11,60.76A190.7,190.7,0,0,0,41.64,184c-17.32-25.48-21.28-33.23-25.07-48.73-5.8-23.75-14.63-62.37-2.16-78C26.2,42.34,51.85,44.76,52.11,45.94Z" transform="translate(0 40.11)"/><path class="cls-2" d="M52.11,61.26c-.8-.25-9.8,6.2-13.28,27.57-5.57,34.26,4.76,75.5,13.28,93.7-6.07-16.22-12.3-57-9.7-87.48C44.7,68.14,53,61.53,52.11,61.26Z" transform="translate(0 40.11)"/><path class="cls-2" d="M52,51.81c11.91,5.62,21,11.9,23.91,36.51,4.68,40-14,86.79-19.91,95.63,4.2-4.69,32.62-56.67,26.55-99.72C78.73,57.12,64.19,53.54,52,51.81Z" transform="translate(0 40.11)"/><path class="cls-2" d="M52.17,45.94c-.22,1,18.67.48,30.13,13,13.6,14.89,9,39.82,5.1,60.76A190.63,190.63,0,0,1,62.64,184C80,158.47,83.92,150.72,87.7,135.22c5.8-23.75,14.64-62.37,2.17-78C78.08,42.34,52.42,44.76,52.17,45.94Z" transform="translate(0 40.11)"/><path class="cls-2" d="M52.17,61.26C53,61,62,67.46,65.45,88.83c5.57,34.26-4.77,75.5-13.28,93.7,6.06-16.22,12.3-57,9.7-87.48C59.57,68.14,51.3,61.53,52.17,61.26Z" transform="translate(0 40.11)"/><path class="cls-2" d="M52.28,9.93c-6,1.25-10.78,2.73-13.7,4.35-3.76,2.08-8.43,4.67-12.26,10a46.48,46.48,0,0,0-5.87,12.26c-.9,2.59-1.21,4.41-1.35,4.38s.14-5.72,2.5-11.78a28.07,28.07,0,0,1,5.74-9.83c2.14-2.29,4.11-5,9.92-8.17a38,38,0,0,1,5-2.27C44.6,7.92,48,7.52,52.28,7Z" transform="translate(0 40.11)"/><path class="cls-2" d="M52.28,9.8c6,1.24,10.78,2.72,13.7,4.34,3.75,2.09,8.43,4.68,12.26,10a46.65,46.65,0,0,1,5.87,12.26c.9,2.59,1.21,4.4,1.34,4.38S85.32,35,83,29a28.4,28.4,0,0,0-5.74-9.83c-2.15-2.28-4.11-5-9.92-8.17a40.7,40.7,0,0,0-5-2.27c-2.36-.89-5.76-1.29-10-1.81Z" transform="translate(0 40.11)"/></g><g id="body_hole" data-name="body hole"><ellipse class="cls-2" cx="52.28" cy="163.53" rx="2.55" ry="31.6"/></g><g id="tag"><rect class="cls-4" x="74.31" y="23.51" width="14.78" height="10.78" rx="2" transform="translate(-3.51 84.83) rotate(-30)"/><path class="cls-5" d="M104.21-40.11c0,5.26.81,28.24-2.74,45.37-2.55,12.34-9.56,18.6-12.26,20" transform="translate(0 40.11)"/></g></svg>