<svg xmlns="http://www.w3.org/2000/svg" viewBox="0 0 105.79 224.06"><defs><style>.cls-1{fill:#d7e24d;}.cls-2,.cls-3,.cls-5{fill:none;}.cls-2,.cls-3{stroke:#fff;}.cls-2,.cls-3,.cls-4,.cls-5{stroke-miterlimit:10;}.cls-2{stroke-width:5px;}.cls-3,.cls-4,.cls-5{stroke-width:3px;}.cls-4,.cls-5{stroke:#000;}</style></defs><g id="darn_that_annoying_fine_white_line" data-name="darn that annoying fine white line"><rect class="cls-1" x="46.15" y="82.72" width="12.26" height="141.34"/><rect class="cls-1" x="48.28" y="45.66" width="7.5" height="7.5"/></g><g id="body_base" data-name="body base"><path class="cls-1" d="M52.11,42.62a48.18,48.18,0,0,0-23-3.83c-5.29.44-13.38,1.2-19.91,7.15a28.13,28.13,0,0,0-5.88,7.91A31.58,31.58,0,0,0,0,64.83V82.19c.68,5.87,1.78,14,3.6,23.75,3.09,16.51,5.59,29.84,12,44.68A135.43,135.43,0,0,0,36.28,184H52.11Z" transform="translate(0 40.11)"/><path class="cls-1" d="M52.11,42.62a48.11,48.11,0,0,1,23-3.83c5.29.44,13.38,1.2,19.92,7.15a28.24,28.24,0,0,1,5.87,7.91,31.37,31.37,0,0,1,3.34,11V82.19c-.68,5.87-1.78,14-3.6,23.75-3.09,16.51-5.58,29.84-12,44.68A135.43,135.43,0,0,1,67.93,184H52.11Z" transform="translate(0 40.11)"/></g><g id="top_handle" data-name="top handle"><path class="cls-1" d="M52.28,5.55a28.4,28.4,0,0,0-8.09,0c-9.48,1.4-15.49,7.36-18,9.9-10,10-11.46,22.78-11.74,26.89l9.38-2.94a33.54,33.54,0,0,1,7.47-15.27,34.52,34.52,0,0,1,21-11.24Z" transform="translate(0 40.11)"/><path class="cls-1" d="M52.28,5.55a28.34,28.34,0,0,1,8.08,0c9.49,1.4,15.49,7.36,18,9.9,10,10,11.45,22.78,11.74,26.89L80.77,39.4A33.54,33.54,0,0,0,73.3,24.13a34.52,34.52,0,0,0-21-11.24Z" transform="translate(0 40.11)"/></g><g id="pattern"><path class="cls-2" d="M10,70.26a13.75,13.75,0,0,0,3.47,6.88A14.3,14.3,0,0,0,23,81.35a15.27,15.27,0,0,0,11.7-4.09,14.69,14.69,0,0,0,3.17-16c-.23-.51-3.69-8.15-10.57-8a10.29,10.29,0,0,0-8.58,5.07c-1.57,2.67-2.32,6.84-.13,10a8.07,8.07,0,0,0,4.53,3.08c.85.21,4.1,1,6.27-1.13,1.44-1.44,2.36-4.16,1-6.22a5.25,5.25,0,0,0-4.32-2" transform="translate(0 40.11)"/><path class="cls-2" d="M62.05,49a13.82,13.82,0,0,0-4.52,6.24,14.24,14.24,0,0,0,.61,10.37,15.3,15.3,0,0,0,9,8.54,14.69,14.69,0,0,0,15.64-4.5c.36-.44,5.56-7,2.31-13.08a10.3,10.3,0,0,0-8.43-5.31c-3.09-.16-7.15,1.07-8.92,4.46a8.07,8.07,0,0,0-.66,5.44c.2.85,1,4.11,3.87,5,1.94.62,4.79.19,6-2a5.23,5.23,0,0,0-.18-4.75" transform="translate(0 40.11)"/><path class="cls-2" d="M71.41,97.27a13.74,13.74,0,0,0-1.19-7.61,14.28,14.28,0,0,0-7.75-6.93C61,82.15,55.6,80.22,50.08,83a14.68,14.68,0,0,0-7.92,14.22c.05.56,1,8.89,7.58,10.9A10.28,10.28,0,0,0,59.46,106c2.31-2.06,4.31-5.8,3.19-9.45a8.09,8.09,0,0,0-3.37-4.32c-.74-.47-3.58-2.24-6.31-.85-1.81.93-3.53,3.23-2.86,5.61a5.23,5.23,0,0,0,3.48,3.25" transform="translate(0 40.11)"/><path class="cls-2" d="M32.48,146.14a13.74,13.74,0,0,0,7.5-1.8,14.3,14.3,0,0,0,6.28-8.28c.46-1.48,2-7.05-1.28-12.33A14.71,14.71,0,0,0,30.17,117c-.56.1-8.78,1.72-10.26,8.44a10.3,10.3,0,0,0,2.95,9.51c2.24,2.14,6.13,3.83,9.68,2.42a8.12,8.12,0,0,0,4-3.7c.4-.78,1.94-3.76.34-6.36-1.07-1.73-3.51-3.26-5.83-2.4a5.27,5.27,0,0,0-3,3.73" transform="translate(0 40.11)"/><path class="cls-2" d="M51.81,151.06a13.86,13.86,0,0,0,4.44,6.3,14.3,14.3,0,0,0,10,2.77,15.29,15.29,0,0,0,11-5.75,14.69,14.69,0,0,0,.8-16.25c-.3-.48-4.84-7.53-11.63-6.42A10.29,10.29,0,0,0,58.67,138c-1.16,2.87-1.3,7.11,1.33,9.88a8,8,0,0,0,4.93,2.38c.88.09,4.21.42,6-2,1.21-1.63,1.73-4.46.07-6.3a5.24,5.24,0,0,0-4.56-1.37" transform="translate(0 40.11)"/></g><g id="small_spirals" data-name="small spirals"><path class="cls-3" d="M83.11,126.84a9.07,9.07,0,0,0,3.59-3.59,9.35,9.35,0,0,0,.67-6.81,10.06,10.06,0,0,0-5-6.48,9.67,9.67,0,0,0-10.64,1.31c-.28.25-4.34,4-2.85,8.27a6.76,6.76,0,0,0,4.93,4.32c2,.43,4.76,0,6.27-2a5.34,5.34,0,0,0,1-3.47c0-.57-.2-2.77-2-3.68a3.4,3.4,0,0,0-4.1.66,3.47,3.47,0,0,0-.37,3.11" transform="translate(0 40.11)"/><path class="cls-3" d="M11.46,97.53a9,9,0,0,0-.12,5.07A9.38,9.38,0,0,0,15.56,108a10.05,10.05,0,0,0,8.06,1.26A9.66,9.66,0,0,0,30.41,101c0-.37.39-5.88-3.64-7.95a6.79,6.79,0,0,0-6.56.28c-1.73,1.07-3.47,3.26-3.16,5.75a5.39,5.39,0,0,0,1.67,3.2c.43.39,2.07,1.87,4,1.28a3.39,3.39,0,0,0,2.52-3.3,3.45,3.45,0,0,0-1.88-2.51" transform="translate(0 40.11)"/><path class="cls-3" d="M80.44,93.3a9,9,0,0,0,2.8,4.23,9.4,9.4,0,0,0,6.54,2A10.08,10.08,0,0,0,97.12,96,9.66,9.66,0,0,0,98,85.29c-.18-.32-3-5.05-7.53-4.45a6.79,6.79,0,0,0-5.22,4c-.82,1.87-1,4.66.69,6.53A5.29,5.29,0,0,0,89.09,93c.58.08,2.76.36,4-1.22a3.39,3.39,0,0,0,.17-4.15,3.44,3.44,0,0,0-3-1" transform="translate(0 40.11)"/><path class="cls-3" d="M47.17,159.58a9.12,9.12,0,0,0-5.07,0,9.4,9.4,0,0,0-5.32,4.31A10.08,10.08,0,0,0,35.66,172a9.67,9.67,0,0,0,8.41,6.64c.37,0,5.88.29,7.89-3.78a6.81,6.81,0,0,0-.4-6.55c-1.1-1.72-3.31-3.41-5.81-3.06a5.34,5.34,0,0,0-3.16,1.73c-.38.44-1.84,2.09-1.22,4a3.38,3.38,0,0,0,3.35,2.45,3.48,3.48,0,0,0,2.48-1.92" transform="translate(0 40.11)"/></g><g id="tag"><rect class="cls-4" x="74.31" y="23.51" width="14.78" height="10.78" rx="2" transform="translate(-3.51 84.83) rotate(-30)"/><path class="cls-5" d="M104.21-40.11c0,5.26.81,28.24-2.74,45.37-2.55,12.34-9.56,18.6-12.26,20" transform="translate(0 40.11)"/></g></svg>