<svg xmlns="http://www.w3.org/2000/svg" viewBox="0 0 105.79 224.06"><defs><style>.cls-1{fill:#00cc05;}.cls-2{fill:#fff;}.cls-3,.cls-4{stroke:#000;stroke-miterlimit:10;stroke-width:3px;}.cls-4{fill:none;}</style></defs><g id="darn_that_annoying_fine_white_line" data-name="darn that annoying fine white line"><rect class="cls-1" x="46.15" y="82.72" width="12.26" height="141.34"/><rect class="cls-1" x="48.28" y="45.66" width="7.5" height="7.5"/></g><g id="body_base" data-name="body base"><path class="cls-1" d="M52.11,42.62a48.18,48.18,0,0,0-23-3.83c-5.29.44-13.38,1.2-19.91,7.15a28.13,28.13,0,0,0-5.88,7.91A31.58,31.58,0,0,0,0,64.83V82.19c.68,5.87,1.78,14,3.6,23.75,3.09,16.51,5.59,29.84,12,44.68A135.43,135.43,0,0,0,36.28,184H52.11Z" transform="translate(0 40.11)"/><path class="cls-1" d="M52.11,42.62a48.11,48.11,0,0,1,23-3.83c5.29.44,13.38,1.2,19.92,7.15a28.24,28.24,0,0,1,5.87,7.91,31.37,31.37,0,0,1,3.34,11V82.19c-.68,5.87-1.78,14-3.6,23.75-3.09,16.51-5.58,29.84-12,44.68A135.43,135.43,0,0,1,67.93,184H52.11Z" transform="translate(0 40.11)"/></g><g id="top_handle" data-name="top handle"><path class="cls-1" d="M52.28,5.55a28.4,28.4,0,0,0-8.09,0c-9.48,1.4-15.49,7.36-18,9.9-10,10-11.46,22.78-11.74,26.89l9.38-2.94a33.54,33.54,0,0,1,7.47-15.27,34.52,34.52,0,0,1,21-11.24Z" transform="translate(0 40.11)"/><path class="cls-1" d="M52.28,5.55a28.34,28.34,0,0,1,8.08,0c9.49,1.4,15.49,7.36,18,9.9,10,10,11.45,22.78,11.74,26.89L80.77,39.4A33.54,33.54,0,0,0,73.3,24.13a34.52,34.52,0,0,0-21-11.24Z" transform="translate(0 40.11)"/></g><g id="pattern"><rect class="cls-2" x="16.99" y="57.17" width="18.13" height="18.13" transform="translate(-39.2 77.93) rotate(-45)"/><rect class="cls-2" x="52.03" y="52.7" width="18.13" height="18.13" transform="translate(-25.78 101.4) rotate(-45)"/><rect class="cls-2" x="39.22" y="84.95" width="18.13" height="18.13" transform="translate(-52.33 101.78) rotate(-45)"/><rect class="cls-2" x="9.22" y="89.41" width="18.13" height="18.13" transform="translate(-64.28 81.87) rotate(-45)"/><rect class="cls-2" x="72.63" y="75.17" width="18.13" height="18.13" transform="translate(-35.63 122.55) rotate(-45)"/><rect class="cls-2" x="67.33" y="104.22" width="18.13" height="18.13" transform="translate(-57.73 127.3) rotate(-45)"/><rect class="cls-2" x="27.85" y="118.37" width="18.13" height="18.13" transform="translate(-79.3 103.54) rotate(-45)"/><rect class="cls-2" x="56.96" y="131.19" width="18.13" height="18.13" transform="translate(-79.84 127.87) rotate(-45)"/><rect class="cls-2" x="35.26" y="154.83" width="18.13" height="18.13" transform="translate(-102.91 119.45) rotate(-45)"/></g><g id="tag"><rect class="cls-3" x="74.31" y="23.51" width="14.78" height="10.78" rx="2" transform="translate(-3.51 84.83) rotate(-30)"/><path class="cls-4" d="M104.21-40.11c0,5.26.81,28.24-2.74,45.37-2.55,12.34-9.56,18.6-12.26,20" transform="translate(0 40.11)"/></g></svg>