<?xml version="1.0" encoding="utf-8"?>
<!-- Generator: Adobe Illustrator 24.0.2, SVG Export Plug-In . SVG Version: 6.00 Build 0)  -->
<svg version="1.1" xmlns="http://www.w3.org/2000/svg" xmlns:xlink="http://www.w3.org/1999/xlink" x="0px" y="0px"
	 viewBox="0 0 104.3 178.4" style="enable-background:new 0 0 104.3 178.4;" xml:space="preserve">
<style type="text/css">
	.st0{fill:#C07F3B;}
	.st1{fill:#D33B2A;}
	.st2{fill:#A93223;}
	.st3{fill:#231F20;}
	.st4{fill:#FFFFFF;}
	.st5{fill:#FFC435;}
</style>
<g id="claws">
	<path class="st0" d="M33.8,177.9l7.4-22.6c0.1-0.4-0.1-0.8-0.5-1l-2.4-0.9c-0.5-0.2-1,0.1-1.1,0.6l-5,23.5
		C32.1,178.4,33.5,178.8,33.8,177.9z"/>
	<path class="st0" d="M26.9,178.5l9-7.6c0.2-0.1,0.2-0.4,0.1-0.6l-1.2-1.5c-0.2-0.2-0.5-0.2-0.6,0l-7.7,9.1
		C26,178.4,26.5,178.9,26.9,178.5z"/>
	<path class="st0" d="M45.1,177.7l-8.4-9.1c-0.2-0.2-0.5-0.2-0.6,0.1l-1.5,2.4c-0.1,0.2-0.1,0.4,0.1,0.5l9.9,6.7
		C45,178.6,45.4,178.1,45.1,177.7z"/>
	<path class="st0" d="M63.6,178.1l1-20.9c0-0.3-0.2-0.6-0.5-0.6l-3-0.2c-0.4,0-0.6,0.3-0.6,0.6l2,21.2
		C62.6,178.8,63.6,178.8,63.6,178.1z"/>
	<path class="st0" d="M54.9,178.1l9.5-6c0.2-0.1,0.2-0.4,0.1-0.5l-1.2-2.1c-0.1-0.2-0.4-0.3-0.6-0.1l-8.4,8
		C54.1,177.8,54.5,178.4,54.9,178.1z"/>
	<path class="st0" d="M75.7,177.7l-12.1-8c-0.2-0.1-0.5,0-0.6,0.2l-0.9,2.9c-0.1,0.2,0,0.4,0.2,0.5l13,5.1
		C75.8,178.6,76.1,178,75.7,177.7z"/>
</g>
<g id="legs">
	<path class="st1" d="M41,155.2l10.5-11.7c1.2-1.3,0.6-3.4-1-4L37,135c-1.8-0.6-3.5,0.9-3.2,2.8l3,16.3
		C37.1,156,39.7,156.7,41,155.2z"/>
	<path class="st1" d="M65.3,157l6.6-16.3c0.6-1.6-0.5-3.3-2.2-3.4l-14.3-0.4c-1.8-0.1-3.1,1.8-2.3,3.5l7.7,16.7
		C61.7,159,64.5,159,65.3,157z"/>
</g>
<g id="torso">
	<g id="back_wing_1_">
		
			<ellipse id="outer_part_1_" transform="matrix(0.9839 -0.1785 0.1785 0.9839 -15.7789 5.1431)" class="st1" cx="20.7" cy="90.3" rx="19.1" ry="43.3"/>
	</g>
	
		<ellipse id="body_1_" transform="matrix(0.9906 -0.1369 0.1369 0.9906 -12.3927 7.9694)" class="st2" cx="51.7" cy="94.1" rx="38.1" ry="51.8"/>
	<g id="front_wing">
		
			<ellipse id="outer_part_2_" transform="matrix(0.9892 -0.1466 0.1466 0.9892 -12.3182 13.4342)" class="st1" cx="85" cy="90.3" rx="19.7" ry="43.3"/>
	</g>
</g>
<g id="wings">
</g>
<g id="head">
	<path class="st1" d="M72.3,27.1c0,14.5-10.7,25.3-30.2,25.3S12,40.6,12,26.2S22.5,0,42.1,0S72.3,12.6,72.3,27.1z"/>
</g>
<g id="eyes">
	<circle id="left_eye" class="st3" cx="27.4" cy="24.1" r="10.1"/>
	<circle id="right_eye" class="st3" cx="57.2" cy="24.7" r="10.6"/>
	<g id="pupils">
		<circle class="st4" cx="27.4" cy="24.1" r="3"/>
		<circle class="st4" cx="57.4" cy="24.7" r="3"/>
	</g>
</g>
<g id="beak">
	<path class="st5" d="M43.4,40l3.2-9.6c0.3-0.9-0.4-1.8-1.3-1.8h-6.4c-1,0-1.6,0.9-1.3,1.8l3.2,9.6C41.2,41.3,43,41.3,43.4,40z"/>
	<path class="st5" d="M41,25.2l-3.2,3.8c-0.8,0.9-0.1,2.3,1.1,2.3l6.4,0c1.2,0,1.8-1.4,1.1-2.3l-3.2-3.8
		C42.6,24.6,41.6,24.6,41,25.2z"/>
</g>
</svg>
