<?xml version="1.0" encoding="utf-8"?>
<!-- Generator: Adobe Illustrator 24.0.2, SVG Export Plug-In . SVG Version: 6.00 Build 0)  -->
<svg version="1.1" xmlns="http://www.w3.org/2000/svg" xmlns:xlink="http://www.w3.org/1999/xlink" x="0px" y="0px"
	 viewBox="0 0 104.3 178.4" style="enable-background:new 0 0 104.3 178.4;" xml:space="preserve">
<style type="text/css">
	.st0{fill:#71491A;}
	.st1{fill:#C04097;}
	.st2{fill:#992F78;}
	.st3{fill:#231F20;}
	.st4{fill:#FFFFFF;}
	.st5{fill:#FFFE54;}
</style>
<g id="claws">
	<path class="st0" d="M34.1,175.9l5.3-14.4c0.1-0.2,0-0.4-0.2-0.5l-3.1-1.1c-0.2-0.1-0.5,0.1-0.5,0.3l-2.1,15.5
		C33.3,176.2,33.9,176.4,34.1,175.9z"/>
	<path class="st0" d="M25.9,167.7l12-2.8c0.2-0.1,0.4-0.3,0.3-0.5l-1.1-3.7c-0.1-0.3-0.4-0.4-0.6-0.2L25.6,167
		C25.2,167.2,25.4,167.8,25.9,167.7z"/>
	<path class="st0" d="M46.4,170.6l-8.4-9.1c-0.2-0.2-0.5-0.2-0.6,0.1l-1.5,2.4c-0.1,0.2-0.1,0.4,0.1,0.5l9.9,6.7
		C46.3,171.5,46.8,171,46.4,170.6z"/>
	<path class="st0" d="M55.8,178.1l5.3-14.4c0.1-0.2,0-0.4-0.2-0.5l-3.1-1.1c-0.2-0.1-0.5,0.1-0.5,0.3L55,177.9
		C55,178.4,55.6,178.6,55.8,178.1z"/>
	<path class="st0" d="M47.6,169.9l12-2.8c0.2-0.1,0.4-0.3,0.3-0.5l-1.1-3.7c-0.1-0.3-0.4-0.4-0.6-0.2l-10.9,6.5
		C46.9,169.4,47.1,170,47.6,169.9z"/>
	<path class="st0" d="M68.2,172.8l-8.4-9.1c-0.2-0.2-0.5-0.2-0.6,0.1l-1.5,2.4c-0.1,0.2-0.1,0.4,0.1,0.5l9.9,6.7
		C68,173.7,68.5,173.2,68.2,172.8z"/>
</g>
<g id="legs">
	<path class="st1" d="M39.9,161.6l10.8-17.5c0.9-1.4,0.1-3.3-1.5-3.7l-14.7-3.6c-1.7-0.4-3.3,1.1-3,2.8l3.9,21
		C35.8,163,38.7,163.5,39.9,161.6z"/>
	<path class="st1" d="M61.4,163.1l9.1-20.5c0.7-1.5-0.3-3.2-1.9-3.4l-15.2-2.1c-1.7-0.2-3.2,1.4-2.7,3.1l6,22.5
		C57.3,165,60.4,165.2,61.4,163.1z"/>
</g>
<g id="torso">
	<g id="back_wing_1_">
		
			<ellipse id="outer_part_1_" transform="matrix(0.9483 -0.3174 0.3174 0.9483 -27.9759 12.5056)" class="st1" cx="24.4" cy="92.1" rx="21.2" ry="43.3"/>
	</g>
	
		<ellipse id="body_1_" transform="matrix(0.9589 -0.2838 0.2838 0.9589 -24.817 17.5162)" class="st2" cx="48" cy="94.4" rx="38.2" ry="54"/>
	<g id="front_wing">
		
			<ellipse id="outer_part_2_" transform="matrix(0.9483 -0.3174 0.3174 0.9483 -25.1054 30.1242)" class="st1" cx="79.9" cy="92.1" rx="21.2" ry="43.3"/>
	</g>
</g>
<g id="wings">
</g>
<g id="head">
	<ellipse class="st1" cx="42.1" cy="26.2" rx="35.5" ry="26.2"/>
</g>
<g id="eyes">
	<circle id="left_eye" class="st3" cx="27.4" cy="24.1" r="10.1"/>
	<circle id="right_eye" class="st3" cx="57.2" cy="24.7" r="10.6"/>
	<g id="pupils">
		<circle class="st4" cx="27.4" cy="24.1" r="3"/>
		<circle class="st4" cx="57.4" cy="24.7" r="3"/>
	</g>
</g>
<g id="beak">
	<path class="st5" d="M43.4,40l3.2-9.6c0.3-0.9-0.4-1.8-1.3-1.8h-6.4c-1,0-1.6,0.9-1.3,1.8l3.2,9.6C41.2,41.3,43,41.3,43.4,40z"/>
	<path class="st5" d="M41,25.2l-3.2,3.8c-0.8,0.9-0.1,2.3,1.1,2.3l6.4,0c1.2,0,1.8-1.4,1.1-2.3l-3.2-3.8
		C42.6,24.6,41.6,24.6,41,25.2z"/>
</g>
</svg>
