<svg xmlns="http://www.w3.org/2000/svg" viewBox="0 0 105.05 190.21"><defs><style>.cls-1{fill:#666;}.cls-2{fill:#3b69c4;}.cls-3{fill:#3e8ccc;}.cls-4{fill:#231f20;}.cls-5{fill:#fff;}.cls-6{fill:#bcbcbc;}.cls-7,.cls-8{stroke:#000;stroke-miterlimit:10;stroke-width:3px;}.cls-8{fill:none;}</style></defs><g id="claws"><path class="cls-1" d="M33.41,177.87l7.36-22.57a.79.79,0,0,0-.47-1L38,153.4a.8.8,0,0,0-1.07.58l-5,23.47A.79.79,0,0,0,33.41,177.87Z" transform="translate(0.13 0.13)"/><path class="cls-1" d="M26.49,178.55l9-7.6a.41.41,0,0,0,.06-.56l-1.23-1.53a.4.4,0,0,0-.62,0L25.92,178A.4.4,0,0,0,26.49,178.55Z" transform="translate(0.13 0.13)"/><path class="cls-1" d="M44.69,177.73l-8.38-9.12a.41.41,0,0,0-.64.06l-1.51,2.38a.4.4,0,0,0,.11.55l9.9,6.73A.4.4,0,0,0,44.69,177.73Z" transform="translate(0.13 0.13)"/><path class="cls-1" d="M63.25,178.05l1-21a.58.58,0,0,0-.54-.6l-3-.21a.59.59,0,0,0-.62.63l2,21.16A.58.58,0,0,0,63.25,178.05Z" transform="translate(0.13 0.13)"/><path class="cls-1" d="M54.55,178.1l9.54-5.95a.4.4,0,0,0,.13-.54L63,169.52a.4.4,0,0,0-.62-.1l-8.36,8.05A.4.4,0,0,0,54.55,178.1Z" transform="translate(0.13 0.13)"/><path class="cls-1" d="M75.29,177.71l-12.11-8a.4.4,0,0,0-.6.22l-.89,2.87a.4.4,0,0,0,.24.49l13,5.1A.4.4,0,0,0,75.29,177.71Z" transform="translate(0.13 0.13)"/></g><g id="legs"><path class="cls-2" d="M41,153.88l13.78-20.59a2.46,2.46,0,0,0-1.23-3.69l-14.46-5.11a2.46,2.46,0,0,0-3.28,2.39l.69,25.7A2.46,2.46,0,0,0,41,153.88Z" transform="translate(0.13 0.13)"/><path class="cls-2" d="M65,155.23l7.1-26.95a2.46,2.46,0,0,0-2.26-3.08l-15.35-.7A2.45,2.45,0,0,0,52,127.66l8.24,27.64A2.46,2.46,0,0,0,65,155.23Z" transform="translate(0.13 0.13)"/></g><g id="torso"><g id="back_wing" data-name="back wing"><ellipse id="outer_part" data-name="outer part" class="cls-2" cx="20.18" cy="90.16" rx="19.08" ry="43.31" transform="translate(-15.64 5.18) rotate(-10.28)"/></g><g id="front_wing" data-name="front wing"><path class="cls-3" d="M27.94,51.79A97.94,97.94,0,0,0,19.45,81c-2,19.14-3.22,31.41,5,40.54,7.52,8.33,19.32,10.07,24.44,10.82a51.43,51.43,0,0,0,18.14-.67c4.74-.94,17.54-6.93,19.67-13.87,5.27-17.26-2-30.62-6.58-42.84C75.9,63.64,74,57.68,64,46.78,58.12,40.31,43,36.66,34.43,42.37,32.66,43.55,31,45.31,27.94,51.79Z" transform="translate(0.13 0.13)"/><ellipse id="outer_part-2" data-name="outer part" class="cls-2" cx="84.46" cy="90.16" rx="19.66" ry="43.31" transform="translate(-12.18 13.48) rotate(-8.43)"/></g></g><g id="head"><path class="cls-2" d="M74.59,26.42c0,14.18-11.68,24.77-33.15,24.77S8.52,39.7,8.52,25.53,20-.13,41.44-.13,74.59,12.25,74.59,26.42Z" transform="translate(0.13 0.13)"/></g><g id="eyes"><circle id="left_eye" data-name="left eye" class="cls-4" cx="27.13" cy="24.21" r="10.09"/><circle id="right_eye" data-name="right eye" class="cls-4" cx="56.98" cy="24.88" r="10.58"/><g id="pupils"><circle class="cls-5" cx="27.13" cy="24.21" r="3"/><circle class="cls-5" cx="57.18" cy="24.88" r="3"/></g></g><g id="beak"><path class="cls-6" d="M42.88,47.2l3.21-9.58a1.4,1.4,0,0,0-1.33-1.84H38.35A1.4,1.4,0,0,0,37,37.62l3.21,9.58A1.4,1.4,0,0,0,42.88,47.2Z" transform="translate(0.13 0.13)"/><path class="cls-6" d="M40.48,32.43l-3.19,3.83a1.39,1.39,0,0,0,1.07,2.29h6.39a1.39,1.39,0,0,0,1.07-2.29l-3.2-3.83A1.39,1.39,0,0,0,40.48,32.43Z" transform="translate(0.13 0.13)"/></g><g id="TAG"><rect class="cls-7" x="55.87" y="158.32" width="14.78" height="10.78" rx="2" transform="translate(-3.2 1.45) rotate(-1.17)"/><path class="cls-8" d="M97.65,190.08c0-2.58-4.28-13.34-10.52-19.73a28.84,28.84,0,0,0-15.21-7.77" transform="translate(0.13 0.13)"/></g></svg>