<svg xmlns="http://www.w3.org/2000/svg" viewBox="0 0 105.05 190.08"><defs><style>.cls-1{fill:#71491a;}.cls-2{fill:#d33b2a;}.cls-3{fill:#a93223;}.cls-4{fill:#231f20;}.cls-5{fill:#fff;}.cls-6{fill:#ffc435;}.cls-7,.cls-8{stroke:#000;stroke-miterlimit:10;stroke-width:3px;}.cls-8{fill:none;}</style></defs><g id="claws"><path class="cls-1" d="M33.65,177l7.75-23.9a.81.81,0,0,0-.47-1l-2.35-.93a.8.8,0,0,0-1.07.57l-5.39,24.84A.79.79,0,0,0,33.65,177Z"/><path class="cls-1" d="M26.49,178.55l9-7.6a.41.41,0,0,0,.06-.56l-1.23-1.53a.4.4,0,0,0-.62,0L25.92,178A.4.4,0,0,0,26.49,178.55Z"/><path class="cls-1" d="M44.69,177.73l-8.38-9.12a.41.41,0,0,0-.64.06l-1.51,2.38a.4.4,0,0,0,.11.55l9.9,6.73A.4.4,0,0,0,44.69,177.73Z"/><path class="cls-1" d="M63.25,177.21l1-23.14a.58.58,0,0,0-.54-.6l-3-.23a.58.58,0,0,0-.62.62l2,23.38A.57.57,0,0,0,63.25,177.21Z"/><path class="cls-1" d="M54.55,178.1l9.54-5.95a.4.4,0,0,0,.13-.54L63,169.52a.4.4,0,0,0-.62-.1l-8.36,8.05A.4.4,0,0,0,54.55,178.1Z"/><path class="cls-1" d="M75.29,177.71l-12.11-8a.4.4,0,0,0-.6.22l-.89,2.87a.4.4,0,0,0,.24.49l13,5.1A.4.4,0,0,0,75.29,177.71Z"/></g><g id="legs"><path class="cls-2" d="M41.41,153.07l13.15-18.82a2.47,2.47,0,0,0-1.2-3.73L39,125.5A2.47,2.47,0,0,0,35.75,128l1.18,23.83A2.46,2.46,0,0,0,41.41,153.07Z"/><path class="cls-2" d="M65,154.26,72,129a2.47,2.47,0,0,0-2.27-3.12l-15.24-.65a2.45,2.45,0,0,0-2.45,3.2l8.18,25.88A2.46,2.46,0,0,0,65,154.26Z"/></g><g id="torso"><g id="back_wing" data-name="back wing"><ellipse id="outer_part" data-name="outer part" class="cls-2" cx="20.31" cy="90.28" rx="19.08" ry="43.31" transform="translate(-15.79 5.07) rotate(-10.28)"/></g><ellipse id="body" class="cls-3" cx="48.26" cy="90.28" rx="32.64" ry="51.77" transform="translate(-8.14 4.84) rotate(-5.3)"/><g id="front_wing" data-name="front wing"><ellipse id="outer_part-2" data-name="outer part" class="cls-2" cx="84.59" cy="90.28" rx="19.66" ry="43.31" transform="translate(-12.32 13.38) rotate(-8.43)"/></g></g><g id="head"><path class="cls-2" d="M71.92,27.08c0,14.45-10.66,25.26-30.24,25.26s-30-11.72-30-26.17S22.1,0,41.68,0,71.92,12.63,71.92,27.08Z"/></g><g id="eyes"><ellipse id="right_eye" data-name="right eye" class="cls-4" cx="57.05" cy="24.75" rx="10.58" ry="8.6"/><ellipse id="left_eye" data-name="left eye" class="cls-4" cx="27" cy="24.08" rx="10.58" ry="8.6"/><g id="pupils"><circle class="cls-5" cx="27" cy="24.08" r="3"/><circle class="cls-5" cx="57.05" cy="24.75" r="3"/></g></g><g id="beak"><path class="cls-6" d="M43.15,46.86,46.57,31.1a1.4,1.4,0,0,0-1.36-1.69H38.37A1.39,1.39,0,0,0,37,31.1l3.41,15.76A1.4,1.4,0,0,0,43.15,46.86Z"/><path class="cls-6" d="M41.21,27.4,37.69,29a1.4,1.4,0,0,0,.57,2.67h7.05A1.4,1.4,0,0,0,45.89,29L42.36,27.4A1.36,1.36,0,0,0,41.21,27.4Z"/></g><g id="TAG"><rect class="cls-7" x="55.87" y="158.32" width="14.78" height="10.78" rx="2" transform="translate(-3.33 1.32) rotate(-1.17)"/><path class="cls-8" d="M97.65,190.08c0-2.58-4.28-13.34-10.52-19.73a28.84,28.84,0,0,0-15.21-7.77"/></g></svg>