<svg xmlns="http://www.w3.org/2000/svg" viewBox="0 0 105.05 190.08"><defs><style>.cls-1{fill:#71491a;}.cls-2{fill:#d33b2a;}.cls-3{fill:#a93223;}.cls-4{fill:#231f20;}.cls-5{fill:#fff;}.cls-6{fill:#ffc435;}.cls-7,.cls-8{stroke:#000;stroke-miterlimit:10;stroke-width:3px;}.cls-8{fill:none;}</style></defs><g id="claws"><path class="cls-1" d="M33.41,177.87l7.36-22.57a.79.79,0,0,0-.47-1L38,153.4a.8.8,0,0,0-1.07.58l-5,23.47A.79.79,0,0,0,33.41,177.87Z"/><path class="cls-1" d="M26.49,178.55l9-7.6a.41.41,0,0,0,.06-.56l-1.23-1.53a.4.4,0,0,0-.62,0L25.92,178A.4.4,0,0,0,26.49,178.55Z"/><path class="cls-1" d="M44.69,177.73l-8.38-9.12a.41.41,0,0,0-.64.06l-1.51,2.38a.4.4,0,0,0,.11.55l9.9,6.73A.4.4,0,0,0,44.69,177.73Z"/><path class="cls-1" d="M63.25,178.05l1-21a.58.58,0,0,0-.54-.6l-3-.21a.59.59,0,0,0-.62.63l2,21.16A.58.58,0,0,0,63.25,178.05Z"/><path class="cls-1" d="M54.55,178.1l9.54-5.95a.4.4,0,0,0,.13-.54L63,169.52a.4.4,0,0,0-.62-.1l-8.36,8.05A.4.4,0,0,0,54.55,178.1Z"/><path class="cls-1" d="M75.29,177.71l-12.11-8a.4.4,0,0,0-.6.22l-.89,2.87a.4.4,0,0,0,.24.49l13,5.1A.4.4,0,0,0,75.29,177.71Z"/></g><g id="legs"><path class="cls-2" d="M41.11,153.94,53.22,138a2.46,2.46,0,0,0-1.15-3.82L38,129.33a2.45,2.45,0,0,0-3.25,2.55l1.94,20.8A2.46,2.46,0,0,0,41.11,153.94Z"/><path class="cls-2" d="M65,155l7-22.89a2.46,2.46,0,0,0-2.26-3.18l-15.07-.59a2.46,2.46,0,0,0-2.42,3.26l8.1,23.48A2.46,2.46,0,0,0,65,155Z"/></g><g id="torso"><g id="back_wing" data-name="back wing"><ellipse id="outer_part" data-name="outer part" class="cls-2" cx="20.31" cy="90.28" rx="19.08" ry="43.31" transform="translate(-15.79 5.07) rotate(-10.28)"/></g><g id="front_wing" data-name="front wing"><path class="cls-3" d="M28,52.41a107,107,0,0,0-8.41,30.74c-1.91,20.17-3.14,33.1,5.13,42.75,7.54,8.8,19.35,10.66,24.48,11.47a48.71,48.71,0,0,0,18.14-.66c4.73-1,17.52-7.26,19.62-14.57C92.17,104,84.84,89.87,80.24,77,76,65,74,58.74,64.05,47.23,58.13,40.39,43,36.5,34.44,42.5,32.67,43.74,31,45.59,28,52.41Z"/><ellipse id="outer_part-2" data-name="outer part" class="cls-2" cx="84.59" cy="90.28" rx="19.66" ry="43.31" transform="translate(-12.32 13.38) rotate(-8.43)"/></g></g><g id="head"><path class="cls-2" d="M74.72,26.55c0,14.17-11.68,24.77-33.15,24.77S8.65,39.83,8.65,25.66,20.09,0,41.57,0,74.72,12.38,74.72,26.55Z"/></g><g id="eyes"><circle id="left_eye" data-name="left eye" class="cls-4" cx="27" cy="24.08" r="10.09"/><circle id="right_eye" data-name="right eye" class="cls-4" cx="56.85" cy="24.75" r="10.58"/><g id="pupils"><circle class="cls-5" cx="27" cy="24.08" r="3"/><circle class="cls-5" cx="57.05" cy="24.75" r="3"/></g></g><g id="beak"><path class="cls-6" d="M43,40l3.2-9.59a1.39,1.39,0,0,0-1.32-1.83H38.47a1.39,1.39,0,0,0-1.32,1.83L40.36,40A1.4,1.4,0,0,0,43,40Z"/><path class="cls-6" d="M40.61,25.25l-3.2,3.82a1.4,1.4,0,0,0,1.07,2.29h6.4A1.4,1.4,0,0,0,46,29.07l-3.2-3.82A1.39,1.39,0,0,0,40.61,25.25Z"/></g><g id="TAG"><rect class="cls-7" x="55.87" y="158.32" width="14.78" height="10.78" rx="2" transform="translate(-3.33 1.32) rotate(-1.17)"/><path class="cls-8" d="M97.65,190.08c0-2.58-4.28-13.34-10.52-19.73a28.84,28.84,0,0,0-15.21-7.77"/></g></svg>