<svg xmlns="http://www.w3.org/2000/svg" viewBox="0 0 105.05 190.23"><defs><style>.cls-1{fill:#a87d26;}.cls-2{fill:#931bbf;}.cls-3{fill:#666;}.cls-4{fill:#7d12af;}.cls-5,.cls-6{stroke:#000;stroke-miterlimit:10;stroke-width:3px;}.cls-6{fill:none;}.cls-7{fill:#fff;}.cls-8{fill:#ffef27;}</style></defs><g id="claws"><path class="cls-1" d="M33.41,177.87l7.36-22.57a.79.79,0,0,0-.47-1L38,153.4a.8.8,0,0,0-1.07.58l-5,23.47A.79.79,0,0,0,33.41,177.87Z"/><path class="cls-1" d="M26.49,178.55l9-7.6a.41.41,0,0,0,.06-.56l-1.23-1.53a.4.4,0,0,0-.62,0L25.92,178A.4.4,0,0,0,26.49,178.55Z"/><path class="cls-1" d="M44.69,177.73l-8.38-9.12a.41.41,0,0,0-.64.06l-1.51,2.38a.4.4,0,0,0,.11.55l9.9,6.73A.4.4,0,0,0,44.69,177.73Z"/><path class="cls-1" d="M63.25,178.05l1-21a.58.58,0,0,0-.54-.6l-3-.21a.59.59,0,0,0-.62.63l2,21.16A.58.58,0,0,0,63.25,178.05Z"/><path class="cls-1" d="M54.55,178.1l9.54-5.95a.4.4,0,0,0,.13-.54L63,169.52a.4.4,0,0,0-.62-.1l-8.36,8.05A.4.4,0,0,0,54.55,178.1Z"/><path class="cls-1" d="M75.29,177.71l-12.11-8a.4.4,0,0,0-.6.22l-.89,2.87a.4.4,0,0,0,.24.49l13,5.1A.4.4,0,0,0,75.29,177.71Z"/></g><g id="torso"><g id="back_wing" data-name="back wing"><ellipse id="outer_part" data-name="outer part" class="cls-2" cx="20.31" cy="90.28" rx="19.08" ry="43.31" transform="translate(-15.79 5.07) rotate(-10.28)"/></g><g id="front_wing" data-name="front wing"><g id="weird_bod_legs" data-name="weird bod + legs"><path class="cls-3" d="M33.47,178l7.36-22.56a.8.8,0,0,0-.47-1L38,153.55a.78.78,0,0,0-1.06.57l-5,23.48A.79.79,0,0,0,33.47,178Z"/><path class="cls-3" d="M26.55,178.7l9-7.61a.39.39,0,0,0,0-.55L34.36,169a.41.41,0,0,0-.62,0L26,178.13A.4.4,0,0,0,26.55,178.7Z"/><path class="cls-3" d="M44.76,177.87l-8.39-9.11a.39.39,0,0,0-.63.05l-1.52,2.39a.39.39,0,0,0,.11.54l9.91,6.74A.4.4,0,0,0,44.76,177.87Z"/><path class="cls-3" d="M63.32,178.2l1-20.95a.58.58,0,0,0-.53-.6l-3-.21a.57.57,0,0,0-.61.63l2,21.15A.58.58,0,0,0,63.32,178.2Z"/><path class="cls-3" d="M54.61,178.25l9.54-6a.4.4,0,0,0,.14-.53l-1.18-2.1a.4.4,0,0,0-.63-.09l-8.36,8.05A.4.4,0,0,0,54.61,178.25Z"/><path class="cls-3" d="M75.35,177.86l-12.1-8a.4.4,0,0,0-.6.21L61.76,173a.41.41,0,0,0,.23.5l13,5.1A.4.4,0,0,0,75.35,177.86Z"/><path class="cls-2" d="M41.07,154l13.77-20.59a2.46,2.46,0,0,0-1.22-3.69l-14.47-5.11A2.46,2.46,0,0,0,35.87,127l.69,25.69A2.47,2.47,0,0,0,41.07,154Z"/><path class="cls-2" d="M65,155.37l7.11-26.94a2.46,2.46,0,0,0-2.27-3.09l-15.35-.7a2.47,2.47,0,0,0-2.47,3.17l8.25,27.64A2.46,2.46,0,0,0,65,155.37Z"/><path class="cls-4" d="M28,51.94a97.92,97.92,0,0,0-8.49,29.18c-2,19.14-3.22,31.41,5,40.55C32.05,130,43.86,131.73,49,132.48a51.27,51.27,0,0,0,18.14-.66c4.74-.94,17.54-6.93,19.66-13.88,5.28-17.26-2-30.61-6.58-42.83C76,63.79,74,57.82,64.09,46.93,58.19,40.45,43,36.81,34.5,42.52,32.73,43.7,31,45.46,28,51.94Z"/><rect class="cls-5" x="55.93" y="158.46" width="14.78" height="10.78" rx="2" transform="translate(-3.33 1.33) rotate(-1.17)"/><path class="cls-6" d="M97.71,190.23c0-2.58-4.28-13.34-10.51-19.73A28.82,28.82,0,0,0,72,162.72"/></g><ellipse id="outer_part-2" data-name="outer part" class="cls-2" cx="84.59" cy="90.28" rx="19.66" ry="43.31" transform="translate(-12.32 13.38) rotate(-8.43)"/></g></g><g id="head"><path class="cls-2" d="M71.92,27.08c0,14.45-10.66,25.26-30.24,25.26s-30-11.72-30-26.17S22.1,0,41.68,0,71.92,12.63,71.92,27.08Z"/></g><g id="eyes"><ellipse id="right_eye" data-name="right eye" cx="55.01" cy="20.14" rx="5.9" ry="9.48" transform="translate(15.62 63.51) rotate(-67.86)"/><g id="pupils"><ellipse class="cls-7" cx="52.53" cy="20.14" rx="2.69" ry="2.63"/></g><ellipse id="right_eye-2" data-name="right eye" cx="27.91" cy="20.14" rx="9.48" ry="5.9" transform="translate(-5.02 10.12) rotate(-18.88)"/><ellipse class="cls-7" cx="30.4" cy="20.29" rx="2.63" ry="2.69" transform="translate(8.41 49.48) rotate(-86.74)"/></g><g id="beak"><path class="cls-8" d="M43,37l5.38-8.11a1.4,1.4,0,0,0-1.16-2.17H36.41a1.4,1.4,0,0,0-1.17,2.17L40.63,37A1.39,1.39,0,0,0,43,37Z"/><path class="cls-8" d="M41.07,23.53l-4.58,2.76a1.4,1.4,0,0,0,.72,2.59h9.15a1.39,1.39,0,0,0,.72-2.59l-4.57-2.76A1.38,1.38,0,0,0,41.07,23.53Z"/></g><g id="TAG"><rect class="cls-5" x="55.87" y="158.32" width="14.78" height="10.78" rx="2" transform="translate(-3.33 1.32) rotate(-1.17)"/><path class="cls-6" d="M97.65,190.08c0-2.58-4.28-13.34-10.52-19.73a28.84,28.84,0,0,0-15.21-7.77"/></g></svg>