<svg xmlns="http://www.w3.org/2000/svg" viewBox="0 0 284.17 190.09"><defs><style>.cls-1{fill:#71491a;}.cls-2{fill:#d33b2a;}.cls-3,.cls-4{stroke:#000;stroke-miterlimit:10;stroke-width:3px;}.cls-4{fill:none;}.cls-5{fill:#00b04c;}.cls-6{fill:#008639;}.cls-7{fill:#fffe54;}.cls-8{fill:#a93223;}.cls-9{fill:#231f20;}.cls-10{fill:#fff;}.cls-11{fill:#ffc536;}</style></defs><g id="new_feet" data-name="new feet"><path class="cls-1" d="M116.48,177.87l7.36-22.56a.8.8,0,0,0-.47-1l-2.35-.91A.8.8,0,0,0,120,154l-5,23.48A.79.79,0,0,0,116.48,177.87Z"/><path class="cls-1" d="M109.56,178.56l9-7.61a.4.4,0,0,0,0-.55l-1.23-1.54a.41.41,0,0,0-.62,0L109,178A.4.4,0,0,0,109.56,178.56Z"/><path class="cls-1" d="M127.77,177.73l-8.39-9.11a.41.41,0,0,0-.64,0l-1.51,2.39a.39.39,0,0,0,.11.54l9.9,6.74A.41.41,0,0,0,127.77,177.73Z"/><path class="cls-1" d="M146.33,178.06l1-20.95a.58.58,0,0,0-.54-.6l-2.95-.21a.58.58,0,0,0-.62.63l2,21.15A.58.58,0,0,0,146.33,178.06Z"/><path class="cls-1" d="M137.62,178.11l9.54-6a.4.4,0,0,0,.14-.53l-1.18-2.1a.4.4,0,0,0-.63-.09l-8.36,8A.4.4,0,0,0,137.62,178.11Z"/><path class="cls-1" d="M158.36,177.72l-12.1-8a.4.4,0,0,0-.61.21l-.88,2.87a.4.4,0,0,0,.23.5l13,5.1A.4.4,0,0,0,158.36,177.72Z"/><path class="cls-2" d="M123.72,155.22l10.48-11.74a2.46,2.46,0,0,0-1-4L119.72,135a2.46,2.46,0,0,0-3.21,2.77L119.46,154A2.46,2.46,0,0,0,123.72,155.22Z"/><path class="cls-2" d="M148,157l6.64-16.31a2.47,2.47,0,0,0-2.21-3.39L138,136.85a2.46,2.46,0,0,0-2.31,3.49l7.7,16.73A2.47,2.47,0,0,0,148,157Z"/><rect class="cls-3" x="138.94" y="158.33" width="14.78" height="10.78" rx="2" transform="translate(-3.31 3.02) rotate(-1.17)"/><path class="cls-4" d="M180.72,190.09c0-2.58-4.28-13.34-10.52-19.73A28.73,28.73,0,0,0,155,162.59"/></g><g id="torso"><g id="back_wing" data-name="back wing"><g id="light_inner" data-name="light inner"><ellipse class="cls-5" cx="107.54" cy="86.69" rx="19.18" ry="2.85" transform="translate(10.61 185.1) rotate(-84.31)"/><ellipse class="cls-5" cx="102.17" cy="93.61" rx="19.18" ry="2.85" transform="translate(-1.11 185.99) rotate(-84.31)"/><ellipse class="cls-5" cx="96.15" cy="88.15" rx="19.18" ry="2.85" transform="translate(-1.1 175.08) rotate(-84.31)"/><ellipse class="cls-5" cx="92.08" cy="89.8" rx="19.18" ry="2.85" transform="translate(-14.94 161.14) rotate(-77.97)"/><ellipse class="cls-5" cx="69.6" cy="80.18" rx="18.05" ry="3.9" transform="translate(-34.64 100.37) rotate(-60)"/><ellipse class="cls-5" cx="88.34" cy="88.72" rx="18.46" ry="2.96" transform="translate(-21.47 148.85) rotate(-73.83)"/><ellipse class="cls-5" cx="83.94" cy="86.69" rx="18.25" ry="2.99" transform="translate(-26.96 134.25) rotate(-69.13)"/><ellipse class="cls-5" cx="80.25" cy="85.28" rx="18.25" ry="2.99" transform="translate(-31.33 120.83) rotate(-64.41)"/><ellipse class="cls-5" cx="75.3" cy="83.47" rx="18.25" ry="2.99" transform="translate(-34.64 106.95) rotate(-60)"/><ellipse class="cls-5" cx="63.8" cy="77.28" rx="17.79" ry="3.57" transform="translate(-35.03 93.89) rotate(-60)"/><ellipse class="cls-5" cx="57.73" cy="74.5" rx="16.66" ry="3.28" transform="translate(-36.08 83.59) rotate(-57.76)"/><ellipse class="cls-5" cx="53.86" cy="67.6" rx="18.6" ry="4.39" transform="translate(-32.54 70.13) rotate(-53.13)"/><ellipse class="cls-5" cx="25.32" cy="42.2" rx="27.17" ry="5.76" transform="translate(-13.86 12.42) rotate(-21.79)"/><ellipse class="cls-5" cx="31.69" cy="47.93" rx="26.86" ry="5.63" transform="translate(-21.55 26.32) rotate(-34.44)"/><ellipse class="cls-5" cx="38.45" cy="53.29" rx="25.57" ry="3.91" transform="translate(-26.42 42.8) rotate(-45)"/><ellipse class="cls-5" cx="46.73" cy="53.62" rx="26.43" ry="3.78" transform="translate(-24.39 54.55) rotate(-49.67)"/><ellipse class="cls-5" cx="52.07" cy="56.11" rx="26.43" ry="3.78" transform="translate(-23.72 66.86) rotate(-55.21)"/><ellipse class="cls-5" cx="67.02" cy="61.04" rx="16.6" ry="43.13" transform="translate(-19.35 88.56) rotate(-60)"/></g><g id="dark_inner" data-name="dark inner"><ellipse class="cls-6" cx="109.64" cy="75.11" rx="1.94" ry="11.08" transform="translate(-0.75 1.11) rotate(-0.58)"/><ellipse class="cls-6" cx="105.92" cy="75.3" rx="13.43" ry="2.21" transform="translate(26.01 177.79) rotate(-87.47)"/><ellipse class="cls-6" cx="102.18" cy="77.56" rx="13.29" ry="2.23" transform="translate(14.99 171.66) rotate(-84.38)"/><ellipse class="cls-6" cx="97.8" cy="77.76" rx="13.11" ry="2.26" transform="translate(5.72 162.21) rotate(-81.02)"/><ellipse class="cls-6" cx="93.78" cy="76.88" rx="12.85" ry="2.31" transform="translate(-2.45 150.67) rotate(-76.83)"/><ellipse class="cls-6" cx="90.32" cy="74.5" rx="12.65" ry="2.34" transform="translate(-6.39 140.5) rotate(-73.83)"/><ellipse class="cls-6" cx="86.69" cy="74.98" rx="12.65" ry="2.34" transform="matrix(0.28, -0.96, 0.96, 0.28, -9.46, 137.35)"/><ellipse class="cls-6" cx="83.69" cy="72.93" rx="12.65" ry="2.34" transform="translate(-9.66 133.01) rotate(-73.84)"/><ellipse class="cls-6" cx="80.69" cy="72.07" rx="12.65" ry="2.34" transform="translate(-11 129.5) rotate(-73.83)"/><ellipse class="cls-6" cx="74.49" cy="67.6" rx="12.65" ry="2.34" transform="translate(-11.18 120.32) rotate(-73.83)"/><ellipse class="cls-6" cx="77.72" cy="69.01" rx="12.65" ry="2.34" transform="translate(-10.21 124.44) rotate(-73.83)"/><ellipse class="cls-6" cx="70.96" cy="64.48" rx="12.65" ry="2.34" transform="matrix(0.28, -0.96, 0.96, 0.28, -10.73, 114.68)"/><ellipse class="cls-6" cx="67.43" cy="61.51" rx="12.32" ry="2.4" transform="translate(-14.06 102.61) rotate(-69.13)"/><ellipse class="cls-6" cx="64.77" cy="57.67" rx="11.99" ry="2.47" transform="translate(-15.22 91.18) rotate(-64.41)"/><ellipse class="cls-6" cx="61.74" cy="53.46" rx="11.63" ry="2.55" transform="translate(-15.79 79.12) rotate(-59.21)"/><ellipse class="cls-6" cx="60.94" cy="47.85" rx="11.04" ry="2.68" transform="translate(-14.98 63.34) rotate(-49.67)"/><ellipse class="cls-6" cx="53.48" cy="48.29" rx="12.08" ry="2.49" transform="translate(-18.21 55.51) rotate(-47.83)"/><ellipse class="cls-6" cx="50.6" cy="43.5" rx="12.66" ry="2.26" transform="translate(-16.05 40.36) rotate(-37.99)"/><ellipse class="cls-6" cx="44.1" cy="42.2" rx="9.97" ry="2.81" transform="translate(-12.64 19.7) rotate(-22.1)"/><ellipse class="cls-6" cx="81.08" cy="54.67" rx="12.82" ry="34.5" transform="translate(-9.39 91.79) rotate(-56.3)"/></g><ellipse id="outer_part" data-name="outer part" class="cls-2" cx="84.54" cy="49.63" rx="10.79" ry="32" transform="matrix(0.6, -0.8, 0.8, 0.6, -5.89, 87.48)"/><ellipse id="outer_part-2" data-name="outer part" class="cls-2" cx="39.2" cy="36.92" rx="28" ry="5.66" transform="translate(-7.08 9.39) rotate(-12.54)"/></g></g><g id="beak"><path class="cls-7" d="M125.85,40.14l3.21-9.58a1.39,1.39,0,0,0-1.32-1.84h-6.42A1.4,1.4,0,0,0,120,30.56l3.21,9.58A1.39,1.39,0,0,0,125.85,40.14Z"/><path class="cls-7" d="M123.46,25.37l-3.2,3.83a1.4,1.4,0,0,0,1.07,2.29h6.4a1.4,1.4,0,0,0,1.07-2.29l-3.2-3.83A1.4,1.4,0,0,0,123.46,25.37Z"/><path class="cls-2" d="M123.73,155.21l10.48-11.73a2.46,2.46,0,0,0-1.05-4L119.73,135a2.46,2.46,0,0,0-3.21,2.77l3,16.27A2.46,2.46,0,0,0,123.73,155.21Z"/><ellipse id="body" class="cls-8" cx="134.45" cy="94.09" rx="38.05" ry="51.77" transform="translate(-11.61 19.29) rotate(-7.87)"/><path class="cls-2" d="M155,27.08c0,14.45-10.65,25.26-30.23,25.26s-30-11.72-30-26.17S105.19,0,124.77,0,155,12.63,155,27.08Z"/><circle id="left_eye" data-name="left eye" class="cls-9" cx="110.09" cy="24.08" r="10.09"/><circle id="right_eye" data-name="right eye" class="cls-9" cx="139.94" cy="24.75" r="10.58"/><circle class="cls-10" cx="110.09" cy="24.08" r="3"/><circle class="cls-10" cx="140.14" cy="24.75" r="3"/><path class="cls-11" d="M126.09,40l3.21-9.59A1.39,1.39,0,0,0,128,28.6h-6.42a1.39,1.39,0,0,0-1.32,1.83L123.45,40A1.39,1.39,0,0,0,126.09,40Z"/><path class="cls-11" d="M123.7,25.25l-3.2,3.82a1.4,1.4,0,0,0,1.07,2.29H128A1.4,1.4,0,0,0,129,29.07l-3.2-3.82A1.39,1.39,0,0,0,123.7,25.25Z"/></g><g id="front_wing" data-name="front wing"><g id="light_inner-2" data-name="light inner"><ellipse class="cls-5" cx="149.91" cy="87.69" rx="3.33" ry="20.19" transform="translate(-14.42 31.5) rotate(-11.45)"/><ellipse class="cls-5" cx="156.82" cy="89.93" rx="3.51" ry="19.56" transform="translate(-14.73 32.92) rotate(-11.45)"/><ellipse class="cls-5" cx="163.85" cy="89.8" rx="3.51" ry="19.56" transform="translate(-14.56 34.31) rotate(-11.45)"/><ellipse class="cls-5" cx="170.44" cy="91.63" rx="3.51" ry="19.56" transform="translate(-14.8 35.65) rotate(-11.45)"/><ellipse class="cls-5" cx="175.8" cy="91.98" rx="3.57" ry="19.23" transform="translate(-22.22 79.59) rotate(-24.04)"/><ellipse class="cls-5" cx="181.94" cy="89.46" rx="3.57" ry="19.23" transform="translate(-20.66 81.88) rotate(-24.04)"/><ellipse class="cls-5" cx="188.68" cy="88.15" rx="3.57" ry="19.23" transform="translate(-19.54 84.51) rotate(-24.04)"/><ellipse class="cls-5" cx="195.76" cy="85.62" rx="4.18" ry="19.06" transform="translate(-16.86 106.68) rotate(-29.28)"/><ellipse class="cls-5" cx="201.28" cy="82.61" rx="3.67" ry="18.68" transform="translate(-4.58 153.02) rotate(-41.2)"/><ellipse class="cls-5" cx="208.59" cy="78.42" rx="4.88" ry="21.02" transform="translate(2.94 164.26) rotate(-43.26)"/><ellipse class="cls-5" cx="253.16" cy="44.61" rx="5.81" ry="32.42" transform="translate(135.45 273.13) rotate(-72.74)"/><ellipse class="cls-5" cx="239.02" cy="49.63" rx="5.78" ry="39.2" transform="translate(93.95 245.97) rotate(-65.27)"/><ellipse class="cls-5" cx="230.61" cy="53.29" rx="5.7" ry="35.76" transform="translate(52.44 209.1) rotate(-54.18)"/><ellipse class="cls-5" cx="221.19" cy="57.66" rx="4.83" ry="29.63" transform="translate(33.48 188.1) rotate(-49.41)"/><ellipse class="cls-5" cx="215.99" cy="62.97" rx="4.2" ry="29.91" transform="translate(15.91 165.85) rotate(-43.46)"/><ellipse class="cls-5" cx="209.56" cy="67.6" rx="4.2" ry="29.91" transform="translate(10.96 162.69) rotate(-43.46)"/></g><g id="dark_inner-2" data-name="dark inner"><ellipse class="cls-6" cx="146.35" cy="76.69" rx="2.42" ry="11.16" transform="translate(-4.69 9.72) rotate(-3.74)"/><ellipse class="cls-6" cx="151.01" cy="76.88" rx="2.74" ry="13.6" transform="translate(-8.85 20.66) rotate(-7.61)"/><ellipse class="cls-6" cx="155.85" cy="79.14" rx="2.75" ry="13.55" transform="translate(-12.58 32.41) rotate(-11.41)"/><ellipse class="cls-6" cx="161.34" cy="79.34" rx="2.76" ry="13.48" transform="translate(-15.34 46.04) rotate(-15.51)"/><ellipse class="cls-6" cx="166.3" cy="78.45" rx="2.78" ry="13.39" transform="translate(-16.94 63.19) rotate(-20.5)"/><ellipse class="cls-6" cx="170.44" cy="76.05" rx="2.79" ry="13.32" transform="translate(-16.2 75.85) rotate(-23.99)"/><ellipse class="cls-6" cx="175.01" cy="76.52" rx="2.79" ry="13.32" transform="translate(-16 77.75) rotate(-23.99)"/><ellipse class="cls-6" cx="178.61" cy="74.46" rx="2.79" ry="13.32" transform="matrix(0.91, -0.41, 0.41, 0.91, -14.85, 79.01)"/><ellipse class="cls-6" cx="182.29" cy="73.6" rx="2.79" ry="13.32" transform="translate(-14.18 80.46) rotate(-23.99)"/><ellipse class="cls-6" cx="189.7" cy="69.1" rx="2.79" ry="13.32" transform="translate(-11.71 83.08) rotate(-23.99)"/><ellipse class="cls-6" cx="185.77" cy="70.52" rx="2.79" ry="13.32" transform="translate(-12.62 81.61) rotate(-23.99)"/><ellipse class="cls-6" cx="193.87" cy="65.96" rx="2.79" ry="13.32" transform="translate(-10.07 84.51) rotate(-23.99)"/><ellipse class="cls-6" cx="198.06" cy="62.97" rx="2.82" ry="13.21" transform="translate(-5.48 104.97) rotate(-29.3)"/><ellipse class="cls-6" cx="201.09" cy="59.1" rx="2.84" ry="13.09" transform="translate(1.82 124.09) rotate(-34.44)"/><ellipse class="cls-6" cx="204.57" cy="54.86" rx="2.87" ry="12.97" transform="translate(12.41 143.93) rotate(-39.88)"/><ellipse class="cls-6" cx="205.15" cy="49.23" rx="2.91" ry="12.77" transform="translate(33.9 172.45) rotate(-49.23)"/><ellipse class="cls-6" cx="214.49" cy="49.66" rx="2.68" ry="14.06" transform="translate(40.26 184.25) rotate(-50.72)"/><ellipse class="cls-6" cx="217.74" cy="44.84" rx="2.36" ry="15.22" transform="translate(68.15 209.29) rotate(-59.35)"/><ellipse class="cls-6" cx="225.76" cy="43.52" rx="2.84" ry="12.4" transform="translate(116.98 246.08) rotate(-72.68)"/><ellipse class="cls-6" cx="180.49" cy="56.11" rx="39.6" ry="14.02" transform="translate(-5.6 89.23) rotate(-27.36)"/></g><ellipse id="outer_part-3" data-name="outer part" class="cls-2" cx="175.8" cy="51.05" rx="36.27" ry="11.96" transform="translate(-1.4 96.98) rotate(-30.72)"/><ellipse id="outer_part-4" data-name="outer part" class="cls-2" cx="231.48" cy="38.21" rx="5.67" ry="35.12" transform="translate(153.97 259.65) rotate(-80.08)"/></g></svg>