<svg xmlns="http://www.w3.org/2000/svg" viewBox="0 0 105.05 190.08"><defs><style>.cls-1{fill:#71491a;}.cls-2{fill:#d33b2a;}.cls-3{fill:#a93223;}.cls-4{fill:#231f20;}.cls-5{fill:#fff;}.cls-6{fill:#ffc435;}.cls-7,.cls-8{stroke:#000;stroke-miterlimit:10;stroke-width:3px;}.cls-8{fill:none;}</style></defs><g id="claws"><path class="cls-1" d="M33.41,177.87l7.36-22.57a.79.79,0,0,0-.47-1L38,153.4a.8.8,0,0,0-1.07.58l-5,23.47A.79.79,0,0,0,33.41,177.87Z"/><path class="cls-1" d="M26.49,178.55l9-7.6a.41.41,0,0,0,.06-.56l-1.23-1.53a.4.4,0,0,0-.62,0L25.92,178A.4.4,0,0,0,26.49,178.55Z"/><path class="cls-1" d="M44.69,177.73l-8.38-9.12a.41.41,0,0,0-.64.06l-1.51,2.38a.4.4,0,0,0,.11.55l9.9,6.73A.4.4,0,0,0,44.69,177.73Z"/><path class="cls-1" d="M63.25,178.05l1-21a.58.58,0,0,0-.54-.6l-3-.21a.59.59,0,0,0-.62.63l2,21.16A.58.58,0,0,0,63.25,178.05Z"/><path class="cls-1" d="M54.55,178.1l9.54-5.95a.4.4,0,0,0,.13-.54L63,169.52a.4.4,0,0,0-.62-.1l-8.36,8.05A.4.4,0,0,0,54.55,178.1Z"/><path class="cls-1" d="M75.29,177.71l-12.11-8a.4.4,0,0,0-.6.22l-.89,2.87a.4.4,0,0,0,.24.49l13,5.1A.4.4,0,0,0,75.29,177.71Z"/></g><g id="legs"><path class="cls-2" d="M40.64,155.21l10.49-11.73a2.47,2.47,0,0,0-1.05-4L36.64,135a2.47,2.47,0,0,0-3.21,2.77l3,16.27A2.46,2.46,0,0,0,40.64,155.21Z"/><path class="cls-2" d="M64.88,157l6.63-16.31a2.46,2.46,0,0,0-2.2-3.39L55,136.84a2.46,2.46,0,0,0-2.3,3.49l7.7,16.73A2.46,2.46,0,0,0,64.88,157Z"/></g><g id="torso"><g id="back_wing" data-name="back wing"><ellipse id="outer_part" data-name="outer part" class="cls-2" cx="20.31" cy="90.28" rx="19.08" ry="43.31" transform="translate(-15.79 5.07) rotate(-10.28)"/></g><ellipse id="body" class="cls-3" cx="51.36" cy="94.09" rx="38.05" ry="51.77" transform="translate(-12.4 7.92) rotate(-7.87)"/><g id="front_wing" data-name="front wing"><ellipse id="outer_part-2" data-name="outer part" class="cls-2" cx="84.59" cy="90.28" rx="19.66" ry="43.31" transform="translate(-12.32 13.38) rotate(-8.43)"/></g></g><g id="head"><path class="cls-2" d="M71.92,27.08c0,14.45-10.66,25.26-30.24,25.26s-30-11.72-30-26.17S22.1,0,41.68,0,71.92,12.63,71.92,27.08Z"/></g><g id="eyes"><circle id="left_eye" data-name="left eye" class="cls-4" cx="27" cy="24.08" r="10.09"/><circle id="right_eye" data-name="right eye" class="cls-4" cx="56.85" cy="24.75" r="10.58"/><g id="pupils"><circle class="cls-5" cx="27" cy="24.08" r="3"/><circle class="cls-5" cx="57.05" cy="24.75" r="3"/></g></g><g id="beak"><path class="cls-6" d="M43,40l3.2-9.59a1.39,1.39,0,0,0-1.32-1.83H38.47a1.39,1.39,0,0,0-1.32,1.83L40.36,40A1.4,1.4,0,0,0,43,40Z"/><path class="cls-6" d="M40.61,25.25l-3.2,3.82a1.4,1.4,0,0,0,1.07,2.29h6.4A1.4,1.4,0,0,0,46,29.07l-3.2-3.82A1.39,1.39,0,0,0,40.61,25.25Z"/></g><g id="TAG"><rect class="cls-7" x="55.87" y="158.32" width="14.78" height="10.78" rx="2" transform="translate(-3.33 1.32) rotate(-1.17)"/><path class="cls-8" d="M97.65,190.08c0-2.58-4.28-13.34-10.52-19.73a28.84,28.84,0,0,0-15.21-7.77"/></g></svg>