<svg xmlns="http://www.w3.org/2000/svg" viewBox="0 0 322.01 190.08"><defs><style>.cls-1{fill:#00b04c;}.cls-2{fill:#008639;}.cls-3{fill:#d33b2a;}.cls-4{fill:#fffe54;}.cls-5{fill:#71491a;}.cls-6{fill:#a93223;}.cls-7{fill:#231f20;}.cls-8{fill:#fff;}.cls-9{fill:#ffc536;}.cls-10,.cls-11{stroke:#000;stroke-miterlimit:10;stroke-width:3px;}.cls-11{fill:none;}</style></defs><g id="torso"><g id="back_wing" data-name="back wing"><g id="light_inner" data-name="light inner"><ellipse class="cls-1" cx="125.28" cy="86.69" rx="19.18" ry="2.85" transform="translate(26.59 202.75) rotate(-84.31)"/><ellipse class="cls-1" cx="119.91" cy="93.61" rx="19.18" ry="2.85" transform="translate(14.87 203.64) rotate(-84.31)"/><ellipse class="cls-1" cx="114.23" cy="95.94" rx="19.18" ry="2.85" transform="translate(7.43 200.09) rotate(-84.31)"/><ellipse class="cls-1" cx="109.46" cy="96.56" rx="19.18" ry="2.85" transform="translate(2.52 195.9) rotate(-84.31)"/><ellipse class="cls-1" cx="85.29" cy="86.79" rx="18.05" ry="3.9" transform="translate(-23.8 140.69) rotate(-71.79)"/><ellipse class="cls-1" cx="104.88" cy="97.15" rx="18.46" ry="2.96" transform="translate(-14.99 175.06) rotate(-75.83)"/><ellipse class="cls-1" cx="99.98" cy="96.2" rx="18.25" ry="2.99" transform="translate(-20.42 165.14) rotate(-73.69)"/><ellipse class="cls-1" cx="95.34" cy="93.09" rx="18.25" ry="2.99" transform="translate(-20.77 158.46) rotate(-73.69)"/><ellipse class="cls-1" cx="90.54" cy="90.37" rx="18.25" ry="2.99" transform="translate(-21.62 151.89) rotate(-73.69)"/><ellipse class="cls-1" cx="80.08" cy="81.65" rx="17.79" ry="3.57" transform="translate(-24.7 127.48) rotate(-69.18)"/><ellipse class="cls-1" cx="74.18" cy="78.91" rx="16.66" ry="3.28" transform="translate(-32.13 99.56) rotate(-57.76)"/><ellipse class="cls-1" cx="70.23" cy="72.29" rx="18.6" ry="4.39" transform="translate(-29 89.93) rotate(-55.91)"/><ellipse class="cls-1" cx="29.15" cy="47.79" rx="31.3" ry="5.76" transform="translate(-15.66 14.24) rotate(-21.79)"/><ellipse class="cls-1" cx="37.81" cy="54.54" rx="32.02" ry="5.63" transform="translate(-22.67 27.22) rotate(-30.96)"/><ellipse class="cls-1" cx="47.28" cy="58.46" rx="30.31" ry="5.36" transform="translate(-27.32 49.08) rotate(-43.87)"/><ellipse class="cls-1" cx="56.28" cy="60.77" rx="25.57" ry="3.91" transform="translate(-26.51 63.4) rotate(-49.01)"/><ellipse class="cls-1" cx="62.98" cy="62.73" rx="26.43" ry="3.78" transform="translate(-24.47 78.66) rotate(-55.21)"/><ellipse class="cls-1" cx="68.43" cy="64.34" rx="26.43" ry="3.78" transform="translate(-23.45 83.83) rotate(-55.21)"/></g><g id="dark_inner" data-name="dark inner"><ellipse class="cls-2" cx="127.38" cy="75.11" rx="1.94" ry="11.08" transform="translate(-0.75 1.29) rotate(-0.58)"/><ellipse class="cls-2" cx="123.66" cy="75.3" rx="13.43" ry="2.21" transform="translate(42.96 195.51) rotate(-87.47)"/><ellipse class="cls-2" cx="119.92" cy="77.56" rx="13.29" ry="2.23" transform="translate(31 189.31) rotate(-84.38)"/><ellipse class="cls-2" cx="115.54" cy="77.76" rx="13.11" ry="2.26" transform="translate(20.69 179.73) rotate(-81.02)"/><ellipse class="cls-2" cx="111.51" cy="76.88" rx="12.85" ry="2.31" transform="translate(11.25 167.95) rotate(-76.83)"/><ellipse class="cls-2" cx="108.06" cy="74.5" rx="12.65" ry="2.34" transform="translate(6.41 157.54) rotate(-73.83)"/><ellipse class="cls-2" cx="104.43" cy="74.98" rx="12.65" ry="2.34" transform="matrix(0.28, -0.96, 0.96, 0.28, 3.34, 154.39)"/><ellipse class="cls-2" cx="101.43" cy="72.93" rx="12.65" ry="2.34" transform="translate(3.14 150.04) rotate(-73.84)"/><ellipse class="cls-2" cx="98.43" cy="72.07" rx="12.65" ry="2.34" transform="translate(1.79 146.53) rotate(-73.83)"/><ellipse class="cls-2" cx="92.23" cy="67.6" rx="12.65" ry="2.34" transform="translate(1.62 137.36) rotate(-73.83)"/><ellipse class="cls-2" cx="95.46" cy="69.01" rx="12.65" ry="2.34" transform="translate(2.59 141.48) rotate(-73.83)"/><ellipse class="cls-2" cx="88.7" cy="64.48" rx="12.65" ry="2.34" transform="matrix(0.28, -0.96, 0.96, 0.28, 2.07, 131.71)"/><ellipse class="cls-2" cx="85.17" cy="61.51" rx="12.32" ry="2.4" transform="translate(-2.64 119.18) rotate(-69.13)"/><ellipse class="cls-2" cx="82.51" cy="57.67" rx="11.99" ry="2.47" transform="translate(-5.14 107.18) rotate(-64.41)"/><ellipse class="cls-2" cx="79.48" cy="53.46" rx="11.63" ry="2.55" transform="translate(-7.13 94.36) rotate(-59.21)"/><ellipse class="cls-2" cx="78.68" cy="47.85" rx="11.04" ry="2.68" transform="translate(-8.72 76.86) rotate(-49.67)"/><ellipse class="cls-2" cx="71.22" cy="48.29" rx="12.08" ry="2.49" transform="translate(-12.38 68.66) rotate(-47.83)"/><ellipse class="cls-2" cx="68.34" cy="43.5" rx="12.66" ry="2.26" transform="translate(-12.3 51.28) rotate(-37.99)"/><ellipse class="cls-2" cx="61.84" cy="42.2" rx="9.97" ry="2.81" transform="translate(-11.33 26.37) rotate(-22.1)"/><ellipse class="cls-2" cx="98.82" cy="54.67" rx="12.82" ry="34.5" transform="translate(-1.5 106.55) rotate(-56.3)"/></g><ellipse id="outer_part" data-name="outer part" class="cls-3" cx="102.27" cy="49.63" rx="10.79" ry="32" transform="matrix(0.6, -0.8, 0.8, 0.6, 1.21, 101.67)"/><ellipse id="outer_part-2" data-name="outer part" class="cls-3" cx="56.94" cy="36.92" rx="28" ry="5.66" transform="translate(-6.66 13.25) rotate(-12.54)"/></g></g><g id="beak"><path class="cls-4" d="M143.59,40.14l3.21-9.58a1.4,1.4,0,0,0-1.32-1.84h-6.42a1.4,1.4,0,0,0-1.32,1.84L141,40.14A1.39,1.39,0,0,0,143.59,40.14Z"/><path class="cls-4" d="M141.2,25.37,138,29.2a1.4,1.4,0,0,0,1.07,2.29h6.4a1.4,1.4,0,0,0,1.07-2.29l-3.2-3.83A1.4,1.4,0,0,0,141.2,25.37Z"/><path class="cls-5" d="M134.23,177.87l7.36-22.57a.79.79,0,0,0-.46-1l-2.36-.92a.8.8,0,0,0-1.06.58l-5,23.47A.79.79,0,0,0,134.23,177.87Z"/><path class="cls-5" d="M127.31,178.55l9-7.6a.41.41,0,0,0,.05-.56l-1.22-1.53a.4.4,0,0,0-.62,0L126.75,178A.4.4,0,0,0,127.31,178.55Z"/><path class="cls-5" d="M145.52,177.73l-8.39-9.12a.4.4,0,0,0-.63.06L135,171.05a.41.41,0,0,0,.12.55l9.9,6.73A.4.4,0,0,0,145.52,177.73Z"/><path class="cls-5" d="M164.08,178.05l1-21a.57.57,0,0,0-.53-.6l-3-.21a.58.58,0,0,0-.61.63l2,21.16A.58.58,0,0,0,164.08,178.05Z"/><path class="cls-5" d="M155.37,178.1l9.54-5.95a.39.39,0,0,0,.14-.54l-1.18-2.09a.41.41,0,0,0-.63-.1l-8.36,8.05A.4.4,0,0,0,155.37,178.1Z"/><path class="cls-5" d="M176.11,177.71l-12.1-8a.4.4,0,0,0-.6.22l-.89,2.87a.4.4,0,0,0,.23.49l13,5.1A.4.4,0,0,0,176.11,177.71Z"/><path class="cls-3" d="M141.47,155.21,152,143.48a2.46,2.46,0,0,0-1-4L137.47,135a2.46,2.46,0,0,0-3.21,2.77l3,16.27A2.46,2.46,0,0,0,141.47,155.21Z"/><path class="cls-3" d="M165.7,157l6.64-16.31a2.46,2.46,0,0,0-2.21-3.39l-14.34-.42a2.46,2.46,0,0,0-2.31,3.49l7.71,16.73A2.46,2.46,0,0,0,165.7,157Z"/><ellipse id="body" class="cls-6" cx="152.18" cy="94.09" rx="38.05" ry="51.77" transform="translate(-11.45 21.72) rotate(-7.87)"/><path class="cls-3" d="M172.74,27.08c0,14.45-10.65,25.26-30.23,25.26s-30-11.72-30-26.17S122.93,0,142.51,0,172.74,12.63,172.74,27.08Z"/><circle id="left_eye" data-name="left eye" class="cls-7" cx="127.83" cy="24.08" r="10.09"/><circle id="right_eye" data-name="right eye" class="cls-7" cx="157.68" cy="24.75" r="10.58"/><circle class="cls-8" cx="127.83" cy="24.08" r="3"/><circle class="cls-8" cx="157.87" cy="24.75" r="3"/><path class="cls-9" d="M143.83,40,147,30.43a1.39,1.39,0,0,0-1.32-1.83H139.3A1.39,1.39,0,0,0,138,30.43l3.2,9.59A1.4,1.4,0,0,0,143.83,40Z"/><path class="cls-9" d="M141.44,25.25l-3.2,3.82a1.4,1.4,0,0,0,1.07,2.29h6.39a1.4,1.4,0,0,0,1.08-2.29l-3.2-3.82A1.39,1.39,0,0,0,141.44,25.25Z"/></g><g id="front_wing" data-name="front wing"><g id="light_inner-2" data-name="light inner"><ellipse class="cls-1" cx="167.58" cy="88.33" rx="3.51" ry="19.56" transform="translate(-14.2 35.02) rotate(-11.45)"/><ellipse class="cls-1" cx="174.8" cy="95.27" rx="3.51" ry="19.56" transform="translate(-15.43 36.59) rotate(-11.45)"/><ellipse class="cls-1" cx="182.07" cy="97.61" rx="3.51" ry="19.56" transform="translate(-15.75 38.08) rotate(-11.45)"/><ellipse class="cls-1" cx="188.08" cy="98.22" rx="3.51" ry="19.56" transform="translate(-15.75 39.28) rotate(-11.45)"/><ellipse class="cls-1" cx="217.54" cy="88.37" rx="4.62" ry="19.15" transform="translate(-16.58 106.27) rotate(-26.48)"/><ellipse class="cls-1" cx="193.85" cy="98.82" rx="3.56" ry="19.3" transform="translate(-22.75 78.18) rotate(-21.57)"/><ellipse class="cls-1" cx="199.89" cy="97.85" rx="3.57" ry="19.23" transform="translate(-22.52 89.92) rotate(-24.04)"/><ellipse class="cls-1" cx="205.46" cy="94.72" rx="3.57" ry="19.23" transform="translate(-20.76 91.91) rotate(-24.04)"/><ellipse class="cls-1" cx="211.25" cy="91.98" rx="3.57" ry="19.23" transform="translate(-19.15 94.03) rotate(-24.04)"/><ellipse class="cls-1" cx="223.67" cy="83.2" rx="4.18" ry="19.06" transform="translate(-12.11 120.02) rotate(-29.28)"/><ellipse class="cls-1" cx="230.83" cy="80.44" rx="3.67" ry="18.68" transform="translate(4.16 171.94) rotate(-41.2)"/><ellipse class="cls-1" cx="235.27" cy="73.78" rx="4.88" ry="21.02" transform="translate(13.37 181.29) rotate(-43.26)"/><ellipse class="cls-1" cx="284.76" cy="49.09" rx="5.81" ry="38.96" transform="translate(153.39 306.47) rotate(-72.74)"/><ellipse class="cls-1" cx="274.44" cy="55.89" rx="5.78" ry="39.2" transform="translate(108.87 281.79) rotate(-65.27)"/><ellipse class="cls-1" cx="262.91" cy="59.84" rx="5.7" ry="35.76" transform="translate(60.52 238) rotate(-54.18)"/><ellipse class="cls-1" cx="251.83" cy="62.18" rx="4.24" ry="29.63" transform="translate(40.75 212.94) rotate(-49.41)"/><ellipse class="cls-1" cx="243.61" cy="64.16" rx="4.2" ry="29.91" transform="translate(22.66 185.18) rotate(-43.46)"/><ellipse class="cls-1" cx="236.92" cy="65.78" rx="4.2" ry="29.91" transform="translate(19.71 181.01) rotate(-43.46)"/></g><g id="dark_inner-2" data-name="dark inner"><ellipse class="cls-2" cx="164.09" cy="76.69" rx="2.42" ry="11.16" transform="translate(-4.66 10.88) rotate(-3.74)"/><ellipse class="cls-2" cx="168.75" cy="76.88" rx="2.74" ry="13.6" transform="translate(-8.69 23.01) rotate(-7.61)"/><ellipse class="cls-2" cx="173.59" cy="79.14" rx="2.75" ry="13.55" transform="translate(-12.23 35.92) rotate(-11.41)"/><ellipse class="cls-2" cx="179.08" cy="79.34" rx="2.76" ry="13.48" transform="translate(-14.7 50.79) rotate(-15.51)"/><ellipse class="cls-2" cx="184.04" cy="78.45" rx="2.78" ry="13.39" transform="translate(-15.82 69.41) rotate(-20.5)"/><ellipse class="cls-2" cx="188.17" cy="76.05" rx="2.79" ry="13.32" transform="translate(-14.67 83.06) rotate(-23.99)"/><ellipse class="cls-2" cx="192.75" cy="76.52" rx="2.79" ry="13.32" transform="translate(-14.46 84.97) rotate(-23.99)"/><ellipse class="cls-2" cx="196.35" cy="74.46" rx="2.79" ry="13.32" transform="matrix(0.91, -0.41, 0.41, 0.91, -13.32, 86.22)"/><ellipse class="cls-2" cx="200.03" cy="73.6" rx="2.79" ry="13.32" transform="translate(-12.65 87.67) rotate(-23.99)"/><ellipse class="cls-2" cx="207.43" cy="69.1" rx="2.79" ry="13.32" transform="translate(-10.18 90.29) rotate(-23.99)"/><ellipse class="cls-2" cx="203.51" cy="70.52" rx="2.79" ry="13.32" transform="translate(-11.09 88.82) rotate(-23.99)"/><ellipse class="cls-2" cx="211.61" cy="65.96" rx="2.79" ry="13.32" transform="translate(-8.54 91.72) rotate(-23.99)"/><ellipse class="cls-2" cx="215.8" cy="62.97" rx="2.82" ry="13.21" transform="translate(-3.21 113.65) rotate(-29.3)"/><ellipse class="cls-2" cx="218.83" cy="59.1" rx="2.84" ry="13.09" transform="translate(4.93 134.12) rotate(-34.44)"/><ellipse class="cls-2" cx="222.31" cy="54.86" rx="2.87" ry="12.97" transform="translate(16.54 155.3) rotate(-39.88)"/><ellipse class="cls-2" cx="222.89" cy="49.23" rx="2.91" ry="12.77" transform="translate(40.06 185.88) rotate(-49.23)"/><ellipse class="cls-2" cx="232.23" cy="49.66" rx="2.68" ry="14.06" transform="translate(46.77 197.98) rotate(-50.72)"/><ellipse class="cls-2" cx="235.48" cy="44.84" rx="2.36" ry="15.22" transform="translate(76.84 224.55) rotate(-59.35)"/><ellipse class="cls-2" cx="243.5" cy="43.52" rx="2.84" ry="12.4" transform="translate(129.44 263.02) rotate(-72.68)"/><ellipse class="cls-2" cx="198.23" cy="56.11" rx="39.6" ry="14.02" transform="translate(-3.61 97.38) rotate(-27.36)"/></g><ellipse id="outer_part-3" data-name="outer part" class="cls-3" cx="193.54" cy="51.05" rx="36.27" ry="11.96" transform="translate(1.08 106.04) rotate(-30.72)"/><ellipse id="outer_part-4" data-name="outer part" class="cls-3" cx="249.22" cy="38.21" rx="5.67" ry="35.12" transform="translate(168.66 277.13) rotate(-80.08)"/></g><g id="new_tag" data-name="new tag"><rect class="cls-10" x="156.7" y="158.32" width="14.78" height="10.78" rx="2" transform="translate(-3.3 3.38) rotate(-1.17)"/><path class="cls-11" d="M198.47,190.08c0-2.58-4.28-13.34-10.51-19.73a28.86,28.86,0,0,0-15.22-7.77"/></g></svg>