<svg xmlns="http://www.w3.org/2000/svg" viewBox="0 0 261.34 190.08"><defs><style>.cls-1{fill:#00b04c;}.cls-2{fill:#008639;}.cls-3{fill:#d33b2a;}.cls-4{fill:#71491a;}.cls-5{fill:#a93223;}.cls-6{fill:#231f20;}.cls-7{fill:#fff;}.cls-8{fill:#ffc435;}.cls-10,.cls-9{stroke:#000;stroke-miterlimit:10;stroke-width:3px;}.cls-10{fill:none;}</style></defs><g id="torso"><g id="back_wing" data-name="back wing"><ellipse class="cls-1" cx="91.99" cy="92.19" rx="19.18" ry="2.85" transform="translate(-26.55 146.14) rotate(-69.54)"/><ellipse class="cls-1" cx="86.85" cy="92.06" rx="19.18" ry="2.85" transform="translate(-29.77 141.24) rotate(-69.54)"/><ellipse class="cls-1" cx="82.94" cy="89.58" rx="19.18" ry="2.85" transform="translate(-29.99 135.97) rotate(-69.54)"/><ellipse class="cls-1" cx="79.4" cy="88.3" rx="19.18" ry="2.85" transform="translate(-35.21 119.35) rotate(-63.2)"/><ellipse class="cls-1" cx="60.11" cy="73.27" rx="18.05" ry="3.9" transform="translate(-34.24 64.34) rotate(-45.23)"/><ellipse class="cls-1" cx="76.05" cy="86.29" rx="18.46" ry="2.96" transform="translate(-37.07 107.15) rotate(-59.06)"/><ellipse class="cls-1" cx="72.32" cy="83.21" rx="18.25" ry="2.99" transform="translate(-37.45 93.5) rotate(-54.36)"/><ellipse class="cls-1" cx="69.11" cy="80.91" rx="18.25" ry="2.99" transform="translate(-37.3 81.18) rotate(-49.64)"/><ellipse class="cls-1" cx="64.78" cy="77.9" rx="18.25" ry="2.99" transform="translate(-36.15 69.03) rotate(-45.23)"/><ellipse class="cls-1" cx="55.24" cy="68.98" rx="17.79" ry="3.57" transform="translate(-32.63 59.61) rotate(-45.23)"/><ellipse class="cls-1" cx="50.08" cy="64.75" rx="16.66" ry="3.28" transform="translate(-30.7 51.54) rotate(-42.99)"/><ellipse class="cls-1" cx="48.09" cy="57.09" rx="18.6" ry="4.39" transform="translate(-25.05 42.17) rotate(-38.36)"/><ellipse class="cls-1" cx="26.97" cy="25.25" rx="27.17" ry="5.76" transform="translate(-2.89 3.49) rotate(-7.02)"/><ellipse class="cls-1" cx="31.67" cy="32.41" rx="26.86" ry="5.63" transform="matrix(0.94, -0.34, 0.34, 0.94, -9.06, 12.55)"/><ellipse class="cls-1" cx="36.85" cy="39.32" rx="25.57" ry="3.91" transform="translate(-14.78 23.9) rotate(-30.23)"/><ellipse class="cls-1" cx="44.77" cy="41.75" rx="26.43" ry="3.78" transform="translate(-15.84 33.13) rotate(-34.9)"/><ellipse class="cls-1" cx="49.3" cy="45.52" rx="26.43" ry="3.78" transform="translate(-17.75 42.85) rotate(-40.44)"/><ellipse class="cls-1" cx="62.5" cy="54.09" rx="16.6" ry="43.13" transform="translate(-19.92 60.37) rotate(-45.23)"/><ellipse class="cls-2" cx="100.12" cy="78.57" rx="11.08" ry="1.94" transform="translate(-0.6 156.37) rotate(-75.81)"/><ellipse class="cls-2" cx="96.47" cy="77.8" rx="13.43" ry="2.21" transform="translate(-6.51 146.77) rotate(-72.7)"/><ellipse class="cls-2" cx="92.28" cy="79.03" rx="13.29" ry="2.23" transform="translate(-13.95 138) rotate(-69.61)"/><ellipse class="cls-1" cx="96.47" cy="92.19" rx="19.18" ry="2.85" transform="translate(-23.63 150.34) rotate(-69.54)"/><ellipse class="cls-2" cx="87.99" cy="78.11" rx="13.11" ry="2.26" transform="translate(-18.94 127.18) rotate(-66.25)"/><ellipse class="cls-2" cx="84.33" cy="76.23" rx="12.85" ry="2.31" transform="translate(-22.53 115.02) rotate(-62.06)"/><ellipse class="cls-2" cx="81.6" cy="73.06" rx="12.65" ry="2.34" transform="translate(-23.02 105.48) rotate(-59.06)"/><ellipse class="cls-2" cx="77.96" cy="72.59" rx="12.65" ry="2.34" transform="translate(-24.38 102.13) rotate(-59.06)"/><ellipse class="cls-2" cx="75.58" cy="69.84" rx="12.65" ry="2.34" transform="translate(-23.18 98.77) rotate(-59.07)"/><ellipse class="cls-2" cx="72.9" cy="68.25" rx="12.65" ry="2.34" transform="matrix(0.51, -0.86, 0.86, 0.51, -23.12, 95.69)"/><ellipse class="cls-2" cx="68.05" cy="62.35" rx="12.65" ry="2.34" transform="translate(-20.42 88.66) rotate(-59.06)"/><ellipse class="cls-2" cx="70.81" cy="64.53" rx="12.65" ry="2.34" transform="translate(-20.95 92.09) rotate(-59.06)"/><ellipse class="cls-2" cx="65.43" cy="58.43" rx="12.65" ry="2.34" transform="translate(-18.33 84.5) rotate(-59.06)"/><ellipse class="cls-2" cx="62.77" cy="54.66" rx="12.32" ry="2.4" transform="translate(-18.22 73.83) rotate(-54.36)"/><ellipse class="cls-2" cx="61.18" cy="50.26" rx="11.99" ry="2.47" transform="translate(-16.74 64.34) rotate(-49.64)"/><ellipse class="cls-2" cx="59.32" cy="45.42" rx="11.63" ry="2.55" transform="translate(-14.83 54.52) rotate(-44.44)"/><ellipse class="cls-2" cx="59.98" cy="39.79" rx="11.04" ry="2.68" transform="translate(-11.98 41.48) rotate(-34.9)"/><ellipse class="cls-2" cx="52.66" cy="38.31" rx="12.08" ry="2.49" transform="translate(-12.38 34.93) rotate(-33.06)"/><ellipse class="cls-2" cx="51.09" cy="32.95" rx="12.66" ry="2.26" transform="translate(-8.85 22.81) rotate(-23.22)"/><ellipse class="cls-2" cx="45.13" cy="30.03" rx="9.97" ry="2.81" transform="matrix(0.99, -0.13, 0.13, 0.99, -3.47, 6.01)"/><ellipse class="cls-2" cx="77.72" cy="51.52" rx="12.82" ry="34.5" transform="translate(-14.62 64.48) rotate(-41.53)"/><ellipse id="outer_part" data-name="outer part" class="cls-3" cx="82.34" cy="47.53" rx="10.79" ry="32" transform="translate(-11.72 61.36) rotate(-38.36)"/><ellipse id="outer_part-2" data-name="outer part" class="cls-3" cx="41.75" cy="23.68" rx="5.66" ry="28" transform="translate(16.46 64.48) rotate(-87.77)"/></g></g><g id="copied"><path class="cls-4" d="M110.41,177.87l7.36-22.57a.78.78,0,0,0-.47-1L115,153.4a.79.79,0,0,0-1.06.58l-5,23.47A.79.79,0,0,0,110.41,177.87Z" transform="translate(0 0)"/><path class="cls-4" d="M103.49,178.55l9-7.6a.41.41,0,0,0,0-.56l-1.22-1.53a.4.4,0,0,0-.62,0L102.93,178A.4.4,0,0,0,103.49,178.55Z" transform="translate(0 0)"/><path class="cls-4" d="M121.7,177.73l-8.39-9.12a.4.4,0,0,0-.63.06l-1.52,2.38a.42.42,0,0,0,.11.55l9.91,6.73A.4.4,0,0,0,121.7,177.73Z" transform="translate(0 0)"/><path class="cls-4" d="M140.26,178.05l1-21a.58.58,0,0,0-.53-.6l-3-.21a.58.58,0,0,0-.61.63l2,21.16A.58.58,0,0,0,140.26,178.05Z" transform="translate(0 0)"/><path class="cls-4" d="M131.55,178.1l9.54-5.95a.41.41,0,0,0,.14-.54l-1.18-2.09a.41.41,0,0,0-.63-.1l-8.36,8.05A.4.4,0,0,0,131.55,178.1Z" transform="translate(0 0)"/><path class="cls-4" d="M152.29,177.71l-12.1-8a.39.39,0,0,0-.6.22l-.89,2.87a.39.39,0,0,0,.23.49l13,5.1A.4.4,0,0,0,152.29,177.71Z" transform="translate(0 0)"/><path class="cls-3" d="M118.11,153.94,130.23,138a2.47,2.47,0,0,0-1.16-3.82l-14-4.84a2.46,2.46,0,0,0-3.26,2.55l1.94,20.8A2.46,2.46,0,0,0,118.11,153.94Z" transform="translate(0 0)"/><path class="cls-3" d="M142,155l7-22.89a2.47,2.47,0,0,0-2.26-3.18l-15.07-.59a2.47,2.47,0,0,0-2.43,3.26l8.1,23.48A2.46,2.46,0,0,0,142,155Z" transform="translate(0 0)"/><path class="cls-5" d="M105,52.41a107.74,107.74,0,0,0-8.41,30.74c-1.91,20.17-3.13,33.1,5.14,42.75,7.53,8.8,19.35,10.66,24.47,11.47a48.71,48.71,0,0,0,18.14-.66c4.74-1,17.52-7.26,19.63-14.57,5.23-18.18-2.1-32.27-6.7-45.16C153,65,151,58.74,141.06,47.23c-5.93-6.84-21.1-10.73-29.62-4.73C109.68,43.74,108,45.59,105,52.41Z" transform="translate(0 0)"/><path class="cls-3" d="M151.72,26.55c0,14.17-11.68,24.77-33.15,24.77S85.65,39.83,85.65,25.66,97.1,0,118.57,0,151.72,12.38,151.72,26.55Z" transform="translate(0 0)"/><circle id="left_eye" data-name="left eye" class="cls-6" cx="104.01" cy="24.08" r="10.09"/><circle id="right_eye" data-name="right eye" class="cls-6" cx="133.86" cy="24.75" r="10.58"/><circle class="cls-7" cx="104.01" cy="24.08" r="3"/><circle class="cls-7" cx="134.05" cy="24.75" r="3"/><path class="cls-8" d="M120,40l3.21-9.59a1.39,1.39,0,0,0-1.33-1.83h-6.41a1.39,1.39,0,0,0-1.33,1.83L117.36,40A1.4,1.4,0,0,0,120,40Z" transform="translate(0 0)"/><path class="cls-8" d="M117.62,25.25l-3.2,3.82a1.39,1.39,0,0,0,1.07,2.29h6.39A1.39,1.39,0,0,0,123,29.07l-3.19-3.82A1.39,1.39,0,0,0,117.62,25.25Z" transform="translate(0 0)"/><rect class="cls-9" x="132.87" y="158.32" width="14.78" height="10.78" rx="2" transform="translate(-3.31 2.89) rotate(-1.17)"/><path class="cls-10" d="M174.65,190.08c0-2.58-4.28-13.34-10.51-19.73a28.86,28.86,0,0,0-15.22-7.77" transform="translate(0 0)"/></g><g id="front_wing" data-name="front wing"><ellipse class="cls-1" cx="159.68" cy="88.64" rx="2.73" ry="18.92" transform="translate(-18.53 48.68) rotate(-16.4)"/><ellipse class="cls-1" cx="165.36" cy="88.57" rx="3.4" ry="18.92" transform="translate(-19.56 57.07) rotate(-18.51)"/><ellipse class="cls-1" cx="170.48" cy="88.64" rx="3.4" ry="18.92" transform="translate(-21.63 85.07) rotate(-26.41)"/><ellipse class="cls-1" cx="175.58" cy="87.62" rx="3.45" ry="18.61" transform="translate(-16.02 130.02) rotate(-39)"/><ellipse class="cls-1" cx="180.69" cy="83.73" rx="3.45" ry="18.61" transform="translate(-12.43 132.37) rotate(-39)"/><ellipse class="cls-1" cx="186.66" cy="80.83" rx="3.45" ry="18.61" transform="translate(-9.27 135.48) rotate(-39)"/><ellipse class="cls-1" cx="192.65" cy="76.69" rx="4.05" ry="18.45" transform="translate(1.12 156.15) rotate(-44.24)"/><ellipse class="cls-1" cx="197.06" cy="72.5" rx="3.56" ry="18.07" transform="translate(27.09 195.79) rotate(-56.15)"/><ellipse class="cls-1" cx="153.73" cy="87.68" rx="3.18" ry="19.5" transform="translate(-18.5 46.96) rotate(-16.4)"/><ellipse class="cls-1" cx="202.85" cy="66.77" rx="4.72" ry="20.33" transform="matrix(0.53, -0.85, 0.85, 0.53, 39.26, 204.04)"/><ellipse class="cls-1" cx="234.64" cy="23.59" rx="5.62" ry="26.72" transform="translate(201.65 257.09) rotate(-87.7)"/><ellipse class="cls-1" cx="224.93" cy="31.62" rx="5.59" ry="32.12" transform="translate(155.59 247.92) rotate(-80.23)"/><ellipse class="cls-1" cx="217.47" cy="37.89" rx="5.52" ry="29.64" transform="translate(104.62 227.61) rotate(-69.14)"/><ellipse class="cls-1" cx="209.44" cy="44.2" rx="4.67" ry="28.67" transform="translate(78.97 213.9) rotate(-64.36)"/><ellipse class="cls-1" cx="205.9" cy="50.47" rx="4.06" ry="28.94" transform="translate(55.09 199.46) rotate(-58.42)"/><ellipse class="cls-1" cx="201.05" cy="56.41" rx="4.06" ry="28.94" transform="translate(47.71 198.15) rotate(-58.42)"/><ellipse class="cls-2" cx="148.64" cy="79.7" rx="2.65" ry="13.16" transform="translate(-16.45 45.2) rotate(-16.4)"/><ellipse class="cls-2" cx="153.73" cy="80.61" rx="2.66" ry="13.11" transform="translate(-19.81 76.68) rotate(-26.37)"/><ellipse class="cls-2" cx="158.91" cy="79.42" rx="2.67" ry="13.05" transform="translate(-18.33 91.55) rotate(-30.47)"/><ellipse class="cls-2" cx="163.32" cy="77.35" rx="2.69" ry="12.96" transform="translate(-14.58 109.08) rotate(-35.45)"/><ellipse class="cls-2" cx="166.59" cy="74.08" rx="2.7" ry="12.89" transform="translate(-9.54 121.18) rotate(-38.94)"/><ellipse class="cls-2" cx="170.98" cy="73.38" rx="2.7" ry="12.89" transform="translate(-8.12 123.78) rotate(-38.94)"/><ellipse class="cls-2" cx="173.83" cy="70.55" rx="2.7" ry="12.89" transform="translate(-5.72 124.92) rotate(-38.94)"/><ellipse class="cls-2" cx="177.06" cy="68.82" rx="2.7" ry="12.89" transform="translate(-3.91 126.59) rotate(-38.94)"/><ellipse class="cls-2" cx="182.86" cy="62.77" rx="2.7" ry="12.89" transform="translate(1.19 128.89) rotate(-38.94)"/><ellipse class="cls-2" cx="179.54" cy="65.08" rx="2.7" ry="12.89" transform="translate(-1 127.32) rotate(-38.94)"/><ellipse class="cls-2" cx="185.98" cy="58.78" rx="2.7" ry="12.89" transform="translate(4.38 129.97) rotate(-38.94)"/><ellipse class="cls-2" cx="189.15" cy="54.94" rx="2.73" ry="12.78" transform="translate(15.33 147.58) rotate(-44.25)"/><ellipse class="cls-2" cx="191.01" cy="50.58" rx="2.75" ry="12.67" transform="translate(28.3 162.69) rotate(-49.4)"/><ellipse class="cls-2" cx="193.2" cy="45.74" rx="2.78" ry="12.55" transform="translate(44.55 177.35) rotate(-54.84)"/><ellipse class="cls-2" cx="192.34" cy="40.33" rx="2.82" ry="12.36" transform="translate(72.29 195.92) rotate(-64.19)"/><ellipse class="cls-2" cx="201.18" cy="38.4" rx="2.59" ry="13.61" transform="translate(83.33 205.91) rotate(-65.68)"/><ellipse class="cls-2" cx="203.01" cy="33.09" rx="2.29" ry="14.73" transform="translate(116.24 219.58) rotate(-74.3)"/><ellipse class="cls-2" cx="210.18" cy="29.85" rx="2.74" ry="12" transform="translate(171.68 238.62) rotate(-87.63)"/><ellipse class="cls-2" cx="171.95" cy="52.07" rx="37.04" ry="13.57" transform="matrix(0.74, -0.67, 0.67, 0.74, 9.75, 129.33)"/><ellipse id="outer_part-3" data-name="outer part" class="cls-3" cx="165.36" cy="49.36" rx="35.09" ry="11.57" transform="translate(14.52 133.19) rotate(-45.68)"/><ellipse id="outer_part-4" data-name="outer part" class="cls-3" cx="214.2" cy="23.46" rx="33.98" ry="5.48" transform="translate(-1.23 18.91) rotate(-5.04)"/></g></svg>