<svg xmlns="http://www.w3.org/2000/svg" viewBox="0 0 261.34 190.08"><defs><style>.cls-1{fill:#00b04c;}.cls-2{fill:#008639;}.cls-3{fill:#d33b2a;}.cls-4{fill:#71491a;}.cls-5{fill:#a93223;}.cls-6{fill:#fff;}.cls-7{fill:#ffc435;}.cls-8,.cls-9{stroke:#000;stroke-miterlimit:10;stroke-width:3px;}.cls-9{fill:none;}</style></defs><g id="back_wing" data-name="back wing"><g id="back_wing-2" data-name="back wing"><ellipse class="cls-1" cx="91.99" cy="92.19" rx="19.18" ry="2.85" transform="translate(-26.55 146.13) rotate(-69.54)"/><ellipse class="cls-1" cx="86.85" cy="92.06" rx="19.18" ry="2.85" transform="translate(-29.77 141.22) rotate(-69.54)"/><ellipse class="cls-1" cx="82.94" cy="89.58" rx="19.18" ry="2.85" transform="translate(-29.99 135.95) rotate(-69.54)"/><ellipse class="cls-1" cx="79.4" cy="88.3" rx="19.18" ry="2.85" transform="translate(-35.21 119.33) rotate(-63.2)"/><ellipse class="cls-1" cx="60.11" cy="73.27" rx="18.05" ry="3.9" transform="translate(-34.24 64.32) rotate(-45.23)"/><ellipse class="cls-1" cx="76.05" cy="86.29" rx="18.46" ry="2.96" transform="translate(-37.07 107.14) rotate(-59.06)"/><ellipse class="cls-1" cx="72.32" cy="83.21" rx="18.25" ry="2.99" transform="translate(-37.45 93.49) rotate(-54.36)"/><ellipse class="cls-1" cx="69.11" cy="80.91" rx="18.25" ry="2.99" transform="translate(-37.3 81.16) rotate(-49.64)"/><ellipse class="cls-1" cx="64.78" cy="77.9" rx="18.25" ry="2.99" transform="translate(-36.15 69.01) rotate(-45.23)"/><ellipse class="cls-1" cx="55.24" cy="68.98" rx="17.79" ry="3.57" transform="translate(-32.63 59.6) rotate(-45.23)"/><ellipse class="cls-1" cx="50.08" cy="64.75" rx="16.66" ry="3.28" transform="translate(-30.7 51.52) rotate(-42.99)"/><ellipse class="cls-1" cx="48.09" cy="57.09" rx="18.6" ry="4.39" transform="translate(-25.05 42.15) rotate(-38.36)"/><ellipse class="cls-1" cx="26.97" cy="25.25" rx="27.17" ry="5.76" transform="translate(-2.89 3.47) rotate(-7.02)"/><ellipse class="cls-1" cx="31.67" cy="32.41" rx="26.86" ry="5.63" transform="matrix(0.94, -0.34, 0.34, 0.94, -9.06, 12.54)"/><ellipse class="cls-1" cx="36.85" cy="39.32" rx="25.57" ry="3.91" transform="translate(-14.78 23.88) rotate(-30.23)"/><ellipse class="cls-1" cx="44.77" cy="41.75" rx="26.43" ry="3.78" transform="translate(-15.84 33.11) rotate(-34.9)"/><ellipse class="cls-1" cx="49.3" cy="45.52" rx="26.43" ry="3.78" transform="translate(-17.75 42.83) rotate(-40.44)"/><ellipse class="cls-1" cx="62.5" cy="54.09" rx="16.6" ry="43.13" transform="translate(-19.92 60.35) rotate(-45.23)"/><ellipse class="cls-2" cx="100.12" cy="78.57" rx="11.08" ry="1.94" transform="translate(-0.6 156.35) rotate(-75.81)"/><ellipse class="cls-2" cx="96.47" cy="77.8" rx="13.43" ry="2.21" transform="translate(-6.51 146.75) rotate(-72.7)"/><ellipse class="cls-2" cx="92.28" cy="79.03" rx="13.29" ry="2.23" transform="translate(-13.95 137.99) rotate(-69.61)"/><ellipse class="cls-1" cx="96.47" cy="92.19" rx="19.18" ry="2.85" transform="translate(-23.63 150.33) rotate(-69.54)"/><ellipse class="cls-2" cx="87.99" cy="78.11" rx="13.11" ry="2.26" transform="translate(-18.94 127.17) rotate(-66.25)"/><ellipse class="cls-2" cx="84.33" cy="76.23" rx="12.85" ry="2.31" transform="translate(-22.53 115) rotate(-62.06)"/><ellipse class="cls-2" cx="81.6" cy="73.06" rx="12.65" ry="2.34" transform="translate(-23.02 105.46) rotate(-59.06)"/><ellipse class="cls-2" cx="77.96" cy="72.59" rx="12.65" ry="2.34" transform="translate(-24.38 102.12) rotate(-59.06)"/><ellipse class="cls-2" cx="75.58" cy="69.84" rx="12.65" ry="2.34" transform="translate(-23.18 98.75) rotate(-59.07)"/><ellipse class="cls-2" cx="72.9" cy="68.25" rx="12.65" ry="2.34" transform="matrix(0.51, -0.86, 0.86, 0.51, -23.12, 95.67)"/><ellipse class="cls-2" cx="68.05" cy="62.35" rx="12.65" ry="2.34" transform="translate(-20.42 88.64) rotate(-59.06)"/><ellipse class="cls-2" cx="70.81" cy="64.53" rx="12.65" ry="2.34" transform="translate(-20.95 92.07) rotate(-59.06)"/><ellipse class="cls-2" cx="65.43" cy="58.43" rx="12.65" ry="2.34" transform="translate(-18.33 84.49) rotate(-59.06)"/><ellipse class="cls-2" cx="62.77" cy="54.66" rx="12.32" ry="2.4" transform="translate(-18.22 73.81) rotate(-54.36)"/><ellipse class="cls-2" cx="61.18" cy="50.26" rx="11.99" ry="2.47" transform="translate(-16.74 64.32) rotate(-49.64)"/><ellipse class="cls-2" cx="59.32" cy="45.42" rx="11.63" ry="2.55" transform="translate(-14.83 54.5) rotate(-44.44)"/><ellipse class="cls-2" cx="59.98" cy="39.79" rx="11.04" ry="2.68" transform="translate(-11.98 41.46) rotate(-34.9)"/><ellipse class="cls-2" cx="52.66" cy="38.31" rx="12.08" ry="2.49" transform="translate(-12.38 34.91) rotate(-33.06)"/><ellipse class="cls-2" cx="51.09" cy="32.95" rx="12.66" ry="2.26" transform="translate(-8.85 22.79) rotate(-23.22)"/><ellipse class="cls-2" cx="45.13" cy="30.03" rx="9.97" ry="2.81" transform="matrix(0.99, -0.13, 0.13, 0.99, -3.47, 5.99)"/><ellipse class="cls-2" cx="77.72" cy="51.52" rx="12.82" ry="34.5" transform="translate(-14.62 64.46) rotate(-41.53)"/><ellipse id="outer_part" data-name="outer part" class="cls-3" cx="82.34" cy="47.53" rx="10.79" ry="32" transform="translate(-11.72 61.34) rotate(-38.36)"/><ellipse id="outer_part-2" data-name="outer part" class="cls-3" cx="41.75" cy="23.68" rx="5.66" ry="28" transform="translate(16.46 64.46) rotate(-87.77)"/></g></g><g id="Layer_10" data-name="Layer 10"><path class="cls-4" d="M110.38,177.88l7.36-22.56a.78.78,0,0,0-.47-1l-2.35-.92a.79.79,0,0,0-1.06.57l-5,23.48A.79.79,0,0,0,110.38,177.88Z" transform="translate(0 -0.02)"/><path class="cls-4" d="M103.46,178.57l9-7.6a.41.41,0,0,0,0-.56l-1.22-1.54a.41.41,0,0,0-.62,0L102.9,178A.4.4,0,0,0,103.46,178.57Z" transform="translate(0 -0.02)"/><path class="cls-4" d="M121.67,177.74l-8.39-9.11a.39.39,0,0,0-.63.05l-1.52,2.39a.39.39,0,0,0,.11.54l9.91,6.74A.4.4,0,0,0,121.67,177.74Z" transform="translate(0 -0.02)"/><path class="cls-4" d="M140.23,178.07l1-20.95a.58.58,0,0,0-.53-.6l-3-.21a.57.57,0,0,0-.61.63l2,21.15A.58.58,0,0,0,140.23,178.07Z" transform="translate(0 -0.02)"/><path class="cls-4" d="M131.52,178.12l9.54-6a.4.4,0,0,0,.14-.53l-1.18-2.1a.41.41,0,0,0-.63-.09L131,177.49A.4.4,0,0,0,131.52,178.12Z" transform="translate(0 -0.02)"/><path class="cls-4" d="M152.26,177.73l-12.1-8a.4.4,0,0,0-.6.21l-.89,2.88a.39.39,0,0,0,.23.49l13,5.1A.4.4,0,0,0,152.26,177.73Z" transform="translate(0 -0.02)"/><path class="cls-3" d="M117.62,155.23l10.48-11.74a2.46,2.46,0,0,0-1-4L113.62,135a2.46,2.46,0,0,0-3.21,2.77l3,16.27A2.46,2.46,0,0,0,117.62,155.23Z" transform="translate(0 -0.02)"/><path class="cls-3" d="M141.85,157l6.64-16.31a2.46,2.46,0,0,0-2.21-3.39l-14.34-.42a2.46,2.46,0,0,0-2.31,3.49l7.71,16.73A2.46,2.46,0,0,0,141.85,157Z" transform="translate(0 -0.02)"/><ellipse id="body" class="cls-5" cx="128.33" cy="94.11" rx="38.05" ry="51.77" transform="translate(-11.67 18.44) rotate(-7.87)"/><path class="cls-3" d="M148.89,27.1c0,14.45-10.65,25.26-30.23,25.26s-30-11.72-30-26.17S99.07,0,118.66,0,148.89,12.64,148.89,27.1Z" transform="translate(0 -0.02)"/><ellipse id="right_eye" data-name="right eye" cx="131.99" cy="20.16" rx="5.9" ry="9.48" transform="translate(63.56 134.8) rotate(-67.86)"/><ellipse class="cls-6" cx="129.5" cy="20.14" rx="2.69" ry="2.63"/><ellipse id="right_eye-2" data-name="right eye" cx="104.89" cy="20.16" rx="9.48" ry="5.9" transform="translate(-0.88 35.01) rotate(-18.88)"/><ellipse class="cls-6" cx="107.37" cy="20.3" rx="2.63" ry="2.69" transform="translate(80.99 126.33) rotate(-86.74)"/><path class="cls-7" d="M119.93,37l5.38-8.11a1.4,1.4,0,0,0-1.17-2.17H113.38a1.4,1.4,0,0,0-1.16,2.17L117.6,37A1.4,1.4,0,0,0,119.93,37Z" transform="translate(0 -0.02)"/><path class="cls-7" d="M118,23.54l-4.57,2.76a1.39,1.39,0,0,0,.72,2.59h9.15a1.4,1.4,0,0,0,.72-2.59l-4.58-2.76A1.43,1.43,0,0,0,118,23.54Z" transform="translate(0 -0.02)"/><rect class="cls-8" x="132.84" y="158.34" width="14.78" height="10.78" rx="2" transform="translate(-3.31 2.88) rotate(-1.17)"/><path class="cls-9" d="M174.62,190.1c0-2.58-4.28-13.34-10.51-19.73a28.78,28.78,0,0,0-15.22-7.77" transform="translate(0 -0.02)"/></g><g id="front_wing" data-name="front wing"><ellipse class="cls-1" cx="159.68" cy="88.64" rx="2.73" ry="18.92" transform="translate(-18.53 48.66) rotate(-16.4)"/><ellipse class="cls-1" cx="165.36" cy="88.57" rx="3.4" ry="18.92" transform="translate(-19.56 57.05) rotate(-18.51)"/><ellipse class="cls-1" cx="170.48" cy="88.64" rx="3.4" ry="18.92" transform="translate(-21.63 85.05) rotate(-26.41)"/><ellipse class="cls-1" cx="175.58" cy="87.62" rx="3.45" ry="18.61" transform="translate(-16.02 130) rotate(-39)"/><ellipse class="cls-1" cx="180.69" cy="83.73" rx="3.45" ry="18.61" transform="translate(-12.43 132.35) rotate(-39)"/><ellipse class="cls-1" cx="186.66" cy="80.83" rx="3.45" ry="18.61" transform="translate(-9.27 135.46) rotate(-39)"/><ellipse class="cls-1" cx="192.65" cy="76.69" rx="4.05" ry="18.45" transform="translate(1.12 156.13) rotate(-44.24)"/><ellipse class="cls-1" cx="197.06" cy="72.5" rx="3.56" ry="18.07" transform="translate(27.09 195.77) rotate(-56.15)"/><ellipse class="cls-1" cx="153.73" cy="87.68" rx="3.18" ry="19.5" transform="translate(-18.5 46.94) rotate(-16.4)"/><ellipse class="cls-1" cx="202.85" cy="66.77" rx="4.72" ry="20.33" transform="matrix(0.53, -0.85, 0.85, 0.53, 39.26, 204.02)"/><ellipse class="cls-1" cx="234.64" cy="23.59" rx="5.62" ry="26.72" transform="translate(201.65 257.07) rotate(-87.7)"/><ellipse class="cls-1" cx="224.93" cy="31.62" rx="5.59" ry="32.12" transform="translate(155.59 247.91) rotate(-80.23)"/><ellipse class="cls-1" cx="217.47" cy="37.89" rx="5.52" ry="29.64" transform="translate(104.62 227.59) rotate(-69.14)"/><ellipse class="cls-1" cx="209.44" cy="44.2" rx="4.67" ry="28.67" transform="translate(78.97 213.89) rotate(-64.36)"/><ellipse class="cls-1" cx="205.9" cy="50.47" rx="4.06" ry="28.94" transform="translate(55.09 199.44) rotate(-58.42)"/><ellipse class="cls-1" cx="201.05" cy="56.41" rx="4.06" ry="28.94" transform="translate(47.71 198.14) rotate(-58.42)"/><ellipse class="cls-2" cx="148.64" cy="79.7" rx="2.65" ry="13.16" transform="translate(-16.45 45.18) rotate(-16.4)"/><ellipse class="cls-2" cx="153.73" cy="80.61" rx="2.66" ry="13.11" transform="translate(-19.81 76.66) rotate(-26.37)"/><ellipse class="cls-2" cx="158.91" cy="79.42" rx="2.67" ry="13.05" transform="translate(-18.33 91.54) rotate(-30.47)"/><ellipse class="cls-2" cx="163.32" cy="77.35" rx="2.69" ry="12.96" transform="translate(-14.58 109.06) rotate(-35.45)"/><ellipse class="cls-2" cx="166.59" cy="74.08" rx="2.7" ry="12.89" transform="translate(-9.54 121.16) rotate(-38.94)"/><ellipse class="cls-2" cx="170.98" cy="73.38" rx="2.7" ry="12.89" transform="translate(-8.12 123.77) rotate(-38.94)"/><ellipse class="cls-2" cx="173.83" cy="70.55" rx="2.7" ry="12.89" transform="translate(-5.72 124.91) rotate(-38.94)"/><ellipse class="cls-2" cx="177.06" cy="68.82" rx="2.7" ry="12.89" transform="translate(-3.91 126.57) rotate(-38.94)"/><ellipse class="cls-2" cx="182.86" cy="62.77" rx="2.7" ry="12.89" transform="translate(1.19 128.87) rotate(-38.94)"/><ellipse class="cls-2" cx="179.54" cy="65.08" rx="2.7" ry="12.89" transform="translate(-1 127.3) rotate(-38.94)"/><ellipse class="cls-2" cx="185.98" cy="58.78" rx="2.7" ry="12.89" transform="translate(4.38 129.95) rotate(-38.94)"/><ellipse class="cls-2" cx="189.15" cy="54.94" rx="2.73" ry="12.78" transform="translate(15.33 147.57) rotate(-44.25)"/><ellipse class="cls-2" cx="191.01" cy="50.58" rx="2.75" ry="12.67" transform="translate(28.3 162.67) rotate(-49.4)"/><ellipse class="cls-2" cx="193.2" cy="45.74" rx="2.78" ry="12.55" transform="translate(44.55 177.34) rotate(-54.84)"/><ellipse class="cls-2" cx="192.34" cy="40.33" rx="2.82" ry="12.36" transform="translate(72.29 195.9) rotate(-64.19)"/><ellipse class="cls-2" cx="201.18" cy="38.4" rx="2.59" ry="13.61" transform="translate(83.33 205.9) rotate(-65.68)"/><ellipse class="cls-2" cx="203.01" cy="33.09" rx="2.29" ry="14.73" transform="translate(116.24 219.56) rotate(-74.3)"/><ellipse class="cls-2" cx="210.18" cy="29.85" rx="2.74" ry="12" transform="translate(171.68 238.61) rotate(-87.63)"/><ellipse class="cls-2" cx="171.95" cy="52.07" rx="37.04" ry="13.57" transform="matrix(0.74, -0.67, 0.67, 0.74, 9.75, 129.32)"/><ellipse id="outer_part-3" data-name="outer part" class="cls-3" cx="165.36" cy="49.36" rx="35.09" ry="11.57" transform="translate(14.52 133.17) rotate(-45.68)"/><ellipse id="outer_part-4" data-name="outer part" class="cls-3" cx="214.2" cy="23.46" rx="33.98" ry="5.48" transform="translate(-1.23 18.9) rotate(-5.04)"/></g></svg>