<svg id="Layer_3" data-name="Layer 3" xmlns="http://www.w3.org/2000/svg" viewBox="0 0 435.81 93.79"><defs><style>.cls-1{fill:#71491a;}</style></defs><path class="cls-1" d="M0,93.79A31.28,31.28,0,0,1,14.32,74.92a24.37,24.37,0,0,1,19-2.41c-.94-10.27,5-19.71,12.94-22.3,10.21-3.32,17,1,19.4,1.53.48-1.77,1-10.77,10.9-15.65S93.92,32.81,103,38.47c.18-1.37,1.88-8.94,11.06-13.28,9.36-4.42,16.79-2.87,24.51,2.38,1.19-1.29,10-8.32,17.36-6.8,10,2,11.92,6.8,16,11.57.42-.88,6.83-13.94,21.45-15.83a27.82,27.82,0,0,1,26.55,12.26,20,20,0,0,1,36.77-5.45C264.07,13,276.21,8.78,285.79,12.43c7.78,3,11.31,10.14,12.25,12.25,4.29-5.25,14.68-9.09,23.66-7.66,10.91,1.74,15.61,4.92,20.77,15.83a24.42,24.42,0,0,1,43.91-11.23c3-11.53,12-18.16,20.09-17.71,9.19.52,14.87,4.52,16.34,6.3,2.08-2.25,1.89-4.1,6-8C431.2,0,433.61.37,435.81,0V93.79"/></svg>