<svg id="dirt_3" data-name="dirt 3" xmlns="http://www.w3.org/2000/svg" viewBox="0 0 435.81 111.72"><defs><style>.cls-1{fill:#71491a;}</style></defs><path class="cls-1" d="M0,118.47c.38-1.69,3.16-13,14.32-18.87a28.3,28.3,0,0,1,19-2.4C32.73,87.39,38,78.43,46.3,74.9c9.47-4,14.13-.93,15.17-.33-.7-7.22,6.12-15.41,12-19.94a22.18,22.18,0,0,1,18.06-4.16c2.53-2.37,10.24-10.86,23.56-11.91,16-1.26,27.06,7.66,29.27,9.53a44.67,44.67,0,0,1,29.87-8.32,43.76,43.76,0,0,1,22.56,9A39.56,39.56,0,0,1,222,39.92a39.05,39.05,0,0,1,20.77,6.47,41.63,41.63,0,0,1,44.59,0,51.3,51.3,0,0,1,29.28-7.15,50.77,50.77,0,0,1,22.81,7.15A58.1,58.1,0,0,1,383,41.28c.1-.78,1.93-13.08,12.6-17.7a20.82,20.82,0,0,1,12.93-1c.39-1.27,3.09-9.73,11.92-13.62,6.78-3,15.34-2.6,15.34-.7V118.47Z" transform="translate(0 -6.76)"/></svg>