<?xml version="1.0" encoding="utf-8"?>
<!-- Generator: Adobe Illustrator 25.0.1, SVG Export Plug-In . SVG Version: 6.00 Build 0)  -->
<svg version="1.1" xmlns="http://www.w3.org/2000/svg" xmlns:xlink="http://www.w3.org/1999/xlink" x="0px" y="0px"
	 viewBox="0 0 105.2 196.8" style="enable-background:new 0 0 105.2 196.8;" xml:space="preserve">
<style type="text/css">
	.st0{fill:none;stroke:#00B04C;stroke-width:10;stroke-miterlimit:10;}
	.st1{fill:none;stroke:#008639;stroke-width:3;stroke-miterlimit:10;}
	.st2{fill:#71491A;stroke:#54240E;stroke-width:3;stroke-miterlimit:10;}
	.st3{fill:#008639;}
	.st4{fill:none;stroke:#00B04C;stroke-width:3;stroke-miterlimit:10;}
	.st5{stroke:#000000;stroke-width:3;stroke-miterlimit:10;}
	.st6{fill:none;stroke:#000000;stroke-width:3;stroke-miterlimit:10;}
	.st7{fill:#992F78;}
	.st8{fill:#C04097;}
	.st9{fill:#88E27F;}
</style>
<g id="new_from_closed">
	<path class="st0" d="M48.1,172.6c9.3-11.5,19.4-50.5,9.6-64.4c-10.5-15-26.1-16.6-36.9-36.4c-11.6-21.3-4.7-38.7,9.5-44.6
		c15.9-6.7,22.2-3.1,24.9,2.9"/>
	<path class="st0" d="M60.9,119c6.4-6.3,38.8-5.7,38.8-33.3c0-11.8-18.4-18-19.4-13.8"/>
	<path class="st0" d="M29.7,83.6C15.8,77.1,6,90.4,6,99c0.1,12.5,15.1,23.9,21.5,22.2"/>
	<path class="st1" d="M50.8,156.3c3.2,0.9,6.4,1.8,9.5,2.7"/>
	<path class="st1" d="M55.5,136.3c3.4,0.5,6.8,0.9,10.2,1.4"/>
	<path class="st1" d="M56.5,128.3c3.4,0.1,6.8,0.2,10.2,0.3"/>
	<path class="st1" d="M56.5,119.3c3.3,0.7,6.7,1.4,10,2"/>
	<path class="st1" d="M67.6,110.8c1.5,2.7,3.1,5.3,4.6,8"/>
	<path class="st1" d="M54.7,111.8c3.1-1.4,6.1-2.7,9.2-4.1"/>
	<path class="st1" d="M50.2,106c2.6-1.9,5.2-3.9,7.8-5.8"/>
	<path class="st1" d="M44.3,101.5c2.3-2.3,4.7-4.5,7-6.8"/>
	<path class="st1" d="M33.2,92.4c2.1-2.2,4.2-4.4,6.3-6.6"/>
	<path class="st1" d="M27.8,88.3c1.9-2.5,3.7-5,5.6-7.5"/>
	<path class="st1" d="M26.8,72.3c-1.4,4.6-2.8,9.2-4.3,13.8"/>
	<path class="st1" d="M14.4,78.7c0.8,2.6,2.1,6.9,2.9,9.5"/>
	<path class="st1" d="M6.7,84.9c2.2,2.6,4.3,5.1,6.5,7.7"/>
	<path class="st1" d="M1.9,93.6c3,1.3,6,2.7,9,4"/>
	<path class="st1" d="M1.6,103.2c3.4-0.4,6.7-0.8,10.1-1.1"/>
	<path class="st1" d="M13.6,106.5c-2.9,1.4-5.8,2.8-8.7,4.2"/>
	<path class="st1" d="M15.9,109.8c-2.2,2.7-4.4,5.4-6.7,8.1"/>
	<path class="st1" d="M19.8,113.4c-0.9,3.1-1.8,6.2-2.7,9.3"/>
	<path class="st1" d="M23.3,65.4c-2.3,2.6-4.5,5.2-6.8,7.8"/>
	<path class="st1" d="M11.6,62.5c3.1-1.4,6.2-2.8,9.3-4.3"/>
	<path class="st1" d="M19.9,51.9c-3.2,0.2-6.4,0.4-9.6,0.6"/>
	<path class="st1" d="M10.9,41.9c3.2,1,6.5,2,9.7,3.1"/>
	<path class="st1" d="M15.6,32.7c2.5,2.1,4.9,4.2,7.4,6.3"/>
	<path class="st1" d="M22.8,25.3c1.5,3.1,3.1,6.2,4.6,9.3"/>
	<path class="st1" d="M30.3,22c1.1,2.9,2.3,5.7,3.4,8.6"/>
	<path class="st1" d="M38.2,19.3c0.9,3.2,1.8,6.5,2.7,9.7"/>
	<path class="st1" d="M48.3,19.2c-0.5,3-0.9,6-1.4,9.1"/>
	<path class="st1" d="M49.9,29.4c2.2-2.2,4.3-4.3,6.5-6.5"/>
	<path class="st1" d="M75.6,107.9c1.5,2.8,3.1,5.5,4.6,8.3"/>
	<path class="st1" d="M82,105.5c2.4,2.3,4.8,4.5,7.1,6.8"/>
	<path class="st1" d="M96.4,106.3c-2.7-1.8-5.4-3.6-8-5.4"/>
	<path class="st1" d="M92.5,95.2c3.1,0.9,6.3,1.8,9.4,2.7"/>
	<path class="st1" d="M94.9,87.6c3.3,0.1,6.6,0.2,9.9,0.3"/>
	<path class="st1" d="M94.4,83.3c2.9-1.7,5.8-3.3,8.7-5"/>
	<path class="st1" d="M91.1,79.2c1.8-3,3.6-5.9,5.4-8.9"/>
	<path class="st1" d="M88.1,76.9c-0.7-3.8-1.4-7.7-2.1-11.5"/>
	<path class="st2" d="M0.5,196.7c3.2-17.9,15.9-32,32-35.7c16.1-3.7,29.2,4.6,31.9,6.4c2.6-2,7.2-4.9,13.3-5.4
		c10.6-0.8,21.2,6.2,27.1,17.6"/>
	<path class="st3" d="M83.6,73.1c1.6,2.1,4.6,6.2,3.7,10.9c-1.5,7.9-13.6,12.8-17.4,9.9c-1.5-1.2-1.6-3.5-1.5-5.4
		c-0.2,0.1-2.3,1-4.1-0.1c-1.7-1.1-2.4-3.7-1.2-6c-1.1,0-2.6-0.2-3.2-1.2c-2-3.3,5.9-15.5,14.3-14.8C78.9,66.8,82,71,83.6,73.1z"/>
	<path class="st4" d="M61.3,81.4c0.1-0.6,1.8-7.3,8.5-10c7.2-2.9,13.4,1.6,13.8,1.8"/>
	<path class="st4" d="M63.6,87.7c3.3-2.4,6.8-4.9,10.5-7.4c3.4-2.3,6.8-4.5,10.1-6.5"/>
	<path class="st4" d="M69.3,93.2c1.2-0.1,7.3-0.7,11.7-6c4.2-5,4.1-10.7,4-11.9"/>
	<path class="st5" d="M62.8,153.8l-10.5-2.5c-1.1-0.3-1.7-1.3-1.5-2.4l1.6-6.6c0.3-1.1,1.3-1.7,2.4-1.5l10.5,2.5
		c1.1,0.3,1.7,1.3,1.5,2.4l-1.6,6.6C65,153.4,63.9,154.1,62.8,153.8z"/>
	<path class="st6" d="M93.9,176.8c0.6-2.8-2.8-15.6-10-21.9c-6.3-5.5-15.4-6.6-19.3-6.9"/>
</g>
<g id="buds">
	<path class="st3" d="M54.2,27.2c-4.1,2.1-6,6.7-6.1,10.3C48,47.9,63.4,57.7,69.5,54.3c5.7-3.2,6.2-19.1-2-25.3
		C64.5,26.7,59,24.7,54.2,27.2z"/>
	
		<ellipse id="petals_120_" transform="matrix(0.8388 -0.5445 0.5445 0.8388 -3.7013 30.5888)" class="st7" cx="49.8" cy="21.5" rx="3.5" ry="18"/>
	
		<ellipse id="petals_119_" transform="matrix(0.8388 -0.5445 0.5445 0.8388 -20.1248 49.8052)" class="st7" cx="74" cy="58.9" rx="3.5" ry="18"/>
	
		<ellipse id="petals_118_" transform="matrix(0.4563 -0.8898 0.8898 0.4563 -3.8488 53.8157)" class="st7" cx="42.1" cy="30.1" rx="3.5" ry="18"/>
	
		<ellipse id="petals_117_" transform="matrix(0.4563 -0.8898 0.8898 0.4563 -0.3905 100.1079)" class="st7" cx="81.7" cy="50.4" rx="3.5" ry="18"/>
	
		<ellipse id="petals_116_" transform="matrix(0.9998 -1.749077e-02 1.749077e-02 0.9998 -0.7041 0.7)" class="st7" cx="39.7" cy="40.6" rx="18" ry="3.5"/>
	
		<ellipse id="petals_115_" transform="matrix(0.9998 -1.749077e-02 1.749077e-02 0.9998 -0.6837 1.4784)" class="st7" cx="84.2" cy="39.8" rx="18" ry="3.5"/>
	
		<ellipse id="petals_114_" transform="matrix(0.8584 -0.513 0.513 0.8584 -20.425 29.2753)" class="st7" cx="42.8" cy="51.6" rx="18" ry="3.5"/>
	
		<ellipse id="petals_113_" transform="matrix(0.8584 -0.513 0.513 0.8584 -3.2982 45.6451)" class="st7" cx="81" cy="28.8" rx="18" ry="3.5"/>
	
		<ellipse id="petals_112_" transform="matrix(0.478 -0.8784 0.8784 0.478 -25.7273 76.2449)" class="st7" cx="51.3" cy="59.8" rx="18" ry="3.5"/>
	
		<ellipse id="petals_111_" transform="matrix(0.478 -0.8784 0.8784 0.478 19.7283 74.523)" class="st7" cx="72.6" cy="20.7" rx="18" ry="3.5"/>
	
		<ellipse id="petals_110_" transform="matrix(0.9997 -2.281180e-02 2.281180e-02 0.9997 -1.4088 1.4404)" class="st7" cx="62.4" cy="62.5" rx="3.5" ry="18"/>
	
		<ellipse id="petals_109_" transform="matrix(0.9997 -2.281180e-02 2.281180e-02 0.9997 -0.3938 1.4057)" class="st7" cx="61.4" cy="18" rx="3.5" ry="18"/>
	
		<ellipse id="petals_108_" transform="matrix(0.6691 -0.7432 0.7432 0.6691 -3.8023 42.105)" class="st8" cx="45.4" cy="25.3" rx="3.5" ry="18"/>
	
		<ellipse id="petals_107_" transform="matrix(0.6691 -0.7432 0.7432 0.6691 -14.9909 76.5505)" class="st8" cx="78.5" cy="55.1" rx="3.5" ry="18"/>
	
		<ellipse id="petals_106_" transform="matrix(0.2102 -0.9777 0.9777 0.2102 -3.0242 67.3285)" class="st8" cx="40.2" cy="35.5" rx="3.5" ry="18"/>
	
		<ellipse id="petals_105_" transform="matrix(0.2102 -0.9777 0.9777 0.2102 22.1999 117.2711)" class="st8" cx="83.7" cy="44.9" rx="3.5" ry="18"/>
	
		<ellipse id="petals_104_" transform="matrix(0.9612 -0.2759 0.2759 0.9612 -11.2187 12.9833)" class="st8" cx="40.5" cy="46.4" rx="18" ry="3.5"/>
	
		<ellipse id="petals_103_" transform="matrix(0.9612 -0.2759 0.2759 0.9612 -6.1674 24.314)" class="st8" cx="83.3" cy="34.1" rx="18" ry="3.5"/>
	
		<ellipse id="petals_102_" transform="matrix(0.6962 -0.7179 0.7179 0.6962 -26.2354 50.4017)" class="st8" cx="46.4" cy="56.2" rx="18" ry="3.5"/>
	
		<ellipse id="petals_101_" transform="matrix(0.6962 -0.7179 0.7179 0.6962 6.1234 62.9405)" class="st8" cx="77.4" cy="24.2" rx="18" ry="3.5"/>
	
		<ellipse id="petals_100_" transform="matrix(0.2341 -0.9722 0.9722 0.2341 -16.7012 102.5131)" class="st8" cx="56.7" cy="61.9" rx="18" ry="3.5"/>
	
		<ellipse id="petals_99_" transform="matrix(0.2341 -0.9722 0.9722 0.2341 33.3596 79.4944)" class="st8" cx="67.1" cy="18.6" rx="18" ry="3.5"/>
	
		<ellipse id="petals_98_" transform="matrix(0.9597 -0.2811 0.2811 0.9597 -14.5586 21.6442)" class="st8" cx="68.2" cy="61.6" rx="3.5" ry="18"/>
	
		<ellipse id="petals_97_" transform="matrix(0.9597 -0.2811 0.2811 0.9597 -3.0551 16.4054)" class="st8" cx="55.7" cy="18.9" rx="3.5" ry="18"/>
	<circle class="st9" cx="61.9" cy="40.6" r="13.6"/>
	
		<ellipse id="petals_24_" transform="matrix(0.8388 -0.5445 0.5445 0.8388 -59.2123 28.6407)" class="st7" cx="18.8" cy="114.3" rx="2.1" ry="11"/>
	<path id="petals_23_" class="st7" d="M39.5,146.3c-1,0.6-4.5-3-7.8-8s-5.2-9.7-4.2-10.4c1-0.6,4.5,3,7.8,8S40.5,145.6,39.5,146.3"
		/>
	
		<ellipse id="petals_22_" transform="matrix(0.4563 -0.8898 0.8898 0.4563 -98.6866 77.486)" class="st7" cx="14.1" cy="119.5" rx="2.1" ry="11"/>
	
		<ellipse id="petals_21_" transform="matrix(0.4563 -0.8898 0.8898 0.4563 -96.5765 105.7309)" class="st7" cx="38.2" cy="131.9" rx="2.1" ry="11"/>
	<path id="petals_20_" class="st7" d="M1.6,126.1c0-1.2,4.9-2.2,10.9-2.3c6.1-0.1,11,0.8,11,1.9s-4.9,2.2-10.9,2.3
		C6.6,128.2,1.6,127.3,1.6,126.1"/>
	
		<ellipse id="petals_19_" transform="matrix(0.9998 -1.749077e-02 1.749077e-02 0.9998 -2.1884 0.7141)" class="st7" cx="39.7" cy="125.5" rx="11" ry="2.1"/>
	
		<ellipse id="petals_18_" transform="matrix(0.8584 -0.513 0.513 0.8584 -66.0051 26.222)" class="st7" cx="14.5" cy="132.7" rx="11" ry="2.1"/>
	
		<ellipse id="petals_17_" transform="matrix(0.8584 -0.513 0.513 0.8584 -55.5553 36.2099)" class="st7" cx="37.8" cy="118.7" rx="11" ry="2.1"/>
	<path id="petals_16_" class="st7" d="M14.4,147.3c-1-0.6,0.5-5.3,3.4-10.6s6.1-9.2,7.1-8.6c1,0.6-0.5,5.3-3.4,10.6
		C18.6,144,15.5,147.8,14.4,147.3"/>
	
		<ellipse id="petals_15_" transform="matrix(0.478 -0.8784 0.8784 0.478 -82.8931 88.0648)" class="st7" cx="32.6" cy="113.8" rx="11" ry="2.1"/>
	<path id="petals_14_" class="st7" d="M26.7,150.2c-1.2,0-2.2-4.9-2.4-10.9c-0.1-6.1,0.7-11,1.9-11c1.2,0,2.2,4.9,2.4,10.9
		S27.9,150.2,26.7,150.2"/>
	<path id="petals_13_" class="st7" d="M25.6,101.2c1.2,0,2.2,4.9,2.4,10.9c0.1,6.1-0.7,11-1.9,11c-1.2,0-2.2-4.9-2.4-10.9
		C23.6,106.1,24.4,101.2,25.6,101.2"/>
	
		<ellipse id="petals_12_" transform="matrix(0.6691 -0.7432 0.7432 0.6691 -81.3521 50.5244)" class="st8" cx="16.1" cy="116.6" rx="2.1" ry="11"/>
	
		<ellipse id="petals_11_" transform="matrix(0.6691 -0.7432 0.7432 0.6691 -88.1787 71.5412)" class="st8" cx="36.2" cy="134.8" rx="2.1" ry="11"/>
	
		<ellipse id="petals_10_" transform="matrix(0.2102 -0.9777 0.9777 0.2102 -109.9331 109.6079)" class="st8" cx="12.9" cy="122.8" rx="2.1" ry="11"/>
	
		<ellipse id="petals_9_" transform="matrix(0.2102 -0.9777 0.9777 0.2102 -94.5428 140.0801)" class="st8" cx="39.4" cy="128.6" rx="2.1" ry="11"/>
	
		<ellipse id="petals_8_" transform="matrix(0.9612 -0.2759 0.2759 0.9612 -35.2124 8.6406)" class="st8" cx="13.1" cy="129.4" rx="11" ry="2.1"/>
	
		<ellipse id="petals_7_" transform="matrix(0.9612 -0.2759 0.2759 0.9612 -32.1304 15.554)" class="st8" cx="39.2" cy="122" rx="11" ry="2.1"/>
	
		<ellipse id="petals_6_" transform="matrix(0.6962 -0.7179 0.7179 0.6962 -92.1639 53.1406)" class="st8" cx="16.7" cy="135.5" rx="11" ry="2.1"/>
	
		<ellipse id="petals_5_" transform="matrix(0.6962 -0.7179 0.7179 0.6962 -72.4204 60.7911)" class="st8" cx="35.6" cy="116" rx="11" ry="2.1"/>
	<path id="petals_4_" class="st8" d="M20.4,149.6c-1.1-0.3-0.9-5.3,0.5-11.2c1.4-5.9,3.5-10.4,4.6-10.2c1.1,0.3,0.9,5.3-0.5,11.2
		C23.6,145.3,21.6,149.8,20.4,149.6"/>
	<path id="petals_3_" class="st8" d="M31.9,101.8c1.1,0.3,0.9,5.3-0.5,11.2c-1.4,5.9-3.5,10.4-4.6,10.2c-1.1-0.3-0.9-5.3,0.5-11.2
		C28.7,106.1,30.8,101.6,31.9,101.8"/>
	<path id="petals_2_" class="st8" d="M33.1,149.3c-1.1,0.3-3.4-4.1-5.1-9.9s-2.2-10.8-1-11.1c1.1-0.3,3.4,4.1,5.1,9.9
		C33.7,143.9,34.2,148.9,33.1,149.3"/>
	<path id="petals_1_" class="st8" d="M19.3,102.1c1.1-0.3,3.4,4.1,5.1,9.9c1.7,5.8,2.2,10.8,1,11.1c-1.1,0.3-3.4-4.1-5.1-9.9
		S18.1,102.5,19.3,102.1"/>
	<circle class="st9" cx="26.2" cy="125.9" r="8.3"/>
</g>
<g id="pot">
	<g id="dirt">
	</g>
</g>
<g id="new_tag">
	<path class="st5" d="M62.9,153.9l-10.5-2.5c-1.1-0.3-1.7-1.3-1.5-2.4l1.6-6.6c0.3-1.1,1.3-1.7,2.4-1.5l10.5,2.5
		c1.1,0.3,1.7,1.3,1.5,2.4l-1.6,6.6C65,153.5,63.9,154.2,62.9,153.9z"/>
	<path class="st6" d="M93.9,176.9c0.6-2.8-2.8-15.6-10-21.9c-6.3-5.5-15.4-6.6-19.3-6.9"/>
</g>
</svg>
