<svg xmlns="http://www.w3.org/2000/svg" viewBox="0 0 107.1 178.42"><defs><style>.cls-1,.cls-2,.cls-7{fill:none;}.cls-1{stroke:#008639;stroke-width:5px;}.cls-1,.cls-2,.cls-4,.cls-6,.cls-7{stroke-miterlimit:10;}.cls-2{stroke:#00b04c;stroke-width:10px;}.cls-3{fill:#008639;}.cls-4{fill:#71491a;stroke:#54240e;}.cls-4,.cls-6,.cls-7{stroke-width:3px;}.cls-5{fill:#00b04c;}.cls-6,.cls-7{stroke:#000;}</style></defs><g id="spirals"><path class="cls-1" d="M21.52,56.94c0-.81,0-12.77,4.59-17.37,4-4,12.4-1.87,14.3,2.39a6.91,6.91,0,0,1-1.36,7.15c-2.15,2.35-6.29,3.34-7.66,1.7s.36-4.81.51-5.11" transform="translate(1.48 -0.25)"/><path class="cls-1" d="M19.54,16a9.32,9.32,0,0,0-2.28-9.47C14.06,3.59,8.67,3.7,6,6.79c-2,2.35-2.92,6.89-.83,8.53,1.4,1.11,3.92.72,6.17-.93" transform="translate(1.48 -0.25)"/><path class="cls-1" d="M77.47,93.94c.59-.18,7.6-2.28,13.32,2.32A14.33,14.33,0,0,1,95.9,106a14.59,14.59,0,0,1-3.4,10.72c-2.54,2.87-7.77,6.32-12.94,4.43-3.24-1.19-6.72-4.57-6.47-8.68.14-2.34,1.55-6,4.94-6.64a6.59,6.59,0,0,1,7,4.08" transform="translate(1.48 -0.25)"/></g><g id="stem"><path class="cls-2" d="M47.66,154.26c9.26-11.49,19.39-50.51,9.65-64.4-10.5-15-26.11-16.61-36.87-36.4-11.6-21.33-4.66-38.67,9.5-44.61,16-6.69,22.2-3.11,24.94,2.94" transform="translate(1.48 -0.25)"/><path class="cls-2" d="M60.43,100.66c6.36-6.28,38.81-5.7,38.79-33.35,0-11.84-18.39-18-19.39-13.8" transform="translate(1.48 -0.25)"/><path class="cls-2" d="M29.19,65.31C15.38,58.82,5.49,72.12,5.55,80.73c.08,12.55,15.07,23.94,21.5,22.21" transform="translate(1.48 -0.25)"/></g><g id="stem_dots" data-name="stem dots"><circle class="cls-3" cx="52.66" cy="7.42" r="3.27"/><circle class="cls-3" cx="45.63" cy="4.15" r="3.27"/><circle class="cls-3" cx="38.06" cy="7.42" r="3.27"/><circle class="cls-3" cx="29.41" cy="8.47" r="3.27"/><circle class="cls-3" cx="24.14" cy="15.01" r="3.27"/><circle class="cls-3" cx="17.61" cy="20.12" r="3.27"/><circle class="cls-3" cx="17.61" cy="28.92" r="3.27"/><circle class="cls-3" cx="15.46" cy="37.19" r="3.27"/><circle class="cls-3" cx="19.33" cy="44.53" r="3.27"/><circle class="cls-3" cx="20.87" cy="52.92" r="3.27"/><circle class="cls-3" cx="26.26" cy="59.46" r="3.27"/><circle class="cls-3" cx="19.73" cy="64.16" r="3.27"/><circle class="cls-3" cx="12.19" cy="67.43" r="3.27"/><circle class="cls-3" cx="8.93" cy="75.39" r="3.27"/><circle class="cls-3" cx="7.03" cy="83.1" r="3.27"/><circle class="cls-3" cx="11.07" cy="89.95" r="3.27"/><circle class="cls-3" cx="14.56" cy="97.59" r="3.27"/><circle class="cls-3" cx="22.11" cy="100.86" r="3.27"/><circle class="cls-3" cx="31.52" cy="66.61" r="3.27"/><circle class="cls-3" cx="38.74" cy="70.7" r="3.27"/><circle class="cls-3" cx="43.88" cy="76.9" r="3.27"/><circle class="cls-3" cx="51.51" cy="80.17" r="3.27"/><circle class="cls-3" cx="55.65" cy="86.68" r="3.27"/><circle class="cls-3" cx="61.29" cy="92.9" r="3.27"/><circle class="cls-3" cx="62.75" cy="100.86" r="3.27"/><circle class="cls-3" cx="69.55" cy="96.17" r="3.27"/><circle class="cls-3" cx="61.91" cy="108.39" r="3.27"/><circle class="cls-3" cx="63.51" cy="115.97" r="3.27"/><circle class="cls-3" cx="60.24" cy="122.84" r="3.27"/><circle class="cls-3" cx="58.02" cy="138.01" r="3.27"/><circle class="cls-3" cx="77.83" cy="92.9" r="3.27"/><circle class="cls-3" cx="85.63" cy="91.8" r="3.27"/><circle class="cls-3" cx="91.75" cy="85.69" r="3.27"/><circle class="cls-3" cx="98.65" cy="80.73" r="3.27"/><circle class="cls-3" cx="99.51" cy="72.92" r="3.27"/><circle class="cls-3" cx="101.92" cy="65.1" r="3.27"/><circle class="cls-3" cx="96.24" cy="58.57" r="3.27"/><circle class="cls-3" cx="90.06" cy="52.92" r="3.27"/></g><g id="dirt"><path class="cls-4" d="M0,178.4c3.18-17.92,15.86-32,32-35.68s29.19,4.59,31.91,6.39a24.63,24.63,0,0,1,13.28-5.37C87.76,143,98.4,150,104.29,161.36" transform="translate(1.48 -0.25)"/></g><g id="newest_buds" data-name="newest buds"><path class="cls-3" d="M55.47,10.46c3-1.06,9-3.12,14.1-.39,8.71,4.66,10,20.63,5.2,24-1.89,1.31-4.71.62-6.89-.24,0,.2.37,3.1-1.64,4.78S61,40,58.78,37.78c-.42,1.28-1.18,3-2.56,3.32-4.56,1.13-16-12.59-12.08-22.18C46.32,13.63,52.39,11.52,55.47,10.46Z" transform="translate(1.48 -0.25)"/><path class="cls-3" d="M83.12,54.83c1.55,2.1,4.61,6.24,3.73,10.88-1.51,7.91-13.61,12.79-17.36,9.87C68,74.42,67.86,72.06,68,70.16a4.16,4.16,0,0,1-5.33-6.11c-1.1,0-2.6-.2-3.2-1.18-2-3.28,5.89-15.52,14.31-14.79C78.42,48.48,81.54,52.7,83.12,54.83Z" transform="translate(1.48 -0.25)"/><path class="cls-3" d="M23.08,104.56c.9,2.45,2.67,7.28,7,9.09,7.43,3.1,18.17-4.33,17.79-9.07-.14-1.87-2-3.29-3.7-4.22A4.16,4.16,0,0,0,42,92.55c.59-.92,1.27-2.28.77-3.33C41.16,85.76,26.6,85.61,22.58,93,20.36,97.14,22.16,102.06,23.08,104.56Z" transform="translate(1.48 -0.25)"/></g><g id="bud_dots" data-name="bud dots"><circle class="cls-5" cx="79.01" cy="67.43" r="5.51"/><circle class="cls-5" cx="73.78" cy="55.16" r="5.51"/><circle class="cls-5" cx="52.38" cy="21.26" r="5.51"/><circle class="cls-5" cx="65.69" cy="15.75" r="5.51"/><circle class="cls-5" cx="64.2" cy="29.96" r="5.51"/><circle class="cls-5" cx="39.41" cy="99.44" r="5.51"/><circle class="cls-5" cx="73.78" cy="25.66" r="3.27"/><circle class="cls-5" cx="53.62" cy="32.19" r="3.27"/><circle class="cls-5" cx="68.48" cy="64.79" r="3.27"/><circle class="cls-5" cx="30.66" cy="93.06" r="3.27"/><circle class="cls-5" cx="33.93" cy="108.39" r="3.27"/></g><g id="TEMP"><rect class="cls-6" x="50.99" y="123.6" width="14.78" height="10.78" rx="2" transform="translate(33.29 -10.33) rotate(13.54)"/><path class="cls-7" d="M93.44,158.52c.56-2.8-2.75-15.56-10-21.86-6.27-5.47-15.41-6.57-19.27-6.85" transform="translate(1.48 -0.25)"/></g></svg>