<svg xmlns="http://www.w3.org/2000/svg" viewBox="0 0 107.1 178.42"><defs><style>.cls-1{fill:#008639;}.cls-2,.cls-5{fill:none;}.cls-2{stroke:#00b04c;stroke-width:10px;}.cls-2,.cls-3,.cls-4,.cls-5{stroke-miterlimit:10;}.cls-3{fill:#71491a;stroke:#54240e;}.cls-3,.cls-4,.cls-5{stroke-width:3px;}.cls-4,.cls-5{stroke:#000;}</style></defs><g id="thorns"><path class="cls-1" d="M35.25,11.14l-10,4.71L36.13,26.44" transform="translate(1.48 -0.25)"/><path class="cls-1" d="M12.14,22.82q2.4-5,4.79-9.94l-15.1-1.4" transform="translate(1.48 -0.25)"/><path class="cls-1" d="M17.84,29.63q.75,5.46,1.49,10.93L32.7,33.4" transform="translate(1.48 -0.25)"/><path class="cls-1" d="M17,57.16Q14.9,52.08,12.74,47l-11,10.42" transform="translate(1.48 -0.25)"/><path class="cls-1" d="M18.85,66.09l-9,6.43L22.48,81" transform="translate(1.48 -0.25)"/><path class="cls-1" d="M42.12,77.69l-9.6-5.43q-1.19,7.49-2.39,15" transform="translate(1.48 -0.25)"/><path class="cls-1" d="M26.43,55.05q3.34,4.39,6.68,8.78L41.21,51" transform="translate(1.48 -0.25)"/><path class="cls-1" d="M69.93,92.47l10.32-3.9-10-11.42" transform="translate(1.48 -0.25)"/><path class="cls-1" d="M97.46,85.91,88.69,92.6l12.84,8.09" transform="translate(1.48 -0.25)"/><path class="cls-1" d="M87.54,48.45l9.8,5.06q.91-7.53,1.82-15.06" transform="translate(1.48 -0.25)"/><path class="cls-1" d="M66.24,107.51c-.25,3.67-.51,7.34-.76,11L80,114.22" transform="translate(1.48 -0.25)"/></g><g id="stem"><path class="cls-2" d="M47.66,154.26c9.26-11.49,19.39-50.51,9.65-64.4-10.5-15-26.11-16.61-36.87-36.4-11.6-21.33-4.66-38.67,9.5-44.61,16-6.69,22.2-3.11,24.94,2.94" transform="translate(1.48 -0.25)"/><path class="cls-2" d="M60.43,100.66c6.36-6.28,38.81-5.7,38.79-33.35,0-11.84-18.39-18-19.39-13.8" transform="translate(1.48 -0.25)"/><path class="cls-2" d="M29.19,65.31C15.38,58.82,5.49,72.12,5.55,80.73c.08,12.55,15.07,23.94,21.5,22.21" transform="translate(1.48 -0.25)"/></g><g id="dirt"><path class="cls-3" d="M0,178.4c3.18-17.92,15.86-32,32-35.68s29.19,4.59,31.91,6.39a24.63,24.63,0,0,1,13.28-5.37C87.76,143,98.4,150,104.29,161.36" transform="translate(1.48 -0.25)"/></g><g id="new_buds" data-name="new buds"><path class="cls-1" d="M49.43,4.83c-4.88,2.53-7.24,8-7.3,12.39C42,29.7,60.38,41.46,67.72,37.36,74.51,33.57,75.1,14.46,65.3,7,61.69,4.24,55.1,1.88,49.43,4.83Z" transform="translate(1.48 -0.25)"/><path class="cls-1" d="M82.54,47.21c-3.76-4-9.68-4.8-13.91-3.68C56.56,46.74,50.24,67.65,56.17,73.62c5.48,5.51,24,.91,28.57-10.55C86.42,58.85,86.91,51.87,82.54,47.21Z" transform="translate(1.48 -0.25)"/><path class="cls-1" d="M14.27,98.25c-2.09,5.08-.35,10.8,2.43,14.18,7.92,9.65,29.57,6.74,32.54-1.14C52,104,40.1,89,27.8,89.66,23.27,89.89,16.71,92.34,14.27,98.25Z" transform="translate(1.48 -0.25)"/></g><g id="tag"><rect class="cls-4" x="50.99" y="123.6" width="14.78" height="10.78" rx="2" transform="translate(33.29 -10.33) rotate(13.54)"/><path class="cls-5" d="M93.44,158.52c.56-2.8-2.75-15.56-10-21.86-6.27-5.47-15.41-6.57-19.27-6.85" transform="translate(1.48 -0.25)"/></g></svg>