<svg xmlns="http://www.w3.org/2000/svg" viewBox="0 0 107.1 197.13"><defs><style>.cls-1,.cls-2,.cls-7{fill:none;}.cls-1{stroke:#008639;stroke-width:5px;}.cls-1,.cls-2,.cls-4,.cls-6,.cls-7{stroke-miterlimit:10;}.cls-2{stroke:#00b04c;stroke-width:10px;}.cls-3{fill:#008639;}.cls-4{fill:#71491a;stroke:#54240e;}.cls-4,.cls-6,.cls-7{stroke-width:3px;}.cls-5{fill:#00b04c;}.cls-6,.cls-7{stroke:#000;}.cls-8{fill:#992f78;}.cls-9{fill:#c04097;}.cls-10{fill:#73efeb;}</style></defs><g id="newest_closed" data-name="newest closed"><path class="cls-1" d="M22,75.4c0-.8,0-12.77,4.59-17.36,4-4,12.4-1.88,14.3,2.38a7,7,0,0,1-1.36,7.15c-2.15,2.36-6.29,3.34-7.66,1.7s.35-4.81.51-5.11" transform="translate(1.01 0)"/><path class="cls-1" d="M20,34.46A9.3,9.3,0,0,0,17.73,25c-3.2-2.94-8.59-2.82-11.27.26-2,2.35-2.91,6.89-.83,8.54,1.41,1.1,3.93.71,6.18-.93" transform="translate(1.01 0)"/><path class="cls-1" d="M77.93,112.41c.59-.19,7.61-2.28,13.33,2.31a14.34,14.34,0,0,1,5.11,9.7A14.62,14.62,0,0,1,93,135.14C90.43,138,85.2,141.46,80,139.57c-3.24-1.19-6.72-4.56-6.47-8.68.14-2.34,1.55-6,4.94-6.64a6.6,6.6,0,0,1,7,4.09" transform="translate(1.01 0)"/><path class="cls-2" d="M48.13,172.72c9.26-11.49,19.39-50.5,9.65-64.4-10.5-15-26.11-16.61-36.87-36.39-11.6-21.34-4.67-38.68,9.5-44.62,16-6.68,22.2-3.11,24.94,2.94" transform="translate(1.01 0)"/><path class="cls-2" d="M60.9,119.12c6.36-6.27,38.81-5.7,38.79-33.35,0-11.83-18.39-18-19.4-13.79" transform="translate(1.01 0)"/><path class="cls-2" d="M29.66,83.78C15.85,77.28,6,90.59,6,99.19c.08,12.55,15.06,23.94,21.5,22.21" transform="translate(1.01 0)"/><circle class="cls-3" cx="52.66" cy="26.13" r="3.27"/><circle class="cls-3" cx="45.63" cy="22.86" r="3.27"/><circle class="cls-3" cx="38.06" cy="26.13" r="3.27"/><circle class="cls-3" cx="29.41" cy="27.18" r="3.27"/><circle class="cls-3" cx="24.14" cy="33.71" r="3.27"/><circle class="cls-3" cx="17.61" cy="38.82" r="3.27"/><circle class="cls-3" cx="17.61" cy="47.63" r="3.27"/><circle class="cls-3" cx="15.46" cy="55.9" r="3.27"/><circle class="cls-3" cx="19.33" cy="63.24" r="3.27"/><circle class="cls-3" cx="20.87" cy="71.63" r="3.27"/><circle class="cls-3" cx="26.26" cy="78.17" r="3.27"/><circle class="cls-3" cx="19.73" cy="82.87" r="3.27"/><circle class="cls-3" cx="12.19" cy="86.14" r="3.27"/><circle class="cls-3" cx="8.93" cy="94.1" r="3.27"/><circle class="cls-3" cx="7.03" cy="101.81" r="3.27"/><circle class="cls-3" cx="11.07" cy="108.66" r="3.27"/><circle class="cls-3" cx="14.56" cy="116.3" r="3.27"/><circle class="cls-3" cx="22.11" cy="119.57" r="3.27"/><circle class="cls-3" cx="31.52" cy="85.32" r="3.27"/><circle class="cls-3" cx="38.74" cy="89.4" r="3.27"/><circle class="cls-3" cx="43.88" cy="95.61" r="3.27"/><circle class="cls-3" cx="51.51" cy="98.88" r="3.27"/><circle class="cls-3" cx="55.65" cy="105.39" r="3.27"/><circle class="cls-3" cx="61.29" cy="111.61" r="3.27"/><circle class="cls-3" cx="62.75" cy="119.57" r="3.27"/><circle class="cls-3" cx="69.55" cy="114.88" r="3.27"/><circle class="cls-3" cx="61.91" cy="127.1" r="3.27"/><circle class="cls-3" cx="63.51" cy="134.68" r="3.27"/><circle class="cls-3" cx="60.24" cy="141.55" r="3.27"/><circle class="cls-3" cx="58.02" cy="156.72" r="3.27"/><circle class="cls-3" cx="77.83" cy="111.61" r="3.27"/><circle class="cls-3" cx="85.63" cy="110.51" r="3.27"/><circle class="cls-3" cx="91.75" cy="104.4" r="3.27"/><circle class="cls-3" cx="98.65" cy="99.44" r="3.27"/><circle class="cls-3" cx="99.51" cy="91.63" r="3.27"/><circle class="cls-3" cx="101.92" cy="83.81" r="3.27"/><circle class="cls-3" cx="96.24" cy="77.27" r="3.27"/><circle class="cls-3" cx="90.06" cy="71.63" r="3.27"/><path class="cls-4" d="M.47,196.87c3.17-17.93,15.86-32,32-35.68s29.2,4.58,31.92,6.38a24.63,24.63,0,0,1,13.28-5.36c10.57-.77,21.22,6.2,27.1,17.61" transform="translate(1.01 0)"/><path class="cls-3" d="M55.94,28.92c3-1.05,9-3.12,14.1-.39,8.71,4.66,10,20.63,5.2,23.95-1.9,1.32-4.71.62-6.89-.24,0,.21.37,3.11-1.64,4.78s-5.22,1.44-7.46-.77c-.42,1.27-1.19,3-2.56,3.31-4.57,1.13-16-12.59-12.08-22.17C46.79,32.09,52.86,30,55.94,28.92Z" transform="translate(1.01 0)"/><path class="cls-3" d="M83.59,73.3c1.55,2.1,4.61,6.23,3.73,10.87C85.81,92.08,73.7,97,70,94c-1.48-1.16-1.63-3.51-1.49-5.42a4.15,4.15,0,0,1-5.32-6.1c-1.1,0-2.61-.2-3.21-1.19-2-3.27,5.9-15.52,14.32-14.79C78.89,67,82,71.16,83.59,73.3Z" transform="translate(1.01 0)"/><path class="cls-3" d="M23.55,123c.9,2.45,2.67,7.28,7,9.09,7.43,3.1,18.17-4.32,17.79-9.06-.15-1.88-2-3.3-3.7-4.23A4.16,4.16,0,0,0,42.5,111c.59-.92,1.27-2.28.77-3.32-1.64-3.47-16.2-3.61-20.22,3.81C20.83,115.6,22.63,120.52,23.55,123Z" transform="translate(1.01 0)"/><circle class="cls-5" cx="79.01" cy="86.14" r="5.51"/><circle class="cls-5" cx="73.78" cy="73.87" r="5.51"/><circle class="cls-5" cx="52.38" cy="39.97" r="5.51"/><circle class="cls-5" cx="65.69" cy="34.46" r="5.51"/><circle class="cls-5" cx="64.2" cy="48.66" r="5.51"/><circle class="cls-5" cx="39.41" cy="118.15" r="5.51"/><circle class="cls-5" cx="73.78" cy="44.36" r="3.27"/><circle class="cls-5" cx="53.62" cy="50.9" r="3.27"/><circle class="cls-5" cx="68.48" cy="83.5" r="3.27"/><circle class="cls-5" cx="30.66" cy="111.77" r="3.27"/><circle class="cls-5" cx="33.93" cy="127.1" r="3.27"/><rect class="cls-6" x="51.46" y="142.06" width="14.78" height="10.78" rx="2" transform="translate(37.16 -9.68) rotate(13.54)"/><path class="cls-7" d="M93.91,177c.56-2.8-2.76-15.56-10-21.85-6.26-5.48-15.4-6.57-19.26-6.86" transform="translate(1.01 0)"/></g><g id="new_flowers" data-name="new flowers"><ellipse id="petals" class="cls-8" cx="49.79" cy="21.54" rx="3.49" ry="17.97" transform="translate(-2.69 30.58) rotate(-32.99)"/><ellipse id="petals-2" data-name="petals" class="cls-8" cx="74.03" cy="58.89" rx="3.49" ry="17.97" transform="translate(-19.12 49.8) rotate(-32.99)"/><ellipse id="petals-3" data-name="petals" class="cls-8" cx="42.11" cy="30.06" rx="3.49" ry="17.97" transform="translate(-2.85 53.81) rotate(-62.85)"/><ellipse id="petals-4" data-name="petals" class="cls-8" cx="81.72" cy="50.37" rx="3.49" ry="17.97" transform="translate(0.61 100.1) rotate(-62.85)"/><ellipse id="petals-5" data-name="petals" class="cls-8" cx="39.66" cy="40.6" rx="17.97" ry="3.49" transform="translate(0.3 0.7) rotate(-1)"/><ellipse id="petals-6" data-name="petals" class="cls-8" cx="84.17" cy="39.83" rx="17.97" ry="3.49" transform="translate(0.32 1.48) rotate(-1)"/><ellipse id="petals-7" data-name="petals" class="cls-8" cx="42.81" cy="51.63" rx="17.97" ry="3.49" transform="translate(-19.42 29.27) rotate(-30.86)"/><ellipse id="petals-8" data-name="petals" class="cls-8" cx="81.02" cy="28.8" rx="17.97" ry="3.49" transform="translate(-2.29 45.64) rotate(-30.86)"/><ellipse id="petals-9" data-name="petals" class="cls-8" cx="51.27" cy="59.77" rx="17.97" ry="3.49" transform="translate(-24.72 76.24) rotate(-61.45)"/><ellipse id="petals-10" data-name="petals" class="cls-8" cx="72.55" cy="20.66" rx="17.97" ry="3.49" transform="translate(20.73 74.51) rotate(-61.45)"/><ellipse id="petals-11" data-name="petals" class="cls-8" cx="62.42" cy="62.47" rx="3.49" ry="17.97" transform="translate(-0.4 1.44) rotate(-1.31)"/><ellipse id="petals-12" data-name="petals" class="cls-8" cx="61.41" cy="17.96" rx="3.49" ry="17.97" transform="translate(0.61 1.41) rotate(-1.31)"/><ellipse id="petals-13" data-name="petals" class="cls-9" cx="45.37" cy="25.32" rx="3.49" ry="17.97" transform="translate(-2.8 42.1) rotate(-48)"/><ellipse id="petals-14" data-name="petals" class="cls-9" cx="78.46" cy="55.11" rx="3.49" ry="17.97" transform="translate(-13.99 76.54) rotate(-48)"/><ellipse id="petals-15" data-name="petals" class="cls-9" cx="40.15" cy="35.54" rx="3.49" ry="17.97" transform="translate(-2.02 67.32) rotate(-77.86)"/><ellipse id="petals-16" data-name="petals" class="cls-9" cx="83.67" cy="44.9" rx="3.49" ry="17.97" transform="translate(23.2 117.26) rotate(-77.86)"/><ellipse id="petals-17" data-name="petals" class="cls-9" cx="40.52" cy="46.36" rx="17.97" ry="3.49" transform="matrix(0.96, -0.28, 0.28, 0.96, -10.21, 12.98)"/><ellipse id="petals-18" data-name="petals" class="cls-9" cx="83.31" cy="34.07" rx="17.97" ry="3.49" transform="translate(-5.16 24.31) rotate(-16.02)"/><ellipse id="petals-19" data-name="petals" class="cls-9" cx="46.42" cy="56.19" rx="17.97" ry="3.49" transform="matrix(0.7, -0.72, 0.72, 0.7, -25.23, 50.39)"/><ellipse id="petals-20" data-name="petals" class="cls-9" cx="77.41" cy="24.24" rx="17.97" ry="3.49" transform="translate(7.13 62.93) rotate(-45.88)"/><ellipse id="petals-21" data-name="petals" class="cls-9" cx="56.7" cy="61.86" rx="17.97" ry="3.49" transform="translate(-15.7 102.5) rotate(-76.46)"/><ellipse id="petals-22" data-name="petals" class="cls-9" cx="67.12" cy="18.57" rx="17.97" ry="3.49" transform="translate(34.36 79.49) rotate(-76.46)"/><ellipse id="petals-23" data-name="petals" class="cls-9" cx="68.17" cy="61.58" rx="3.49" ry="17.97" transform="translate(-13.55 21.64) rotate(-16.32)"/><ellipse id="petals-24" data-name="petals" class="cls-9" cx="55.66" cy="18.85" rx="3.49" ry="17.97" transform="translate(-2.05 16.4) rotate(-16.32)"/><ellipse id="petals-25" data-name="petals" class="cls-8" cx="18.75" cy="114.31" rx="2.13" ry="10.96" transform="translate(-58.21 28.64) rotate(-32.99)"/><path id="petals-26" data-name="petals" class="cls-8" d="M39.51,146.29c-1,.64-4.46-3-7.76-8s-5.17-9.71-4.18-10.35,4.46,3,7.75,8,5.17,9.72,4.19,10.36" transform="translate(1.01 0)"/><ellipse id="petals-27" data-name="petals" class="cls-8" cx="14.06" cy="119.5" rx="2.13" ry="10.96" transform="translate(-97.68 77.48) rotate(-62.85)"/><ellipse id="petals-28" data-name="petals" class="cls-8" cx="38.23" cy="131.9" rx="2.13" ry="10.96" transform="translate(-95.57 105.72) rotate(-62.85)"/><path id="petals-29" data-name="petals" class="cls-8" d="M1.6,126.13c0-1.18,4.87-2.21,10.93-2.32s11,.76,11,1.94S18.65,128,12.6,128.07s-11-.76-11-1.94" transform="translate(1.01 0)"/><ellipse id="petals-30" data-name="petals" class="cls-8" cx="39.72" cy="125.46" rx="10.96" ry="2.13" transform="matrix(1, -0.02, 0.02, 1, -1.18, 0.71)"/><ellipse id="petals-31" data-name="petals" class="cls-8" cx="14.48" cy="132.67" rx="10.96" ry="2.13" transform="translate(-65 26.22) rotate(-30.86)"/><ellipse id="petals-32" data-name="petals" class="cls-8" cx="37.8" cy="118.73" rx="10.96" ry="2.13" transform="matrix(0.86, -0.51, 0.51, 0.86, -54.55, 36.2)"/><path id="petals-33" data-name="petals" class="cls-8" d="M14.41,147.26c-1-.56.48-5.33,3.37-10.65s6.08-9.17,7.11-8.61-.47,5.33-3.37,10.65-6.08,9.17-7.11,8.61" transform="translate(1.01 0)"/><ellipse id="petals-34" data-name="petals" class="cls-8" cx="32.63" cy="113.77" rx="10.96" ry="2.13" transform="translate(-81.89 88.06) rotate(-61.45)"/><path id="petals-35" data-name="petals" class="cls-8" d="M26.7,150.24c-1.17,0-2.24-4.86-2.38-10.91s.71-11,1.88-11,2.24,4.86,2.38,10.91-.7,11-1.88,11" transform="translate(1.01 0)"/><path id="petals-36" data-name="petals" class="cls-8" d="M25.58,101.16c1.18,0,2.24,4.86,2.38,10.92s-.7,11-1.88,11-2.24-4.85-2.38-10.91.71-11,1.88-11" transform="translate(1.01 0)"/><ellipse id="petals-37" data-name="petals" class="cls-9" cx="16.05" cy="116.61" rx="2.13" ry="10.96" transform="translate(-80.35 50.52) rotate(-48)"/><ellipse id="petals-38" data-name="petals" class="cls-9" cx="36.24" cy="134.79" rx="2.13" ry="10.96" transform="translate(-87.17 71.53) rotate(-48)"/><ellipse id="petals-39" data-name="petals" class="cls-9" cx="12.87" cy="122.85" rx="2.13" ry="10.96" transform="translate(-108.93 109.6) rotate(-77.86)"/><ellipse id="petals-40" data-name="petals" class="cls-9" cx="39.42" cy="128.56" rx="2.13" ry="10.96" transform="translate(-93.54 140.07) rotate(-77.86)"/><ellipse id="petals-41" data-name="petals" class="cls-9" cx="13.09" cy="129.45" rx="10.96" ry="2.13" transform="translate(-34.2 8.64) rotate(-16.02)"/><ellipse id="petals-42" data-name="petals" class="cls-9" cx="39.2" cy="121.95" rx="10.96" ry="2.13" transform="translate(-31.12 15.55) rotate(-16.02)"/><ellipse id="petals-43" data-name="petals" class="cls-9" cx="16.69" cy="135.45" rx="10.96" ry="2.13" transform="translate(-91.16 53.13) rotate(-45.88)"/><ellipse id="petals-44" data-name="petals" class="cls-9" cx="35.6" cy="115.95" rx="10.96" ry="2.13" transform="translate(-71.41 60.78) rotate(-45.88)"/><path id="petals-45" data-name="petals" class="cls-9" d="M20.4,149.56c-1.15-.27-.92-5.27.49-11.15s3.5-10.44,4.64-10.16.92,5.27-.5,11.15-3.49,10.44-4.63,10.16" transform="translate(1.01 0)"/><path id="petals-46" data-name="petals" class="cls-9" d="M31.89,101.84c1.14.28.92,5.27-.5,11.16s-3.49,10.43-4.63,10.16-.93-5.27.49-11.16,3.49-10.44,4.64-10.16" transform="translate(1.01 0)"/><path id="petals-47" data-name="petals" class="cls-9" d="M33,149.26c-1.13.33-3.42-4.12-5.12-9.93s-2.17-10.78-1-11.11,3.42,4.11,5.12,9.92,2.17,10.79,1,11.12" transform="translate(1.01 0)"/><path id="petals-48" data-name="petals" class="cls-9" d="M19.24,102.15c1.13-.33,3.43,4.11,5.13,9.92s2.17,10.79,1,11.12-3.43-4.11-5.13-9.92-2.16-10.79-1-11.12" transform="translate(1.01 0)"/><circle class="cls-10" cx="62.79" cy="40.19" r="9.98"/><circle class="cls-10" cx="27.03" cy="125.46" r="5.99"/></g></svg>