<svg xmlns="http://www.w3.org/2000/svg" viewBox="0 0 107.1 178.42"><defs><style>.cls-1,.cls-5{fill:none;}.cls-1{stroke:#00b04c;stroke-width:10px;}.cls-1,.cls-2,.cls-4,.cls-5{stroke-miterlimit:10;}.cls-2{fill:#71491a;stroke:#54240e;}.cls-2,.cls-4,.cls-5{stroke-width:3px;}.cls-3{fill:#008639;}.cls-4,.cls-5{stroke:#000;}</style></defs><g id="stem"><path class="cls-1" d="M47.66,154.26c9.26-11.49,19.39-50.51,9.65-64.4-10.5-15-26.11-16.61-36.87-36.4-11.6-21.33-4.66-38.67,9.5-44.61,16-6.69,22.2-3.11,24.94,2.94" transform="translate(1.48 -0.25)"/><path class="cls-1" d="M60.43,100.66c6.36-6.28,38.81-5.7,38.79-33.35,0-11.84-18.39-18-19.39-13.8" transform="translate(1.48 -0.25)"/><path class="cls-1" d="M29.19,65.31C15.38,58.82,5.49,72.12,5.55,80.73c.08,12.55,15.07,23.94,21.5,22.21" transform="translate(1.48 -0.25)"/></g><g id="dirt"><path class="cls-2" d="M0,178.4c3.18-17.92,15.86-32,32-35.68s29.19,4.59,31.91,6.39a24.63,24.63,0,0,1,13.28-5.37C87.76,143,98.4,150,104.29,161.36" transform="translate(1.48 -0.25)"/></g><g id="newest_buds" data-name="newest buds"><path class="cls-3" d="M55.47,10.46c3-1.06,9-3.12,14.1-.39,8.71,4.66,10,20.63,5.2,24-1.89,1.31-4.71.62-6.89-.24,0,.2.37,3.1-1.64,4.78S61,40,58.78,37.78c-.42,1.28-1.18,3-2.56,3.32-4.56,1.13-16-12.59-12.08-22.18C46.32,13.63,52.39,11.52,55.47,10.46Z" transform="translate(1.48 -0.25)"/><path class="cls-3" d="M83.12,54.83c1.55,2.1,4.61,6.24,3.73,10.88-1.51,7.91-13.61,12.79-17.36,9.87C68,74.42,67.86,72.06,68,70.16a4.16,4.16,0,0,1-5.33-6.11c-1.1,0-2.6-.2-3.2-1.18-2-3.28,5.89-15.52,14.31-14.79C78.42,48.48,81.54,52.7,83.12,54.83Z" transform="translate(1.48 -0.25)"/><path class="cls-3" d="M23.08,104.56c.9,2.45,2.67,7.28,7,9.09,7.43,3.1,18.17-4.33,17.79-9.07-.14-1.87-2-3.29-3.7-4.22A4.16,4.16,0,0,0,42,92.55c.59-.92,1.27-2.28.77-3.33C41.16,85.76,26.6,85.61,22.58,93,20.36,97.14,22.16,102.06,23.08,104.56Z" transform="translate(1.48 -0.25)"/></g><g id="TEMP"><rect class="cls-4" x="50.99" y="123.6" width="14.78" height="10.78" rx="2" transform="translate(33.29 -10.33) rotate(13.54)"/><path class="cls-5" d="M93.44,158.52c.56-2.8-2.75-15.56-10-21.86-6.27-5.47-15.41-6.57-19.27-6.85" transform="translate(1.48 -0.25)"/></g></svg>