<svg xmlns="http://www.w3.org/2000/svg" viewBox="0 0 107.1 178.42"><defs><style>.cls-1,.cls-2,.cls-6{fill:none;}.cls-1{stroke:#008639;stroke-width:5px;}.cls-1,.cls-2,.cls-3,.cls-5,.cls-6{stroke-miterlimit:10;}.cls-2{stroke:#00b04c;stroke-width:10px;}.cls-3{fill:#71491a;stroke:#54240e;}.cls-3,.cls-5,.cls-6{stroke-width:3px;}.cls-4{fill:#008639;}.cls-5,.cls-6{stroke:#000;}</style></defs><g id="spirals"><path class="cls-1" d="M21.52,56.94c0-.81,0-12.77,4.59-17.37,4-4,12.4-1.87,14.3,2.39a6.91,6.91,0,0,1-1.36,7.15c-2.15,2.35-6.29,3.34-7.66,1.7s.36-4.81.51-5.11" transform="translate(1.48 -0.25)"/><path class="cls-1" d="M19.54,16a9.32,9.32,0,0,0-2.28-9.47C14.06,3.59,8.67,3.7,6,6.79c-2,2.35-2.92,6.89-.83,8.53,1.4,1.11,3.92.72,6.17-.93" transform="translate(1.48 -0.25)"/><path class="cls-1" d="M77.47,93.94c.59-.18,7.6-2.28,13.32,2.32A14.33,14.33,0,0,1,95.9,106a14.59,14.59,0,0,1-3.4,10.72c-2.54,2.87-7.77,6.32-12.94,4.43-3.24-1.19-6.72-4.57-6.47-8.68.14-2.34,1.55-6,4.94-6.64a6.59,6.59,0,0,1,7,4.08" transform="translate(1.48 -0.25)"/></g><g id="stem"><path class="cls-2" d="M47.66,154.26c9.26-11.49,19.39-50.51,9.65-64.4-10.5-15-26.11-16.61-36.87-36.4-11.6-21.33-4.66-38.67,9.5-44.61,16-6.69,22.2-3.11,24.94,2.94" transform="translate(1.48 -0.25)"/><path class="cls-2" d="M60.43,100.66c6.36-6.28,38.81-5.7,38.79-33.35,0-11.84-18.39-18-19.39-13.8" transform="translate(1.48 -0.25)"/><path class="cls-2" d="M29.19,65.31C15.38,58.82,5.49,72.12,5.55,80.73c.08,12.55,15.07,23.94,21.5,22.21" transform="translate(1.48 -0.25)"/></g><g id="dirt"><path class="cls-3" d="M0,178.4c3.18-17.92,15.86-32,32-35.68s29.19,4.59,31.91,6.39a24.63,24.63,0,0,1,13.28-5.37C87.76,143,98.4,150,104.29,161.36" transform="translate(1.48 -0.25)"/></g><g id="new_buds" data-name="new buds"><path class="cls-4" d="M70,30.37C72.23,34,71.81,36.08,71.43,37c-1.92,4.83-13,6.27-19.13,2.32C42.44,33,42,10.47,52.59,4.57,58.65,1.21,67,4,72,8.05c10,8.22,9.72,24.82,5.8,26.66C76.53,35.32,74.25,34.63,70,30.37Z" transform="translate(1.48 -0.25)"/><path class="cls-4" d="M65.31,67.78c-2.36,2.36-4,2.41-4.83,2.29-4-.61-7.09-8.81-5.17-14.19,3.1-8.66,20.2-13,26.6-6,3.64,4,3,10.91.8,15.44-4.5,9.06-17.22,11.83-19.32,9.17C62.7,73.66,62.82,71.79,65.31,67.78Z" transform="translate(1.48 -0.25)"/><path class="cls-4" d="M39.9,110.92c3.51,1.23,5.21.48,6,0,3.76-2.55,2.89-12.27-1.64-16.74-7.28-7.21-26.58-3.37-29.6,6.82-1.71,5.8,2.2,12.44,6.64,15.9,8.89,6.94,23,3.59,23.83-.1C45.35,115.56,44.34,113.75,39.9,110.92Z" transform="translate(1.48 -0.25)"/></g><g id="TEMP"><rect class="cls-5" x="50.99" y="123.6" width="14.78" height="10.78" rx="2" transform="translate(33.29 -10.33) rotate(13.54)"/><path class="cls-6" d="M93.44,158.52c.56-2.8-2.75-15.56-10-21.86-6.27-5.47-15.41-6.57-19.27-6.85" transform="translate(1.48 -0.25)"/></g></svg>