<svg xmlns="http://www.w3.org/2000/svg" viewBox="0 0 107.1 178.42"><defs><style>.cls-1,.cls-6{fill:none;}.cls-1{stroke:#00b04c;stroke-width:10px;}.cls-1,.cls-3,.cls-5,.cls-6{stroke-miterlimit:10;}.cls-2{fill:#00b04c;}.cls-3{fill:#71491a;stroke:#54240e;}.cls-3,.cls-5,.cls-6{stroke-width:3px;}.cls-4{fill:#008639;}.cls-5,.cls-6{stroke:#000;}</style></defs><g id="stem"><path class="cls-1" d="M47.66,154.26c9.26-11.49,19.39-50.51,9.65-64.4-10.5-15-26.11-16.61-36.87-36.4-11.6-21.33-4.66-38.67,9.5-44.61,16-6.69,22.2-3.11,24.94,2.94" transform="translate(1.48 -0.25)"/><path class="cls-1" d="M60.43,100.66c6.36-6.28,38.81-5.7,38.79-33.35,0-11.84-18.39-18-19.39-13.8" transform="translate(1.48 -0.25)"/><path class="cls-1" d="M29.19,65.31C15.38,58.82,5.49,72.12,5.55,80.73c.08,12.55,15.07,23.94,21.5,22.21" transform="translate(1.48 -0.25)"/></g><g id="thorns"><path class="cls-2" d="M21.56,46.72l11.23-2.3L22.84,50Z" transform="translate(1.48 -0.25)"/><path class="cls-2" d="M39,69.07l8.08-8.13L41.88,71.13Z" transform="translate(1.48 -0.25)"/><path class="cls-2" d="M91,50.77l7.29-8.85L94,52.55Z" transform="translate(1.48 -0.25)"/><path class="cls-2" d="M74.46,92,69.12,81.82l8.17,8Z" transform="translate(1.48 -0.25)"/><path class="cls-2" d="M94.93,86.8l5,10.34L92,88.84Z" transform="translate(1.48 -0.25)"/><path class="cls-2" d="M12.37,72.32l6.42,9.5-9-7Z" transform="translate(1.48 -0.25)"/><path class="cls-2" d="M11.48,26,2.85,18.44,13.35,23Z" transform="translate(1.48 -0.25)"/><path class="cls-2" d="M31.94,10.73,36.4,21.3l-7.46-8.66Z" transform="translate(1.48 -0.25)"/><path class="cls-2" d="M57.42,92.64l-10.55,4.5,8.63-7.5Z" transform="translate(1.48 -0.25)"/><path class="cls-2" d="M64.72,112.76l10.93,3.47-11.43,0Z" transform="translate(1.48 -0.25)"/></g><g id="dirt"><path class="cls-3" d="M0,178.4c3.18-17.92,15.86-32,32-35.68s29.19,4.59,31.91,6.39a24.63,24.63,0,0,1,13.28-5.37C87.76,143,98.4,150,104.29,161.36" transform="translate(1.48 -0.25)"/></g><g id="new_buds" data-name="new buds"><path class="cls-4" d="M49.43,4.83c-4.88,2.53-7.24,8-7.3,12.39C42,29.7,60.38,41.46,67.72,37.36,74.51,33.57,75.1,14.46,65.3,7,61.69,4.24,55.1,1.88,49.43,4.83Z" transform="translate(1.48 -0.25)"/><path class="cls-4" d="M82.54,47.21c-3.76-4-9.68-4.8-13.91-3.68C56.56,46.74,50.24,67.65,56.17,73.62c5.48,5.51,24,.91,28.57-10.55C86.42,58.85,86.91,51.87,82.54,47.21Z" transform="translate(1.48 -0.25)"/><path class="cls-4" d="M14.27,98.25c-2.09,5.08-.35,10.8,2.43,14.18,7.92,9.65,29.57,6.74,32.54-1.14C52,104,40.1,89,27.8,89.66,23.27,89.89,16.71,92.34,14.27,98.25Z" transform="translate(1.48 -0.25)"/></g><g id="tag"><rect class="cls-5" x="50.99" y="123.6" width="14.78" height="10.78" rx="2" transform="translate(33.29 -10.33) rotate(13.54)"/><path class="cls-6" d="M93.44,158.52c.56-2.8-2.75-15.56-10-21.86-6.27-5.47-15.41-6.57-19.27-6.85" transform="translate(1.48 -0.25)"/></g></svg>