<?xml version="1.0" encoding="utf-8"?>
<!-- Generator: Adobe Illustrator 25.0.1, SVG Export Plug-In . SVG Version: 6.00 Build 0)  -->
<svg version="1.1" xmlns="http://www.w3.org/2000/svg" xmlns:xlink="http://www.w3.org/1999/xlink" x="0px" y="0px"
	 viewBox="0 0 104.3 178.4" style="enable-background:new 0 0 104.3 178.4;" xml:space="preserve">
<style type="text/css">
	.st0{fill:none;stroke:#00B04C;stroke-width:10;stroke-miterlimit:10;}
	.st1{fill:#71491A;stroke:#54240E;stroke-width:3;stroke-miterlimit:10;}
	.st2{fill:#008639;}
	.st3{stroke:#000000;stroke-width:3;stroke-miterlimit:10;}
	.st4{fill:none;stroke:#000000;stroke-width:3;stroke-miterlimit:10;}
</style>
<g id="stem">
	<path class="st0" d="M47.7,154.3c9.3-11.5,19.4-50.5,9.6-64.4c-10.5-15-26.1-16.6-36.9-36.4C8.8,32.1,15.8,14.8,29.9,8.9
		c15.9-6.7,22.2-3.1,24.9,2.9"/>
	<path class="st0" d="M60.4,100.7c6.4-6.3,38.8-5.7,38.8-33.3c0-11.8-18.4-18-19.4-13.8"/>
	<path class="st0" d="M29.2,65.3C15.4,58.8,5.5,72.1,5.5,80.7c0.1,12.5,15.1,23.9,21.5,22.2"/>
</g>
<g id="spirals">
</g>
<g id="dirt_1_">
	<path class="st1" d="M0,178.4c3.2-17.9,15.9-32,32-35.7c16.1-3.7,29.2,4.6,31.9,6.4c2.6-2,7.2-4.9,13.3-5.4
		c10.6-0.8,21.2,6.2,27.1,17.6"/>
</g>
<g id="newest_buds">
	<path class="st2" d="M55.5,10.5c3-1.1,9-3.1,14.1-0.4c8.7,4.7,10,20.6,5.2,23.9c-1.9,1.3-4.7,0.6-6.9-0.2c0,0.2,0.4,3.1-1.6,4.8
		c-1.9,1.6-5.2,1.4-7.5-0.8c-0.4,1.3-1.2,3-2.6,3.3c-4.6,1.1-16-12.6-12.1-22.2C46.3,13.6,52.4,11.5,55.5,10.5z"/>
	<path class="st2" d="M83.1,54.8c1.6,2.1,4.6,6.2,3.7,10.9c-1.5,7.9-13.6,12.8-17.4,9.9c-1.5-1.2-1.6-3.5-1.5-5.4
		c-0.2,0.1-2.3,1-4.1-0.1c-1.7-1.1-2.4-3.7-1.2-6c-1.1,0-2.6-0.2-3.2-1.2c-2-3.3,5.9-15.5,14.3-14.8C78.4,48.5,81.5,52.7,83.1,54.8z
		"/>
	<path class="st2" d="M23.1,104.6c0.9,2.5,2.7,7.3,7,9.1c7.4,3.1,18.2-4.3,17.8-9.1c-0.1-1.9-2-3.3-3.7-4.2c0.1-0.1,2.1-1.4,2.2-3.5
		c0-2-1.8-4-4.3-4.3c0.6-0.9,1.3-2.3,0.8-3.3c-1.6-3.5-16.2-3.6-20.2,3.8C20.4,97.1,22.2,102.1,23.1,104.6z"/>
</g>
<g id="TEMP">
	<path class="st3" d="M62.4,135.5L51.9,133c-1.1-0.3-1.7-1.3-1.5-2.4L52,124c0.3-1.1,1.3-1.7,2.4-1.5l10.5,2.5
		c1.1,0.3,1.7,1.3,1.5,2.4l-1.6,6.6C64.5,135.1,63.4,135.7,62.4,135.5z"/>
	<path class="st4" d="M93.4,158.5c0.6-2.8-2.8-15.6-10-21.9c-6.3-5.5-15.4-6.6-19.3-6.9"/>
</g>
</svg>
