<svg xmlns="http://www.w3.org/2000/svg" viewBox="0 0 107.1 196.97"><defs><style>.cls-1,.cls-2,.cls-5,.cls-7{fill:none;}.cls-1,.cls-5{stroke:#00b04c;}.cls-1,.cls-2,.cls-3,.cls-5,.cls-6,.cls-7{stroke-miterlimit:10;}.cls-1{stroke-width:10px;}.cls-2{stroke:#008639;}.cls-2,.cls-3,.cls-5,.cls-6,.cls-7{stroke-width:3px;}.cls-3{fill:#71491a;stroke:#54240e;}.cls-4{fill:#008639;}.cls-6,.cls-7{stroke:#000;}.cls-8{fill:#992f78;}.cls-9{fill:#c04097;}.cls-10{fill:#88e27f;}</style></defs><g id="new_from_closed" data-name="new from closed"><path class="cls-1" d="M48.13,172.56c9.26-11.49,19.39-50.5,9.65-64.39-10.5-15-26.11-16.62-36.87-36.4-11.6-21.34-4.66-38.67,9.5-44.61,16-6.69,22.2-3.12,24.94,2.93" transform="translate(1.01 0)"/><path class="cls-1" d="M60.9,119c6.37-6.27,38.82-5.7,38.79-33.35,0-11.83-18.39-18-19.39-13.79" transform="translate(1.01 0)"/><path class="cls-1" d="M29.66,83.62C15.85,77.13,6,90.43,6,99c.09,12.55,15.07,24,21.5,22.21" transform="translate(1.01 0)"/><path class="cls-2" d="M50.75,156.26,60.29,159" transform="translate(1.01 0)"/><path class="cls-2" d="M55.52,136.35l10.21,1.36" transform="translate(1.01 0)"/><path class="cls-2" d="M56.54,128.35l10.21.34" transform="translate(1.01 0)"/><path class="cls-2" d="M56.54,119.33l10,2" transform="translate(1.01 0)"/><path class="cls-2" d="M67.61,110.82l4.59,8" transform="translate(1.01 0)"/><path class="cls-2" d="M54.67,111.84l9.19-4.09" transform="translate(1.01 0)"/><path class="cls-2" d="M50.24,106.05l7.83-5.79" transform="translate(1.01 0)"/><path class="cls-2" d="M44.29,101.45l7-6.8" transform="translate(1.01 0)"/><path class="cls-2" d="M33.22,92.43l6.3-6.64" transform="translate(1.01 0)"/><path class="cls-2" d="M27.78,88.35l5.61-7.49" transform="translate(1.01 0)"/><path class="cls-2" d="M26.75,72.35q-2.12,6.89-4.25,13.78" transform="translate(1.01 0)"/><path class="cls-2" d="M14.44,78.73c.79,2.61,2.08,6.86,2.88,9.47" transform="translate(1.01 0)"/><path class="cls-2" d="M6.73,84.9l6.47,7.66" transform="translate(1.01 0)"/><path class="cls-2" d="M1.9,93.62l9,4" transform="translate(1.01 0)"/><path class="cls-2" d="M1.56,103.2l10.09-1.15" transform="translate(1.01 0)"/><path class="cls-2" d="M13.56,106.52l-8.68,4.21" transform="translate(1.01 0)"/><path class="cls-2" d="M15.88,109.79l-6.66,8.1" transform="translate(1.01 0)"/><path class="cls-2" d="M19.82,113.41l-2.68,9.32" transform="translate(1.01 0)"/><path class="cls-2" d="M23.27,65.41q-3.39,3.9-6.77,7.79" transform="translate(1.01 0)"/><path class="cls-2" d="M11.65,62.48,21,58.22" transform="translate(1.01 0)"/><path class="cls-2" d="M19.88,51.92l-9.64.6" transform="translate(1.01 0)"/><path class="cls-2" d="M10.88,41.92,20.58,45" transform="translate(1.01 0)"/><path class="cls-2" d="M15.61,32.73,23,39" transform="translate(1.01 0)"/><path class="cls-2" d="M22.75,25.33q2.31,4.65,4.6,9.32" transform="translate(1.01 0)"/><path class="cls-2" d="M30.29,22l3.44,8.55" transform="translate(1.01 0)"/><path class="cls-2" d="M38.2,19.33,40.88,29" transform="translate(1.01 0)"/><path class="cls-2" d="M48.29,19.2l-1.41,9.06" transform="translate(1.01 0)"/><path class="cls-2" d="M50,29.41l6.51-6.51" transform="translate(1.01 0)"/><path class="cls-2" d="M75.61,107.92l4.59,8.3" transform="translate(1.01 0)"/><path class="cls-2" d="M82,105.5l7.15,6.76" transform="translate(1.01 0)"/><path class="cls-2" d="M96.41,106.26l-8-5.36" transform="translate(1.01 0)"/><path class="cls-2" d="M92.46,95.16l9.44,2.68" transform="translate(1.01 0)"/><path class="cls-2" d="M94.88,87.62l9.88.26" transform="translate(1.01 0)"/><path class="cls-2" d="M94.37,83.35l8.68-5" transform="translate(1.01 0)"/><path class="cls-2" d="M91.05,79.24l5.36-8.89" transform="translate(1.01 0)"/><path class="cls-2" d="M88.11,76.9Q87,71.15,86,65.41" transform="translate(1.01 0)"/><path class="cls-3" d="M.47,196.71c3.18-17.93,15.86-32,32-35.68s29.19,4.58,31.91,6.38a24.63,24.63,0,0,1,13.28-5.36c10.58-.76,21.23,6.2,27.11,17.62" transform="translate(1.01 0)"/><path class="cls-4" d="M83.59,73.14c1.56,2.1,4.61,6.23,3.73,10.87C85.81,91.92,73.71,96.8,70,93.88c-1.49-1.15-1.63-3.51-1.49-5.42a4.16,4.16,0,0,1-5.33-6.1c-1.1,0-2.6-.2-3.2-1.19-2-3.27,5.9-15.52,14.31-14.78C78.89,66.79,82,71,83.59,73.14Z" transform="translate(1.01 0)"/><path class="cls-5" d="M61.31,81.37c.14-.61,1.79-7.34,8.51-10,7.2-2.9,13.43,1.55,13.77,1.81" transform="translate(1.01 0)"/><path class="cls-5" d="M63.61,87.71q5-3.66,10.46-7.36,5.13-3.45,10.06-6.48" transform="translate(1.01 0)"/><path class="cls-5" d="M69.31,93.19a17.1,17.1,0,0,0,15.74-18" transform="translate(1.01 0)"/><rect class="cls-6" x="51.46" y="141.91" width="14.78" height="10.78" rx="2" transform="translate(37.12 -9.68) rotate(13.54)"/><path class="cls-7" d="M93.91,176.83c.56-2.8-2.75-15.57-10-21.86-6.27-5.48-15.4-6.57-19.27-6.86" transform="translate(1.01 0)"/></g><g id="buds"><path class="cls-4" d="M54.24,27.19a12.08,12.08,0,0,0-6.09,10.34C48,47.94,63.38,57.75,69.51,54.33c5.65-3.16,6.15-19.1-2-25.33C64.47,26.71,59,24.74,54.24,27.19Z" transform="translate(1.01 0)"/><ellipse id="petals" class="cls-8" cx="49.8" cy="21.54" rx="3.49" ry="17.97" transform="translate(-2.7 30.59) rotate(-32.99)"/><ellipse id="petals-2" data-name="petals" class="cls-8" cx="74.04" cy="58.89" rx="3.49" ry="17.97" transform="translate(-19.12 49.81) rotate(-32.99)"/><ellipse id="petals-3" data-name="petals" class="cls-8" cx="42.12" cy="30.06" rx="3.49" ry="17.97" transform="translate(-2.84 53.82) rotate(-62.85)"/><ellipse id="petals-4" data-name="petals" class="cls-8" cx="81.73" cy="50.37" rx="3.49" ry="17.97" transform="translate(0.62 100.11) rotate(-62.85)"/><ellipse id="petals-5" data-name="petals" class="cls-8" cx="39.67" cy="40.6" rx="17.97" ry="3.49" transform="translate(0.3 0.7) rotate(-1)"/><ellipse id="petals-6" data-name="petals" class="cls-8" cx="84.18" cy="39.83" rx="17.97" ry="3.49" transform="translate(0.32 1.48) rotate(-1)"/><ellipse id="petals-7" data-name="petals" class="cls-8" cx="42.82" cy="51.63" rx="17.97" ry="3.49" transform="translate(-19.42 29.28) rotate(-30.86)"/><ellipse id="petals-8" data-name="petals" class="cls-8" cx="81.03" cy="28.8" rx="17.97" ry="3.49" transform="translate(-2.29 45.65) rotate(-30.86)"/><ellipse id="petals-9" data-name="petals" class="cls-8" cx="51.28" cy="59.77" rx="17.97" ry="3.49" transform="translate(-24.72 76.24) rotate(-61.45)"/><ellipse id="petals-10" data-name="petals" class="cls-8" cx="72.56" cy="20.66" rx="17.97" ry="3.49" transform="translate(20.73 74.52) rotate(-61.45)"/><ellipse id="petals-11" data-name="petals" class="cls-8" cx="62.43" cy="62.47" rx="3.49" ry="17.97" transform="translate(-0.4 1.44) rotate(-1.31)"/><ellipse id="petals-12" data-name="petals" class="cls-8" cx="61.41" cy="17.96" rx="3.49" ry="17.97" transform="translate(0.61 1.41) rotate(-1.31)"/><ellipse id="petals-13" data-name="petals" class="cls-9" cx="45.38" cy="25.32" rx="3.49" ry="17.97" transform="translate(-2.8 42.1) rotate(-48)"/><ellipse id="petals-14" data-name="petals" class="cls-9" cx="78.47" cy="55.11" rx="3.49" ry="17.97" transform="translate(-13.98 76.55) rotate(-48)"/><ellipse id="petals-15" data-name="petals" class="cls-9" cx="40.16" cy="35.54" rx="3.49" ry="17.97" transform="translate(-2.02 67.33) rotate(-77.86)"/><ellipse id="petals-16" data-name="petals" class="cls-9" cx="83.68" cy="44.9" rx="3.49" ry="17.97" transform="translate(23.21 117.27) rotate(-77.86)"/><ellipse id="petals-17" data-name="petals" class="cls-9" cx="40.53" cy="46.36" rx="17.97" ry="3.49" transform="translate(-10.21 12.98) rotate(-16.02)"/><ellipse id="petals-18" data-name="petals" class="cls-9" cx="83.32" cy="34.07" rx="17.97" ry="3.49" transform="translate(-5.16 24.31) rotate(-16.02)"/><ellipse id="petals-19" data-name="petals" class="cls-9" cx="46.43" cy="56.19" rx="17.97" ry="3.49" transform="matrix(0.7, -0.72, 0.72, 0.7, -25.23, 50.4)"/><ellipse id="petals-20" data-name="petals" class="cls-9" cx="77.42" cy="24.24" rx="17.97" ry="3.49" transform="translate(7.13 62.94) rotate(-45.88)"/><ellipse id="petals-21" data-name="petals" class="cls-9" cx="56.71" cy="61.86" rx="17.97" ry="3.49" transform="translate(-15.7 102.51) rotate(-76.46)"/><ellipse id="petals-22" data-name="petals" class="cls-9" cx="67.13" cy="18.57" rx="17.97" ry="3.49" transform="translate(34.37 79.49) rotate(-76.46)"/><ellipse id="petals-23" data-name="petals" class="cls-9" cx="68.18" cy="61.58" rx="3.49" ry="17.97" transform="translate(-13.55 21.64) rotate(-16.32)"/><ellipse id="petals-24" data-name="petals" class="cls-9" cx="55.67" cy="18.85" rx="3.49" ry="17.97" transform="translate(-2.05 16.41) rotate(-16.32)"/><circle class="cls-10" cx="62.93" cy="40.6" r="13.59"/><ellipse id="petals-25" data-name="petals" class="cls-8" cx="18.76" cy="114.31" rx="2.13" ry="10.96" transform="translate(-58.21 28.64) rotate(-32.99)"/><path id="petals-26" data-name="petals" class="cls-8" d="M39.52,146.29c-1,.64-4.46-3-7.76-8s-5.17-9.71-4.18-10.35,4.46,3,7.75,8,5.17,9.72,4.19,10.36" transform="translate(1.01 0)"/><ellipse id="petals-27" data-name="petals" class="cls-8" cx="14.07" cy="119.5" rx="2.13" ry="10.96" transform="translate(-97.68 77.49) rotate(-62.85)"/><ellipse id="petals-28" data-name="petals" class="cls-8" cx="38.24" cy="131.9" rx="2.13" ry="10.96" transform="translate(-95.57 105.73) rotate(-62.85)"/><path id="petals-29" data-name="petals" class="cls-8" d="M1.61,126.13c0-1.18,4.87-2.21,10.93-2.32s11,.76,11,1.94-4.87,2.21-10.92,2.32-11-.76-11-1.94" transform="translate(1.01 0)"/><ellipse id="petals-30" data-name="petals" class="cls-8" cx="39.73" cy="125.46" rx="10.96" ry="2.13" transform="translate(-1.18 0.71) rotate(-1)"/><ellipse id="petals-31" data-name="petals" class="cls-8" cx="14.49" cy="132.67" rx="10.96" ry="2.13" transform="matrix(0.86, -0.51, 0.51, 0.86, -65, 26.22)"/><ellipse id="petals-32" data-name="petals" class="cls-8" cx="37.81" cy="118.73" rx="10.96" ry="2.13" transform="translate(-54.55 36.21) rotate(-30.86)"/><path id="petals-33" data-name="petals" class="cls-8" d="M14.42,147.26c-1-.56.48-5.33,3.37-10.65s6.08-9.17,7.11-8.61-.47,5.33-3.37,10.65-6.08,9.17-7.11,8.61" transform="translate(1.01 0)"/><ellipse id="petals-34" data-name="petals" class="cls-8" cx="32.64" cy="113.77" rx="10.96" ry="2.13" transform="translate(-81.89 88.06) rotate(-61.45)"/><path id="petals-35" data-name="petals" class="cls-8" d="M26.71,150.24c-1.17,0-2.24-4.86-2.38-10.91s.71-11,1.88-11,2.24,4.86,2.38,10.91-.7,11-1.88,11" transform="translate(1.01 0)"/><path id="petals-36" data-name="petals" class="cls-8" d="M25.59,101.16c1.18,0,2.24,4.86,2.38,10.92s-.7,11-1.88,11-2.24-4.85-2.38-10.91.71-11,1.88-11" transform="translate(1.01 0)"/><ellipse id="petals-37" data-name="petals" class="cls-9" cx="16.06" cy="116.61" rx="2.13" ry="10.96" transform="translate(-80.35 50.52) rotate(-48)"/><ellipse id="petals-38" data-name="petals" class="cls-9" cx="36.25" cy="134.79" rx="2.13" ry="10.96" transform="translate(-87.17 71.54) rotate(-48)"/><ellipse id="petals-39" data-name="petals" class="cls-9" cx="12.87" cy="122.85" rx="2.13" ry="10.96" transform="translate(-108.93 109.61) rotate(-77.86)"/><ellipse id="petals-40" data-name="petals" class="cls-9" cx="39.43" cy="128.56" rx="2.13" ry="10.96" transform="translate(-93.54 140.08) rotate(-77.86)"/><ellipse id="petals-41" data-name="petals" class="cls-9" cx="13.1" cy="129.45" rx="10.96" ry="2.13" transform="translate(-34.21 8.64) rotate(-16.02)"/><ellipse id="petals-42" data-name="petals" class="cls-9" cx="39.21" cy="121.95" rx="10.96" ry="2.13" transform="translate(-31.12 15.55) rotate(-16.02)"/><ellipse id="petals-43" data-name="petals" class="cls-9" cx="16.7" cy="135.45" rx="10.96" ry="2.13" transform="translate(-91.16 53.14) rotate(-45.88)"/><ellipse id="petals-44" data-name="petals" class="cls-9" cx="35.61" cy="115.95" rx="10.96" ry="2.13" transform="translate(-71.41 60.79) rotate(-45.88)"/><path id="petals-45" data-name="petals" class="cls-9" d="M20.41,149.56c-1.15-.27-.92-5.27.49-11.15s3.5-10.44,4.64-10.16.92,5.27-.5,11.15-3.49,10.44-4.63,10.16" transform="translate(1.01 0)"/><path id="petals-46" data-name="petals" class="cls-9" d="M31.9,101.84c1.14.28.92,5.27-.5,11.16s-3.49,10.43-4.63,10.16-.93-5.27.49-11.16,3.49-10.44,4.64-10.16" transform="translate(1.01 0)"/><path id="petals-47" data-name="petals" class="cls-9" d="M33.05,149.26c-1.13.33-3.42-4.12-5.12-9.93s-2.17-10.78-1-11.11,3.42,4.11,5.12,9.92,2.17,10.79,1,11.12" transform="translate(1.01 0)"/><path id="petals-48" data-name="petals" class="cls-9" d="M19.25,102.15c1.13-.33,3.43,4.11,5.13,9.92s2.17,10.79,1,11.12-3.43-4.11-5.13-9.92-2.16-10.79-1-11.12" transform="translate(1.01 0)"/><circle class="cls-10" cx="27.16" cy="125.94" r="8.29"/></g><g id="new_tag" data-name="new tag"><rect class="cls-6" x="51.49" y="142.01" width="14.78" height="10.78" rx="2" transform="translate(37.15 -9.69) rotate(13.54)"/><path class="cls-7" d="M93.93,176.93c.56-2.8-2.75-15.56-10-21.86-6.27-5.47-15.4-6.57-19.27-6.85" transform="translate(1.01 0)"/></g></svg>