<svg xmlns="http://www.w3.org/2000/svg" viewBox="0 0 107.1 178.42"><defs><style>.cls-1{fill:none;stroke:#00b04c;stroke-width:10px;}.cls-1,.cls-2{stroke-miterlimit:10;}.cls-2{fill:#71491a;stroke:#000;stroke-width:3px;}.cls-3{fill:#008639;}</style></defs><g id="stem"><path class="cls-1" d="M47.66,154.26c9.26-11.49,19.39-50.51,9.65-64.4-10.5-15-26.11-16.61-36.87-36.4-11.6-21.33-4.66-38.67,9.5-44.61,16-6.69,22.2-3.11,24.94,2.94" transform="translate(1.48 -0.25)"/><path class="cls-1" d="M60.43,100.66c6.36-6.28,38.81-5.7,38.79-33.35,0-11.84-18.39-18-19.39-13.8" transform="translate(1.48 -0.25)"/><path class="cls-1" d="M29.19,65.31C15.38,58.82,5.49,72.12,5.55,80.73c.08,12.55,15.07,23.94,21.5,22.21" transform="translate(1.48 -0.25)"/></g><g id="dirt"><path class="cls-2" d="M0,178.4c3.18-17.92,15.86-32,32-35.68s29.19,4.59,31.91,6.39a24.63,24.63,0,0,1,13.28-5.37C87.76,143,98.4,150,104.29,161.36" transform="translate(1.48 -0.25)"/></g><g id="buds"><path class="cls-3" d="M53.75,8.87a12.08,12.08,0,0,0-6.09,10.34C47.51,29.62,62.88,39.42,69,36c5.66-3.16,6.16-19.09-2-25.32C64,8.38,58.49,6.41,53.75,8.87Z" transform="translate(1.48 -0.25)"/><path class="cls-3" d="M82.26,50.69a12.07,12.07,0,0,0-11.6-3.07C60.6,50.29,55.32,67.74,60.27,72.72c4.57,4.59,20,.76,23.83-8.8C85.5,60.4,85.91,54.58,82.26,50.69Z" transform="translate(1.48 -0.25)"/><path class="cls-3" d="M15.06,97.61a12.14,12.14,0,0,0,2,11.84c6.61,8,24.68,5.61,27.15-1,2.29-6.06-7.62-18.55-17.88-18C22.56,90.64,17.1,92.68,15.06,97.61Z" transform="translate(1.48 -0.25)"/></g></svg>