<svg xmlns="http://www.w3.org/2000/svg" viewBox="0 0 107.11 197.07"><defs><style>.cls-1,.cls-6{fill:none;}.cls-1{stroke:#00b04c;stroke-width:10px;}.cls-1,.cls-3,.cls-5,.cls-6{stroke-miterlimit:10;}.cls-2{fill:#00b04c;}.cls-3{fill:#71491a;stroke:#54240e;}.cls-3,.cls-5,.cls-6{stroke-width:3px;}.cls-4{fill:#008639;}.cls-5,.cls-6{stroke:#000;}.cls-7{fill:#992f78;}.cls-8{fill:#c04097;}.cls-9{fill:#3f3f3f;}</style></defs><g id="new_back" data-name="new back"><path class="cls-1" d="M48.17,172.66c9.26-11.49,19.39-50.51,9.65-64.4C47.32,93.3,31.71,91.65,21,71.86c-11.6-21.33-4.66-38.67,9.5-44.61,16-6.69,22.2-3.11,24.94,2.94" transform="translate(0.98 0)"/><path class="cls-1" d="M60.94,119.06c6.37-6.28,38.82-5.7,38.79-33.35,0-11.84-18.39-18-19.39-13.8" transform="translate(0.98 0)"/><path class="cls-1" d="M29.7,83.71C15.89,77.22,6,90.52,6.06,99.13c.09,12.55,15.07,23.94,21.5,22.21" transform="translate(0.98 0)"/><path class="cls-2" d="M22.07,65.12l11.23-2.3-9.95,5.62Z" transform="translate(0.98 0)"/><path class="cls-2" d="M39.49,87.47l8.09-8.13L42.39,89.53Z" transform="translate(0.98 0)"/><path class="cls-2" d="M91.46,69.17l7.29-8.85L94.54,71Z" transform="translate(0.98 0)"/><path class="cls-2" d="M75,110.37l-5.34-10.15,8.17,8Z" transform="translate(0.98 0)"/><path class="cls-2" d="M95.44,105.2l5,10.34-7.87-8.3Z" transform="translate(0.98 0)"/><path class="cls-2" d="M12.88,90.72l6.42,9.5-9-7Z" transform="translate(0.98 0)"/><path class="cls-2" d="M12,44.39,3.36,36.84l10.5,4.52Z" transform="translate(0.98 0)"/><path class="cls-2" d="M32.45,29.13,36.91,39.7,29.45,31Z" transform="translate(0.98 0)"/><path class="cls-2" d="M35.45,123.5,24.9,128l8.63-7.49Z" transform="translate(0.98 0)"/><path class="cls-2" d="M65.23,131.16l10.93,3.47-11.43.05Z" transform="translate(0.98 0)"/><path class="cls-3" d="M.51,196.8c3.18-17.92,15.86-32,32-35.68s29.19,4.59,31.91,6.39a24.63,24.63,0,0,1,13.28-5.37c10.58-.76,21.23,6.21,27.11,17.62" transform="translate(0.98 0)"/><path class="cls-4" d="M83.05,65.61c-3.76-4-9.68-4.8-13.91-3.68C57.08,65.14,50.75,86.05,56.68,92c5.48,5.51,24,.91,28.57-10.54C86.93,77.25,87.42,70.27,83.05,65.61Z" transform="translate(0.98 0)"/><rect class="cls-5" x="51.5" y="142" width="14.78" height="10.78" rx="2" transform="translate(37.12 -9.69) rotate(13.54)"/><path class="cls-6" d="M94,176.92c.56-2.8-2.75-15.56-10-21.86-6.27-5.47-15.4-6.57-19.27-6.85" transform="translate(0.98 0)"/></g><g id="flowers"><path class="cls-4" d="M54.24,27.19a12.08,12.08,0,0,0-6.09,10.34C48,47.94,63.38,57.75,69.51,54.33c5.65-3.16,6.15-19.1-2-25.33C64.47,26.71,59,24.74,54.24,27.19Z" transform="translate(0.98 0)"/><ellipse id="petals" class="cls-7" cx="49.8" cy="21.54" rx="3.49" ry="17.97" transform="translate(-2.72 30.59) rotate(-32.99)"/><ellipse id="petals-2" data-name="petals" class="cls-7" cx="74.04" cy="58.89" rx="3.49" ry="17.97" transform="translate(-19.14 49.81) rotate(-32.99)"/><ellipse id="petals-3" data-name="petals" class="cls-7" cx="42.12" cy="30.06" rx="3.49" ry="17.97" transform="translate(-2.86 53.82) rotate(-62.85)"/><ellipse id="petals-4" data-name="petals" class="cls-7" cx="81.73" cy="50.37" rx="3.49" ry="17.97" transform="translate(0.59 100.11) rotate(-62.85)"/><ellipse id="petals-5" data-name="petals" class="cls-7" cx="39.67" cy="40.6" rx="17.97" ry="3.49" transform="translate(0.28 0.7) rotate(-1)"/><ellipse id="petals-6" data-name="petals" class="cls-7" cx="84.18" cy="39.83" rx="17.97" ry="3.49" transform="translate(0.3 1.48) rotate(-1)"/><ellipse id="petals-7" data-name="petals" class="cls-7" cx="42.82" cy="51.63" rx="17.97" ry="3.49" transform="translate(-19.44 29.28) rotate(-30.86)"/><ellipse id="petals-8" data-name="petals" class="cls-7" cx="81.03" cy="28.8" rx="17.97" ry="3.49" transform="translate(-2.31 45.65) rotate(-30.86)"/><ellipse id="petals-9" data-name="petals" class="cls-7" cx="51.28" cy="59.77" rx="17.97" ry="3.49" transform="translate(-24.74 76.24) rotate(-61.45)"/><ellipse id="petals-10" data-name="petals" class="cls-7" cx="72.56" cy="20.66" rx="17.97" ry="3.49" transform="translate(20.71 74.52) rotate(-61.45)"/><ellipse id="petals-11" data-name="petals" class="cls-7" cx="62.43" cy="62.47" rx="3.49" ry="17.97" transform="translate(-0.42 1.44) rotate(-1.31)"/><ellipse id="petals-12" data-name="petals" class="cls-7" cx="61.41" cy="17.96" rx="3.49" ry="17.97" transform="translate(0.59 1.41) rotate(-1.31)"/><ellipse id="petals-13" data-name="petals" class="cls-8" cx="45.38" cy="25.32" rx="3.49" ry="17.97" transform="translate(-2.82 42.1) rotate(-48)"/><ellipse id="petals-14" data-name="petals" class="cls-8" cx="78.47" cy="55.11" rx="3.49" ry="17.97" transform="translate(-14.01 76.55) rotate(-48)"/><ellipse id="petals-15" data-name="petals" class="cls-8" cx="40.16" cy="35.54" rx="3.49" ry="17.97" transform="translate(-2.04 67.33) rotate(-77.86)"/><ellipse id="petals-16" data-name="petals" class="cls-8" cx="83.68" cy="44.9" rx="3.49" ry="17.97" transform="translate(23.18 117.27) rotate(-77.86)"/><ellipse id="petals-17" data-name="petals" class="cls-8" cx="40.53" cy="46.36" rx="17.97" ry="3.49" transform="translate(-10.23 12.98) rotate(-16.02)"/><ellipse id="petals-18" data-name="petals" class="cls-8" cx="83.32" cy="34.07" rx="17.97" ry="3.49" transform="translate(-5.18 24.31) rotate(-16.02)"/><ellipse id="petals-19" data-name="petals" class="cls-8" cx="46.43" cy="56.19" rx="17.97" ry="3.49" transform="matrix(0.7, -0.72, 0.72, 0.7, -25.25, 50.4)"/><ellipse id="petals-20" data-name="petals" class="cls-8" cx="77.42" cy="24.24" rx="17.97" ry="3.49" transform="translate(7.11 62.94) rotate(-45.88)"/><ellipse id="petals-21" data-name="petals" class="cls-8" cx="56.71" cy="61.86" rx="17.97" ry="3.49" transform="translate(-15.72 102.51) rotate(-76.46)"/><ellipse id="petals-22" data-name="petals" class="cls-8" cx="67.13" cy="18.57" rx="17.97" ry="3.49" transform="translate(34.34 79.49) rotate(-76.46)"/><ellipse id="petals-23" data-name="petals" class="cls-8" cx="68.18" cy="61.58" rx="3.49" ry="17.97" transform="translate(-13.57 21.64) rotate(-16.32)"/><ellipse id="petals-24" data-name="petals" class="cls-8" cx="55.67" cy="18.85" rx="3.49" ry="17.97" transform="translate(-2.07 16.41) rotate(-16.32)"/><ellipse id="petals-25" data-name="petals" class="cls-7" cx="18.76" cy="114.31" rx="2.13" ry="10.96" transform="translate(-58.23 28.64) rotate(-32.99)"/><path id="petals-26" data-name="petals" class="cls-7" d="M39.52,146.29c-1,.64-4.46-3-7.76-8s-5.17-9.71-4.18-10.35,4.46,3,7.75,8,5.17,9.72,4.19,10.36" transform="translate(0.98 0)"/><ellipse id="petals-27" data-name="petals" class="cls-7" cx="14.07" cy="119.5" rx="2.13" ry="10.96" transform="translate(-97.7 77.49) rotate(-62.85)"/><ellipse id="petals-28" data-name="petals" class="cls-7" cx="38.24" cy="131.9" rx="2.13" ry="10.96" transform="translate(-95.59 105.73) rotate(-62.85)"/><path id="petals-29" data-name="petals" class="cls-7" d="M1.61,126.13c0-1.18,4.87-2.21,10.93-2.32s11,.76,11,1.94-4.87,2.21-10.92,2.32-11-.76-11-1.94" transform="translate(0.98 0)"/><ellipse id="petals-30" data-name="petals" class="cls-7" cx="39.73" cy="125.46" rx="10.96" ry="2.13" transform="translate(-1.2 0.71) rotate(-1)"/><ellipse id="petals-31" data-name="petals" class="cls-7" cx="14.49" cy="132.67" rx="10.96" ry="2.13" transform="matrix(0.86, -0.51, 0.51, 0.86, -65.02, 26.22)"/><ellipse id="petals-32" data-name="petals" class="cls-7" cx="37.81" cy="118.73" rx="10.96" ry="2.13" transform="translate(-54.57 36.21) rotate(-30.86)"/><path id="petals-33" data-name="petals" class="cls-7" d="M14.42,147.26c-1-.56.48-5.33,3.37-10.65s6.08-9.17,7.11-8.61-.47,5.33-3.37,10.65-6.08,9.17-7.11,8.61" transform="translate(0.98 0)"/><ellipse id="petals-34" data-name="petals" class="cls-7" cx="32.64" cy="113.77" rx="10.96" ry="2.13" transform="translate(-81.91 88.06) rotate(-61.45)"/><path id="petals-35" data-name="petals" class="cls-7" d="M26.71,150.24c-1.17,0-2.24-4.86-2.38-10.91s.71-11,1.88-11,2.24,4.86,2.38,10.91-.7,11-1.88,11" transform="translate(0.98 0)"/><path id="petals-36" data-name="petals" class="cls-7" d="M25.59,101.16c1.18,0,2.24,4.86,2.38,10.92s-.7,11-1.88,11-2.24-4.85-2.38-10.91.71-11,1.88-11" transform="translate(0.98 0)"/><ellipse id="petals-37" data-name="petals" class="cls-8" cx="16.06" cy="116.61" rx="2.13" ry="10.96" transform="translate(-80.37 50.52) rotate(-48)"/><ellipse id="petals-38" data-name="petals" class="cls-8" cx="36.25" cy="134.79" rx="2.13" ry="10.96" transform="translate(-87.19 71.54) rotate(-48)"/><ellipse id="petals-39" data-name="petals" class="cls-8" cx="12.87" cy="122.85" rx="2.13" ry="10.96" transform="translate(-108.95 109.61) rotate(-77.86)"/><ellipse id="petals-40" data-name="petals" class="cls-8" cx="39.43" cy="128.56" rx="2.13" ry="10.96" transform="translate(-93.56 140.08) rotate(-77.86)"/><ellipse id="petals-41" data-name="petals" class="cls-8" cx="13.1" cy="129.45" rx="10.96" ry="2.13" transform="translate(-34.23 8.64) rotate(-16.02)"/><ellipse id="petals-42" data-name="petals" class="cls-8" cx="39.21" cy="121.95" rx="10.96" ry="2.13" transform="translate(-31.15 15.55) rotate(-16.02)"/><ellipse id="petals-43" data-name="petals" class="cls-8" cx="16.7" cy="135.45" rx="10.96" ry="2.13" transform="translate(-91.18 53.14) rotate(-45.88)"/><ellipse id="petals-44" data-name="petals" class="cls-8" cx="35.61" cy="115.95" rx="10.96" ry="2.13" transform="translate(-71.44 60.79) rotate(-45.88)"/><path id="petals-45" data-name="petals" class="cls-8" d="M20.41,149.56c-1.15-.27-.92-5.27.49-11.15s3.5-10.44,4.64-10.16.92,5.27-.5,11.15-3.49,10.44-4.63,10.16" transform="translate(0.98 0)"/><path id="petals-46" data-name="petals" class="cls-8" d="M31.9,101.84c1.14.28.92,5.27-.5,11.16s-3.49,10.43-4.63,10.16-.93-5.27.49-11.16,3.49-10.44,4.64-10.16" transform="translate(0.98 0)"/><path id="petals-47" data-name="petals" class="cls-8" d="M33.05,149.26c-1.13.33-3.42-4.12-5.12-9.93s-2.17-10.78-1-11.11,3.42,4.11,5.12,9.92,2.17,10.79,1,11.12" transform="translate(0.98 0)"/><path id="petals-48" data-name="petals" class="cls-8" d="M19.25,102.15c1.13-.33,3.43,4.11,5.13,9.92s2.17,10.79,1,11.12-3.43-4.11-5.13-9.92-2.16-10.79-1-11.12" transform="translate(0.98 0)"/></g><g id="centers"><circle class="cls-9" cx="62.77" cy="40.19" r="9.98"/><circle class="cls-9" cx="27.02" cy="125.46" r="5.99"/></g><g id="dirt"><path class="cls-3" d="M.49,196.73c3.18-17.93,15.87-32,32-35.68s29.2,4.58,31.91,6.38a24.66,24.66,0,0,1,13.28-5.36c10.58-.76,21.23,6.2,27.11,17.62" transform="translate(0.98 0)"/></g><g id="new_tag" data-name="new tag"><rect class="cls-5" x="51.49" y="142.01" width="14.78" height="10.78" rx="2" transform="translate(37.12 -9.69) rotate(13.54)"/><path class="cls-6" d="M93.93,176.93c.56-2.8-2.75-15.56-10-21.86-6.27-5.47-15.4-6.57-19.27-6.85" transform="translate(0.98 0)"/></g></svg>