<svg xmlns="http://www.w3.org/2000/svg" viewBox="0 0 107.1 178.42"><defs><style>.cls-1,.cls-2,.cls-5,.cls-7{fill:none;}.cls-1,.cls-5{stroke:#00b04c;}.cls-1,.cls-2,.cls-3,.cls-5,.cls-6,.cls-7{stroke-miterlimit:10;}.cls-1{stroke-width:10px;}.cls-2{stroke:#008639;}.cls-2,.cls-3,.cls-5,.cls-6,.cls-7{stroke-width:3px;}.cls-3{fill:#71491a;stroke:#54240e;}.cls-4{fill:#008639;}.cls-6,.cls-7{stroke:#000;}</style></defs><g id="stem"><path class="cls-1" d="M47.66,154.26c9.26-11.49,19.39-50.51,9.65-64.4-10.5-15-26.11-16.61-36.87-36.4-11.6-21.33-4.66-38.67,9.5-44.61,16-6.69,22.2-3.11,24.94,2.94" transform="translate(1.48 -0.25)"/><path class="cls-1" d="M60.43,100.66c6.36-6.28,38.81-5.7,38.79-33.35,0-11.84-18.39-18-19.39-13.8" transform="translate(1.48 -0.25)"/><path class="cls-1" d="M29.19,65.31C15.38,58.82,5.49,72.12,5.55,80.73c.08,12.55,15.07,23.94,21.5,22.21" transform="translate(1.48 -0.25)"/></g><g id="stem_stripes" data-name="stem stripes"><path class="cls-2" d="M50.28,138l9.54,2.72" transform="translate(1.48 -0.25)"/><path class="cls-2" d="M55.05,118l10.21,1.36" transform="translate(1.48 -0.25)"/><path class="cls-2" d="M56.07,110l10.21.34" transform="translate(1.48 -0.25)"/><path class="cls-2" d="M56.07,101l10,2" transform="translate(1.48 -0.25)"/><path class="cls-2" d="M67.13,92.51l4.6,8" transform="translate(1.48 -0.25)"/><path class="cls-2" d="M54.2,93.53l9.19-4.08" transform="translate(1.48 -0.25)"/><path class="cls-2" d="M49.77,87.74,57.6,82" transform="translate(1.48 -0.25)"/><path class="cls-2" d="M43.82,83.15l7-6.81" transform="translate(1.48 -0.25)"/><path class="cls-2" d="M38.88,78.55l6.3-6.64" transform="translate(1.48 -0.25)"/><path class="cls-2" d="M32.75,74.13l6.3-6.64" transform="translate(1.48 -0.25)"/><path class="cls-2" d="M27.31,70l5.61-7.49" transform="translate(1.48 -0.25)"/><path class="cls-2" d="M26.28,54Q24.17,60.94,22,67.83" transform="translate(1.48 -0.25)"/><path class="cls-2" d="M14,60.43c.79,2.61,2.08,6.85,2.88,9.46" transform="translate(1.48 -0.25)"/><path class="cls-2" d="M6.26,66.59l6.47,7.66" transform="translate(1.48 -0.25)"/><path class="cls-2" d="M1.43,75.32l9,4" transform="translate(1.48 -0.25)"/><path class="cls-2" d="M1.09,84.89l10.09-1.15" transform="translate(1.48 -0.25)"/><path class="cls-2" d="M13.09,88.21,4.41,92.43" transform="translate(1.48 -0.25)"/><path class="cls-2" d="M15.41,91.49,8.75,99.58" transform="translate(1.48 -0.25)"/><path class="cls-2" d="M19.35,95.11l-2.68,9.32" transform="translate(1.48 -0.25)"/><path class="cls-2" d="M22.79,47.11,16,54.89" transform="translate(1.48 -0.25)"/><path class="cls-2" d="M11.18,44.17l9.32-4.26" transform="translate(1.48 -0.25)"/><path class="cls-2" d="M19.41,33.62l-9.64.59" transform="translate(1.48 -0.25)"/><path class="cls-2" d="M10.41,23.62l9.7,3.06" transform="translate(1.48 -0.25)"/><path class="cls-2" d="M15.13,14.43l7.41,6.25" transform="translate(1.48 -0.25)"/><path class="cls-2" d="M22.28,7q2.31,4.67,4.6,9.32" transform="translate(1.48 -0.25)"/><path class="cls-2" d="M29.82,3.7Q31.53,8,33.26,12.26" transform="translate(1.48 -0.25)"/><path class="cls-2" d="M37.73,1l2.68,9.7" transform="translate(1.48 -0.25)"/><path class="cls-2" d="M47.82.89,46.41,10" transform="translate(1.48 -0.25)"/><path class="cls-2" d="M49.48,11.11,56,4.6" transform="translate(1.48 -0.25)"/><path class="cls-2" d="M75.13,89.62q2.31,4.14,4.6,8.29" transform="translate(1.48 -0.25)"/><path class="cls-2" d="M81.52,87.19,88.67,94" transform="translate(1.48 -0.25)"/><path class="cls-2" d="M95.94,88l-8-5.36" transform="translate(1.48 -0.25)"/><path class="cls-2" d="M92,76.85l9.44,2.68" transform="translate(1.48 -0.25)"/><path class="cls-2" d="M94.41,69.32l9.88.25" transform="translate(1.48 -0.25)"/><path class="cls-2" d="M93.9,65l8.68-5" transform="translate(1.48 -0.25)"/><path class="cls-2" d="M90.58,60.94q2.69-4.45,5.36-8.9" transform="translate(1.48 -0.25)"/><path class="cls-2" d="M87.64,58.6q-1.06-5.74-2.14-11.49" transform="translate(1.48 -0.25)"/></g><g id="dirt"><path class="cls-3" d="M0,178.4c3.18-17.92,15.86-32,32-35.68s29.19,4.59,31.91,6.39a24.63,24.63,0,0,1,13.28-5.37C87.76,143,98.4,150,104.29,161.36" transform="translate(1.48 -0.25)"/></g><g id="newest_buds" data-name="newest buds"><path class="cls-4" d="M55.47,10.46c3-1.06,9-3.12,14.1-.39,8.71,4.66,10,20.63,5.2,24-1.89,1.31-4.71.62-6.89-.24,0,.2.37,3.1-1.64,4.78S61,40,58.78,37.78c-.42,1.28-1.18,3-2.56,3.32-4.56,1.13-16-12.59-12.08-22.18C46.32,13.63,52.39,11.52,55.47,10.46Z" transform="translate(1.48 -0.25)"/><path class="cls-4" d="M83.12,54.83c1.55,2.1,4.61,6.24,3.73,10.88-1.51,7.91-13.61,12.79-17.36,9.87C68,74.42,67.86,72.06,68,70.16a4.16,4.16,0,0,1-5.33-6.11c-1.1,0-2.6-.2-3.2-1.18-2-3.28,5.89-15.52,14.31-14.79C78.42,48.48,81.54,52.7,83.12,54.83Z" transform="translate(1.48 -0.25)"/><path class="cls-4" d="M23.08,104.56c.9,2.45,2.67,7.28,7,9.09,7.43,3.1,18.17-4.33,17.79-9.07-.14-1.87-2-3.29-3.7-4.22A4.16,4.16,0,0,0,42,92.55c.59-.92,1.27-2.28.77-3.33C41.16,85.76,26.6,85.61,22.58,93,20.36,97.14,22.16,102.06,23.08,104.56Z" transform="translate(1.48 -0.25)"/></g><g id="bud_stripes" data-name="bud stripes"><path class="cls-5" d="M53.89,11a17.31,17.31,0,0,0-4.8,9.66c-.86,6.79,2.81,13.78,9.35,18" transform="translate(1.48 -0.25)"/><path class="cls-5" d="M55,10.62c1.74,4.26,3.67,8.69,5.83,13.25s4.39,9,6.6,13.06" transform="translate(1.48 -0.25)"/><path class="cls-5" d="M74.77,34A23,23,0,0,0,72.58,22C68,12.53,58.34,9.86,56.75,9.45" transform="translate(1.48 -0.25)"/><path class="cls-5" d="M60.84,63.06c.14-.6,1.79-7.33,8.51-10,7.2-2.9,13.42,1.56,13.77,1.81" transform="translate(1.48 -0.25)"/><path class="cls-5" d="M63.14,69.4q5-3.65,10.46-7.36,5.13-3.45,10.06-6.47" transform="translate(1.48 -0.25)"/><path class="cls-5" d="M68.84,74.89a17.12,17.12,0,0,0,15.74-18" transform="translate(1.48 -0.25)"/><path class="cls-5" d="M21.82,100.33c1.41,2.22,5-9,13.66-8.67a15.94,15.94,0,0,1,10.89,5.19" transform="translate(1.48 -0.25)"/><path class="cls-5" d="M22.37,102.5a59.1,59.1,0,0,1,16.85-2.16c2,0,3.82.17,5.57.37" transform="translate(1.48 -0.25)"/><path class="cls-5" d="M23.08,104.56a21,21,0,0,0,13.42,4c6.5-.46,10.39-2.91,11.4-3.93" transform="translate(1.48 -0.25)"/></g><g id="TEMP"><rect class="cls-6" x="50.99" y="123.6" width="14.78" height="10.78" rx="2" transform="translate(33.29 -10.33) rotate(13.54)"/><path class="cls-7" d="M93.44,158.52c.56-2.8-2.75-15.56-10-21.86-6.27-5.47-15.41-6.57-19.27-6.85" transform="translate(1.48 -0.25)"/></g></svg>