<?xml version="1.0" encoding="utf-8"?>
<!-- Generator: Adobe Illustrator 25.0.1, SVG Export Plug-In . SVG Version: 6.00 Build 0)  -->
<svg version="1.1" id="Layer_1" xmlns="http://www.w3.org/2000/svg" xmlns:xlink="http://www.w3.org/1999/xlink" x="0px" y="0px"
	 viewBox="0 0 107.1 178.4" style="enable-background:new 0 0 107.1 178.4;" xml:space="preserve">
<style type="text/css">
	.st0{fill:none;stroke:#008639;stroke-width:5;stroke-miterlimit:10;}
	.st1{fill:none;stroke:#00B04C;stroke-width:10;stroke-miterlimit:10;}
	.st2{fill:#008639;}
	.st3{fill:#71491A;}
	.st4{fill:none;stroke:#54240E;stroke-width:3;stroke-miterlimit:10;}
	.st5{fill:#00B04C;}
	.st6{fill:none;stroke:#000000;stroke-width:3;stroke-miterlimit:10;}
</style>
<g>
	<path class="st0" d="M23,56.7c0-0.8,0-12.8,4.6-17.4c4-4,12.4-1.9,14.3,2.4c0.9,2.4,0.4,5.2-1.4,7.1c-2.1,2.4-6.3,3.3-7.7,1.7
		s0.4-4.8,0.5-5.1"/>
	<path class="st0" d="M21,15.8c1.1-3.3,0.2-7-2.3-9.5c-3.2-2.9-8.6-2.8-11.3,0.3c-2,2.4-2.9,6.9-0.8,8.5c1.4,1.1,3.9,0.7,6.2-0.9"/>
	<path class="st0" d="M79,93.7c0.6-0.2,7.6-2.3,13.3,2.3c2.9,2.4,4.8,5.9,5.1,9.7c0.3,3.9-0.9,7.7-3.4,10.7
		c-2.5,2.9-7.8,6.3-12.9,4.4c-3.2-1.2-6.7-4.6-6.5-8.7c0.1-2.3,1.5-6,4.9-6.6c3-0.4,5.9,1.3,7,4.1"/>
	<path class="st1" d="M49.1,154c9.3-11.5,19.4-50.5,9.6-64.4C48.3,74.6,32.7,73,21.9,53.2c-11.6-21.3-4.7-38.7,9.5-44.6
		c16-6.7,22.2-3.1,24.9,2.9"/>
	<path class="st1" d="M61.9,100.4c6.4-6.3,38.8-5.7,38.8-33.4c0-11.8-18.4-18-19.4-13.8"/>
	<path class="st1" d="M30.7,65.1C16.9,58.6,7,71.9,7,80.5c0.1,12.6,15.1,23.9,21.5,22.2"/>
	<path class="st2" d="M52.7,4.1c1.8,0,3.3,1.5,3.3,3.3c0,1.8-1.5,3.3-3.3,3.3c-1.8,0-3.3-1.5-3.3-3.3C49.4,5.6,50.9,4.1,52.7,4.1z"
		/>
	<circle class="st2" cx="45.6" cy="4.1" r="3.3"/>
	<circle class="st2" cx="38.1" cy="7.4" r="3.3"/>
	<circle class="st2" cx="29.4" cy="8.5" r="3.3"/>
	<path class="st2" d="M24.1,11.7c1.8,0,3.3,1.5,3.3,3.3c0,1.8-1.5,3.3-3.3,3.3c-1.8,0-3.3-1.5-3.3-3.3
		C20.9,13.2,22.3,11.7,24.1,11.7z"/>
	<circle class="st2" cx="17.6" cy="20.1" r="3.3"/>
	<circle class="st2" cx="17.6" cy="28.9" r="3.3"/>
	<circle class="st2" cx="15.5" cy="37.2" r="3.3"/>
	<circle class="st2" cx="19.3" cy="44.5" r="3.3"/>
	<circle class="st2" cx="20.9" cy="52.9" r="3.3"/>
	<path class="st2" d="M26.3,56.2c1.8,0,3.3,1.5,3.3,3.3s-1.5,3.3-3.3,3.3c-1.8,0-3.3-1.5-3.3-3.3S24.5,56.2,26.3,56.2z"/>
	<circle class="st2" cx="19.7" cy="64.2" r="3.3"/>
	<circle class="st2" cx="12.2" cy="67.4" r="3.3"/>
	<circle class="st2" cx="8.9" cy="75.4" r="3.3"/>
	<circle class="st2" cx="7" cy="83.1" r="3.3"/>
	<path class="st2" d="M11.1,86.7c1.8,0,3.3,1.5,3.3,3.3c0,1.8-1.5,3.3-3.3,3.3c-1.8,0-3.3-1.5-3.3-3.3C7.8,88.1,9.3,86.7,11.1,86.7z
		"/>
	<path class="st2" d="M14.6,94.3c1.8,0,3.3,1.5,3.3,3.3s-1.5,3.3-3.3,3.3s-3.3-1.5-3.3-3.3S12.8,94.3,14.6,94.3z"/>
	<path class="st2" d="M22.1,97.6c1.8,0,3.3,1.5,3.3,3.3c0,1.8-1.5,3.3-3.3,3.3c-1.8,0-3.3-1.5-3.3-3.3
		C18.8,99.1,20.3,97.6,22.1,97.6z"/>
	<circle class="st2" cx="31.5" cy="66.6" r="3.3"/>
	<path class="st2" d="M38.7,67.4c1.8,0,3.3,1.5,3.3,3.3c0,1.8-1.5,3.3-3.3,3.3c-1.8,0-3.3-1.5-3.3-3.3
		C35.5,68.9,36.9,67.4,38.7,67.4z"/>
	<circle class="st2" cx="43.9" cy="76.9" r="3.3"/>
	<path class="st2" d="M51.5,76.9c1.8,0,3.3,1.5,3.3,3.3c0,1.8-1.5,3.3-3.3,3.3c-1.8,0-3.3-1.5-3.3-3.3
		C48.2,78.4,49.7,76.9,51.5,76.9z"/>
	<path class="st2" d="M55.7,83.4c1.8,0,3.3,1.5,3.3,3.3c0,1.8-1.5,3.3-3.3,3.3c-1.8,0-3.3-1.5-3.3-3.3
		C52.4,84.9,53.8,83.4,55.7,83.4z"/>
	<path class="st2" d="M61.3,89.6c1.8,0,3.3,1.5,3.3,3.3c0,1.8-1.5,3.3-3.3,3.3S58,94.7,58,92.9C58,91.1,59.5,89.6,61.3,89.6z"/>
	<path class="st2" d="M62.8,97.6c1.8,0,3.3,1.5,3.3,3.3c0,1.8-1.5,3.3-3.3,3.3s-3.3-1.5-3.3-3.3C59.5,99.1,60.9,97.6,62.8,97.6z"/>
	<path class="st2" d="M69.5,92.9c1.8,0,3.3,1.5,3.3,3.3s-1.5,3.3-3.3,3.3c-1.8,0-3.3-1.5-3.3-3.3S67.7,92.9,69.5,92.9z"/>
	<path class="st2" d="M61.9,105.1c1.8,0,3.3,1.5,3.3,3.3c0,1.8-1.5,3.3-3.3,3.3s-3.3-1.5-3.3-3.3C58.6,106.6,60.1,105.1,61.9,105.1z
		"/>
	<path class="st2" d="M63.5,112.7c1.8,0,3.3,1.5,3.3,3.3c0,1.8-1.5,3.3-3.3,3.3c-1.8,0-3.3-1.5-3.3-3.3
		C60.2,114.2,61.7,112.7,63.5,112.7z"/>
	<path class="st2" d="M60.2,119.6c1.8,0,3.3,1.5,3.3,3.3s-1.5,3.3-3.3,3.3c-1.8,0-3.3-1.5-3.3-3.3S58.4,119.6,60.2,119.6z"/>
	<path class="st2" d="M58,134.7c1.8,0,3.3,1.5,3.3,3.3c0,1.8-1.5,3.3-3.3,3.3c-1.8,0-3.3-1.5-3.3-3.3
		C54.8,136.2,56.2,134.7,58,134.7z"/>
	<path class="st2" d="M77.8,89.6c1.8,0,3.3,1.5,3.3,3.3c0,1.8-1.5,3.3-3.3,3.3s-3.3-1.5-3.3-3.3C74.6,91.1,76,89.6,77.8,89.6z"/>
	<path class="st2" d="M85.6,88.5c1.8,0,3.3,1.5,3.3,3.3c0,1.8-1.5,3.3-3.3,3.3s-3.3-1.5-3.3-3.3C82.4,90,83.8,88.5,85.6,88.5z"/>
	<circle class="st2" cx="91.8" cy="85.7" r="3.3"/>
	<path class="st2" d="M98.7,77.5c1.8,0,3.3,1.5,3.3,3.3s-1.5,3.3-3.3,3.3c-1.8,0-3.3-1.5-3.3-3.3S96.8,77.5,98.7,77.5z"/>
	<path class="st2" d="M99.5,69.6c1.8,0,3.3,1.5,3.3,3.3c0,1.8-1.5,3.3-3.3,3.3c-1.8,0-3.3-1.5-3.3-3.3
		C96.2,71.1,97.7,69.6,99.5,69.6z"/>
	<path class="st2" d="M101.9,61.8c1.8,0,3.3,1.5,3.3,3.3c0,1.8-1.5,3.3-3.3,3.3s-3.3-1.5-3.3-3.3C98.7,63.3,100.1,61.8,101.9,61.8z"
		/>
	<path class="st2" d="M96.2,55.3c1.8,0,3.3,1.5,3.3,3.3c0,1.8-1.5,3.3-3.3,3.3c-1.8,0-3.3-1.5-3.3-3.3C93,56.8,94.4,55.3,96.2,55.3z
		"/>
	<path class="st2" d="M90.1,49.6c1.8,0,3.3,1.5,3.3,3.3c0,1.8-1.5,3.3-3.3,3.3c-1.8,0-3.3-1.5-3.3-3.3
		C86.8,51.1,88.3,49.6,90.1,49.6z"/>
	<path class="st3" d="M1.5,178.2c3.2-17.9,15.9-32,32-35.7c16.1-3.7,29.2,4.6,31.9,6.4c3.8-3.1,8.4-4.9,13.3-5.4
		c10.6-0.7,21.2,6.3,27.1,17.6"/>
	<path class="st4" d="M1.5,178.2c3.2-17.9,15.9-32,32-35.7c16.1-3.7,29.2,4.6,31.9,6.4c3.8-3.1,8.4-4.9,13.3-5.4
		c10.6-0.7,21.2,6.3,27.1,17.6"/>
	<path class="st2" d="M57,10.2c3-1.1,9-3.1,14.1-0.4c8.7,4.7,10,20.6,5.2,24c-1.9,1.3-4.7,0.6-6.9-0.2c0,0.2,0.4,3.1-1.6,4.8
		c-2,1.7-5.2,1.4-7.5-0.8c-0.4,1.3-1.2,3-2.6,3.3c-4.6,1.1-16-12.6-12.1-22.2C47.8,13.4,53.9,11.3,57,10.2z"/>
	<path class="st2" d="M84.6,54.6c1.6,2.1,4.6,6.2,3.7,10.9c-1.5,7.9-13.6,12.8-17.4,9.9c-1.5-1.2-1.6-3.5-1.5-5.4
		c-2,1.1-4.5,0.3-5.6-1.7c-0.8-1.4-0.6-3.1,0.3-4.4c-1.1,0-2.6-0.2-3.2-1.2c-2-3.3,5.9-15.5,14.3-14.8C79.9,48.2,83,52.5,84.6,54.6z
		"/>
	<path class="st2" d="M24.6,104.3c0.9,2.5,2.7,7.3,7,9.1c7.4,3.1,18.2-4.3,17.8-9.1c-0.1-1.9-2-3.3-3.7-4.2c2-1.1,2.8-3.6,1.7-5.6
		c-0.8-1.4-2.2-2.2-3.8-2.2c0.6-0.9,1.3-2.3,0.8-3.3c-1.6-3.5-16.2-3.6-20.2,3.8C21.8,96.9,23.6,101.8,24.6,104.3z"/>
	<path class="st5" d="M79,61.9c3,0,5.5,2.5,5.5,5.5c0,3-2.5,5.5-5.5,5.5s-5.5-2.5-5.5-5.5C73.5,64.4,76,61.9,79,61.9z"/>
	<path class="st5" d="M73.8,49.6c3,0,5.5,2.5,5.5,5.5c0,3-2.5,5.5-5.5,5.5s-5.5-2.5-5.5-5.5C68.3,52.1,70.7,49.6,73.8,49.6z"/>
	<path class="st5" d="M52.4,15.8c3,0,5.5,2.5,5.5,5.5c0,3-2.5,5.5-5.5,5.5s-5.5-2.5-5.5-5.5C46.9,18.2,49.3,15.8,52.4,15.8z"/>
	<path class="st5" d="M65.7,10.2c3,0,5.5,2.5,5.5,5.5s-2.5,5.5-5.5,5.5c-3,0-5.5-2.5-5.5-5.5S62.6,10.2,65.7,10.2z"/>
	<path class="st5" d="M64.2,24.5c3,0,5.5,2.5,5.5,5.5s-2.5,5.5-5.5,5.5S58.7,33,58.7,30S61.2,24.5,64.2,24.5z"/>
	<path class="st5" d="M39.4,93.9c3,0,5.5,2.5,5.5,5.5c0,3-2.5,5.5-5.5,5.5c-3,0-5.5-2.5-5.5-5.5C33.9,96.4,36.4,93.9,39.4,93.9z"/>
	<path class="st5" d="M73.8,22.4c1.8,0,3.3,1.5,3.3,3.3c0,1.8-1.5,3.3-3.3,3.3c-1.8,0-3.3-1.5-3.3-3.3C70.5,23.9,72,22.4,73.8,22.4z
		"/>
	<path class="st5" d="M53.6,28.9c1.8,0,3.3,1.5,3.3,3.3s-1.5,3.3-3.3,3.3c-1.8,0-3.3-1.5-3.3-3.3S51.8,28.9,53.6,28.9z"/>
	<path class="st5" d="M68.5,61.5c1.8,0,3.3,1.5,3.3,3.3s-1.5,3.3-3.3,3.3c-1.8,0-3.3-1.5-3.3-3.3S66.7,61.5,68.5,61.5z"/>
	<path class="st5" d="M30.7,89.8c1.8,0,3.3,1.5,3.3,3.3c0,1.8-1.5,3.3-3.3,3.3c-1.8,0-3.3-1.5-3.3-3.3
		C27.4,91.3,28.9,89.8,30.7,89.8z"/>
	<path class="st5" d="M33.9,105.1c1.8,0,3.3,1.5,3.3,3.3c0,1.8-1.5,3.3-3.3,3.3c-1.8,0-3.3-1.5-3.3-3.3
		C30.7,106.6,32.1,105.1,33.9,105.1z"/>
	<path d="M55.9,122.2l10.5,2.5c1.1,0.3,1.7,1.3,1.5,2.4l-1.6,6.6c-0.3,1.1-1.3,1.7-2.4,1.5l-10.5-2.5c-1.1-0.3-1.7-1.3-1.5-2.4
		l1.6-6.6C53.7,122.6,54.8,122,55.9,122.2z"/>
	<path class="st6" d="M55.9,122.2l10.5,2.5c1.1,0.3,1.7,1.3,1.5,2.4l-1.6,6.6c-0.3,1.1-1.3,1.7-2.4,1.5l-10.5-2.5
		c-1.1-0.3-1.7-1.3-1.5-2.4l1.6-6.6C53.7,122.6,54.8,122,55.9,122.2z"/>
	<path class="st6" d="M94.9,158.3c0.6-2.8-2.8-15.6-10-21.9c-6.3-5.5-15.4-6.6-19.3-6.9"/>
</g>
</svg>
