<?xml version="1.0" encoding="utf-8"?>
<!-- Generator: Adobe Illustrator 25.0.1, SVG Export Plug-In . SVG Version: 6.00 Build 0)  -->
<svg version="1.1" id="Layer_1" xmlns="http://www.w3.org/2000/svg" xmlns:xlink="http://www.w3.org/1999/xlink" x="0px" y="0px"
	 viewBox="0 0 107.1 178.4" style="enable-background:new 0 0 107.1 178.4;" xml:space="preserve">
<style type="text/css">
	.st0{fill:#008639;}
	.st1{fill:none;stroke:#00B04C;stroke-width:10;stroke-miterlimit:10;}
	.st2{fill:#71491A;}
	.st3{fill:none;stroke:#54240E;stroke-width:3;stroke-miterlimit:10;}
	.st4{fill:none;stroke:#000000;stroke-width:3;stroke-miterlimit:10;}
</style>
<g>
	<polyline class="st0" points="36.7,10.9 26.7,15.6 37.6,26.2 	"/>
	<path class="st0" d="M13.6,22.6c1.6-3.3,3.2-6.6,4.8-9.9L3.3,11.2"/>
	<path class="st0" d="M19.3,29.4c0.5,3.6,1,7.3,1.5,10.9l13.4-7.2"/>
	<path class="st0" d="M18.5,56.9c-1.4-3.4-2.8-6.8-4.3-10.2l-11,10.4"/>
	<polyline class="st0" points="20.3,65.8 11.3,72.3 24,80.8 	"/>
	<path class="st0" d="M43.6,77.4L34,72c-0.8,5-1.6,10-2.4,15"/>
	<path class="st0" d="M27.9,54.8c2.2,2.9,4.5,5.9,6.7,8.8l8.1-12.8"/>
	<polyline class="st0" points="71.4,92.2 81.7,88.3 71.7,76.9 	"/>
	<polyline class="st0" points="98.9,85.7 90.2,92.3 103,100.4 	"/>
	<path class="st0" d="M89,48.2l9.8,5.1c0.6-5,1.2-10,1.8-15.1"/>
	<path class="st0" d="M67.7,107.3c-0.3,3.7-0.5,7.3-0.8,11l14.5-4.3"/>
	<path class="st1" d="M49.1,154c9.3-11.5,19.4-50.5,9.6-64.4C48.3,74.6,32.7,73,21.9,53.2c-11.6-21.3-4.7-38.7,9.5-44.6
		c16-6.7,22.2-3.1,24.9,2.9"/>
	<path class="st1" d="M61.9,100.4c6.4-6.3,38.8-5.7,38.8-33.4c0-11.8-18.4-18-19.4-13.8"/>
	<path class="st1" d="M30.7,65.1C16.9,58.6,7,71.9,7,80.5c0.1,12.6,15.1,23.9,21.5,22.2"/>
	<path class="st2" d="M1.5,178.2c3.2-17.9,15.9-32,32-35.7c16.1-3.7,29.2,4.6,31.9,6.4c3.8-3.1,8.4-4.9,13.3-5.4
		c10.6-0.7,21.2,6.3,27.1,17.6"/>
	<path class="st3" d="M1.5,178.2c3.2-17.9,15.9-32,32-35.7c16.1-3.7,29.2,4.6,31.9,6.4c3.8-3.1,8.4-4.9,13.3-5.4
		c10.6-0.7,21.2,6.3,27.1,17.6"/>
	<path class="st0" d="M50.9,4.6c-4.9,2.5-7.2,8-7.3,12.4c-0.1,12.5,18.3,24.2,25.6,20.1c6.8-3.8,7.4-22.9-2.4-30.4
		C63.2,4,56.6,1.6,50.9,4.6z"/>
	<path class="st0" d="M84,47c-3.8-4-9.7-4.8-13.9-3.7C58,46.5,51.7,67.4,57.7,73.4c5.5,5.5,24,0.9,28.6-10.6
		C87.9,58.6,88.4,51.6,84,47z"/>
	<path class="st0" d="M15.8,98c-2.1,5.1-0.4,10.8,2.4,14.2c7.9,9.7,29.6,6.7,32.5-1.1c2.8-7.3-9.1-22.3-21.4-21.6
		C24.8,89.6,18.2,92.1,15.8,98z"/>
	<path d="M55.9,122.2l10.5,2.5c1.1,0.3,1.7,1.3,1.5,2.4l-1.6,6.6c-0.3,1.1-1.3,1.7-2.4,1.5l-10.5-2.5c-1.1-0.3-1.7-1.3-1.5-2.4
		l1.6-6.6C53.7,122.6,54.8,122,55.9,122.2z"/>
	<path class="st4" d="M55.9,122.2l10.5,2.5c1.1,0.3,1.7,1.3,1.5,2.4l-1.6,6.6c-0.3,1.1-1.3,1.7-2.4,1.5l-10.5-2.5
		c-1.1-0.3-1.7-1.3-1.5-2.4l1.6-6.6C53.7,122.6,54.8,122,55.9,122.2z"/>
	<path class="st4" d="M94.9,158.3c0.6-2.8-2.8-15.6-10-21.9c-6.3-5.5-15.4-6.6-19.3-6.9"/>
</g>
</svg>
