<?xml version="1.0" encoding="utf-8"?>
<!-- Generator: Adobe Illustrator 25.0.1, SVG Export Plug-In . SVG Version: 6.00 Build 0)  -->
<svg version="1.1" id="Layer_1" xmlns="http://www.w3.org/2000/svg" xmlns:xlink="http://www.w3.org/1999/xlink" x="0px" y="0px"
	 viewBox="0 0 107.1 178.4" style="enable-background:new 0 0 107.1 178.4;" xml:space="preserve">
<style type="text/css">
	.st0{fill:none;stroke:#00B04C;stroke-width:10;stroke-miterlimit:10;}
	.st1{fill:none;stroke:#008639;stroke-width:3;stroke-miterlimit:10;}
	.st2{fill:#71491A;}
	.st3{fill:none;stroke:#54240E;stroke-width:3;stroke-miterlimit:10;}
	.st4{fill:#008639;}
	.st5{fill:none;stroke:#00B04C;stroke-width:3;stroke-miterlimit:10;}
	.st6{fill:none;stroke:#000000;stroke-width:3;stroke-miterlimit:10;}
</style>
<g>
	<path class="st0" d="M49.1,154c9.3-11.5,19.4-50.5,9.6-64.4C48.3,74.6,32.7,73,21.9,53.2c-11.6-21.3-4.7-38.7,9.5-44.6
		c16-6.7,22.2-3.1,24.9,2.9"/>
	<path class="st0" d="M61.9,100.4c6.4-6.3,38.8-5.7,38.8-33.4c0-11.8-18.4-18-19.4-13.8"/>
	<path class="st0" d="M30.7,65.1C16.9,58.6,7,71.9,7,80.5c0.1,12.6,15.1,23.9,21.5,22.2"/>
	<line class="st1" x1="51.8" y1="137.8" x2="61.3" y2="140.5"/>
	<line class="st1" x1="56.5" y1="117.8" x2="66.7" y2="119.1"/>
	<line class="st1" x1="57.5" y1="109.8" x2="67.8" y2="110.1"/>
	<line class="st1" x1="57.5" y1="100.8" x2="67.5" y2="102.8"/>
	<line class="st1" x1="68.6" y1="92.3" x2="73.2" y2="100.3"/>
	<line class="st1" x1="55.7" y1="93.3" x2="64.9" y2="89.2"/>
	<line class="st1" x1="51.3" y1="87.5" x2="59.1" y2="81.8"/>
	<line class="st1" x1="45.3" y1="82.9" x2="52.3" y2="76.1"/>
	<line class="st1" x1="40.4" y1="78.3" x2="46.7" y2="71.7"/>
	<line class="st1" x1="34.2" y1="73.9" x2="40.5" y2="67.2"/>
	<line class="st1" x1="28.8" y1="69.8" x2="34.4" y2="62.3"/>
	<path class="st1" d="M27.8,53.8c-1.4,4.6-2.8,9.2-4.3,13.8"/>
	<path class="st1" d="M15.5,60.2c0.8,2.6,2.1,6.8,2.9,9.5"/>
	<line class="st1" x1="7.7" y1="66.3" x2="14.2" y2="74"/>
	<line class="st1" x1="2.9" y1="75.1" x2="11.9" y2="79.1"/>
	<line class="st1" x1="2.6" y1="84.6" x2="12.7" y2="83.5"/>
	<line class="st1" x1="14.6" y1="88" x2="5.9" y2="92.2"/>
	<line class="st1" x1="16.9" y1="91.2" x2="10.2" y2="99.3"/>
	<line class="st1" x1="20.8" y1="94.9" x2="18.1" y2="104.2"/>
	<line class="st1" x1="24.3" y1="46.9" x2="17.5" y2="54.6"/>
	<line class="st1" x1="12.7" y1="43.9" x2="22" y2="39.7"/>
	<line class="st1" x1="20.9" y1="33.4" x2="11.3" y2="34"/>
	<line class="st1" x1="11.9" y1="23.4" x2="21.6" y2="26.4"/>
	<line class="st1" x1="16.6" y1="14.2" x2="24" y2="20.4"/>
	<path class="st1" d="M23.8,6.8c1.5,3.1,3.1,6.2,4.6,9.3"/>
	<path class="st1" d="M31.3,3.5c1.1,2.9,2.3,5.7,3.4,8.6"/>
	<line class="st1" x1="39.2" y1="0.8" x2="41.9" y2="10.5"/>
	<line class="st1" x1="49.3" y1="0.6" x2="47.9" y2="9.8"/>
	<line class="st1" x1="51" y1="10.9" x2="57.5" y2="4.4"/>
	<path class="st1" d="M76.6,89.4c1.5,2.8,3.1,5.5,4.6,8.3"/>
	<line class="st1" x1="83" y1="86.9" x2="90.2" y2="93.8"/>
	<line class="st1" x1="97.4" y1="87.8" x2="89.4" y2="82.4"/>
	<line class="st1" x1="93.5" y1="76.6" x2="102.9" y2="79.3"/>
	<line class="st1" x1="95.9" y1="69.1" x2="105.8" y2="69.3"/>
	<line class="st1" x1="95.4" y1="64.8" x2="104.1" y2="59.8"/>
	<path class="st1" d="M92.1,60.7c1.8-3,3.6-5.9,5.4-8.9"/>
	<path class="st1" d="M89.1,58.4c-0.7-3.8-1.4-7.7-2.1-11.5"/>
	<path class="st2" d="M1.5,178.2c3.2-17.9,15.9-32,32-35.7c16.1-3.7,29.2,4.6,31.9,6.4c3.8-3.1,8.4-4.9,13.3-5.4
		c10.6-0.7,21.2,6.3,27.1,17.6"/>
	<path class="st3" d="M1.5,178.2c3.2-17.9,15.9-32,32-35.7c16.1-3.7,29.2,4.6,31.9,6.4c3.8-3.1,8.4-4.9,13.3-5.4
		c10.6-0.7,21.2,6.3,27.1,17.6"/>
	<path class="st4" d="M57,10.2c3-1.1,9-3.1,14.1-0.4c8.7,4.7,10,20.6,5.2,24c-1.9,1.3-4.7,0.6-6.9-0.2c0,0.2,0.4,3.1-1.6,4.8
		c-2,1.7-5.2,1.4-7.5-0.8c-0.4,1.3-1.2,3-2.6,3.3c-4.6,1.1-16-12.6-12.1-22.2C47.8,13.4,53.9,11.3,57,10.2z"/>
	<path class="st4" d="M84.6,54.6c1.6,2.1,4.6,6.2,3.7,10.9c-1.5,7.9-13.6,12.8-17.4,9.9c-1.5-1.2-1.6-3.5-1.5-5.4
		c-2,1.1-4.5,0.3-5.6-1.7c-0.8-1.4-0.6-3.1,0.3-4.4c-1.1,0-2.6-0.2-3.2-1.2c-2-3.3,5.9-15.5,14.3-14.8C79.9,48.2,83,52.5,84.6,54.6z
		"/>
	<path class="st4" d="M24.6,104.3c0.9,2.5,2.7,7.3,7,9.1c7.4,3.1,18.2-4.3,17.8-9.1c-0.1-1.9-2-3.3-3.7-4.2c2-1.1,2.8-3.6,1.7-5.6
		c-0.8-1.4-2.2-2.2-3.8-2.2c0.6-0.9,1.3-2.3,0.8-3.3c-1.6-3.5-16.2-3.6-20.2,3.8C21.8,96.9,23.6,101.8,24.6,104.3z"/>
	<path class="st5" d="M55.4,10.8c-2.6,2.6-4.3,6-4.8,9.7c-0.9,6.8,2.8,13.8,9.4,18"/>
	<path class="st5" d="M56.5,10.4c1.7,4.3,3.7,8.7,5.8,13.3c2.2,4.6,4.4,9,6.6,13.1"/>
	<path class="st5" d="M76.3,33.8c0.4-4.1-0.4-8.3-2.2-12C69.5,12.3,59.8,9.6,58.2,9.2"/>
	<path class="st5" d="M62.3,62.8c0.1-0.6,1.8-7.3,8.5-10c7.2-2.9,13.4,1.6,13.8,1.8"/>
	<path class="st5" d="M64.6,69.1c3.3-2.4,6.8-4.9,10.5-7.4c3.4-2.3,6.8-4.5,10.1-6.5"/>
	<path class="st5" d="M70.3,74.6c9.3-0.7,16.2-8.7,15.7-18"/>
	<path class="st5" d="M23.3,100.1c1.4,2.2,5-9,13.7-8.7c4.2,0.2,8.1,2.1,10.9,5.2"/>
	<path class="st5" d="M23.9,102.3c5.5-1.5,11.2-2.3,16.9-2.2c2,0,3.8,0.2,5.6,0.4"/>
	<path class="st5" d="M24.6,104.3c3.9,2.8,8.6,4.2,13.4,4c6.5-0.5,10.4-2.9,11.4-3.9"/>
	<path d="M55.9,122.2l10.5,2.5c1.1,0.3,1.7,1.3,1.5,2.4l-1.6,6.6c-0.3,1.1-1.3,1.7-2.4,1.5l-10.5-2.5c-1.1-0.3-1.7-1.3-1.5-2.4
		l1.6-6.6C53.7,122.6,54.8,122,55.9,122.2z"/>
	<path class="st6" d="M55.9,122.2l10.5,2.5c1.1,0.3,1.7,1.3,1.5,2.4l-1.6,6.6c-0.3,1.1-1.3,1.7-2.4,1.5l-10.5-2.5
		c-1.1-0.3-1.7-1.3-1.5-2.4l1.6-6.6C53.7,122.6,54.8,122,55.9,122.2z"/>
	<path class="st6" d="M94.9,158.3c0.6-2.8-2.8-15.6-10-21.9c-6.3-5.5-15.4-6.6-19.3-6.9"/>
</g>
</svg>
