<?xml version="1.0" encoding="utf-8"?>
<!-- Generator: Adobe Illustrator 25.0.1, SVG Export Plug-In . SVG Version: 6.00 Build 0)  -->
<svg version="1.1" id="Layer_1" xmlns="http://www.w3.org/2000/svg" xmlns:xlink="http://www.w3.org/1999/xlink" x="0px" y="0px"
	 viewBox="0 0 107.1 197" style="enable-background:new 0 0 107.1 197;" xml:space="preserve">
<style type="text/css">
	.st0{fill:none;stroke:#00B04C;stroke-width:10;stroke-miterlimit:10;}
	.st1{fill:#71491A;}
	.st2{fill:none;stroke:#54240E;stroke-width:3;stroke-miterlimit:10;}
	.st3{fill:#008639;}
	.st4{fill:#992F78;}
	.st5{fill:#C04097;}
	.st6{fill:#FFFE54;}
	.st7{fill:none;stroke:#000000;stroke-width:3;stroke-miterlimit:10;}
</style>
<g>
	<path class="st0" d="M49.1,172.6c9.3-11.5,19.4-50.5,9.7-64.4c-10.5-15-26.1-16.6-36.9-36.4c-11.6-21.3-4.7-38.7,9.5-44.6
		c15.9-6.7,22.2-3.1,24.9,2.9"/>
	<path class="st0" d="M61.9,119c6.4-6.3,38.8-5.7,38.8-33.4c0-11.8-18.4-17.9-19.4-13.8"/>
	<path class="st0" d="M30.7,83.6C16.9,77.1,7,90.5,7,99c0.1,12.5,15.1,24,21.5,22.2"/>
	<path class="st1" d="M1.5,196.7c3.2-17.9,15.9-32,32-35.7c16.1-3.7,29.2,4.6,31.9,6.4c3.8-3.1,8.4-4.9,13.3-5.4
		c10.6-0.8,21.2,6.2,27.1,17.6"/>
	<path class="st2" d="M1.5,196.7c3.2-17.9,15.9-32,32-35.7c16.1-3.7,29.2,4.6,31.9,6.4c3.8-3.1,8.4-4.9,13.3-5.4
		c10.6-0.8,21.2,6.2,27.1,17.6"/>
	<path class="st3" d="M55.2,27.2c-3.7,2.1-6,6.1-6.1,10.3C49,47.9,64.4,57.8,70.5,54.3c5.6-3.2,6.1-19.1-2-25.3
		C65.5,26.7,60,24.7,55.2,27.2z"/>
	<path class="st3" d="M83.7,69c-3.1-3.4-8.1-4-11.6-3.1C62.1,68.6,56.8,86.1,61.7,91c4.6,4.6,20,0.8,23.8-8.8
		C87,78.7,87.4,72.9,83.7,69z"/>
	<path class="st4" d="M41,6.5c1.6-1,7.3,4.8,12.7,13.2c5.4,8.3,8.5,15.9,6.9,17c-1.6,1-7.3-4.8-12.7-13.2C42.4,15.1,39.4,7.5,41,6.5
		z"/>
	<path class="st4" d="M65.2,43.8c1.6-1,7.3,4.8,12.7,13.2c5.4,8.3,8.5,15.9,6.9,17c-1.6,1-7.3-4.8-12.7-13.2
		C66.7,52.5,63.6,44.9,65.2,43.8z"/>
	<path class="st4" d="M27.1,21.9c0.9-1.7,8.8,0.6,17.6,5.1S60,36.5,59.1,38.3c-0.9,1.7-8.8-0.6-17.6-5.1S26.2,23.6,27.1,21.9z"/>
	<path class="st4" d="M66.7,42.2c0.9-1.7,8.8,0.6,17.6,5.1c8.8,4.5,15.3,9.6,14.4,11.3c-0.9,1.7-8.8-0.6-17.6-5.1
		S65.8,43.9,66.7,42.2z"/>
	<path class="st4" d="M40.6,37.1c9.9-0.2,18,1.2,18,3.2c0,1.9-8,3.6-17.9,3.8c-9.9,0.2-18-1.2-18-3.2C22.7,39,30.7,37.3,40.6,37.1z"
		/>
	<path class="st4" d="M85.1,36.3c9.9-0.2,18,1.2,18,3.2c0,1.9-8,3.6-17.9,3.8c-9.9,0.2-18-1.2-18-3.2C67.2,38.2,75.2,36.5,85.1,36.3
		z"/>
	<path class="st4" d="M42,48.6c8.5-5.1,16.2-7.9,17.2-6.2c1,1.7-5.1,7.1-13.6,12.2c-8.5,5.1-16.2,7.9-17.2,6.2
		C27.4,59.2,33.5,53.7,42,48.6z"/>
	<path class="st4" d="M80.2,25.8c8.5-5.1,16.2-7.9,17.2-6.2c1,1.7-5.1,7.1-13.6,12.2S67.6,39.7,66.6,38
		C65.6,36.4,71.7,30.9,80.2,25.8z"/>
	<path class="st4" d="M49.2,58.1c4.7-8.7,10-15,11.7-14.1c1.7,0.9-0.8,8.7-5.5,17.5c-4.7,8.7-10,15-11.7,14.1
		C42,74.6,44.5,66.8,49.2,58.1z"/>
	<path class="st4" d="M70.5,19c4.7-8.7,10-15,11.7-14.1c1.7,0.9-0.8,8.7-5.5,17.5s-10,15-11.7,14.1C63.3,35.5,65.7,27.7,70.5,19z"/>
	<path class="st4" d="M63,44.5c1.9,0,3.7,8,3.9,17.9c0.2,9.9-1.2,18-3.1,18c-1.9,0-3.7-8-3.9-17.9C59.7,52.6,61.1,44.5,63,44.5z"/>
	<path class="st4" d="M62,0c1.9,0,3.7,8,3.9,17.9c0.2,9.9-1.2,18-3.1,18c-1.9,0-3.7-8-3.9-17.9C58.7,8.1,60.1,0,62,0z"/>
	<path class="st5" d="M33,13.3c1.3-1.4,8.3,2.8,15.7,9.4c7.4,6.6,12.3,13.2,11,14.6c-1.3,1.4-8.3-2.8-15.7-9.4
		C36.7,21.3,31.7,14.7,33,13.3z"/>
	<path class="st5" d="M66.1,43.1c1.3-1.4,8.3,2.8,15.7,9.4c7.4,6.6,12.3,13.2,11,14.6c-1.3,1.4-8.3-2.8-15.7-9.4
		C69.7,51.1,64.8,44.5,66.1,43.1z"/>
	<path class="st5" d="M23.6,31.8c0.4-1.9,8.6-1.7,18.3,0.4c9.7,2.1,17.2,5.3,16.8,7.2S50.1,41,40.4,39
		C30.7,36.9,23.2,33.6,23.6,31.8z"/>
	<path class="st5" d="M67.1,41.1c0.4-1.9,8.6-1.7,18.3,0.4c9.7,2.1,17.2,5.3,16.8,7.2s-8.6,1.7-18.3-0.4
		C74.2,46.2,66.7,43,67.1,41.1z"/>
	<path class="st5" d="M40.6,43c9.5-2.7,17.7-3.5,18.2-1.6c0.5,1.9-6.8,5.6-16.3,8.3s-17.7,3.5-18.2,1.6C23.7,49.5,31,45.7,40.6,43z"
		/>
	<path class="st5" d="M83.3,30.7c9.5-2.7,17.7-3.5,18.2-1.6c0.5,1.9-6.8,5.6-16.3,8.3C75.7,40.2,67.6,40.9,67,39
		C66.5,37.2,73.8,33.4,83.3,30.7z"/>
	<path class="st5" d="M45.2,53.9c6.9-7.1,13.7-11.8,15.1-10.5c1.4,1.3-3.1,8.2-10.1,15.4c-6.9,7.1-13.7,11.8-15.1,10.5
		S38.2,61,45.2,53.9z"/>
	<path class="st5" d="M75.9,21.8c6.9-7.1,13.6-11.8,15-10.5c1.4,1.3-3.1,8.2-10,15.3s-13.6,11.8-15,10.5S69,28.9,75.9,21.8z"/>
	<path class="st5" d="M54.3,61c2.3-9.6,5.7-17.1,7.6-16.7s1.5,8.6-0.8,18.3c-2.3,9.6-5.7,17.1-7.6,16.7C51.6,78.9,52,70.7,54.3,61z"
		/>
	<path class="st5" d="M64.7,17.8C67,8.1,70.4,0.7,72.3,1.1c1.9,0.5,1.5,8.6-0.8,18.3C69.2,29,65.8,36.5,63.9,36S62.4,27.4,64.7,17.8
		z"/>
	<path class="st5" d="M64.1,44.3c1.8-0.5,5.6,6.7,8.4,16.3c2.8,9.5,3.5,17.7,1.7,18.2c-1.8,0.5-5.6-6.7-8.4-16.3
		C63,53,62.3,44.9,64.1,44.3z"/>
	<path class="st5" d="M51.6,1.6c1.9-0.5,5.6,6.7,8.4,16.3c2.8,9.5,3.5,17.7,1.7,18.2s-5.6-6.7-8.4-16.3C50.5,10.3,49.8,2.2,51.6,1.6
		z"/>
	<path class="st6" d="M62.9,27c7.5,0,13.6,6.1,13.6,13.6c0,7.5-6.1,13.6-13.6,13.6s-13.6-6.1-13.6-13.6C49.3,33.1,55.4,27,62.9,27z"
		/>
	<path class="st4" d="M13.8,105.1c1-0.6,4.5,3,7.8,8s5.2,9.7,4.2,10.4c-1,0.6-4.5-3-7.8-8C14.7,110.4,12.8,105.8,13.8,105.1z"/>
	<path class="st4" d="M40.5,146.3c-1,0.6-4.5-3-7.8-8c-3.3-5-5.2-9.7-4.2-10.3c1-0.6,4.5,3,7.8,8S41.5,145.7,40.5,146.3"/>
	<path class="st4" d="M5.3,114.5c0.5-1,5.3,0.3,10.7,3.1s9.3,5.8,8.8,6.9s-5.3-0.3-10.7-3.1C8.7,118.6,4.8,115.5,5.3,114.5z"/>
	<path class="st4" d="M29.5,126.9c0.5-1,5.3,0.3,10.7,3.1c5.4,2.8,9.3,5.8,8.8,6.9c-0.5,1-5.3-0.3-10.7-3.1
		C32.9,131,28.9,127.9,29.5,126.9z"/>
	<path class="st4" d="M2.6,126.1c0-1.2,4.9-2.2,10.9-2.3c6.1-0.1,11,0.8,11,1.9s-4.9,2.2-10.9,2.3C7.5,128.2,2.6,127.3,2.6,126.1"/>
	<path class="st4" d="M40.7,123.3c6.1-0.1,11,0.8,11,1.9c0,1.2-4.9,2.2-10.9,2.3c-6.1,0.1-11-0.8-11-1.9
		C29.7,124.5,34.6,123.4,40.7,123.3z"/>
	<path class="st4" d="M14,131.1c5.2-3.1,9.9-4.8,10.5-3.8c0.6,1-3.1,4.3-8.3,7.4s-9.9,4.8-10.5,3.8C5.1,137.5,8.8,134.2,14,131.1z"
		/>
	<path class="st4" d="M37.7,116.9c5.2-3.1,9.9-4.8,10.5-3.8c0.6,1-3.1,4.3-8.3,7.5c-5.2,3.1-9.9,4.8-10.5,3.8S32.5,120,37.7,116.9z"
		/>
	<path class="st4" d="M15.4,147.3c-1-0.6,0.5-5.3,3.4-10.6c2.9-5.3,6.1-9.2,7.1-8.6c1,0.6-0.5,5.3-3.4,10.7
		C19.6,144,16.4,147.8,15.4,147.3"/>
	<path class="st4" d="M31.8,112.7c2.9-5.3,6.1-9.2,7.1-8.6c1,0.6-0.5,5.3-3.4,10.6c-2.9,5.3-6.1,9.2-7.1,8.6
		C27.4,122.8,28.9,118.1,31.8,112.7z"/>
	<path class="st4" d="M27.7,150.2c-1.2,0-2.2-4.9-2.4-10.9s0.7-11,1.9-11s2.2,4.9,2.4,10.9C29.7,145.3,28.9,150.2,27.7,150.2"/>
	<path class="st4" d="M26.6,101.2c1.2,0,2.2,4.9,2.4,10.9c0.1,6.1-0.7,11-1.9,11c-1.2,0-2.2-4.8-2.4-10.9
		C24.5,106.1,25.4,101.2,26.6,101.2"/>
	<path class="st5" d="M8.9,109.3c0.8-0.9,5.1,1.7,9.6,5.8c4.5,4.1,7.5,8,6.7,8.9s-5.1-1.7-9.6-5.8C11.1,114.1,8.1,110.2,8.9,109.3z"
		/>
	<path class="st5" d="M29.1,127.5c0.8-0.9,5.1,1.7,9.6,5.8c4.5,4.1,7.5,8,6.7,8.9s-5.1-1.7-9.6-5.8
		C31.3,132.3,28.3,128.3,29.1,127.5z"/>
	<path class="st5" d="M3.1,120.6c0.2-1.2,5.2-1.1,11.2,0.2c5.9,1.3,10.5,3.2,10.3,4.4c-0.2,1.2-5.2,1.1-11.2-0.2
		C7.5,123.7,2.9,121.7,3.1,120.6z"/>
	<path class="st5" d="M29.7,126.3c0.2-1.2,5.2-1.1,11.2,0.2c5.9,1.3,10.5,3.2,10.3,4.4c-0.2,1.2-5.2,1.1-11.2-0.2
		C34.1,129.4,29.5,127.4,29.7,126.3z"/>
	<path class="st5" d="M13.5,127.4c5.8-1.7,10.8-2.1,11.1-1c0.3,1.1-4.1,3.4-9.9,5.1c-5.8,1.7-10.8,2.1-11.1,1
		C3.2,131.3,7.7,129.1,13.5,127.4z"/>
	<path class="st5" d="M39.6,119.9c5.8-1.7,10.8-2.1,11.1-1c0.3,1.1-4.1,3.4-9.9,5.1c-5.8,1.7-10.8,2.1-11.1,1S33.8,121.6,39.6,119.9
		z"/>
	<path class="st5" d="M16.2,134c4.2-4.3,8.3-7.2,9.2-6.4c0.8,0.8-1.9,5-6.1,9.4c-4.2,4.3-8.3,7.2-9.2,6.4
		C9.2,142.5,11.9,138.3,16.2,134z"/>
	<path class="st5" d="M35.1,114.5c4.2-4.3,8.3-7.2,9.2-6.4c0.8,0.8-1.9,5-6.1,9.4c-4.2,4.3-8.3,7.2-9.2,6.4
		C28.1,123,30.8,118.8,35.1,114.5z"/>
	<path class="st5" d="M21.4,149.6c-1.1-0.3-0.9-5.3,0.5-11.1c1.4-5.9,3.5-10.4,4.6-10.2s0.9,5.3-0.5,11.2
		C24.6,145.3,22.5,149.8,21.4,149.6"/>
	<path class="st5" d="M32.9,101.8c1.1,0.3,0.9,5.3-0.5,11.2s-3.5,10.4-4.6,10.2c-1.1-0.3-0.9-5.3,0.5-11.2
		C29.7,106.1,31.7,101.6,32.9,101.8"/>
	<path class="st5" d="M34,149.3c-1.1,0.3-3.4-4.1-5.1-9.9c-1.7-5.8-2.2-10.8-1-11.1s3.4,4.1,5.1,9.9C34.7,144,35.2,148.9,34,149.3"
		/>
	<path class="st5" d="M20.2,102.2c1.1-0.3,3.4,4.1,5.1,9.9c1.7,5.8,2.2,10.8,1,11.1c-1.2,0.3-3.4-4.1-5.1-9.9
		C19.5,107.5,19.1,102.5,20.2,102.2"/>
	<circle class="st6" cx="27.1" cy="125.9" r="8.3"/>
	<path d="M55.9,140.9l10.5,2.5c1.1,0.3,1.7,1.3,1.5,2.4l-1.6,6.6c-0.3,1.1-1.3,1.7-2.4,1.5l-10.5-2.5c-1.1-0.3-1.7-1.3-1.5-2.4
		l1.6-6.6C53.7,141.3,54.8,140.6,55.9,140.9z"/>
	<path class="st7" d="M55.9,140.9l10.5,2.5c1.1,0.3,1.7,1.3,1.5,2.4l-1.6,6.6c-0.3,1.1-1.3,1.7-2.4,1.5l-10.5-2.5
		c-1.1-0.3-1.7-1.3-1.5-2.4l1.6-6.6C53.7,141.3,54.8,140.6,55.9,140.9z"/>
	<path class="st7" d="M94.9,176.9c0.6-2.8-2.8-15.6-10-21.9c-6.3-5.5-15.4-6.6-19.3-6.9"/>
</g>
</svg>
