<?xml version="1.0" encoding="utf-8"?>
<!-- Generator: Adobe Illustrator 25.0.1, SVG Export Plug-In . SVG Version: 6.00 Build 0)  -->
<svg version="1.1" id="Layer_1" xmlns="http://www.w3.org/2000/svg" xmlns:xlink="http://www.w3.org/1999/xlink" x="0px" y="0px"
	 viewBox="0 0 107.1 178.4" style="enable-background:new 0 0 107.1 178.4;" xml:space="preserve">
<style type="text/css">
	.st0{fill:none;stroke:#00B04C;stroke-width:10;stroke-miterlimit:10;}
	.st1{fill:#71491A;}
	.st2{fill:none;stroke:#54240E;stroke-width:3;stroke-miterlimit:10;}
	.st3{fill:#008639;}
	.st4{fill:none;stroke:#000000;stroke-width:3;stroke-miterlimit:10;}
</style>
<g>
	<path class="st0" d="M49.1,154c9.3-11.5,19.4-50.5,9.6-64.4C48.3,74.6,32.7,73,21.9,53.2c-11.6-21.3-4.7-38.7,9.5-44.6
		c16-6.7,22.2-3.1,24.9,2.9"/>
	<path class="st0" d="M61.9,100.4c6.4-6.3,38.8-5.7,38.8-33.4c0-11.8-18.4-18-19.4-13.8"/>
	<path class="st0" d="M30.7,65.1C16.9,58.6,7,71.9,7,80.5c0.1,12.6,15.1,23.9,21.5,22.2"/>
	<path class="st1" d="M1.5,178.2c3.2-17.9,15.9-32,32-35.7c16.1-3.7,29.2,4.6,31.9,6.4c3.8-3.1,8.4-4.9,13.3-5.4
		c10.6-0.7,21.2,6.3,27.1,17.6"/>
	<path class="st2" d="M1.5,178.2c3.2-17.9,15.9-32,32-35.7c16.1-3.7,29.2,4.6,31.9,6.4c3.8-3.1,8.4-4.9,13.3-5.4
		c10.6-0.7,21.2,6.3,27.1,17.6"/>
	<path class="st3" d="M55.2,8.6c-3.7,2.1-6,6.1-6.1,10.3C49,29.4,64.4,39.2,70.5,35.8c5.7-3.2,6.2-19.1-2-25.3
		C65.5,8.1,60,6.2,55.2,8.6z"/>
	<path class="st3" d="M83.7,50.4c-3-3-7.5-4.2-11.6-3.1C62.1,50,56.8,67.5,61.8,72.5c4.6,4.6,20,0.8,23.8-8.8
		C87,60.1,87.4,54.3,83.7,50.4z"/>
	<path class="st3" d="M16.5,97.4c-1.5,4-0.7,8.5,2,11.8c6.6,8,24.7,5.6,27.1-1c2.3-6.1-7.6-18.6-17.9-18
		C24,90.4,18.6,92.4,16.5,97.4z"/>
	<path d="M55.9,122.2l10.5,2.5c1.1,0.3,1.7,1.3,1.5,2.4l-1.6,6.6c-0.3,1.1-1.3,1.7-2.4,1.5l-10.5-2.5c-1.1-0.3-1.7-1.3-1.5-2.4
		l1.6-6.6C53.7,122.6,54.8,122,55.9,122.2z"/>
	<path class="st4" d="M55.9,122.2l10.5,2.5c1.1,0.3,1.7,1.3,1.5,2.4l-1.6,6.6c-0.3,1.1-1.3,1.7-2.4,1.5l-10.5-2.5
		c-1.1-0.3-1.7-1.3-1.5-2.4l1.6-6.6C53.7,122.6,54.8,122,55.9,122.2z"/>
	<path class="st4" d="M94.9,158.3c0.6-2.8-2.8-15.6-10-21.9c-6.3-5.5-15.4-6.6-19.3-6.9"/>
</g>
</svg>
