<?xml version="1.0" encoding="utf-8"?>
<!-- Generator: Adobe Illustrator 25.0.1, SVG Export Plug-In . SVG Version: 6.00 Build 0)  -->
<svg version="1.1" id="Layer_1" xmlns="http://www.w3.org/2000/svg" xmlns:xlink="http://www.w3.org/1999/xlink" x="0px" y="0px"
	 viewBox="0 0 107.1 178.4" style="enable-background:new 0 0 107.1 178.4;" xml:space="preserve">
<style type="text/css">
	.st0{fill:none;stroke:#008639;stroke-width:5;stroke-miterlimit:10;}
	.st1{fill:none;stroke:#00B04C;stroke-width:10;stroke-miterlimit:10;}
	.st2{fill:#71491A;}
	.st3{fill:none;stroke:#54240E;stroke-width:3;stroke-miterlimit:10;}
	.st4{fill:#008639;}
	.st5{fill:none;stroke:#000000;stroke-width:3;stroke-miterlimit:10;}
</style>
<g>
	<path class="st0" d="M23,56.7c0-0.8,0-12.8,4.6-17.4c4-4,12.4-1.9,14.3,2.4c0.9,2.4,0.4,5.2-1.4,7.1c-2.1,2.4-6.3,3.3-7.7,1.7
		s0.4-4.8,0.5-5.1"/>
	<path class="st0" d="M21,15.8c1.1-3.3,0.2-7-2.3-9.5c-3.2-2.9-8.6-2.8-11.3,0.3c-2,2.4-2.9,6.9-0.8,8.5c1.4,1.1,3.9,0.7,6.2-0.9"/>
	<path class="st0" d="M79,93.7c0.6-0.2,7.6-2.3,13.3,2.3c2.9,2.4,4.8,5.9,5.1,9.7c0.3,3.9-0.9,7.7-3.4,10.7
		c-2.5,2.9-7.8,6.3-12.9,4.4c-3.2-1.2-6.7-4.6-6.5-8.7c0.1-2.3,1.5-6,4.9-6.6c3-0.4,5.9,1.3,7,4.1"/>
	<path class="st1" d="M49.1,154c9.3-11.5,19.4-50.5,9.6-64.4C48.3,74.6,32.7,73,21.9,53.2c-11.6-21.3-4.7-38.7,9.5-44.6
		c16-6.7,22.2-3.1,24.9,2.9"/>
	<path class="st1" d="M61.9,100.4c6.4-6.3,38.8-5.7,38.8-33.4c0-11.8-18.4-18-19.4-13.8"/>
	<path class="st1" d="M30.7,65.1C16.9,58.6,7,71.9,7,80.5c0.1,12.6,15.1,23.9,21.5,22.2"/>
	<path class="st2" d="M1.5,178.2c3.2-17.9,15.9-32,32-35.7c16.1-3.7,29.2,4.6,31.9,6.4c3.8-3.1,8.4-4.9,13.3-5.4
		c10.6-0.7,21.2,6.3,27.1,17.6"/>
	<path class="st3" d="M1.5,178.2c3.2-17.9,15.9-32,32-35.7c16.1-3.7,29.2,4.6,31.9,6.4c3.8-3.1,8.4-4.9,13.3-5.4
		c10.6-0.7,21.2,6.3,27.1,17.6"/>
	<path class="st4" d="M71.5,30.1c2.2,3.6,1.8,5.7,1.4,6.6c-1.9,4.8-13,6.3-19.1,2.3c-9.9-6.3-10.3-28.8,0.3-34.8
		C60.1,1,68.5,3.8,73.5,7.8c10,8.2,9.7,24.8,5.8,26.7C78,35.1,75.7,34.4,71.5,30.1z"/>
	<path class="st4" d="M66.8,67.5c-2.4,2.4-4,2.4-4.8,2.3c-4-0.6-7.1-8.8-5.2-14.2c3.1-8.7,20.2-13,26.6-6c3.6,4,3,10.9,0.8,15.4
		c-4.5,9.1-17.2,11.8-19.3,9.2C64.2,73.4,64.3,71.5,66.8,67.5z"/>
	<path class="st4" d="M41.4,110.7c3.5,1.2,5.2,0.5,6,0c3.8-2.5,2.9-12.3-1.6-16.7c-7.3-7.2-26.6-3.4-29.6,6.8
		c-1.7,5.8,2.2,12.4,6.6,15.9c8.9,6.9,23,3.6,23.8-0.1C46.8,115.3,45.8,113.5,41.4,110.7z"/>
	<path d="M55.9,122.2l10.5,2.5c1.1,0.3,1.7,1.3,1.5,2.4l-1.6,6.6c-0.3,1.1-1.3,1.7-2.4,1.5l-10.5-2.5c-1.1-0.3-1.7-1.3-1.5-2.4
		l1.6-6.6C53.7,122.6,54.8,122,55.9,122.2z"/>
	<path class="st5" d="M55.9,122.2l10.5,2.5c1.1,0.3,1.7,1.3,1.5,2.4l-1.6,6.6c-0.3,1.1-1.3,1.7-2.4,1.5l-10.5-2.5
		c-1.1-0.3-1.7-1.3-1.5-2.4l1.6-6.6C53.7,122.6,54.8,122,55.9,122.2z"/>
	<path class="st5" d="M94.9,158.3c0.6-2.8-2.8-15.6-10-21.9c-6.3-5.5-15.4-6.6-19.3-6.9"/>
</g>
</svg>
