<?xml version="1.0" encoding="utf-8"?>
<!-- Generator: Adobe Illustrator 25.0.1, SVG Export Plug-In . SVG Version: 6.00 Build 0)  -->
<svg version="1.1" id="Layer_1" xmlns="http://www.w3.org/2000/svg" xmlns:xlink="http://www.w3.org/1999/xlink" x="0px" y="0px"
	 viewBox="0 0 107.2 197.1" style="enable-background:new 0 0 107.2 197.1;" xml:space="preserve">
<style type="text/css">
	.st0{fill:#008639;}
	.st1{fill:none;stroke:#00B04C;stroke-width:10;stroke-miterlimit:10;}
	.st2{fill:#71491A;}
	.st3{fill:none;stroke:#54240E;stroke-width:3;stroke-miterlimit:10;}
	.st4{fill:none;stroke:#000000;stroke-width:3;stroke-miterlimit:10;}
	.st5{fill:#992F78;}
	.st6{fill:#C04097;}
	.st7{fill:#3F3F3F;}
</style>
<g>
	<polyline class="st0" points="36.7,29.6 26.7,34.3 37.6,44.9 	"/>
	<polyline class="st0" points="13.6,41.3 18.4,31.4 3.3,30 	"/>
	<path class="st0" d="M19.3,48.1c0.5,3.7,1,7.3,1.5,10.9l13.4-7.1"/>
	<path class="st0" d="M18.5,75.6c-1.4-3.4-2.9-6.8-4.3-10.1l-11,10.4"/>
	<polyline class="st0" points="20.3,84.6 11.3,91 24,99.5 	"/>
	<path class="st0" d="M43.6,96.2L34,90.7c-0.8,5-1.6,10-2.4,15"/>
	<polyline class="st0" points="27.9,73.5 34.6,82.3 42.7,69.5 	"/>
	<path class="st0" d="M71.4,111l10.3-4c-3.3-3.8-6.7-7.6-10-11.4"/>
	<polyline class="st0" points="98.9,104.4 90.2,111.1 103,119.2 	"/>
	<path class="st0" d="M89.1,66.9l9.8,5.1c0.6-5,1.2-10,1.8-15.1"/>
	<path class="st0" d="M67.7,126c-0.3,3.7-0.5,7.3-0.8,11l14.5-4.3"/>
	<path class="st1" d="M49.1,172.7c9.3-11.5,19.4-50.5,9.7-64.4c-10.5-15-26.1-16.6-36.9-36.4c-11.6-21.3-4.7-38.7,9.5-44.6
		c16-6.7,22.2-3.1,24.9,2.9"/>
	<path class="st1" d="M61.9,119.1c6.4-6.3,38.8-5.7,38.8-33.4c0-11.8-18.4-18-19.4-13.8"/>
	<path class="st1" d="M30.7,83.8C16.9,77.3,7,90.6,7.1,99.2c0.1,12.5,15.1,24,21.5,22.2"/>
	<path class="st2" d="M1.5,196.9c3.2-17.9,15.9-32,32-35.7c16.1-3.7,29.2,4.6,31.9,6.4c3.8-3.1,8.4-4.9,13.3-5.4
		c10.6-0.8,21.2,6.2,27.1,17.6"/>
	<path class="st3" d="M1.5,196.9c3.2-17.9,15.9-32,32-35.7c16.1-3.7,29.2,4.6,31.9,6.4c3.8-3.1,8.4-4.9,13.3-5.4
		c10.6-0.8,21.2,6.2,27.1,17.6"/>
	<path class="st0" d="M84.1,65.7c-3.8-4-9.7-4.8-13.9-3.7c-12.1,3.2-18.4,24.1-12.5,30.1c5.5,5.5,24,0.9,28.6-10.5
		C87.9,77.3,88.4,70.4,84.1,65.7z"/>
	<path d="M55.9,141l10.5,2.5c1.1,0.3,1.7,1.3,1.5,2.4l-1.6,6.6c-0.3,1.1-1.3,1.7-2.4,1.5l-10.5-2.5c-1.1-0.3-1.7-1.3-1.5-2.4
		l1.6-6.6C53.7,141.4,54.8,140.7,55.9,141z"/>
	<path class="st4" d="M55.9,141l10.5,2.5c1.1,0.3,1.7,1.3,1.5,2.4l-1.6,6.6c-0.3,1.1-1.3,1.7-2.4,1.5l-10.5-2.5
		c-1.1-0.3-1.7-1.3-1.5-2.4l1.6-6.6C53.7,141.4,54.8,140.7,55.9,141z"/>
	<path class="st4" d="M94.9,177c0.6-2.8-2.8-15.6-10-21.8c-6.3-5.5-15.4-6.6-19.3-6.9"/>
	<path class="st5" d="M41.1,6.5c1.6-1,7.3,4.8,12.7,13.2c5.4,8.3,8.5,15.9,6.9,17c-1.6,1-7.3-4.8-12.7-13.2
		C42.5,15.1,39.5,7.5,41.1,6.5z"/>
	<path class="st5" d="M65.3,43.8c1.6-1,7.3,4.8,12.7,13.2c5.4,8.3,8.5,15.9,6.9,17c-1.6,1-7.3-4.8-12.7-13.2
		C66.8,52.5,63.7,44.9,65.3,43.8z"/>
	<path class="st5" d="M27.2,21.9c0.9-1.7,8.8,0.6,17.6,5.1S60,36.5,59.2,38.3c-0.9,1.7-8.8-0.6-17.6-5.1S26.3,23.6,27.2,21.9z"/>
	<path class="st5" d="M66.8,42.2c0.9-1.7,8.8,0.6,17.6,5.1c8.8,4.5,15.3,9.6,14.4,11.3c-0.9,1.7-8.8-0.6-17.6-5.1
		S65.9,43.9,66.8,42.2z"/>
	<path class="st5" d="M40.7,37.1c9.9-0.2,18,1.2,18,3.2c0,1.9-8,3.6-17.9,3.8c-9.9,0.2-18-1.2-18-3.2S30.7,37.3,40.7,37.1z"/>
	<path class="st5" d="M85.2,36.3c9.9-0.2,18,1.2,18,3.2c0,1.9-8,3.6-17.9,3.8c-9.9,0.2-18-1.2-18-3.2C67.2,38.2,75.3,36.5,85.2,36.3
		z"/>
	<path class="st5" d="M42.1,48.6c8.5-5.1,16.2-7.9,17.2-6.2c1,1.7-5.1,7.1-13.6,12.2c-8.5,5.1-16.2,7.9-17.2,6.2
		C27.5,59.2,33.6,53.7,42.1,48.6z"/>
	<path class="st5" d="M80.3,25.8c8.5-5.1,16.2-7.9,17.2-6.2s-5.1,7.1-13.6,12.2S67.7,39.7,66.7,38C65.7,36.4,71.8,30.9,80.3,25.8z"
		/>
	<path class="st5" d="M49.3,58.1c4.7-8.7,10-15,11.7-14.1c1.7,0.9-0.8,8.7-5.5,17.5c-4.7,8.7-10,15-11.7,14.1
		C42.1,74.6,44.5,66.8,49.3,58.1z"/>
	<path class="st5" d="M70.6,19c4.7-8.7,10-15,11.7-14.1c1.7,0.9-0.8,8.7-5.5,17.5s-10,15-11.7,14.1C63.3,35.5,65.8,27.7,70.6,19z"/>
	<path class="st5" d="M63.1,44.5c1.9,0,3.7,8,3.9,17.9c0.2,9.9-1.2,18-3.1,18c-1.9,0-3.7-8-3.9-17.9C59.8,52.6,61.2,44.5,63.1,44.5z
		"/>
	<path class="st5" d="M62.1,0C64,0,65.7,8,66,17.9c0.2,9.9-1.2,18-3.1,18C61,36,59.2,28,59,18S60.1,0,62.1,0z"/>
	<path class="st6" d="M33.1,13.3c1.3-1.4,8.3,2.8,15.7,9.4c7.4,6.6,12.3,13.2,11,14.6c-1.3,1.4-8.3-2.8-15.7-9.4
		C36.7,21.3,31.8,14.7,33.1,13.3z"/>
	<path class="st6" d="M66.2,43.1c1.3-1.4,8.3,2.8,15.7,9.4c7.4,6.6,12.3,13.2,11,14.6c-1.3,1.4-8.3-2.8-15.7-9.4
		C69.8,51.1,64.9,44.5,66.2,43.1z"/>
	<path class="st6" d="M23.7,31.8c0.4-1.9,8.6-1.7,18.3,0.4c9.7,2.1,17.2,5.3,16.8,7.2S50.2,41,40.5,39
		C30.8,36.9,23.3,33.6,23.7,31.8z"/>
	<path class="st6" d="M67.2,41.1c0.4-1.9,8.6-1.7,18.3,0.4c9.7,2.1,17.2,5.3,16.8,7.2s-8.6,1.7-18.3-0.4
		C74.3,46.2,66.8,43,67.2,41.1z"/>
	<path class="st6" d="M40.6,43c9.5-2.7,17.7-3.5,18.2-1.6c0.5,1.9-6.8,5.6-16.3,8.3s-17.7,3.5-18.2,1.6C23.8,49.5,31.1,45.7,40.6,43
		z"/>
	<path class="st6" d="M83.4,30.7c9.5-2.7,17.7-3.5,18.2-1.6c0.5,1.9-6.8,5.6-16.3,8.3c-9.5,2.7-17.7,3.5-18.2,1.6
		S73.9,33.4,83.4,30.7z"/>
	<path class="st6" d="M45.3,53.9C52.2,46.7,59,42,60.4,43.4c1.4,1.3-3.1,8.2-10.1,15.4c-6.9,7.1-13.7,11.8-15.1,10.5
		C33.8,67.9,38.3,61,45.3,53.9z"/>
	<path class="st6" d="M76,21.8c6.9-7.1,13.6-11.8,15-10.5c1.4,1.3-3.1,8.2-10,15.3S67.4,38.5,66,37.1S69.1,28.9,76,21.8z"/>
	<path class="st6" d="M54.4,61c2.3-9.6,5.7-17.1,7.6-16.7s1.5,8.6-0.8,18.3c-2.3,9.6-5.7,17.1-7.6,16.7C51.7,78.9,52.1,70.7,54.4,61
		z"/>
	<path class="st6" d="M64.8,17.8c2.3-9.6,5.7-17.1,7.6-16.7c1.9,0.5,1.5,8.6-0.8,18.3C69.3,29,65.9,36.5,64,36S62.5,27.4,64.8,17.8z
		"/>
	<path class="st6" d="M64.2,44.3c1.8-0.5,5.6,6.7,8.4,16.3c2.8,9.5,3.6,17.7,1.7,18.2c-1.8,0.5-5.6-6.7-8.4-16.3
		C63.1,53,62.3,44.9,64.2,44.3z"/>
	<path class="st6" d="M51.7,1.6c1.9-0.5,5.6,6.7,8.4,16.3c2.8,9.5,3.5,17.7,1.7,18.2s-5.6-6.7-8.4-16.3C50.6,10.3,49.8,2.2,51.7,1.6
		z"/>
	<path class="st5" d="M13.9,105.1c1-0.6,4.5,3,7.8,8s5.2,9.7,4.2,10.4c-1,0.6-4.5-3-7.8-8C14.7,110.4,12.9,105.8,13.9,105.1z"/>
	<path class="st5" d="M40.6,146.3c-1,0.6-4.5-3-7.8-8c-3.3-5-5.2-9.7-4.2-10.3c1-0.6,4.5,3,7.8,8S41.6,145.7,40.6,146.3"/>
	<path class="st5" d="M5.4,114.5c0.5-1,5.3,0.3,10.7,3.1c5.4,2.8,9.3,5.8,8.8,6.9s-5.3-0.3-10.7-3.1C8.8,118.6,4.8,115.5,5.4,114.5z
		"/>
	<path class="st5" d="M29.6,126.9c0.5-1,5.3,0.3,10.7,3.1c5.4,2.8,9.3,5.8,8.8,6.9c-0.5,1-5.3-0.3-10.7-3.1
		C32.9,131,29,127.9,29.6,126.9z"/>
	<path class="st5" d="M2.7,126.1c0-1.2,4.9-2.2,10.9-2.3c6.1-0.1,11,0.8,11,1.9s-4.9,2.2-10.9,2.3C7.6,128.2,2.7,127.3,2.7,126.1"/>
	<path class="st5" d="M40.7,123.3c6.1-0.1,11,0.8,11,1.9c0,1.2-4.9,2.2-10.9,2.3s-11-0.8-11-1.9C29.8,124.5,34.7,123.4,40.7,123.3z"
		/>
	<path class="st5" d="M14.1,131.1c5.2-3.1,9.9-4.8,10.5-3.8c0.6,1-3.1,4.3-8.3,7.4s-9.9,4.8-10.5,3.8
		C5.2,137.5,8.9,134.2,14.1,131.1z"/>
	<path class="st5" d="M37.8,116.9c5.2-3.1,9.9-4.8,10.5-3.8s-3.1,4.3-8.3,7.5c-5.2,3.1-9.9,4.8-10.5,3.8
		C28.9,123.3,32.6,120,37.8,116.9z"/>
	<path class="st5" d="M15.5,147.3c-1-0.6,0.5-5.3,3.4-10.6c2.9-5.3,6.1-9.2,7.1-8.6c1,0.6-0.5,5.3-3.4,10.7
		C19.7,144,16.5,147.8,15.5,147.3"/>
	<path class="st5" d="M31.8,112.7c2.9-5.3,6.1-9.2,7.1-8.6c1,0.6-0.5,5.3-3.4,10.6c-2.9,5.3-6.1,9.2-7.1,8.6
		C27.4,122.8,28.9,118.1,31.8,112.7z"/>
	<path class="st5" d="M27.8,150.2c-1.2,0-2.2-4.9-2.4-10.9c-0.1-6,0.7-11,1.9-11s2.2,4.9,2.4,10.9S29,150.2,27.8,150.2"/>
	<path class="st5" d="M26.6,101.2c1.2,0,2.2,4.9,2.4,10.9c0.1,6.1-0.7,11-1.9,11c-1.2,0-2.2-4.8-2.4-10.9
		C24.6,106.1,25.5,101.2,26.6,101.2"/>
	<path class="st6" d="M9,109.3c0.8-0.9,5.1,1.7,9.6,5.8c4.5,4.1,7.5,8,6.7,8.9s-5.1-1.7-9.6-5.8C11.2,114.1,8.2,110.2,9,109.3z"/>
	<path class="st6" d="M29.2,127.5c0.8-0.9,5.1,1.7,9.6,5.8c4.5,4.1,7.5,8,6.7,8.9s-5.1-1.7-9.6-5.8
		C31.4,132.3,28.4,128.3,29.2,127.5z"/>
	<path class="st6" d="M3.2,120.6c0.2-1.2,5.2-1.1,11.2,0.2c5.9,1.3,10.5,3.2,10.3,4.4c-0.2,1.2-5.2,1.1-11.2-0.2
		C7.6,123.7,3,121.7,3.2,120.6z"/>
	<path class="st6" d="M29.8,126.3c0.2-1.2,5.2-1.1,11.2,0.2c5.9,1.3,10.5,3.2,10.3,4.4C51,132,46,131.9,40,130.7
		C34.1,129.4,29.5,127.4,29.8,126.3z"/>
	<path class="st6" d="M13.6,127.4c5.8-1.7,10.8-2.1,11.1-1s-4.1,3.4-9.9,5.1c-5.8,1.7-10.8,2.1-11.1,1
		C3.3,131.3,7.8,129.1,13.6,127.4z"/>
	<path class="st6" d="M39.7,119.9c5.8-1.7,10.8-2.1,11.1-1c0.3,1.1-4.1,3.4-9.9,5.1c-5.8,1.7-10.8,2.1-11.1,1S33.9,121.6,39.7,119.9
		z"/>
	<path class="st6" d="M16.2,134c4.2-4.3,8.3-7.2,9.2-6.4c0.8,0.8-1.9,5-6.1,9.4c-4.2,4.3-8.3,7.2-9.2,6.4
		C9.3,142.5,12,138.3,16.2,134z"/>
	<path class="st6" d="M35.1,114.5c4.2-4.3,8.3-7.2,9.2-6.4c0.8,0.8-1.9,5-6.1,9.4c-4.2,4.3-8.3,7.2-9.2,6.4
		C28.2,123,30.9,118.8,35.1,114.5z"/>
	<path class="st6" d="M21.5,149.6c-1.2-0.3-0.9-5.3,0.5-11.1s3.5-10.4,4.6-10.2s0.9,5.3-0.5,11.2C24.7,145.3,22.6,149.8,21.5,149.6"
		/>
	<path class="st6" d="M33,101.8c1.1,0.3,0.9,5.3-0.5,11.2s-3.5,10.4-4.6,10.2c-1.1-0.3-0.9-5.3,0.5-11.2
		C29.7,106.1,31.8,101.6,33,101.8"/>
	<path class="st6" d="M34.1,149.3c-1.1,0.3-3.4-4.1-5.1-9.9c-1.7-5.8-2.2-10.8-1-11.1c1.2-0.3,3.4,4.1,5.1,9.9
		C34.8,144,35.3,148.9,34.1,149.3"/>
	<path class="st6" d="M20.3,102.2c1.1-0.3,3.4,4.1,5.1,9.9c1.7,5.8,2.2,10.8,1,11.1c-1.2,0.3-3.4-4.1-5.1-9.9
		C19.6,107.5,19.1,102.5,20.3,102.2"/>
	<path class="st7" d="M62.8,30.2c5.5,0,10,4.5,10,10s-4.5,10-10,10s-10-4.5-10-10S57.3,30.2,62.8,30.2z"/>
	<path class="st7" d="M27.1,119.5c3.3,0,6,2.7,6,6s-2.7,6-6,6s-6-2.7-6-6S23.8,119.5,27.1,119.5z"/>
	<path class="st2" d="M1.5,196.7c3.2-17.9,15.9-32,32-35.7c16.1-3.7,29.2,4.6,31.9,6.4c3.8-3.1,8.4-4.9,13.3-5.4
		c10.6-0.8,21.2,6.2,27.1,17.6"/>
	<path class="st3" d="M1.5,196.7c3.2-17.9,15.9-32,32-35.7c16.1-3.7,29.2,4.6,31.9,6.4c3.8-3.1,8.4-4.9,13.3-5.4
		c10.6-0.8,21.2,6.2,27.1,17.6"/>
	<path d="M56,140.9l10.5,2.5c1.1,0.3,1.7,1.3,1.5,2.4l-1.6,6.6c-0.3,1.1-1.3,1.7-2.4,1.5l-10.5-2.5c-1.1-0.3-1.7-1.3-1.5-2.4
		l1.6-6.6C53.8,141.3,54.9,140.6,56,140.9z"/>
	<path class="st4" d="M56,140.9l10.5,2.5c1.1,0.3,1.7,1.3,1.5,2.4l-1.6,6.6c-0.3,1.1-1.3,1.7-2.4,1.5l-10.5-2.5
		c-1.1-0.3-1.7-1.3-1.5-2.4l1.6-6.6C53.8,141.3,54.9,140.6,56,140.9z"/>
	<path class="st4" d="M95,176.9c0.6-2.8-2.8-15.6-10-21.9c-6.3-5.5-15.4-6.6-19.3-6.9"/>
</g>
</svg>
