<svg xmlns="http://www.w3.org/2000/svg" viewBox="0 0 107.17 197.14"><defs><style>.cls-1{fill:#008639;}.cls-2,.cls-5{fill:none;}.cls-2{stroke:#00b04c;stroke-width:10px;}.cls-2,.cls-3,.cls-4,.cls-5{stroke-miterlimit:10;}.cls-3{fill:#71491a;stroke:#54240e;}.cls-3,.cls-4,.cls-5{stroke-width:3px;}.cls-4,.cls-5{stroke:#000;}.cls-6{fill:#992f78;}.cls-7{fill:#c04097;}.cls-8{fill:#3f3f3f;}</style></defs><g id="newest_back" data-name="newest back"><path class="cls-1" d="M35.66,29.61l-10,4.72L36.54,44.92" transform="translate(1.06 0)"/><path class="cls-1" d="M12.56,41.29l4.78-9.94L2.24,30" transform="translate(1.06 0)"/><path class="cls-1" d="M18.26,48.1Q19,53.58,19.74,59l13.37-7.15" transform="translate(1.06 0)"/><path class="cls-1" d="M17.45,75.63q-2.14-5.07-4.3-10.15l-11,10.41" transform="translate(1.06 0)"/><path class="cls-1" d="M19.27,84.56l-9,6.43L22.9,99.45" transform="translate(1.06 0)"/><path class="cls-1" d="M42.54,96.17l-9.6-5.43q-1.2,7.49-2.39,15" transform="translate(1.06 0)"/><path class="cls-1" d="M26.84,73.53l6.69,8.77,8.1-12.82" transform="translate(1.06 0)"/><path class="cls-1" d="M70.35,111,80.66,107q-5-5.72-10-11.42" transform="translate(1.06 0)"/><path class="cls-1" d="M97.88,104.38l-8.77,6.7,12.83,8.08" transform="translate(1.06 0)"/><path class="cls-1" d="M88,66.92,97.76,72q.9-7.53,1.81-15.06" transform="translate(1.06 0)"/><path class="cls-1" d="M66.66,126c-.26,3.67-.51,7.34-.77,11l14.55-4.29" transform="translate(1.06 0)"/><path class="cls-2" d="M48.07,172.73c9.27-11.49,19.39-50.5,9.65-64.39-10.49-15-26.11-16.62-36.87-36.4C9.25,50.6,16.19,33.27,30.36,27.33c16-6.69,22.2-3.12,24.93,2.93" transform="translate(1.06 0)"/><path class="cls-2" d="M60.85,119.13c6.36-6.27,38.81-5.7,38.78-33.35,0-11.83-18.38-18-19.39-13.79" transform="translate(1.06 0)"/><path class="cls-2" d="M29.6,83.79C15.79,77.3,5.9,90.6,6,99.2c.09,12.55,15.07,24,21.5,22.21" transform="translate(1.06 0)"/><path class="cls-3" d="M.41,196.88c3.18-17.93,15.87-32,32-35.68s29.2,4.58,31.92,6.38a24.59,24.59,0,0,1,13.27-5.36c10.58-.76,21.23,6.2,27.11,17.62" transform="translate(1.06 0)"/><path class="cls-1" d="M83,65.68c-3.75-4-9.68-4.8-13.91-3.68C57,65.21,50.65,86.13,56.59,92.09c5.48,5.51,24,.91,28.57-10.54C86.83,77.33,87.32,70.35,83,65.68Z" transform="translate(1.06 0)"/><rect class="cls-4" x="51.41" y="142.08" width="14.78" height="10.78" rx="2" transform="translate(37.22 -9.67) rotate(13.54)"/><path class="cls-5" d="M93.86,177c.56-2.79-2.76-15.56-10-21.85-6.26-5.48-15.4-6.57-19.27-6.86" transform="translate(1.06 0)"/></g><g id="flowers"><ellipse id="petals" class="cls-6" cx="49.8" cy="21.54" rx="3.49" ry="17.97" transform="translate(-2.64 30.59) rotate(-32.99)"/><ellipse id="petals-2" data-name="petals" class="cls-6" cx="74.04" cy="58.89" rx="3.49" ry="17.97" transform="translate(-19.06 49.81) rotate(-32.99)"/><ellipse id="petals-3" data-name="petals" class="cls-6" cx="42.12" cy="30.06" rx="3.49" ry="17.97" transform="translate(-2.79 53.82) rotate(-62.85)"/><ellipse id="petals-4" data-name="petals" class="cls-6" cx="81.73" cy="50.37" rx="3.49" ry="17.97" transform="translate(0.67 100.11) rotate(-62.85)"/><ellipse id="petals-5" data-name="petals" class="cls-6" cx="39.67" cy="40.6" rx="17.97" ry="3.49" transform="translate(0.36 0.7) rotate(-1)"/><ellipse id="petals-6" data-name="petals" class="cls-6" cx="84.18" cy="39.83" rx="17.97" ry="3.49" transform="translate(0.38 1.48) rotate(-1)"/><ellipse id="petals-7" data-name="petals" class="cls-6" cx="42.82" cy="51.63" rx="17.97" ry="3.49" transform="translate(-19.36 29.28) rotate(-30.86)"/><ellipse id="petals-8" data-name="petals" class="cls-6" cx="81.03" cy="28.8" rx="17.97" ry="3.49" transform="translate(-2.24 45.65) rotate(-30.86)"/><ellipse id="petals-9" data-name="petals" class="cls-6" cx="51.28" cy="59.77" rx="17.97" ry="3.49" transform="translate(-24.67 76.24) rotate(-61.45)"/><ellipse id="petals-10" data-name="petals" class="cls-6" cx="72.56" cy="20.66" rx="17.97" ry="3.49" transform="translate(20.79 74.52) rotate(-61.45)"/><ellipse id="petals-11" data-name="petals" class="cls-6" cx="62.43" cy="62.47" rx="3.49" ry="17.97" transform="translate(-0.35 1.44) rotate(-1.31)"/><ellipse id="petals-12" data-name="petals" class="cls-6" cx="61.41" cy="17.96" rx="3.49" ry="17.97" transform="translate(0.67 1.41) rotate(-1.31)"/><ellipse id="petals-13" data-name="petals" class="cls-7" cx="45.38" cy="25.32" rx="3.49" ry="17.97" transform="translate(-2.74 42.1) rotate(-48)"/><ellipse id="petals-14" data-name="petals" class="cls-7" cx="78.47" cy="55.11" rx="3.49" ry="17.97" transform="translate(-13.93 76.55) rotate(-48)"/><ellipse id="petals-15" data-name="petals" class="cls-7" cx="40.16" cy="35.54" rx="3.49" ry="17.97" transform="translate(-1.96 67.33) rotate(-77.86)"/><ellipse id="petals-16" data-name="petals" class="cls-7" cx="83.68" cy="44.9" rx="3.49" ry="17.97" transform="translate(23.26 117.27) rotate(-77.86)"/><ellipse id="petals-17" data-name="petals" class="cls-7" cx="40.53" cy="46.36" rx="17.97" ry="3.49" transform="translate(-10.16 12.98) rotate(-16.02)"/><ellipse id="petals-18" data-name="petals" class="cls-7" cx="83.32" cy="34.07" rx="17.97" ry="3.49" transform="translate(-5.11 24.31) rotate(-16.02)"/><ellipse id="petals-19" data-name="petals" class="cls-7" cx="46.43" cy="56.19" rx="17.97" ry="3.49" transform="matrix(0.7, -0.72, 0.72, 0.7, -25.17, 50.4)"/><ellipse id="petals-20" data-name="petals" class="cls-7" cx="77.42" cy="24.24" rx="17.97" ry="3.49" transform="translate(7.19 62.94) rotate(-45.88)"/><ellipse id="petals-21" data-name="petals" class="cls-7" cx="56.71" cy="61.86" rx="17.97" ry="3.49" transform="translate(-15.64 102.51) rotate(-76.46)"/><ellipse id="petals-22" data-name="petals" class="cls-7" cx="67.13" cy="18.57" rx="17.97" ry="3.49" transform="translate(34.42 79.49) rotate(-76.46)"/><ellipse id="petals-23" data-name="petals" class="cls-7" cx="68.18" cy="61.58" rx="3.49" ry="17.97" transform="translate(-13.5 21.64) rotate(-16.32)"/><ellipse id="petals-24" data-name="petals" class="cls-7" cx="55.67" cy="18.85" rx="3.49" ry="17.97" transform="translate(-1.99 16.41) rotate(-16.32)"/><ellipse id="petals-25" data-name="petals" class="cls-6" cx="18.76" cy="114.31" rx="2.13" ry="10.96" transform="translate(-58.15 28.64) rotate(-32.99)"/><path id="petals-26" data-name="petals" class="cls-6" d="M39.52,146.29c-1,.64-4.46-3-7.76-8s-5.17-9.71-4.18-10.35,4.46,3,7.75,8,5.17,9.72,4.19,10.36" transform="translate(1.06 0)"/><ellipse id="petals-27" data-name="petals" class="cls-6" cx="14.07" cy="119.5" rx="2.13" ry="10.96" transform="translate(-97.62 77.49) rotate(-62.85)"/><ellipse id="petals-28" data-name="petals" class="cls-6" cx="38.24" cy="131.9" rx="2.13" ry="10.96" transform="translate(-95.51 105.73) rotate(-62.85)"/><path id="petals-29" data-name="petals" class="cls-6" d="M1.61,126.13c0-1.18,4.87-2.21,10.93-2.32s11,.76,11,1.94-4.87,2.21-10.92,2.32-11-.76-11-1.94" transform="translate(1.06 0)"/><ellipse id="petals-30" data-name="petals" class="cls-6" cx="39.73" cy="125.46" rx="10.96" ry="2.13" transform="translate(-1.13 0.71) rotate(-1)"/><ellipse id="petals-31" data-name="petals" class="cls-6" cx="14.49" cy="132.67" rx="10.96" ry="2.13" transform="matrix(0.86, -0.51, 0.51, 0.86, -64.94, 26.22)"/><ellipse id="petals-32" data-name="petals" class="cls-6" cx="37.81" cy="118.73" rx="10.96" ry="2.13" transform="translate(-54.49 36.21) rotate(-30.86)"/><path id="petals-33" data-name="petals" class="cls-6" d="M14.42,147.26c-1-.56.48-5.33,3.37-10.65s6.08-9.17,7.11-8.61-.47,5.33-3.37,10.65-6.08,9.17-7.11,8.61" transform="translate(1.06 0)"/><ellipse id="petals-34" data-name="petals" class="cls-6" cx="32.64" cy="113.77" rx="10.96" ry="2.13" transform="translate(-81.83 88.06) rotate(-61.45)"/><path id="petals-35" data-name="petals" class="cls-6" d="M26.71,150.24c-1.17,0-2.24-4.86-2.38-10.91s.71-11,1.88-11,2.24,4.86,2.38,10.91-.7,11-1.88,11" transform="translate(1.06 0)"/><path id="petals-36" data-name="petals" class="cls-6" d="M25.59,101.16c1.18,0,2.24,4.86,2.38,10.92s-.7,11-1.88,11-2.24-4.85-2.38-10.91.71-11,1.88-11" transform="translate(1.06 0)"/><ellipse id="petals-37" data-name="petals" class="cls-7" cx="16.06" cy="116.61" rx="2.13" ry="10.96" transform="translate(-80.29 50.52) rotate(-48)"/><ellipse id="petals-38" data-name="petals" class="cls-7" cx="36.25" cy="134.79" rx="2.13" ry="10.96" transform="translate(-87.12 71.54) rotate(-48)"/><ellipse id="petals-39" data-name="petals" class="cls-7" cx="12.87" cy="122.85" rx="2.13" ry="10.96" transform="translate(-108.87 109.61) rotate(-77.86)"/><ellipse id="petals-40" data-name="petals" class="cls-7" cx="39.43" cy="128.56" rx="2.13" ry="10.96" transform="translate(-93.48 140.08) rotate(-77.86)"/><ellipse id="petals-41" data-name="petals" class="cls-7" cx="13.1" cy="129.45" rx="10.96" ry="2.13" transform="translate(-34.15 8.64) rotate(-16.02)"/><ellipse id="petals-42" data-name="petals" class="cls-7" cx="39.21" cy="121.95" rx="10.96" ry="2.13" transform="translate(-31.07 15.55) rotate(-16.02)"/><ellipse id="petals-43" data-name="petals" class="cls-7" cx="16.7" cy="135.45" rx="10.96" ry="2.13" transform="translate(-91.1 53.14) rotate(-45.88)"/><ellipse id="petals-44" data-name="petals" class="cls-7" cx="35.61" cy="115.95" rx="10.96" ry="2.13" transform="translate(-71.36 60.79) rotate(-45.88)"/><path id="petals-45" data-name="petals" class="cls-7" d="M20.41,149.56c-1.15-.27-.92-5.27.49-11.15s3.5-10.44,4.64-10.16.92,5.27-.5,11.15-3.49,10.44-4.63,10.16" transform="translate(1.06 0)"/><path id="petals-46" data-name="petals" class="cls-7" d="M31.9,101.84c1.14.28.92,5.27-.5,11.16s-3.49,10.43-4.63,10.16-.93-5.27.49-11.16,3.49-10.44,4.64-10.16" transform="translate(1.06 0)"/><path id="petals-47" data-name="petals" class="cls-7" d="M33.05,149.26c-1.13.33-3.42-4.12-5.12-9.93s-2.17-10.78-1-11.11,3.42,4.11,5.12,9.92,2.17,10.79,1,11.12" transform="translate(1.06 0)"/><path id="petals-48" data-name="petals" class="cls-7" d="M19.25,102.15c1.13-.33,3.43,4.11,5.13,9.92s2.17,10.79,1,11.12-3.43-4.11-5.13-9.92-2.16-10.79-1-11.12" transform="translate(1.06 0)"/></g><g id="centers"><circle class="cls-8" cx="62.85" cy="40.19" r="9.98"/><circle class="cls-8" cx="27.1" cy="125.46" r="5.99"/></g><g id="dirt"><path class="cls-3" d="M.49,196.73c3.18-17.93,15.87-32,32-35.68s29.2,4.58,31.91,6.38a24.66,24.66,0,0,1,13.28-5.36c10.58-.76,21.23,6.2,27.11,17.62" transform="translate(1.06 0)"/></g><g id="new_tag" data-name="new tag"><rect class="cls-4" x="51.49" y="142.01" width="14.78" height="10.78" rx="2" transform="translate(37.2 -9.69) rotate(13.54)"/><path class="cls-5" d="M93.93,176.93c.56-2.8-2.75-15.56-10-21.86-6.27-5.47-15.4-6.57-19.27-6.85" transform="translate(1.06 0)"/></g></svg>