<?xml version="1.0" encoding="utf-8"?>
<!-- Generator: Adobe Illustrator 25.0.1, SVG Export Plug-In . SVG Version: 6.00 Build 0)  -->
<svg version="1.1" id="Layer_1" xmlns="http://www.w3.org/2000/svg" xmlns:xlink="http://www.w3.org/1999/xlink" x="0px" y="0px"
	 viewBox="0 0 107.1 197.1" style="enable-background:new 0 0 107.1 197.1;" xml:space="preserve">
<style type="text/css">
	.st0{fill:none;stroke:#008639;stroke-width:5;stroke-miterlimit:10;}
	.st1{fill:none;stroke:#00B04C;stroke-width:10;stroke-miterlimit:10;}
	.st2{fill:#008639;}
	.st3{fill:#71491A;}
	.st4{fill:none;stroke:#54240E;stroke-width:3;stroke-miterlimit:10;}
	.st5{fill:#00B04C;}
	.st6{fill:none;stroke:#000000;stroke-width:3;stroke-miterlimit:10;}
	.st7{fill:#992F78;}
	.st8{fill:#C04097;}
	.st9{fill:#73EFEB;}
</style>
<g>
	<path class="st0" d="M23,75.4c0-0.8,0-12.8,4.6-17.4c4-4,12.4-1.9,14.3,2.4c0.9,2.5,0.4,5.2-1.4,7.1c-2.1,2.4-6.3,3.3-7.7,1.7
		s0.4-4.8,0.5-5.1"/>
	<path class="st0" d="M21,34.5c1.1-3.3,0.2-7-2.3-9.5c-3.2-2.9-8.6-2.8-11.3,0.3c-2,2.4-2.9,6.9-0.8,8.5c1.4,1.1,3.9,0.7,6.2-0.9"/>
	<path class="st0" d="M78.9,112.4c0.6-0.2,7.6-2.3,13.3,2.3c2.9,2.4,4.8,5.9,5.1,9.7c0.3,3.9-0.9,7.7-3.4,10.7
		c-2.6,2.9-7.8,6.3-13,4.4c-3.2-1.2-6.7-4.6-6.5-8.7c0.1-2.3,1.5-6,4.9-6.6c3-0.4,5.9,1.3,7,4.1"/>
	<path class="st1" d="M49.1,172.7c9.3-11.5,19.4-50.5,9.6-64.4c-10.5-15-26.1-16.6-36.9-36.4c-11.6-21.3-4.7-38.7,9.5-44.6
		c16-6.7,22.2-3.1,24.9,2.9"/>
	<path class="st1" d="M61.9,119.1c6.4-6.3,38.8-5.7,38.8-33.4c0-11.8-18.4-18-19.4-13.8"/>
	<path class="st1" d="M30.7,83.8C16.9,77.3,7,90.6,7,99.2c0.1,12.6,15.1,23.9,21.5,22.2"/>
	<path class="st2" d="M52.7,22.9c1.8,0,3.3,1.5,3.3,3.3c0,1.8-1.5,3.3-3.3,3.3c-1.8,0-3.3-1.5-3.3-3.3
		C49.4,24.3,50.9,22.9,52.7,22.9z"/>
	<circle class="st2" cx="45.6" cy="22.9" r="3.3"/>
	<circle class="st2" cx="38.1" cy="26.1" r="3.3"/>
	<circle class="st2" cx="29.4" cy="27.2" r="3.3"/>
	<circle class="st2" cx="24.1" cy="33.7" r="3.3"/>
	<circle class="st2" cx="17.6" cy="38.8" r="3.3"/>
	<circle class="st2" cx="17.6" cy="47.6" r="3.3"/>
	<circle class="st2" cx="15.5" cy="55.9" r="3.3"/>
	<path class="st2" d="M19.3,60c1.8,0,3.3,1.5,3.3,3.3c0,1.8-1.5,3.3-3.3,3.3c-1.8,0-3.3-1.5-3.3-3.3C16.1,61.4,17.5,60,19.3,60z"/>
	<circle class="st2" cx="20.9" cy="71.6" r="3.3"/>
	<path class="st2" d="M26.3,74.9c1.8,0,3.3,1.5,3.3,3.3c0,1.8-1.5,3.3-3.3,3.3c-1.8,0-3.3-1.5-3.3-3.3C23,76.4,24.5,74.9,26.3,74.9z
		"/>
	<circle class="st2" cx="19.7" cy="82.9" r="3.3"/>
	<circle class="st2" cx="12.2" cy="86.1" r="3.3"/>
	<circle class="st2" cx="8.9" cy="94.1" r="3.3"/>
	<path class="st2" d="M7,98.5c1.8,0,3.3,1.5,3.3,3.3c0,1.8-1.5,3.3-3.3,3.3c-1.8,0-3.3-1.5-3.3-3.3C3.8,100,5.2,98.5,7,98.5z"/>
	<path class="st2" d="M11.1,105.4c1.8,0,3.3,1.5,3.3,3.3s-1.5,3.3-3.3,3.3c-1.8,0-3.3-1.5-3.3-3.3S9.3,105.4,11.1,105.4z"/>
	<path class="st2" d="M14.6,113c1.8,0,3.3,1.5,3.3,3.3c0,1.8-1.5,3.3-3.3,3.3s-3.3-1.5-3.3-3.3C11.3,114.5,12.8,113,14.6,113z"/>
	<path class="st2" d="M22.1,116.3c1.8,0,3.3,1.5,3.3,3.3c0,1.8-1.5,3.3-3.3,3.3c-1.8,0-3.3-1.5-3.3-3.3
		C18.8,117.8,20.3,116.3,22.1,116.3z"/>
	<circle class="st2" cx="31.5" cy="85.3" r="3.3"/>
	<path class="st2" d="M38.7,86.1c1.8,0,3.3,1.5,3.3,3.3c0,1.8-1.5,3.3-3.3,3.3c-1.8,0-3.3-1.5-3.3-3.3
		C35.5,87.6,36.9,86.1,38.7,86.1z"/>
	<circle class="st2" cx="43.9" cy="95.6" r="3.3"/>
	<path class="st2" d="M51.5,95.6c1.8,0,3.3,1.5,3.3,3.3s-1.5,3.3-3.3,3.3c-1.8,0-3.3-1.5-3.3-3.3S49.7,95.6,51.5,95.6z"/>
	<path class="st2" d="M55.7,102.1c1.8,0,3.3,1.5,3.3,3.3c0,1.8-1.5,3.3-3.3,3.3c-1.8,0-3.3-1.5-3.3-3.3
		C52.4,103.6,53.8,102.1,55.7,102.1z"/>
	<path class="st2" d="M61.3,108.3c1.8,0,3.3,1.5,3.3,3.3c0,1.8-1.5,3.3-3.3,3.3s-3.3-1.5-3.3-3.3C58,109.8,59.5,108.3,61.3,108.3z"
		/>
	<path class="st2" d="M62.8,116.3c1.8,0,3.3,1.5,3.3,3.3c0,1.8-1.5,3.3-3.3,3.3s-3.3-1.5-3.3-3.3C59.5,117.8,60.9,116.3,62.8,116.3z
		"/>
	<path class="st2" d="M69.5,111.6c1.8,0,3.3,1.5,3.3,3.3s-1.5,3.3-3.3,3.3c-1.8,0-3.3-1.5-3.3-3.3S67.7,111.6,69.5,111.6z"/>
	<path class="st2" d="M61.9,123.8c1.8,0,3.3,1.5,3.3,3.3c0,1.8-1.5,3.3-3.3,3.3s-3.3-1.5-3.3-3.3C58.6,125.3,60.1,123.8,61.9,123.8z
		"/>
	<path class="st2" d="M63.5,131.4c1.8,0,3.3,1.5,3.3,3.3c0,1.8-1.5,3.3-3.3,3.3c-1.8,0-3.3-1.5-3.3-3.3
		C60.2,132.9,61.7,131.4,63.5,131.4z"/>
	<path class="st2" d="M60.2,138.3c1.8,0,3.3,1.5,3.3,3.3c0,1.8-1.5,3.3-3.3,3.3c-1.8,0-3.3-1.5-3.3-3.3
		C57,139.7,58.4,138.3,60.2,138.3z"/>
	<path class="st2" d="M58,153.5c1.8,0,3.3,1.5,3.3,3.3c0,1.8-1.5,3.3-3.3,3.3c-1.8,0-3.3-1.5-3.3-3.3
		C54.8,154.9,56.2,153.5,58,153.5z"/>
	<path class="st2" d="M77.8,108.3c1.8,0,3.3,1.5,3.3,3.3c0,1.8-1.5,3.3-3.3,3.3s-3.3-1.5-3.3-3.3C74.6,109.8,76,108.3,77.8,108.3z"
		/>
	<path class="st2" d="M85.6,107.2c1.8,0,3.3,1.5,3.3,3.3c0,1.8-1.5,3.3-3.3,3.3s-3.3-1.5-3.3-3.3C82.4,108.7,83.8,107.2,85.6,107.2z
		"/>
	<path class="st2" d="M91.8,101.1c1.8,0,3.3,1.5,3.3,3.3c0,1.8-1.5,3.3-3.3,3.3s-3.3-1.5-3.3-3.3C88.5,102.6,89.9,101.1,91.8,101.1z
		"/>
	<path class="st2" d="M98.7,96.2c1.8,0,3.3,1.5,3.3,3.3s-1.5,3.3-3.3,3.3c-1.8,0-3.3-1.5-3.3-3.3S96.8,96.2,98.7,96.2z"/>
	<path class="st2" d="M99.5,88.4c1.8,0,3.3,1.5,3.3,3.3c0,1.8-1.5,3.3-3.3,3.3c-1.8,0-3.3-1.5-3.3-3.3
		C96.2,89.8,97.7,88.4,99.5,88.4z"/>
	<path class="st2" d="M101.9,80.5c1.8,0,3.3,1.5,3.3,3.3s-1.5,3.3-3.3,3.3s-3.3-1.5-3.3-3.3S100.1,80.5,101.9,80.5z"/>
	<path class="st2" d="M96.2,74c1.8,0,3.3,1.5,3.3,3.3s-1.5,3.3-3.3,3.3c-1.8,0-3.3-1.5-3.3-3.3S94.4,74,96.2,74z"/>
	<path class="st2" d="M90.1,68.4c1.8,0,3.3,1.5,3.3,3.3c0,1.8-1.5,3.3-3.3,3.3c-1.8,0-3.3-1.5-3.3-3.3
		C86.8,69.8,88.3,68.4,90.1,68.4z"/>
	<path class="st3" d="M1.5,196.9c3.2-17.9,15.9-32,32-35.7c16.1-3.7,29.2,4.6,31.9,6.4c3.8-3.1,8.4-4.9,13.3-5.4
		c10.6-0.8,21.2,6.2,27.1,17.6"/>
	<path class="st4" d="M1.5,196.9c3.2-17.9,15.9-32,32-35.7c16.1-3.7,29.2,4.6,31.9,6.4c3.8-3.1,8.4-4.9,13.3-5.4
		c10.6-0.8,21.2,6.2,27.1,17.6"/>
	<path class="st2" d="M57,28.9c3-1,9-3.1,14.1-0.4c8.7,4.7,10,20.6,5.2,24c-1.9,1.3-4.7,0.6-6.9-0.2c0,0.2,0.4,3.1-1.6,4.8
		c-2,1.7-5.2,1.4-7.5-0.8c-0.4,1.3-1.2,3-2.6,3.3c-4.6,1.1-16-12.6-12.1-22.2C47.8,32.1,53.9,30,57,28.9z"/>
	<path class="st2" d="M84.6,73.3c1.6,2.1,4.6,6.2,3.7,10.9C86.8,92.1,74.7,97,71,94c-1.5-1.2-1.6-3.5-1.5-5.4
		c-2,1.1-4.5,0.3-5.6-1.7c-0.8-1.4-0.6-3.1,0.3-4.4c-1.1,0-2.6-0.2-3.2-1.2c-2-3.3,5.9-15.5,14.3-14.8C79.9,67,83,71.2,84.6,73.3z"
		/>
	<path class="st2" d="M24.6,123c0.9,2.5,2.7,7.3,7,9.1c7.4,3.1,18.2-4.3,17.8-9.1c-0.1-1.9-2-3.3-3.7-4.2c2-1.1,2.7-3.6,1.6-5.7
		c-0.8-1.4-2.2-2.2-3.8-2.1c0.6-0.9,1.3-2.3,0.8-3.3c-1.6-3.5-16.2-3.6-20.2,3.8C21.8,115.6,23.6,120.5,24.6,123z"/>
	<path class="st5" d="M79,80.6c3,0,5.5,2.5,5.5,5.5c0,3-2.5,5.5-5.5,5.5s-5.5-2.5-5.5-5.5C73.5,83.1,76,80.6,79,80.6z"/>
	<path class="st5" d="M73.8,68.4c3,0,5.5,2.5,5.5,5.5s-2.5,5.5-5.5,5.5s-5.5-2.5-5.5-5.5S70.7,68.4,73.8,68.4z"/>
	<path class="st5" d="M52.4,34.5c3,0,5.5,2.5,5.5,5.5c0,3-2.5,5.5-5.5,5.5S46.9,43,46.9,40C46.9,36.9,49.3,34.5,52.4,34.5z"/>
	<path class="st5" d="M65.7,29c3,0,5.5,2.5,5.5,5.5S68.7,40,65.7,40c-3,0-5.5-2.5-5.5-5.5S62.6,29,65.7,29z"/>
	<path class="st5" d="M64.2,43.1c3,0,5.5,2.5,5.5,5.5c0,3-2.5,5.5-5.5,5.5s-5.5-2.5-5.5-5.5C58.7,45.6,61.2,43.1,64.2,43.1z"/>
	<path class="st5" d="M39.4,112.6c3,0,5.5,2.5,5.5,5.5c0,3-2.5,5.5-5.5,5.5c-3,0-5.5-2.5-5.5-5.5C33.9,115.1,36.4,112.6,39.4,112.6z
		"/>
	<path class="st5" d="M73.8,41.1c1.8,0,3.3,1.5,3.3,3.3c0,1.8-1.5,3.3-3.3,3.3c-1.8,0-3.3-1.5-3.3-3.3C70.5,42.6,72,41.1,73.8,41.1z
		"/>
	<path class="st5" d="M53.6,47.6c1.8,0,3.3,1.5,3.3,3.3c0,1.8-1.5,3.3-3.3,3.3c-1.8,0-3.3-1.5-3.3-3.3
		C50.4,49.1,51.8,47.6,53.6,47.6z"/>
	<path class="st5" d="M68.5,80.2c1.8,0,3.3,1.5,3.3,3.3s-1.5,3.3-3.3,3.3c-1.8,0-3.3-1.5-3.3-3.3S66.7,80.2,68.5,80.2z"/>
	<path class="st5" d="M30.7,108.5c1.8,0,3.3,1.5,3.3,3.3c0,1.8-1.5,3.3-3.3,3.3c-1.8,0-3.3-1.5-3.3-3.3
		C27.4,110,28.9,108.5,30.7,108.5z"/>
	<path class="st5" d="M33.9,123.8c1.8,0,3.3,1.5,3.3,3.3c0,1.8-1.5,3.3-3.3,3.3c-1.8,0-3.3-1.5-3.3-3.3
		C30.7,125.3,32.1,123.8,33.9,123.8z"/>
	<path d="M55.9,140.9l10.5,2.5c1.1,0.3,1.7,1.3,1.5,2.4l-1.6,6.6c-0.3,1.1-1.3,1.7-2.4,1.5l-10.5-2.5c-1.1-0.3-1.7-1.3-1.5-2.4
		l1.6-6.6C53.7,141.4,54.8,140.7,55.9,140.9z"/>
	<path class="st6" d="M55.9,140.9l10.5,2.5c1.1,0.3,1.7,1.3,1.5,2.4l-1.6,6.6c-0.3,1.1-1.3,1.7-2.4,1.5l-10.5-2.5
		c-1.1-0.3-1.7-1.3-1.5-2.4l1.6-6.6C53.7,141.4,54.8,140.7,55.9,140.9z"/>
	<path class="st6" d="M94.9,177c0.6-2.8-2.8-15.6-10-21.8c-6.3-5.5-15.4-6.6-19.3-6.9"/>
	<path class="st7" d="M41,6.5c1.6-1,7.3,4.8,12.7,13.2c5.4,8.3,8.5,15.9,6.9,17c-1.6,1-7.3-4.8-12.7-13.2S39.4,7.5,41,6.5z"/>
	<path class="st7" d="M65.3,43.8c1.6-1,7.3,4.8,12.7,13.2c5.4,8.3,8.5,15.9,6.9,17c-1.6,1-7.3-4.8-12.7-13.2
		C66.7,52.5,63.6,44.9,65.3,43.8z"/>
	<path class="st7" d="M27.1,21.9c0.9-1.7,8.8,0.6,17.6,5.1S60,36.5,59.1,38.3c-0.9,1.7-8.8-0.6-17.6-5.1S26.2,23.6,27.1,21.9z"/>
	<path class="st7" d="M66.7,42.2c0.9-1.7,8.8,0.6,17.6,5.1s15.3,9.6,14.4,11.3c-0.9,1.7-8.8-0.6-17.6-5.1S65.9,43.9,66.7,42.2z"/>
	<path class="st7" d="M40.6,37.1c9.9-0.2,18,1.2,18,3.2c0,1.9-8,3.6-17.9,3.8c-9.9,0.2-18-1.2-18-3.2C22.7,39,30.7,37.3,40.6,37.1z"
		/>
	<path class="st7" d="M85.1,36.3c9.9-0.2,18,1.2,18,3.2c0,1.9-8,3.6-17.9,3.8c-9.9,0.2-18-1.2-18-3.2S75.2,36.5,85.1,36.3z"/>
	<path class="st7" d="M42,48.6c8.5-5.1,16.2-7.9,17.2-6.2c1,1.7-5.1,7.1-13.6,12.2c-8.5,5.1-16.2,7.9-17.2,6.2
		C27.4,59.2,33.5,53.7,42,48.6z"/>
	<path class="st7" d="M80.2,25.8c8.5-5.1,16.2-7.9,17.2-6.2s-5.1,7.1-13.6,12.2S67.6,39.7,66.6,38C65.6,36.4,71.7,30.9,80.2,25.8z"
		/>
	<path class="st7" d="M49.2,58.1c4.7-8.7,10-15,11.7-14.1c1.7,0.9-0.8,8.7-5.5,17.5s-10,15-11.7,14.1C42,74.6,44.5,66.8,49.2,58.1z"
		/>
	<path class="st7" d="M70.5,19c4.7-8.7,10-15,11.7-14.1s-0.8,8.7-5.5,17.5c-4.7,8.7-10,15-11.7,14.1C63.3,35.5,65.7,27.7,70.5,19z"
		/>
	<path class="st7" d="M63,44.5c1.9,0,3.7,8,3.9,17.9s-1.2,18-3.1,18c-1.9,0-3.7-8-3.9-17.9C59.7,52.6,61.1,44.5,63,44.5z"/>
	<path class="st7" d="M62,0c1.9,0,3.7,8,3.9,17.9c0.2,9.9-1.2,18-3.1,18s-3.7-8-3.9-17.9C58.7,8.1,60.1,0,62,0z"/>
	<path class="st8" d="M33,13.3c1.3-1.4,8.3,2.8,15.7,9.4c7.4,6.6,12.3,13.2,11,14.6c-1.3,1.4-8.3-2.8-15.7-9.4
		C36.7,21.3,31.7,14.7,33,13.3z"/>
	<path class="st8" d="M66.1,43.1c1.3-1.4,8.3,2.8,15.7,9.4c7.4,6.6,12.3,13.2,11,14.6c-1.3,1.4-8.3-2.8-15.7-9.4
		C69.8,51.1,64.8,44.5,66.1,43.1z"/>
	<path class="st8" d="M23.6,31.8c0.4-1.9,8.6-1.7,18.3,0.4c9.7,2.1,17.2,5.3,16.8,7.2c-0.4,1.9-8.6,1.7-18.3-0.4
		C30.7,36.9,23.2,33.6,23.6,31.8z"/>
	<ellipse transform="matrix(0.2103 -0.9776 0.9776 0.2103 22.9817 118.2581)" class="st8" cx="84.7" cy="44.9" rx="3.5" ry="18"/>
	<path class="st8" d="M40.7,42.8c9.5-2.8,17.7-3.5,18.2-1.7c0.5,1.9-6.7,5.6-16.3,8.4C33.1,52.3,25,53,24.4,51.2
		C23.9,49.3,31.2,45.6,40.7,42.8z"/>
	<path class="st8" d="M83.4,30.7c9.5-2.7,17.7-3.5,18.2-1.6c0.5,1.9-6.8,5.6-16.3,8.3C75.7,40.2,67.6,40.9,67,39
		S73.8,33.5,83.4,30.7z"/>
	<path class="st8" d="M45.2,53.9c6.9-7.1,13.7-11.8,15.1-10.5s-3.1,8.2-10.1,15.4c-6.9,7.1-13.7,11.8-15.1,10.5
		C33.8,67.9,38.3,61,45.2,53.9z"/>
	<path class="st8" d="M75.9,21.8c6.9-7.1,13.6-11.8,15-10.5c1.4,1.3-3.1,8.2-10,15.3c-6.9,7.1-13.6,11.8-15,10.5
		C64.5,35.8,69,28.9,75.9,21.8z"/>
	<path class="st8" d="M54.3,61c2.3-9.6,5.7-17.1,7.6-16.7s1.5,8.6-0.8,18.3c-2.3,9.6-5.7,17.1-7.6,16.7C51.6,78.9,52,70.7,54.3,61z"
		/>
	<path class="st8" d="M64.7,17.8c2.3-9.6,5.7-17.1,7.6-16.7c1.9,0.5,1.5,8.6-0.8,18.3c-2.3,9.6-5.7,17.1-7.6,16.7
		S62.4,27.4,64.7,17.8z"/>
	<path class="st8" d="M64.1,44.3c1.8-0.5,5.6,6.7,8.4,16.3c2.8,9.5,3.6,17.7,1.7,18.2c-1.8,0.5-5.6-6.7-8.4-16.3
		C63,53,62.3,44.9,64.1,44.3z"/>
	<path class="st8" d="M51.6,1.6c1.8-0.5,5.6,6.7,8.4,16.3c2.8,9.5,3.5,17.7,1.7,18.2c-1.8,0.5-5.6-6.7-8.4-16.3
		C50.5,10.3,49.8,2.1,51.6,1.6z"/>
	<ellipse transform="matrix(0.8388 -0.5445 0.5445 0.8388 -59.0558 29.1891)" class="st7" cx="19.8" cy="114.3" rx="2.1" ry="11"/>
	<path class="st7" d="M40.5,146.3c-1,0.6-4.5-3-7.8-8c-3.3-5-5.2-9.7-4.2-10.3c1-0.6,4.5,3,7.8,8S41.5,145.7,40.5,146.3"/>
	<path class="st7" d="M5.3,114.5c0.5-1,5.3,0.3,10.7,3.1c5.4,2.8,9.3,5.8,8.8,6.9c-0.5,1-5.3-0.3-10.7-3.1
		C8.7,118.6,4.8,115.5,5.3,114.5z"/>
	<path class="st7" d="M29.5,126.9c0.5-1,5.3,0.3,10.7,3.1c5.4,2.8,9.3,5.8,8.8,6.9s-5.3-0.3-10.7-3.1C32.9,131,29,127.9,29.5,126.9z
		"/>
	<path class="st7" d="M2.6,126.1c0-1.2,4.9-2.2,10.9-2.3c6.1-0.1,11,0.8,11,1.9s-4.9,2.3-10.9,2.3C7.6,128.1,2.6,127.3,2.6,126.1"/>
	<path class="st7" d="M41,123.2c6.1-0.1,11,0.7,11,1.9c0,1.2-4.9,2.2-10.9,2.3s-11-0.7-11-1.9S35,123.4,41,123.2z"/>
	<path class="st7" d="M14.4,130.9c5.2-3.1,9.9-4.8,10.5-3.8c0.6,1-3.1,4.3-8.3,7.5c-5.2,3.1-9.9,4.8-10.5,3.8S9.2,134,14.4,130.9z"
		/>
	<path class="st7" d="M37.4,117.2c5.2-3.1,9.9-4.8,10.5-3.8c0.6,1-3.1,4.3-8.3,7.4s-9.9,4.8-10.5,3.8
		C28.5,123.6,32.2,120.3,37.4,117.2z"/>
	<path class="st7" d="M15.4,147.3c-1-0.6,0.5-5.3,3.4-10.6c2.9-5.3,6.1-9.2,7.1-8.6c1,0.6-0.5,5.3-3.4,10.7
		C19.6,144,16.5,147.8,15.4,147.3"/>
	<path class="st7" d="M31.8,112.8c2.9-5.3,6.1-9.2,7.1-8.6c1,0.6-0.5,5.3-3.4,10.6c-2.9,5.3-6.1,9.2-7.1,8.6S28.9,118.1,31.8,112.8z
		"/>
	<path class="st7" d="M27.7,150.2c-1.2,0-2.2-4.9-2.4-10.9s0.7-11,1.9-11s2.2,4.9,2.4,10.9C29.7,145.3,28.9,150.2,27.7,150.2"/>
	<path class="st7" d="M26.6,101.2c1.2,0,2.2,4.9,2.4,10.9c0.1,6.1-0.7,11-1.9,11c-1.2,0-2.2-4.8-2.4-10.9
		C24.6,106.1,25.4,101.2,26.6,101.2"/>
	<path class="st8" d="M8.9,109.3c0.8-0.9,5.1,1.7,9.6,5.8c4.5,4,7.5,8,6.7,8.9c-0.8,0.9-5.1-1.7-9.6-5.8
		C11.1,114.2,8.1,110.2,8.9,109.3z"/>
	<path class="st8" d="M29.1,127.5c0.8-0.9,5.1,1.7,9.6,5.8c4.5,4,7.5,8,6.7,8.9s-5.1-1.7-9.6-5.8C31.3,132.3,28.3,128.3,29.1,127.5z
		"/>
	<path class="st8" d="M3.2,120.5c0.2-1.2,5.2-1.1,11.2,0.2c5.9,1.3,10.5,3.2,10.3,4.4c-0.2,1.2-5.2,1.1-11.2-0.2
		C7.5,123.7,2.9,121.7,3.2,120.5z"/>
	<path class="st8" d="M29.7,126.3c0.2-1.1,5.2-1,11.2,0.2c5.9,1.3,10.5,3.2,10.3,4.4c-0.2,1.1-5.2,1-11.2-0.2
		C34.1,129.4,29.5,127.4,29.7,126.3z"/>
	<path class="st8" d="M13.5,127.4c5.8-1.7,10.8-2.1,11.1-1s-4.1,3.4-9.9,5.1c-5.8,1.7-10.8,2.1-11.1,1
		C3.2,131.3,7.7,129.1,13.5,127.4z"/>
	<path class="st8" d="M39.6,119.9c5.8-1.7,10.8-2.1,11.1-1c0.3,1.1-4.1,3.4-9.9,5.1c-5.8,1.7-10.8,2.1-11.1,1S33.8,121.6,39.6,119.9
		z"/>
	<path class="st8" d="M16.2,134c4.2-4.3,8.3-7.2,9.2-6.4c0.8,0.8-1.9,5-6.1,9.4c-4.2,4.3-8.3,7.2-9.2,6.4
		C9.2,142.5,12,138.3,16.2,134z"/>
	<path class="st8" d="M35.1,114.5c4.2-4.3,8.3-7.2,9.2-6.4c0.8,0.8-1.9,5-6.1,9.4c-4.2,4.3-8.3,7.2-9.2,6.4
		C28.1,123,30.9,118.8,35.1,114.5z"/>
	<path class="st8" d="M21.4,149.6c-1.2-0.3-0.9-5.3,0.5-11.1c1.4-5.9,3.5-10.4,4.6-10.2s0.9,5.3-0.5,11.2
		C24.6,145.3,22.5,149.8,21.4,149.6"/>
	<path class="st8" d="M32.9,101.8c1.1,0.3,0.9,5.3-0.5,11.2s-3.5,10.4-4.6,10.2c-1.1-0.3-0.9-5.3,0.5-11.2
		C29.7,106.1,31.8,101.6,32.9,101.8"/>
	<path class="st8" d="M34,149.3c-1.1,0.3-3.4-4.1-5.1-9.9c-1.7-5.8-2.2-10.8-1-11.1s3.4,4.1,5.1,9.9C34.7,144,35.2,148.9,34,149.3"
		/>
	<path class="st8" d="M20.3,102.2c1.1-0.3,3.4,4.1,5.1,9.9c1.7,5.8,2.2,10.8,1,11.1c-1.2,0.3-3.4-4.1-5.1-9.9
		C19.5,107.5,19.1,102.5,20.3,102.2"/>
	<path class="st9" d="M62.8,30.2c5.5,0,10,4.5,10,10s-4.5,10-10,10s-10-4.5-10-10S57.3,30.2,62.8,30.2z"/>
	<path class="st9" d="M27,119.5c3.3,0,6,2.7,6,6s-2.7,6-6,6c-3.3,0-6-2.7-6-6S23.7,119.5,27,119.5z"/>
</g>
</svg>
