<svg id="Layer_1" data-name="Layer 1" xmlns="http://www.w3.org/2000/svg" viewBox="0 0 412.57 400.73"><defs><style>.cls-1,.cls-6{fill:#5d8726;}.cls-2{fill:#df9348;}.cls-3{fill:#b48900;}.cls-4{fill:#71491a;}.cls-5{fill:none;stroke:#008639;}.cls-5,.cls-6{stroke-miterlimit:10;}.cls-6{stroke:#3e5b0c;stroke-width:3px;}</style></defs><path class="cls-1" d="M460.59,0c-18.84-1.64-315,0-366.08,0C82.93,25.72,119.3,32.59,106.42,33.55,86,35.09,64.59,69.28,93.14,98.75c-20.42,0-44.93,31.66-45.07,49.09-.2,23.17,5.76,44.52,32.46,56.07-2.42-1-1.25,34.32,26.91,50.75,30.64,17.87,60.43,11.09,84.26-18.13,9.91,25.09,31.9,43.18,57.7,47,30.82,4.54,62.15-12,77.11-41.36,2.74,3.93,22.71,31.59,58.21,34.21,30.62,2.26,60.53-15,75.87-43.91" transform="translate(-48.06 0.73)"/><path class="cls-2" d="M425.06,79.51c2.29,9.16-6.51,14.19-31.66,12.77h0a233.33,233.33,0,0,1,23,34.72c7.14,13.41,9.19,35.74,9.19,35.74s-190,.26-287,.26c-3.74-8.68-11.62-14.88-15.37-23.56-4.59.51-6.74,1.81-11.33,2.32,3.57,8.85,16.15,18.13,14.45,21.75-.71,1.51-8.67.85-14.45,1,.68,7.49-.68,15.24,0,22.73,30.31-1.25,55.72-.74,90,1.07,86.58,4.6,224.2,9.87,225.25,37.22,2.18,56.64-8,101.15-11.62,174.45h45.15c0-119.77,0-180.81,0-300.57q-5.89,23.59-13.06,24C440.87,123.79,423.78,81,425.06,79.51Z" transform="translate(-48.06 0.73)"/><path class="cls-3" d="M500.63,113.72" transform="translate(-48.06 0.73)"/><path class="cls-4" d="M460.59,205.8v52.92c.3.82-8.52.91-13.74-16.57-2.19-7.35-1.88-33,4.51-35.94C461.77,201.39,460.59,205.8,460.59,205.8Z" transform="translate(-48.06 0.73)"/><path class="cls-5" d="M95.7,153" transform="translate(-48.06 0.73)"/><path class="cls-6" d="M111.38,161.89c1.8,2.77,3,9.6,2.86,14.47a32.47,32.47,0,0,1-5.11,16" transform="translate(-48.06 0.73)"/><path class="cls-6" d="M105.25,146.67c.78.3,8.85,3.3,16.51-1.68S130,131.21,130,130.41" transform="translate(-48.06 0.73)"/><path class="cls-6" d="M384.21,96.7c2.63.87,17.39,5.41,32.34-2.72a40.89,40.89,0,0,0,17.36-18.72" transform="translate(-48.06 0.73)"/></svg>